<svg width="1512" height="1004" viewBox="0 0 1512 1004" fill="none" xmlns="http://www.w3.org/2000/svg">
<g clip-path="url(#clip0_1340_1826)">
<g filter="url(#filter0_f_1340_1826)">
<path d="M254.431 268.477L248.44 260.003C248.624 260.042 248.935 260.059 249.216 259.824L249.216 259.824L249.225 259.816L260.077 250.434L260.479 250.086L260.306 249.583C258.746 245.04 258.183 240.249 258.505 235.407L258.547 234.775L257.938 234.599L245.388 230.966C245.341 230.927 245.274 230.865 245.185 230.778C244.993 230.588 244.737 230.314 244.436 229.976C243.837 229.303 243.088 228.407 242.36 227.49C241.632 226.572 240.935 225.645 240.437 224.909C240.266 224.657 240.124 224.435 240.013 224.248L247.227 221.056L247.568 220.905L247.667 220.546C247.731 220.315 247.859 220.113 248.006 219.978C248.157 219.838 248.282 219.806 248.342 219.806H262.265H262.746L262.966 219.377C265.258 214.891 268.398 210.683 272.267 206.998L272.671 206.613L272.441 206.104L267.2 194.5L267.2 194.5L267.198 194.496C267.193 194.485 267.166 194.409 267.237 194.251C267.306 194.095 267.454 193.909 267.69 193.756L267.69 193.756L267.696 193.752L276.617 187.831C276.618 187.83 276.619 187.829 276.62 187.829C276.864 187.671 277.107 187.6 277.288 187.592C277.428 187.586 277.482 187.615 277.491 187.62L277.492 187.621L286.255 197.167L286.626 197.572L287.134 197.363C292.049 195.339 297.163 194.206 302.153 193.923L302.644 193.895L302.834 193.442L308.156 180.773C308.156 180.772 308.157 180.771 308.157 180.771C308.233 180.597 308.569 180.339 309.07 180.418L309.471 180.482L309.755 180.192L314.574 175.275C314.738 175.451 314.934 175.676 315.154 175.943C315.733 176.641 316.444 177.576 317.134 178.533C317.824 179.489 318.485 180.454 318.966 181.211C319.207 181.591 319.396 181.907 319.519 182.138C319.562 182.218 319.593 182.281 319.615 182.328L318.035 195.554L317.962 196.166L318.539 196.384C323.029 198.076 327.116 200.613 330.601 203.913L331.313 204.588L331.817 203.747L339.474 190.975C339.584 191.086 339.709 191.219 339.847 191.375C340.409 192.008 341.11 192.906 341.812 193.853C343.215 195.742 344.578 197.757 344.778 198.057L350.02 205.958C350.273 206.34 350.148 206.645 350.047 206.73L350.047 206.73L350.037 206.739L339.308 216.038L338.901 216.391L339.083 216.898C340.724 221.483 341.366 226.356 341.085 231.236L341.006 232.611L342.231 231.981L348.606 228.703L353.653 235.337L353.811 235.545L354.062 235.617C354.079 235.622 354.127 235.641 354.17 235.745C354.214 235.854 354.237 236.033 354.176 236.256L354.174 236.262L351.555 246.049C351.555 246.05 351.554 246.051 351.554 246.052C351.49 246.282 351.362 246.482 351.216 246.617C351.065 246.757 350.94 246.789 350.88 246.789H337.408H336.92L336.703 247.225C334.411 251.831 331.191 256.2 327.162 260.006L326.754 260.391L326.985 260.902L332 272.005L331.983 272.016C331.988 272.027 332.015 272.103 331.944 272.261C331.875 272.417 331.727 272.603 331.491 272.756L331.485 272.761L322.564 278.682C322.563 278.682 322.562 278.683 322.561 278.684C322.317 278.842 322.074 278.912 321.893 278.921C321.754 278.927 321.699 278.898 321.69 278.892L313.296 269.717L312.923 269.31L312.413 269.521C307.339 271.625 302.065 272.758 296.912 273L296.416 273.024L296.224 273.481L291.066 285.74C291.066 285.74 291.065 285.741 291.065 285.741C290.99 285.915 290.654 286.174 290.152 286.094L290.145 286.093L290.138 286.092L280.262 284.709C280.213 284.674 280.144 284.618 280.052 284.537C279.844 284.353 279.571 284.083 279.251 283.745C278.614 283.072 277.829 282.172 277.065 281.251C276.301 280.331 275.568 279.401 275.035 278.672C274.802 278.354 274.615 278.083 274.48 277.872L280.909 271.722L281.807 270.862L280.646 270.418C276.113 268.685 271.99 266.109 268.552 262.694L268.151 262.296L267.645 262.549L255.156 268.804L255.155 268.804C255.014 268.875 254.684 268.858 254.444 268.496L254.438 268.486L254.431 268.477ZM239.774 223.77C239.774 223.77 239.776 223.777 239.779 223.79C239.774 223.776 239.773 223.769 239.774 223.77ZM314.209 174.926C314.2 174.92 314.195 174.917 314.195 174.916C314.195 174.916 314.199 174.919 314.209 174.926ZM280.317 284.745C280.317 284.746 280.313 284.744 280.305 284.739C280.313 284.743 280.317 284.745 280.317 284.745ZM287.862 212.79L287.861 212.79C274.328 220.958 269.69 237.881 278.219 249.321C285.508 259.13 300.149 261.09 311.77 254.093L311.77 254.092C325.303 245.925 329.941 229.001 321.413 217.561C314.123 207.753 299.482 205.793 287.862 212.79Z" fill="#76D1F7" stroke="white" stroke-width="1.57391"/>
<path d="M326.526 264.342L326.569 264.437C326.562 264.468 326.55 264.505 326.53 264.549C326.461 264.704 326.313 264.89 326.078 265.043L326.072 265.047L317.162 270.959C317.161 270.96 317.16 270.961 317.159 270.961C316.916 271.119 316.673 271.189 316.492 271.198C316.354 271.204 316.3 271.175 316.29 271.169L307.906 262.008L307.534 261.601L307.024 261.812C301.957 263.913 296.689 265.044 291.543 265.286L291.047 265.31L290.854 265.767L285.703 278.008C285.702 278.008 285.702 278.009 285.702 278.009C285.627 278.182 285.292 278.44 284.791 278.361L284.784 278.36L284.777 278.359L274.805 276.963C274.561 276.923 274.396 276.825 274.311 276.739C274.269 276.697 274.252 276.664 274.245 276.647C274.239 276.632 274.24 276.625 274.241 276.619L274.242 276.611L274.243 276.602L275.797 263.536L275.87 262.927L275.297 262.708C270.77 260.977 266.653 258.405 263.219 254.996L262.818 254.597L262.312 254.85L249.838 261.096L249.837 261.096C249.697 261.167 249.368 261.15 249.128 260.789L243.893 252.9C243.64 252.519 243.765 252.215 243.865 252.131L243.865 252.131L243.875 252.123L254.713 242.755L255.115 242.407L254.943 241.904C253.384 237.368 252.822 232.584 253.143 227.749L253.185 227.117L252.577 226.941L239.939 223.284L239.937 223.284C239.92 223.279 239.872 223.26 239.83 223.157C239.786 223.049 239.763 222.87 239.824 222.648L239.824 222.648L239.827 222.638L242.401 212.869C242.401 212.867 242.402 212.866 242.402 212.865C242.466 212.636 242.593 212.437 242.739 212.302C242.89 212.163 243.014 212.131 243.074 212.131H256.979H257.461L257.68 211.702C259.97 207.223 263.106 203.021 266.97 199.341L267.374 198.956L267.144 198.447L261.909 186.861L261.909 186.861L261.907 186.856C261.902 186.846 261.875 186.771 261.946 186.613C262.016 186.458 262.163 186.272 262.398 186.119L262.398 186.119L262.404 186.115L271.314 180.202C271.315 180.202 271.316 180.201 271.317 180.201C271.56 180.043 271.804 179.972 271.984 179.964C272.123 179.958 272.177 179.987 272.186 179.992L272.187 179.993L280.939 189.525L281.31 189.93L281.818 189.72C286.726 187.7 291.834 186.569 296.818 186.286L297.309 186.258L297.499 185.805L302.814 173.154C302.815 173.154 302.815 173.153 302.815 173.153C302.89 172.98 303.225 172.722 303.726 172.801L303.726 172.801L303.736 172.802L313.583 174.239C313.584 174.239 313.585 174.239 313.587 174.24C313.833 174.28 313.998 174.378 314.084 174.464C314.125 174.506 314.143 174.539 314.149 174.556C314.155 174.571 314.154 174.578 314.154 174.584L314.152 174.592L314.151 174.601L312.556 187.954L312.483 188.567L313.06 188.784C317.545 190.474 321.626 193.007 325.107 196.302L325.507 196.681L326 196.435L338.596 190.149L338.598 190.148C338.739 190.077 339.067 190.094 339.307 190.455L344.542 198.344C344.795 198.725 344.67 199.029 344.57 199.113L344.57 199.113L344.56 199.122L333.844 208.408L333.437 208.76L333.619 209.267C335.258 213.846 335.9 218.711 335.619 223.584L335.583 224.211L336.186 224.385L348.537 227.96L348.539 227.96C348.556 227.965 348.604 227.984 348.646 228.087C348.69 228.195 348.713 228.375 348.652 228.597L348.65 228.603L346.034 238.375C346.034 238.376 346.034 238.377 346.034 238.378C345.97 238.607 345.842 238.807 345.696 238.942C345.546 239.081 345.421 239.113 345.361 239.113H331.906H331.418L331.201 239.549C328.912 244.148 325.696 248.511 321.672 252.311L321.265 252.696L321.496 253.207L326.526 264.342ZM282.421 205.164L282.421 205.165C268.904 213.32 264.272 230.22 272.79 241.644C280.071 251.438 294.694 253.396 306.3 246.408L306.301 246.408C319.817 238.253 324.45 221.354 315.932 209.93C308.652 200.134 294.028 198.177 282.421 205.164Z" fill="url(#paint0_linear_1340_1826)" stroke="white" stroke-width="1.57391"/>
</g>
<path fill-rule="evenodd" clip-rule="evenodd" d="M750.398 494.574L494.766 1108.98L495.689 1109.36L750.215 497.618L630.135 1148.83L631.118 1149.01L751.352 496.969V1160H752.352V497.479L874.808 1148.29L875.791 1148.1L752.952 495.264L998.889 1113.25L999.818 1112.89L753.68 494.387L753.739 494.446L1119.74 1049.29L1120.58 1048.73L757.259 497.966L1224.27 964.98L1224.98 964.273L754.518 493.811L753.839 492.782L753.969 492.806L1314.7 851.991L1315.24 851.149L756.671 493.349L1373.52 737.315L1373.88 736.385L761.419 494.151L1409.27 611.169L1409.44 610.185L757.081 492.352H1420V491.352H755.691L1410.9 379.464L1410.73 378.478L756.972 490.118L1378.16 257.779L1377.81 256.842L756.119 489.37L1315.64 132.282L1315.1 131.439L756.825 487.733L1224.98 19.5781L1224.27 18.871L754.087 489.057L1123.8 -63.9717L1122.97 -64.5275L755.249 485.519L1009.29 -125.055L1008.36 -125.439L752.903 488.554L873.569 -165.826L872.585 -166.007L752.352 486.032V-177H751.352V486.756L628.559 -165.839L627.576 -165.654L750.057 485.284L505.453 -129.36L504.524 -128.99L749.114 485.619L384.369 -67.3155L383.534 -66.7648L750.34 489.294L749.395 488.688L279.578 18.871L278.871 19.5781L745.461 486.168L189.411 129.979L188.871 130.821L747.437 488.621L130.593 244.655L130.225 245.585L750.005 490.713L750.446 491.153L93.7341 372.534L93.5564 373.518L745.919 491.352H83V492.352H743.895L92.8067 603.536L92.975 604.522L746.729 492.882L125.539 725.221L125.889 726.158L747.587 493.629L188.066 850.718L188.604 851.561L749.637 493.507L278.871 964.273L279.578 964.98L747.606 496.951L379.906 1046.97L380.738 1047.53L750.398 494.574Z" fill="url(#paint1_radial_1340_1826)"/>
<g filter="url(#filter1_f_1340_1826)">
<path d="M1388.71 603.588L1388.74 603.612L1381.08 612.001C1380.61 612.516 1379.8 612.554 1379.28 612.085L1320.33 558.618L1330.06 547.946L1388.99 601.39C1389.51 601.859 1389.55 602.672 1389.08 603.186L1388.71 603.588Z" fill="#FFCDF7" stroke="white" stroke-width="1.08814"/>
<path d="M1378.06 598.058L1378.08 598.078L1375.02 601.427C1375 601.429 1374.94 601.429 1374.84 601.399C1374.63 601.34 1374.35 601.192 1374.08 600.949L1323.5 555.073L1327.27 550.941L1377.83 596.796C1378.1 597.039 1378.27 597.299 1378.35 597.501C1378.39 597.604 1378.39 597.661 1378.39 597.687L1378.06 598.058ZM1375.04 601.423C1375.04 601.423 1375.04 601.424 1375.04 601.424C1375.04 601.423 1375.04 601.423 1375.04 601.423ZM1378.39 597.704C1378.39 597.703 1378.39 597.702 1378.39 597.7C1378.39 597.703 1378.39 597.704 1378.39 597.704Z" fill="#FDB4F2" stroke="white" stroke-width="1.08814"/>
<path d="M1310.33 539.636L1310.32 539.646L1329.12 547.354L1319.71 557.68L1310.24 539.754L1310.24 539.745L1310.24 539.737C1310.23 539.72 1310.23 539.712 1310.23 539.707C1310.23 539.697 1310.24 539.679 1310.25 539.661C1310.27 539.643 1310.29 539.635 1310.3 539.633C1310.3 539.632 1310.31 539.63 1310.33 539.636Z" fill="#CADCF1" stroke="white" stroke-width="1.08814"/>
<path d="M1389.06 603.309L1381.04 612.1C1380.57 612.614 1379.75 612.653 1379.24 612.184L1372.08 605.697L1381.84 595L1388.99 601.486C1389.51 601.955 1389.55 602.768 1389.08 603.283L1389.06 603.309Z" fill="#76D1F7" stroke="white" stroke-width="1.08814"/>
<path d="M1310.26 539.63L1310.28 539.636L1310.29 539.641L1316.26 542.086L1313.19 545.446L1310.17 539.743L1310.17 539.735L1310.16 539.727C1310.15 539.71 1310.16 539.702 1310.16 539.697C1310.16 539.687 1310.16 539.669 1310.18 539.651C1310.2 539.633 1310.21 539.625 1310.22 539.623C1310.23 539.622 1310.24 539.619 1310.26 539.63Z" fill="#0DAEF1" stroke="white" stroke-width="1.08814"/>
</g>
<path d="M892.242 827.547L892.817 820.021C895.807 819.238 898.555 817.897 900.954 816.119L907.395 820.335C907.687 820.525 908.134 820.414 908.433 820.077L912.301 815.672C912.597 815.335 912.65 814.878 912.424 814.61L907.465 808.832C908.947 806.269 909.964 803.415 910.412 800.389L918.04 798.796C918.383 798.724 918.619 798.332 918.59 797.88L918.211 792.029C918.181 791.58 917.896 791.219 917.547 791.192L909.842 790.602C909.056 787.688 907.734 785.007 906.001 782.661L910.338 776.039C910.528 775.747 910.416 775.3 910.079 775.001L905.674 771.133C905.337 770.837 904.88 770.784 904.612 771.011L898.669 776.109C896.164 774.664 893.379 773.667 890.429 773.208L888.797 765.395C888.725 765.052 888.333 764.815 887.881 764.845L882.03 765.224C881.581 765.253 881.22 765.539 881.192 765.888L880.593 773.716C877.701 774.478 875.041 775.763 872.701 777.458L866.039 773.097C865.747 772.907 865.301 773.018 865.002 773.355L861.133 777.76C860.837 778.097 860.784 778.554 861.011 778.822L866.081 784.732C864.598 787.248 863.573 790.055 863.092 793.03L855.394 794.636C855.052 794.708 854.815 795.1 854.844 795.552L855.224 801.403C855.253 801.852 855.538 802.213 855.887 802.241L863.539 802.825C864.299 805.79 865.604 808.52 867.34 810.913L863.097 817.394C862.907 817.686 863.018 818.132 863.355 818.431L867.76 822.299C868.097 822.595 868.554 822.648 868.822 822.422L874.567 817.492C877.142 819.012 880.015 820.056 883.066 820.526L884.634 828.041C884.706 828.383 885.098 828.62 885.55 828.591L891.402 828.211C891.85 828.182 892.212 827.897 892.239 827.547L892.242 827.547ZM872.509 797.789C872 789.935 877.952 783.158 885.806 782.649C893.66 782.139 900.438 788.091 900.947 795.945C901.457 803.799 895.504 810.576 887.65 811.085C879.796 811.595 873.019 805.643 872.509 797.789Z" fill="url(#paint2_linear_1340_1826)"/>
<g filter="url(#filter2_f_1340_1826)">
<path d="M1249.92 443.374C1252.19 442.61 1254.11 445.192 1252.72 447.139L1243.98 459.395C1243.36 460.265 1243.38 461.436 1244.01 462.294L1252.98 474.354C1254.41 476.269 1252.55 478.886 1250.27 478.176L1235.88 473.694C1234.86 473.377 1233.75 473.749 1233.13 474.617L1224.39 486.892C1223 488.837 1219.93 487.872 1219.91 485.484L1219.77 470.468C1219.76 469.398 1219.06 468.456 1218.04 468.137L1203.68 463.666C1201.4 462.955 1201.36 459.742 1203.63 458.978L1217.92 454.16C1218.93 453.819 1219.61 452.868 1219.6 451.803L1219.46 436.75C1219.44 434.364 1222.48 433.343 1223.91 435.259L1232.88 447.319C1233.51 448.177 1234.63 448.526 1235.65 448.185L1249.92 443.374Z" fill="url(#paint3_linear_1340_1826)"/>
</g>
</g>
<defs>
<filter id="filter0_f_1340_1826" x="232.704" y="165.704" width="128.591" height="127.487" filterUnits="userSpaceOnUse" color-interpolation-filters="sRGB">
<feFlood flood-opacity="0" result="BackgroundImageFix"/>
<feBlend mode="normal" in="SourceGraphic" in2="BackgroundImageFix" result="shape"/>
<feGaussianBlur stdDeviation="3.14781" result="effect1_foregroundBlur_1340_1826"/>
</filter>
<filter id="filter1_f_1340_1826" x="1305.26" y="534.725" width="89.047" height="82.6829" filterUnits="userSpaceOnUse" color-interpolation-filters="sRGB">
<feFlood flood-opacity="0" result="BackgroundImageFix"/>
<feBlend mode="normal" in="SourceGraphic" in2="BackgroundImageFix" result="shape"/>
<feGaussianBlur stdDeviation="2.17629" result="effect1_foregroundBlur_1340_1826"/>
</filter>
<filter id="filter2_f_1340_1826" x="1197.95" y="430.259" width="59.5312" height="61.6729" filterUnits="userSpaceOnUse" color-interpolation-filters="sRGB">
<feFlood flood-opacity="0" result="BackgroundImageFix"/>
<feBlend mode="normal" in="SourceGraphic" in2="BackgroundImageFix" result="shape"/>
<feGaussianBlur stdDeviation="2" result="effect1_foregroundBlur_1340_1826"/>
</filter>
<linearGradient id="paint0_linear_1340_1826" x1="320.752" y1="172" x2="239" y2="260.933" gradientUnits="userSpaceOnUse">
<stop stop-color="#9CDCF9"/>
<stop offset="1" stop-color="#FFCDF7"/>
</linearGradient>
<radialGradient id="paint1_radial_1340_1826" cx="0" cy="0" r="1" gradientUnits="userSpaceOnUse" gradientTransform="translate(751.5 491.5) rotate(26.2561) scale(573.436)">
<stop stop-color="white"/>
<stop offset="1" stop-color="white" stop-opacity="0"/>
</radialGradient>
<linearGradient id="paint2_linear_1340_1826" x1="1016.75" y1="736" x2="833.63" y2="808.284" gradientUnits="userSpaceOnUse">
<stop stop-color="#F45D72"/>
<stop offset="1" stop-color="#87DAFC"/>
</linearGradient>
<linearGradient id="paint3_linear_1340_1826" x1="1210.05" y1="434.066" x2="1250.06" y2="487.996" gradientUnits="userSpaceOnUse">
<stop stop-color="#FFCDF7"/>
<stop offset="1" stop-color="#0DAEF1"/>
</linearGradient>
<clipPath id="clip0_1340_1826">
<rect width="1512" height="1004" fill="white"/>
</clipPath>
</defs>
</svg>
