<svg xmlns="http://www.w3.org/2000/svg" width="1512" height="1004" fill="none"><g clip-path="url(#a)"><g stroke="#fff" stroke-width="1.574" filter="url(#b)"><path fill="#76D1F7" d="m254.431 268.477-5.991-8.474a.89.89 0 0 0 .776-.179l.009-.008 10.852-9.382.402-.348-.173-.503c-1.56-4.543-2.123-9.334-1.801-14.176l.042-.632-.609-.176-12.55-3.633a4 4 0 0 1-.203-.188c-.192-.19-.448-.464-.749-.802a61 61 0 0 1-2.076-2.486 45 45 0 0 1-1.923-2.581 13 13 0 0 1-.424-.661l7.214-3.192.341-.151.099-.359a1.23 1.23 0 0 1 .339-.568c.151-.14.276-.172.336-.172h14.404l.22-.429c2.292-4.486 5.432-8.694 9.301-12.379l.404-.385-.23-.509L267.2 194.5l-.002-.004c-.005-.011-.032-.087.039-.245.069-.156.217-.342.453-.495l.006-.004 8.921-5.921.003-.002c.244-.158.487-.229.668-.237.14-.006.194.023.203.028l.001.001 8.763 9.546.371.405.508-.209a46.5 46.5 0 0 1 15.019-3.44l.491-.028.19-.453 5.322-12.669.001-.002c.076-.174.412-.432.913-.353l.401.064.284-.29 4.819-4.917c.164.176.36.401.58.668a51 51 0 0 1 1.98 2.59c.69.956 1.351 1.921 1.832 2.678.241.38.43.696.553.927q.064.12.096.19l-1.58 13.226-.073.612.577.218a35.9 35.9 0 0 1 12.062 7.529l.712.675.504-.841 7.657-12.772q.166.166.373.4c.562.633 1.263 1.531 1.965 2.478a121 121 0 0 1 2.966 4.204l5.242 7.901c.253.382.128.687.027.772l-.01.009-10.729 9.299-.407.353.182.507c1.641 4.585 2.283 9.458 2.002 14.338l-.079 1.375 1.225-.63 6.375-3.278 5.047 6.634.158.208.251.072c.017.005.065.024.108.128a.8.8 0 0 1 .006.511l-.002.006-2.619 9.787-.001.003c-.064.23-.192.43-.338.565-.151.14-.276.172-.336.172h-13.96l-.217.436c-2.292 4.606-5.512 8.975-9.541 12.781l-.408.385.231.511L332 272.005l-.017.011c.005.011.032.087-.039.245a1.2 1.2 0 0 1-.453.495l-.006.005-8.921 5.921-.003.002a1.4 1.4 0 0 1-.668.237c-.139.006-.194-.023-.203-.029l-8.394-9.175-.373-.407-.51.211A46.2 46.2 0 0 1 296.912 273l-.496.024-.192.457-5.158 12.259-.001.001c-.075.174-.411.433-.913.353l-.007-.001-.007-.001-9.876-1.383a3 3 0 0 1-.21-.172 14 14 0 0 1-.801-.792 54 54 0 0 1-2.186-2.494 56 56 0 0 1-2.03-2.579c-.233-.318-.42-.589-.555-.8l6.429-6.15.898-.86-1.161-.444c-4.533-1.733-8.656-4.309-12.094-7.724l-.401-.398-.506.253-12.489 6.255h-.001c-.141.071-.471.054-.711-.308l-.006-.01zm-14.657-44.707Zm74.435-48.844-.014-.01zm-33.892 109.819-.012-.006zm7.545-71.955h-.001c-13.533 8.168-18.171 25.091-9.642 36.531 7.289 9.809 21.93 11.769 33.551 4.772v-.001c13.533-8.167 18.171-25.091 9.643-36.531-7.29-9.808-21.931-11.768-33.551-4.771Z"/><path fill="url(#c)" d="m326.526 264.342.043.095a.6.6 0 0 1-.039.112 1.2 1.2 0 0 1-.452.494l-.006.004-8.91 5.912-.003.002a1.4 1.4 0 0 1-.667.237c-.138.006-.192-.023-.202-.029l-8.384-9.161-.372-.407-.51.211a46.2 46.2 0 0 1-15.481 3.474l-.496.024-.193.457-5.151 12.241-.001.001c-.075.173-.41.431-.911.352l-.007-.001-.007-.001-9.972-1.396c-.244-.04-.409-.138-.494-.224a.3.3 0 0 1-.066-.092q-.007-.02-.004-.028l.001-.008.001-.009 1.554-13.066.073-.609-.573-.219c-4.527-1.731-8.644-4.303-12.078-7.712l-.401-.399-.506.253-12.474 6.246h-.001c-.14.071-.469.054-.709-.307l-5.235-7.889c-.253-.381-.128-.685-.028-.769l.01-.008 10.838-9.368.402-.348-.172-.503c-1.559-4.536-2.121-9.32-1.8-14.155l.042-.632-.608-.176-12.638-3.657h-.002c-.017-.005-.065-.024-.107-.127a.8.8 0 0 1-.006-.509l.003-.01 2.574-9.769.001-.004a1.23 1.23 0 0 1 .337-.563c.151-.139.275-.171.335-.171h14.387l.219-.429c2.29-4.479 5.426-8.681 9.29-12.361l.404-.385-.23-.509-5.235-11.586-.002-.005c-.005-.01-.032-.085.039-.243a1.2 1.2 0 0 1 .452-.494l.006-.004 8.91-5.913.003-.001c.243-.158.487-.229.667-.237.139-.006.193.023.202.028l.001.001 8.752 9.532.371.405.508-.21a46.5 46.5 0 0 1 15-3.434l.491-.028.19-.453 5.315-12.651.001-.001c.075-.173.41-.431.911-.352l.01.001 9.847 1.437.004.001c.246.04.411.138.497.224a.3.3 0 0 1 .065.092q.007.02.005.028l-.002.008-.001.009-1.595 13.353-.073.613.577.217a35.9 35.9 0 0 1 12.047 7.518l.4.379.493-.246 12.596-6.286.002-.001c.141-.071.469-.054.709.307l5.235 7.889c.253.381.128.685.028.769l-.01.009-10.716 9.286-.407.352.182.507c1.639 4.579 2.281 9.444 2 14.317l-.036.627.603.174 12.351 3.575h.002c.017.005.065.024.107.127a.8.8 0 0 1 .006.51l-.002.006-2.616 9.772v.003a1.24 1.24 0 0 1-.338.564c-.15.139-.275.171-.335.171h-13.943l-.217.436c-2.289 4.599-5.505 8.962-9.529 12.762l-.407.385.231.511zm-44.105-59.178v.001c-13.517 8.155-18.149 25.055-9.631 36.479 7.281 9.794 21.904 11.752 33.51 4.764h.001c13.516-8.155 18.149-25.054 9.631-36.478-7.28-9.796-21.904-11.753-33.511-4.766Z"/></g><path fill="url(#d)" fill-rule="evenodd" d="M750.398 494.574 494.766 1108.98l.923.38 254.526-611.742-120.08 651.212.983.18 120.234-652.041V1160h1V497.479l122.456 650.811.983-.19-122.839-652.836 245.937 617.986.929-.36L753.68 494.387l.059.059 366.001 554.844.84-.56-363.321-550.764L1224.27 964.98l.71-.707-470.462-470.462-.679-1.029.13.024L1314.7 851.991l.54-.842-558.569-357.8 616.849 243.966.36-.93-612.461-242.234 647.851 117.018.17-.984-652.359-117.833H1420v-1H755.691L1410.9 379.464l-.17-.986-653.758 111.64 621.188-232.339-.35-.937L756.119 489.37l559.521-357.088-.54-.843-558.275 356.294L1224.98 19.578l-.71-.707-470.183 470.186L1123.8-63.972l-.83-.556L755.249 485.52l254.041-610.574-.93-.384-255.457 613.993 120.666-654.38-.984-.181-120.233 652.039V-177h-1v663.756L628.559-165.839l-.983.185 122.481 650.938L505.453-129.36l-.929.37 244.59 614.609L384.369-67.316l-.835.551L750.34 489.294l-.945-.606L279.578 18.871l-.707.707 466.59 466.59-556.05-356.189-.54.842 558.566 357.8-616.844-243.966-.368.93 619.78 245.128.441.44L93.734 372.534l-.178.984L745.92 491.352H83v1h660.895L92.807 603.536l.168.986 653.754-111.64-621.19 232.339.35.937 621.698-232.529-559.521 357.089.538.843 561.033-358.054-470.766 470.766.707.707 468.028-468.029-367.7 550.019.832.56z" clip-rule="evenodd"/><g stroke="#fff" stroke-width="1.088" filter="url(#e)"><path fill="#FFCDF7" d="m1388.71 603.588.03.024-7.66 8.389c-.47.515-1.28.553-1.8.084l-58.95-53.467 9.73-10.672 58.93 53.444c.52.469.56 1.282.09 1.796z"/><path fill="#FDB4F2" d="m1378.06 598.058.02.02-3.06 3.349a.5.5 0 0 1-.18-.028 2 2 0 0 1-.76-.45l-50.58-45.876 3.77-4.132 50.56 45.855c.27.243.44.503.52.705.04.103.04.16.04.186zm-3.02 3.365v.001zm3.35-3.719v-.004z"/><path fill="#CADCF1" d="m1310.33 539.636-.01.01 18.8 7.708-9.41 10.326-9.47-17.926v-.017c-.01-.017-.01-.025-.01-.03 0-.01.01-.028.02-.046a.1.1 0 0 1 .05-.028c0-.001.01-.003.03.003Z"/><path fill="#76D1F7" d="m1389.06 603.309-8.02 8.791c-.47.514-1.29.553-1.8.084l-7.16-6.487 9.76-10.697 7.15 6.486c.52.469.56 1.282.09 1.797z"/><path fill="#0DAEF1" d="m1310.26 539.63.02.006.01.005 5.97 2.445-3.07 3.36-3.02-5.703v-.008l-.01-.008c-.01-.017 0-.025 0-.03 0-.01 0-.028.02-.046s.03-.026.04-.028c.01-.001.02-.004.04.007Z"/></g><path fill="url(#f)" d="m892.242 827.547.575-7.526a23.8 23.8 0 0 0 8.137-3.902l6.441 4.216c.292.19.739.079 1.038-.258l3.868-4.405c.296-.337.349-.794.123-1.062l-4.959-5.778a23.8 23.8 0 0 0 2.947-8.443l7.628-1.593c.343-.072.579-.464.55-.916l-.379-5.851c-.03-.449-.315-.81-.664-.837l-7.705-.59a23.8 23.8 0 0 0-3.841-7.941l4.337-6.622c.19-.292.078-.739-.259-1.038l-4.405-3.868c-.337-.296-.794-.349-1.062-.122l-5.943 5.098a23.8 23.8 0 0 0-8.24-2.901l-1.632-7.813c-.072-.343-.464-.58-.916-.55l-5.851.379c-.449.029-.81.315-.838.664l-.599 7.828a23.8 23.8 0 0 0-7.892 3.742l-6.662-4.361c-.292-.19-.738-.079-1.037.258l-3.869 4.405c-.296.337-.349.794-.122 1.062l5.07 5.91a23.8 23.8 0 0 0-2.989 8.298l-7.698 1.606c-.342.072-.579.464-.55.916l.38 5.851c.029.449.314.81.663.838l7.652.584a23.8 23.8 0 0 0 3.801 8.088l-4.243 6.481c-.19.292-.079.738.258 1.037l4.405 3.868c.337.296.794.349 1.062.123l5.745-4.93a23.8 23.8 0 0 0 8.499 3.034l1.568 7.515c.072.342.464.579.916.55l5.852-.38c.448-.029.81-.314.837-.664zm-19.733-29.758c-.509-7.854 5.443-14.631 13.297-15.14s14.632 5.442 15.141 13.296-5.443 14.631-13.297 15.14-14.631-5.442-15.141-13.296"/><g filter="url(#g)"><path fill="url(#h)" d="M1249.92 443.374c2.27-.764 4.19 1.818 2.8 3.765l-8.74 12.256c-.62.87-.6 2.041.03 2.899l8.97 12.06c1.43 1.915-.43 4.532-2.71 3.822l-14.39-4.482a2.48 2.48 0 0 0-2.75.923l-8.74 12.275c-1.39 1.945-4.46.98-4.48-1.408l-.14-15.016a2.47 2.47 0 0 0-1.73-2.331l-14.36-4.471c-2.28-.711-2.32-3.924-.05-4.688l14.29-4.818a2.47 2.47 0 0 0 1.68-2.357l-.14-15.053c-.02-2.386 3.02-3.407 4.45-1.491l8.97 12.06a2.46 2.46 0 0 0 2.77.866z"/></g></g><defs><linearGradient id="c" x1="320.752" x2="239" y1="172" y2="260.933" gradientUnits="userSpaceOnUse"><stop stop-color="#9CDCF9"/><stop offset="1" stop-color="#FFCDF7"/></linearGradient><linearGradient id="f" x1="1016.75" x2="833.63" y1="736" y2="808.284" gradientUnits="userSpaceOnUse"><stop stop-color="#F45D72"/><stop offset="1" stop-color="#87DAFC"/></linearGradient><linearGradient id="h" x1="1210.05" x2="1250.06" y1="434.066" y2="487.996" gradientUnits="userSpaceOnUse"><stop stop-color="#FFCDF7"/><stop offset="1" stop-color="#0DAEF1"/></linearGradient><filter id="b" width="128.591" height="127.487" x="232.704" y="165.704" color-interpolation-filters="sRGB" filterUnits="userSpaceOnUse"><feFlood flood-opacity="0" result="BackgroundImageFix"/><feBlend in="SourceGraphic" in2="BackgroundImageFix" result="shape"/><feGaussianBlur result="effect1_foregroundBlur_1340_1826" stdDeviation="3.148"/></filter><filter id="e" width="89.047" height="82.683" x="1305.26" y="534.725" color-interpolation-filters="sRGB" filterUnits="userSpaceOnUse"><feFlood flood-opacity="0" result="BackgroundImageFix"/><feBlend in="SourceGraphic" in2="BackgroundImageFix" result="shape"/><feGaussianBlur result="effect1_foregroundBlur_1340_1826" stdDeviation="2.176"/></filter><filter id="g" width="59.531" height="61.673" x="1197.95" y="430.259" color-interpolation-filters="sRGB" filterUnits="userSpaceOnUse"><feFlood flood-opacity="0" result="BackgroundImageFix"/><feBlend in="SourceGraphic" in2="BackgroundImageFix" result="shape"/><feGaussianBlur result="effect1_foregroundBlur_1340_1826" stdDeviation="2"/></filter><radialGradient id="d" cx="0" cy="0" r="1" gradientTransform="rotate(26.256 -677.96 1856.866)scale(573.436)" gradientUnits="userSpaceOnUse"><stop stop-color="#fff"/><stop offset="1" stop-color="#fff" stop-opacity="0"/></radialGradient><clipPath id="a"><path fill="#fff" d="M0 0h1512v1004H0z"/></clipPath></defs></svg>