<svg width="161" height="55" viewBox="0 0 161 55" fill="none" xmlns="http://www.w3.org/2000/svg">
<path d="M0 31.9439V0H160.852L159.266 31.9439L154.509 36.7015H4.7576L0 31.9439Z" fill="#BAE8FC"/>
<path d="M4.75761 36.928L0.226562 32.1704H159.266L154.056 36.928H4.75761Z" fill="#0DAEF1"/>
<path d="M77.7076 54.5992V34.436H74.7625V54.5992H77.7076Z" fill="#225C90"/>
<path d="M130.721 42.1388C131.628 38.6952 131.854 35.5688 131.854 34.436H129.361L128.909 38.7405C128.184 43.8153 128.607 47.5006 128.909 48.7088C132.352 57.9522 133.817 48.7844 134.119 43.045H131.854C131.903 48.8448 131.119 49.9926 130.721 49.8416C130.344 48.7088 129.815 45.5824 130.721 42.1388Z" fill="#225C90"/>
<path d="M21.0687 42.3654C20.1625 38.9218 19.9359 35.7954 19.9359 34.6626H22.4286L22.8814 38.9671C23.6064 44.0419 23.1835 47.7271 22.8814 48.9354C19.4378 58.1788 17.9728 49.0109 17.6707 43.2716H19.9359C19.8868 49.0713 20.6706 50.2192 21.0687 50.0682C21.4463 48.9354 21.9749 45.809 21.0687 42.3654Z" fill="#225C90"/>
</svg>
