<svg width="33" height="79" viewBox="0 0 33 79" fill="none" xmlns="http://www.w3.org/2000/svg">
<path fill-rule="evenodd" clip-rule="evenodd" d="M1.4585 30.1416L11.6677 23.3354L23.8216 30.1416L23.3354 44.7262L17.5016 49.8308V53.9631L16.0431 55.1785L16.7723 76.8123L13.3693 79L9.96618 76.8123V61.7416L8.99387 61.0123V50.8031L6.56311 48.8585V47.6431C5.42875 46.9949 2.81973 45.0179 1.4585 42.2954V30.1416ZM5.83402 30.3847L11.6679 26.7385L18.9602 31.1139L7.53556 33.3016C6.64428 33.1395 5.05618 32.3293 5.83402 30.3847Z" fill="#225C90"/>
<path fill-rule="evenodd" clip-rule="evenodd" d="M8.9939 29.8984L18.4739 22.363L30.3846 26.7384L32.3293 40.8369L28.44 44.7261V47.8861L26.9816 49.3446L30.3846 73.8953L28.44 77.7845H26.9816L22.3631 73.8953L23.0923 72.1938L21.3908 70.0061L23.0923 68.3045V67.0892L21.3908 66.1168L22.3631 64.9015V63.6861L21.3908 62.4707L23.0923 61.0122V58.8245L21.3908 57.8522L22.3631 56.8799L21.877 54.9353L18.2308 52.2615V50.3169L15.8 49.3446V46.4276C14.5847 45.8605 11.6677 44.3372 9.72313 42.7815L8.9939 29.8984ZM12.883 31.1139L19.6892 26.9816L26.9815 28.9262C27.3866 29.2503 27.8079 30.093 26.2522 30.8709L13.8553 31.8432L12.883 31.1139Z" fill="url(#paint0_linear_764_1107)"/>
<path d="M28.9261 15.0708C28.9261 23.0026 22.6029 29.4123 14.8277 29.4123C7.05245 29.4123 0.72923 23.0026 0.72923 15.0708C0.72923 7.13893 7.05245 0.72923 14.8277 0.72923C22.6029 0.72923 28.9261 7.13893 28.9261 15.0708Z" stroke="#225C90" stroke-width="1.45846"/>
<defs>
<linearGradient id="paint0_linear_764_1107" x1="20.6616" y1="22.363" x2="20.6616" y2="77.7845" gradientUnits="userSpaceOnUse">
<stop offset="0.455" stop-color="#0DAEF1"/>
<stop offset="1" stop-color="#07648B"/>
</linearGradient>
</defs>
</svg>
