<svg width="67" height="197" viewBox="0 0 67 197" fill="none" xmlns="http://www.w3.org/2000/svg">
<g id="Keys">
<g id="Group 121">
<path id="Subtract" fill-rule="evenodd" clip-rule="evenodd" d="M3 96.5L24 82.5L49 96.5L48 126.5L36 137V145.5L33 148L34.5 192.5L27.5 197L20.5 192.5V161.5L18.5 160V139L13.5 135V132.5C11.1667 131.167 5.8 127.1 3 121.5V96.5ZM12.0005 97L24.0005 89.5L39.0005 98.5L15.5005 103C13.6672 102.667 10.4005 101 12.0005 97Z" fill="#225C90"/>
<path id="Subtract_2" fill-rule="evenodd" clip-rule="evenodd" d="M18.5 96L38 80.5L62.5 89.5L66.5 118.5L58.5 126.5V133L55.5 136L62.5 186.5L58.5 194.5H55.5L46 186.5L47.5 183L44 178.5L47.5 175V172.5L44 170.5L46 168V165.5L44 163L47.5 160V155.5L44 153.5L46 151.5L45 147.5L37.5 142V138L32.5 136V130C30 128.833 24 125.7 20 122.5L18.5 96ZM26.5 98.5L40.5 90L55.5 94C56.3333 94.6667 57.2 96.4 54 98L28.5 100L26.5 98.5Z" fill="url(#paint0_linear_877_746)"/>
<path id="Ellipse 121" d="M59.5 65.5C59.5 81.8155 46.4934 95 30.5 95C14.5066 95 1.5 81.8155 1.5 65.5C1.5 49.1845 14.5066 36 30.5 36C46.4934 36 59.5 49.1845 59.5 65.5Z" stroke="#225C90" stroke-width="3"/>
<g id="Group 122">
<path id="Vector 418" d="M27.8842 26C29.8842 18.4 30.3842 11.5 30.3842 9H24.8828L23.8834 18.5C22.2834 29.7 23.2168 37.8333 23.8834 40.5C31.4834 60.9 34.7168 40.6667 35.3834 28H30.3842C30.4926 40.8 28.7627 43.3333 27.8842 43C27.0509 40.5 25.8842 33.6 27.8842 26Z" fill="#225C90"/>
<path id="Subtract_3" fill-rule="evenodd" clip-rule="evenodd" d="M27.5 13C31.0899 13 34 10.0899 34 6.5C34 2.91015 31.0899 0 27.5 0C23.9101 0 21 2.91015 21 6.5C21 10.0899 23.9101 13 27.5 13ZM27.5 9C28.8807 9 30 7.88071 30 6.5C30 5.11929 28.8807 4 27.5 4C26.1193 4 25 5.11929 25 6.5C25 7.88071 26.1193 9 27.5 9Z" fill="#225C90"/>
</g>
</g>
</g>
<defs>
<linearGradient id="paint0_linear_877_746" x1="42.5" y1="80.5" x2="42.5" y2="194.5" gradientUnits="userSpaceOnUse">
<stop offset="0.455" stop-color="#0DAEF1"/>
<stop offset="1" stop-color="#07648B"/>
</linearGradient>
</defs>
</svg>
