<svg xmlns="http://www.w3.org/2000/svg" width="393" height="870" fill="none"><path fill="url(#a)" fill-rule="evenodd" d="M198.317 430.034 276.262 7.332l-1.302-.24-77.569 420.665V0h-1.324v428.299L116.832 7.2l-1.301.245 79.056 420.151-157.88-396.72-1.23.49 157.944 396.882-235.536-357.06-1.105.729 237.285 359.712-304.412-304.412-.936.936 301.414 301.414-359.206-230.096-.714 1.115 360.537 230.949-398.155-157.473-.487 1.232 401.239 158.693-424.8-76.73-.236 1.303 420.798 76.007H-238.5v1.324h426.08l-419.755 71.68.223 1.306 421.897-72.047-400.882 149.94.464 1.24 401.551-150.19-361.392 230.643.712 1.116L192.867 438.25l-304.15 304.15.936.936 302.131-302.131L-45.58 796.264l1.1.736 238.632-356.953L29.13 836.67l1.223.509 164.405-395.142-77.563 420.631 1.302.24 77.57-420.668V870h1.324V442.498l79.017 419.943 1.301-.244-79.288-421.386 158.745 398.896 1.23-.489-158.97-399.462 236.411 358.386 1.106-.729-234.587-355.621L503.9 743.336l.936-.936-305.12-305.12 363.081 232.579.715-1.115-360.536-230.948 398.152 157.471.487-1.231-395.38-156.376 418.22 75.542.236-1.303-420.803-76.008H631.5v-1.324H203.201l422.432-72.138-.223-1.305-421.9 72.047 400.885-149.94-.464-1.241-401.555 150.191 361.396-230.645-.713-1.116-360.674 230.184 302.451-302.451-.936-.936-303.534 303.534L439.038 73.736 437.937 73 200.575 428.056 364.557 33.931l-1.223-.509z" clip-rule="evenodd"/><g stroke="#fff" stroke-width="1.088" filter="url(#b)"><path fill="#76D1F7" d="m57.643 164.705-4.131-5.859a.61.61 0 0 0 .535-.124l.006-.006 7.484-6.487.277-.24-.119-.347c-1.076-3.141-1.464-6.454-1.242-9.802l.029-.437-.42-.122-8.656-2.511a3 3 0 0 1-.139-.13c-.133-.132-.31-.321-.517-.554a42 42 0 0 1-1.431-1.719 31 31 0 0 1-1.327-1.785 9 9 0 0 1-.292-.458l4.975-2.207.235-.104.069-.249a.85.85 0 0 1 .233-.392c.104-.097.19-.119.23-.119h9.936l.151-.297c1.581-3.101 3.747-6.011 6.415-8.559l.278-.266-.158-.351-3.614-8.023-.002-.003c-.004-.008-.022-.06.027-.17a.83.83 0 0 1 .312-.342l.004-.003 6.153-4.094.002-.001a.97.97 0 0 1 .46-.164c.094-.004.131.015.138.02l6.044 6.6.257.281.352-.145a32 32 0 0 1 10.357-2.378l.34-.02.131-.313 3.67-8.76v-.001c.053-.12.284-.299.628-.244l.278.044.197-.201 3.322-3.398q.17.184.399.46c.399.483.889 1.13 1.365 1.791s.932 1.328 1.263 1.852c.167.262.297.481.382.641q.044.084.066.131l-1.09 9.145-.05.423.398.151a24.7 24.7 0 0 1 8.319 5.206l.492.467.349-.583 5.28-8.828q.113.115.255.274c.388.438.871 1.059 1.355 1.714a84 84 0 0 1 2.046 2.907l3.614 5.462c.176.265.089.476.02.535l-.007.006-7.4 6.43-.28.243.125.35c1.132 3.171 1.575 6.54 1.381 9.914l-.054.952.847-.437 4.394-2.266 3.48 4.586.109.144.174.05c.011.004.044.016.074.088.03.076.046.2.004.354l-.001.005-1.807 6.766v.003a.86.86 0 0 1-.233.39c-.104.097-.19.118-.231.118h-9.628l-.15.303c-1.581 3.184-3.802 6.205-6.58 8.837l-.281.266.159.352 3.458 7.677-.011.008c.003.008.022.06-.027.17a.83.83 0 0 1-.312.342l-.005.003-6.152 4.094-.002.001a1 1 0 0 1-.46.164c-.094.004-.131-.015-.138-.02l-5.79-6.343-.257-.283-.353.147a31.8 31.8 0 0 1-10.69 2.406l-.343.016-.133.316-3.557 8.476v.001c-.053.121-.284.299-.629.244l-.01-.002-6.81-.956a2 2 0 0 1-.144-.118 10 10 0 0 1-.552-.548 37 37 0 0 1-1.508-1.724 39 39 0 0 1-1.4-1.784c-.16-.22-.29-.407-.383-.553l4.434-4.253.619-.594-.801-.307c-3.126-1.198-5.969-2.979-8.34-5.34l-.278-.276-.35.176-8.613 4.324h-.001c-.096.048-.322.038-.488-.212l-.004-.007zm-10.108-30.911.003.014zm51.332-33.772q-.01-.005-.01-.006zm-18.17 26.181h-.001c-9.333 5.647-12.531 17.347-6.65 25.256 5.027 6.783 15.126 8.139 23.14 3.3h.001c9.334-5.647 12.532-17.348 6.651-25.257-5.028-6.782-15.126-8.138-23.141-3.299Z"/><path fill="url(#c)" d="m107.361 161.846.03.066a.4.4 0 0 1-.027.078.84.84 0 0 1-.311.341l-.005.003-6.144 4.088-.002.001a.95.95 0 0 1-.459.163c-.094.005-.131-.015-.138-.019l-5.782-6.334-.258-.283-.353.147a31.8 31.8 0 0 1-10.676 2.402l-.343.016-.133.317-3.553 8.463v.001c-.051.12-.282.298-.626.243l-.01-.001-6.873-.965-.004-.001a.62.62 0 0 1-.34-.154.2.2 0 0 1-.046-.064.03.03 0 0 1-.003-.019l.002-.013 1.072-9.033.05-.421-.396-.152c-3.122-1.196-5.96-2.974-8.329-5.331l-.278-.277-.35.176-8.603 4.318c-.095.048-.321.038-.486-.212l-3.61-5.454c-.176-.264-.09-.475-.02-.533l.006-.006 7.475-6.477.277-.24-.119-.347c-1.074-3.137-1.462-6.444-1.24-9.788l.028-.436-.42-.122-8.716-2.528v-.001c-.012-.003-.045-.015-.074-.087a.56.56 0 0 1-.004-.353l.002-.007 1.775-6.754v-.003a.85.85 0 0 1 .233-.389c.104-.096.19-.118.23-.118h9.923l.151-.297c1.58-3.097 3.742-6.002 6.407-8.546l.279-.266-.159-.351-3.61-8.012-.002-.003c-.003-.007-.021-.06.027-.169a.84.84 0 0 1 .312-.341l.004-.003 6.145-4.088.002-.001a.97.97 0 0 1 .459-.164c.094-.004.13.015.138.02l6.036 6.59.257.281.352-.145a32 32 0 0 1 10.344-2.375l.34-.019.13-.313 3.666-8.747v-.001c.052-.12.283-.298.627-.243h.007l6.79.994h.004c.169.028.283.096.341.155.029.029.041.052.046.064q.004.015.003.02l-.002.011-1.1 9.233-.05.423.398.151a24.7 24.7 0 0 1 8.308 5.198l.277.262.341-.171 8.687-4.346.002-.001c.095-.047.32-.037.486.212l3.61 5.455c.175.264.088.475.019.533l-.007.006-7.39 6.42-.28.244.125.35c1.13 3.165 1.573 6.529 1.379 9.899l-.025.433.417.121 8.518 2.471h.001c.011.004.044.016.074.088.03.075.046.199.004.353l-.002.004-1.804 6.757v.002a.85.85 0 0 1-.233.39c-.104.096-.189.118-.229.118h-9.617l-.15.302c-1.579 3.18-3.797 6.196-6.572 8.824l-.281.265.159.353zM76.945 120.93v.001c-9.323 5.639-12.517 17.323-6.643 25.221 5.022 6.772 15.108 8.126 23.113 3.294 9.323-5.639 12.517-17.322 6.643-25.22-5.021-6.773-15.108-8.127-23.113-3.296Z"/></g><g stroke="#fff" stroke-width="1.088" filter="url(#d)"><path fill="#FFCDF7" d="m375.185 787.501.027.021-7.366 6.748c-.404.371-1.18.417-1.72.004l-59.835-45.761 9.337-8.554 59.807 45.74c.541.413.556 1.064.151 1.435z"/><path fill="#FDB4F2" d="m364.465 782.66.023.017-2.884 2.642a1 1 0 0 1-.149-.025 2.2 2.2 0 0 1-.758-.392l-51.334-39.259 3.559-3.26 51.31 39.241c.273.209.452.429.534.597a.5.5 0 0 1 .044.122z"/><path fill="#CADCF1" d="m295.847 732.641-.002.008 18.754 6.794-8.997 8.246-9.8-15.058a.2.2 0 0 1 .045.01Z"/><path fill="#76D1F7" d="m375.568 787.233-7.769 7.118c-.405.371-1.181.417-1.721.003l-7.24-5.537 9.362-8.578 7.24 5.538c.541.413.556 1.064.151 1.435z"/><path fill="#0DAEF1" d="m295.79 732.636.01.004.011.004 5.871 2.125-2.845 2.608-3.104-4.756a.2.2 0 0 1 .057.015Z"/></g><path fill="url(#e)" d="m279.143 860.547.573-7.526a23.7 23.7 0 0 0 8.117-3.902l6.425 4.216c.291.19.736.079 1.034-.258l3.859-4.405c.295-.337.348-.794.122-1.062l-4.946-5.778a23.9 23.9 0 0 0 2.94-8.443l7.608-1.593c.342-.072.578-.464.549-.916l-.379-5.851c-.029-.449-.313-.81-.662-.837l-7.685-.59a23.8 23.8 0 0 0-3.832-7.941l4.326-6.622c.19-.292.079-.739-.258-1.038l-4.393-3.868c-.337-.296-.792-.349-1.06-.122l-5.928 5.098a23.7 23.7 0 0 0-8.219-2.901l-1.627-7.813c-.072-.343-.463-.58-.914-.55l-5.837.379c-.447.029-.807.315-.835.664l-.598 7.828a23.7 23.7 0 0 0-7.871 3.742l-6.646-4.361c-.291-.19-.736-.079-1.035.258l-3.858 4.405c-.296.337-.348.794-.122 1.062l5.057 5.91a23.9 23.9 0 0 0-2.981 8.298l-7.678 1.606c-.342.072-.578.464-.549.916l.378 5.851c.029.449.314.81.662.838l7.632.584a23.9 23.9 0 0 0 3.792 8.088l-4.233 6.481c-.189.292-.078.738.258 1.037l4.394 3.868c.336.296.792.349 1.059.123l5.731-4.93a23.7 23.7 0 0 0 8.477 3.034l1.564 7.515c.072.342.463.579.914.55l5.837-.38c.447-.029.807-.314.835-.664zm-19.683-29.758c-.508-7.854 5.429-14.631 13.263-15.14 7.835-.51 14.595 5.442 15.103 13.296s-5.429 14.631-13.263 15.14-14.595-5.442-15.103-13.296"/><g filter="url(#f)"><path fill="url(#g)" d="M259.742 742.376c2.265-.765 4.181 1.819 2.796 3.768l-8.708 12.249a2.47 2.47 0 0 0 .029 2.902l8.939 12.05c1.422 1.917-.436 4.538-2.714 3.827l-14.336-4.477a2.46 2.46 0 0 0-2.743.926l-8.718 12.263c-1.384 1.948-4.45.984-4.472-1.407l-.138-15.008a2.47 2.47 0 0 0-1.73-2.332l-14.31-4.469c-2.279-.712-2.316-3.929-.053-4.693l14.244-4.814a2.47 2.47 0 0 0 1.677-2.361l-.138-15.037c-.022-2.389 3.021-3.413 4.443-1.495l8.939 12.05a2.46 2.46 0 0 0 2.766.866z"/></g><defs><linearGradient id="c" x1="103.381" x2="46.845" y1="98" y2="159.346" gradientUnits="userSpaceOnUse"><stop stop-color="#9CDCF9"/><stop offset="1" stop-color="#FFCDF7"/></linearGradient><linearGradient id="e" x1="403.333" x2="220.555" y1="769" y2="840.967" gradientUnits="userSpaceOnUse"><stop stop-color="#F45D72"/><stop offset="1" stop-color="#87DAFC"/></linearGradient><linearGradient id="g" x1="219.981" x2="260.017" y1="733.066" y2="786.899" gradientUnits="userSpaceOnUse"><stop stop-color="#FFCDF7"/><stop offset="1" stop-color="#0DAEF1"/></linearGradient><filter id="b" width="88.706" height="88.145" x="42.647" y="93.647" color-interpolation-filters="sRGB" filterUnits="userSpaceOnUse"><feFlood flood-opacity="0" result="BackgroundImageFix"/><feBlend in="SourceGraphic" in2="BackgroundImageFix" result="shape"/><feGaussianBlur result="effect1_foregroundBlur_45_968" stdDeviation="2.176"/></filter><filter id="d" width="90.037" height="71.77" x="290.779" y="727.724" color-interpolation-filters="sRGB" filterUnits="userSpaceOnUse"><feFlood flood-opacity="0" result="BackgroundImageFix"/><feBlend in="SourceGraphic" in2="BackgroundImageFix" result="shape"/><feGaussianBlur result="effect1_foregroundBlur_45_968" stdDeviation="2.176"/></filter><filter id="f" width="59.388" height="61.658" x="207.907" y="729.267" color-interpolation-filters="sRGB" filterUnits="userSpaceOnUse"><feFlood flood-opacity="0" result="BackgroundImageFix"/><feBlend in="SourceGraphic" in2="BackgroundImageFix" result="shape"/><feGaussianBlur result="effect1_foregroundBlur_45_968" stdDeviation="2"/></filter><radialGradient id="a" cx="0" cy="0" r="1" gradientTransform="rotate(26.256 -834.332 638.77)scale(373.141)" gradientUnits="userSpaceOnUse"><stop stop-color="#fff"/><stop offset="1" stop-color="#fff" stop-opacity="0"/></radialGradient></defs></svg>