<svg width="393" height="870" viewBox="0 0 393 870" fill="none" xmlns="http://www.w3.org/2000/svg">
<path fill-rule="evenodd" clip-rule="evenodd" d="M198.317 430.034L276.262 7.33224L274.96 7.09211L197.391 427.757V0H196.067L196.067 428.299L116.832 7.20026L115.531 7.44513L194.587 427.596L36.7077 30.8758L35.4774 31.3655L193.421 428.248L-42.115 71.1875L-43.2204 71.9167L194.065 431.629L-110.347 127.217L-111.283 128.153L190.131 429.567L-169.075 199.471L-169.789 200.586L190.748 431.535L-207.407 274.062L-207.894 275.294L193.345 433.987L-231.455 357.257L-231.691 358.56L189.107 434.567H-238.5V435.891L187.58 435.891L-232.175 507.571L-231.952 508.877L189.945 436.83L-210.937 586.77L-210.473 588.01L191.078 437.82L-170.314 668.463L-169.602 669.579L192.867 438.25L-111.283 742.4L-110.347 743.336L191.784 441.205L-45.5799 796.264L-44.4791 797L194.152 440.047L29.13 836.67L30.3526 837.179L194.758 442.037L117.195 862.668L118.497 862.908L196.067 442.24L196.067 870H197.391V442.498L276.408 862.441L277.709 862.197L198.421 440.811L357.166 839.707L358.396 839.218L199.426 439.756L435.837 798.142L436.943 797.413L202.356 441.792L503.9 743.336L504.836 742.4L199.716 437.28L562.797 669.859L563.512 668.744L202.976 437.796L601.128 595.267L601.615 594.036L206.235 437.66L624.455 513.202L624.691 511.899L203.888 435.891L631.5 435.891V434.567H203.201L625.633 362.429L625.41 361.124L203.51 433.171L604.395 283.231L603.931 281.99L202.376 432.181L563.772 201.536L563.059 200.42L202.385 430.604L504.836 128.153L503.9 127.217L200.366 430.751L439.038 73.7356L437.937 72.9997L200.575 428.056L364.557 33.9308L363.334 33.4221L198.317 430.034Z" fill="url(#paint0_radial_45_968)"/>
<g filter="url(#filter0_f_45_968)">
<path d="M57.6433 164.705L53.5116 158.846C53.6393 158.873 53.853 158.884 54.0465 158.722L54.0466 158.722L54.0531 158.716L61.537 152.229L61.8143 151.989L61.6953 151.642C60.6192 148.501 60.2311 145.188 60.4527 141.84L60.4816 141.403L60.0614 141.281L51.4063 138.77C51.3741 138.743 51.3279 138.7 51.267 138.64C51.1341 138.508 50.9577 138.319 50.7504 138.086C50.3372 137.62 49.8205 137.001 49.3188 136.367C48.8164 135.732 48.3359 135.091 47.9923 134.582C47.8741 134.407 47.7758 134.254 47.6996 134.124L52.6747 131.917L52.9102 131.813L52.9786 131.564C53.0227 131.404 53.111 131.265 53.2123 131.172C53.3163 131.075 53.4019 131.053 53.4425 131.053H63.0445H63.3779L63.5293 130.756C65.1104 127.655 67.2759 124.745 69.944 122.197L70.2225 121.931L70.0643 121.58L66.4495 113.557L66.448 113.554C66.4444 113.546 66.4259 113.494 66.4749 113.384C66.523 113.276 66.625 113.147 66.7871 113.042L66.7871 113.042L66.7914 113.039L72.9437 108.945C72.9443 108.945 72.9449 108.944 72.9456 108.944C73.1137 108.835 73.2814 108.786 73.4057 108.78C73.5002 108.776 73.5372 108.795 73.5442 108.8L73.5443 108.8L79.5879 115.4L79.845 115.681L80.1969 115.536C83.5858 114.136 87.1127 113.353 90.5541 113.158L90.8936 113.138L91.025 112.825L94.6952 104.065C94.6953 104.065 94.6954 104.064 94.6956 104.064C94.7475 103.944 94.9788 103.765 95.3234 103.82L95.6013 103.864L95.798 103.663L99.1197 100.265C99.2325 100.387 99.367 100.542 99.5186 100.725C99.9177 101.208 100.408 101.855 100.884 102.516C101.36 103.177 101.816 103.844 102.147 104.368C102.314 104.63 102.444 104.849 102.529 105.009C102.559 105.065 102.58 105.108 102.595 105.14L101.505 114.285L101.455 114.708L101.853 114.859C104.95 116.029 107.768 117.782 110.172 120.065L110.664 120.532L111.013 119.949L116.293 111.121C116.368 111.197 116.453 111.289 116.548 111.395C116.936 111.833 117.419 112.454 117.903 113.109C118.87 114.415 119.811 115.808 119.949 116.016L123.563 121.478C123.739 121.743 123.652 121.954 123.583 122.013L123.583 122.013L123.576 122.019L116.176 128.449L115.896 128.692L116.021 129.042C117.153 132.213 117.596 135.582 117.402 138.956L117.348 139.908L118.195 139.471L122.589 137.205L126.069 141.791L126.178 141.935L126.352 141.985C126.363 141.989 126.396 142.001 126.426 142.073C126.456 142.149 126.472 142.273 126.43 142.427L126.429 142.432L124.622 149.198C124.622 149.199 124.622 149.2 124.622 149.201C124.577 149.36 124.489 149.498 124.389 149.591C124.285 149.688 124.199 149.709 124.158 149.709H114.867H114.53L114.38 150.012C112.799 153.196 110.578 156.217 107.8 158.849L107.519 159.115L107.678 159.467L111.136 167.144L111.125 167.152C111.128 167.16 111.147 167.212 111.098 167.322C111.05 167.43 110.948 167.559 110.786 167.664L110.781 167.667L104.629 171.761C104.628 171.761 104.628 171.762 104.627 171.762C104.459 171.871 104.291 171.92 104.167 171.926C104.073 171.93 104.036 171.911 104.029 171.906L98.2396 165.563L97.9818 165.28L97.6288 165.427C94.1297 166.882 90.4922 167.665 86.9391 167.833L86.596 167.849L86.4631 168.165L82.9057 176.641C82.9056 176.641 82.9055 176.642 82.9054 176.642C82.8533 176.763 82.622 176.941 82.2775 176.886L82.2775 176.886L82.2677 176.884L75.4572 175.928C75.4239 175.904 75.3761 175.866 75.313 175.81C75.1695 175.682 74.9816 175.496 74.7608 175.262C74.3212 174.797 73.7796 174.174 73.2528 173.538C72.7261 172.901 72.2207 172.259 71.8528 171.754C71.6924 171.534 71.5627 171.347 71.4697 171.201L75.9038 166.948L76.5228 166.354L75.7219 166.047C72.5962 164.849 69.7532 163.068 67.3822 160.707L67.1045 160.431L66.7542 160.607L58.1406 164.931L58.14 164.931C58.0444 164.979 57.8182 164.969 57.6523 164.719L57.6479 164.712L57.6433 164.705ZM47.5347 133.794C47.5351 133.794 47.5367 133.799 47.5384 133.808C47.5353 133.798 47.5344 133.794 47.5347 133.794ZM98.8671 100.022C98.8605 100.019 98.857 100.016 98.8569 100.016C98.8569 100.015 98.8602 100.017 98.8671 100.022ZM80.6965 126.203L80.696 126.203C71.3625 131.85 68.1648 143.55 74.0451 151.459C79.0727 158.242 89.1717 159.598 97.1869 154.759L97.1874 154.759C106.521 149.112 109.719 137.411 103.838 129.502C98.8104 122.72 88.7115 121.364 80.6965 126.203Z" fill="#76D1F7" stroke="white" stroke-width="1.08822"/>
<path d="M107.361 161.846L107.391 161.912C107.386 161.933 107.378 161.959 107.364 161.99C107.316 162.097 107.214 162.226 107.053 162.331L107.048 162.334L100.904 166.422C100.903 166.422 100.903 166.423 100.902 166.423C100.734 166.532 100.567 166.581 100.443 166.586C100.349 166.591 100.312 166.571 100.305 166.567L94.523 160.233L94.2653 159.95L93.9123 160.097C90.4177 161.55 86.7848 162.332 83.2362 162.499L82.8931 162.515L82.7602 162.832L79.2072 171.295C79.2072 171.295 79.2071 171.296 79.207 171.296C79.1555 171.416 78.9247 171.594 78.5805 171.539L78.5805 171.539L78.5707 171.538L71.6983 170.573C71.6968 170.573 71.6953 170.573 71.6939 170.572C71.5256 170.545 71.4122 170.477 71.3537 170.418C71.3251 170.389 71.3131 170.367 71.3085 170.354C71.3045 170.344 71.3048 170.339 71.3053 170.335L71.3055 170.335L71.3069 170.322L72.3788 161.289L72.4287 160.868L72.0332 160.716C68.9114 159.52 66.0721 157.742 63.7041 155.385L63.4264 155.108L63.0762 155.284L54.4734 159.602L54.4727 159.602C54.3776 159.65 54.152 159.64 53.9865 159.39L50.3762 153.936C50.2014 153.672 50.2878 153.461 50.3569 153.403L50.3569 153.403L50.3634 153.397L57.838 146.92L58.1153 146.68L57.9964 146.333C56.9216 143.196 56.534 139.889 56.7553 136.545L56.7842 136.109L56.364 135.987L47.6483 133.459L47.6472 133.458C47.6362 133.455 47.6032 133.443 47.5739 133.371C47.5434 133.296 47.5276 133.172 47.57 133.018L47.57 133.018L47.5717 133.011L49.3469 126.257C49.3472 126.256 49.3475 126.255 49.3477 126.254C49.392 126.096 49.4796 125.958 49.5801 125.865C49.6838 125.769 49.7692 125.747 49.8096 125.747H59.3996H59.733L59.8844 125.45C61.4635 122.353 63.6262 119.448 66.2909 116.904L66.5695 116.638L66.4113 116.287L62.8009 108.275L62.8009 108.275L62.7995 108.272C62.796 108.265 62.7775 108.212 62.8263 108.103C62.8743 107.996 62.976 107.867 63.1378 107.762L63.1378 107.762L63.1421 107.759L69.2867 103.671C69.2874 103.671 69.288 103.67 69.2887 103.67C69.4565 103.561 69.6239 103.512 69.7479 103.506C69.8418 103.502 69.8788 103.521 69.8858 103.526L69.8859 103.526L75.9219 110.116L76.179 110.397L76.5308 110.252C79.9155 108.855 83.4379 108.073 86.8749 107.877L87.2144 107.858L87.3458 107.545L91.0114 98.7976C91.0116 98.7974 91.0117 98.7971 91.0118 98.7969C91.0634 98.6769 91.2941 98.499 91.6382 98.5537L91.6382 98.5538L91.6449 98.5548L98.4358 99.548C98.4368 99.5482 98.4378 99.5483 98.4388 99.5485C98.6079 99.576 98.7217 99.6439 98.7804 99.703C98.809 99.7318 98.821 99.7546 98.8256 99.7668C98.8296 99.7773 98.8293 99.7825 98.8287 99.7865L98.8286 99.7865L98.8272 99.7985L97.7271 109.031L97.6767 109.454L98.0752 109.605C101.168 110.773 103.982 112.524 106.383 114.803L106.66 115.065L107.001 114.894L115.688 110.548L115.69 110.547C115.785 110.5 116.01 110.51 116.176 110.759L119.786 116.214C119.961 116.478 119.874 116.689 119.805 116.747L119.805 116.747L119.798 116.753L112.408 123.173L112.128 123.417L112.253 123.767C113.383 126.932 113.826 130.296 113.632 133.666L113.607 134.099L114.024 134.22L122.542 136.691L122.543 136.691C122.554 136.695 122.587 136.707 122.617 136.779C122.647 136.854 122.663 136.978 122.621 137.132L122.619 137.136L120.815 143.893C120.815 143.894 120.815 143.895 120.815 143.895C120.77 144.054 120.683 144.192 120.582 144.285C120.478 144.381 120.393 144.403 120.353 144.403H111.073H110.736L110.586 144.705C109.007 147.885 106.789 150.901 104.014 153.529L103.733 153.794L103.892 154.147L107.361 161.846ZM76.9446 120.93L76.9442 120.931C67.6218 126.57 64.4278 138.254 70.3018 146.152C75.3236 152.924 85.41 154.278 93.4151 149.446L93.4156 149.446C102.738 143.807 105.932 132.124 100.058 124.226C95.0368 117.453 84.95 116.099 76.9446 120.93Z" fill="url(#paint1_linear_45_968)" stroke="white" stroke-width="1.08822"/>
</g>
<g filter="url(#filter1_f_45_968)">
<path d="M375.185 787.501L375.212 787.522L367.846 794.27C367.442 794.641 366.666 794.687 366.126 794.274L306.291 748.513L315.628 739.959L375.435 785.699C375.976 786.112 375.991 786.763 375.586 787.134L375.185 787.501Z" fill="#FFCDF7" stroke="white" stroke-width="1.08814"/>
<path d="M364.465 782.66L364.488 782.677L361.604 785.319C361.572 785.317 361.523 785.311 361.455 785.294C361.248 785.241 360.97 785.111 360.697 784.902L309.363 745.643L312.922 742.383L364.232 781.624C364.505 781.833 364.684 782.053 364.766 782.221C364.793 782.276 364.805 782.317 364.81 782.343L364.465 782.66Z" fill="#FDB4F2" stroke="white" stroke-width="1.08814"/>
<path d="M295.847 732.641L295.845 732.649L314.599 739.443L305.602 747.689L295.802 732.631C295.815 732.632 295.83 732.635 295.847 732.641Z" fill="#CADCF1" stroke="white" stroke-width="1.08814"/>
<path d="M375.568 787.233L367.799 794.351C367.394 794.722 366.618 794.768 366.078 794.354L358.838 788.817L368.2 780.239L375.44 785.777C375.981 786.19 375.996 786.841 375.591 787.212L375.568 787.233Z" fill="#76D1F7" stroke="white" stroke-width="1.08814"/>
<path d="M295.79 732.636L295.8 732.64L295.811 732.644L301.682 734.769L298.837 737.377L295.733 732.621C295.749 732.623 295.769 732.627 295.79 732.636Z" fill="#0DAEF1" stroke="white" stroke-width="1.08814"/>
</g>
<path d="M279.143 860.547L279.716 853.021C282.699 852.238 285.44 850.897 287.833 849.119L294.258 853.335C294.549 853.525 294.994 853.414 295.292 853.077L299.151 848.672C299.446 848.335 299.499 847.878 299.273 847.61L294.327 841.832C295.806 839.269 296.819 836.415 297.267 833.389L304.875 831.796C305.217 831.724 305.453 831.332 305.424 830.88L305.045 825.029C305.016 824.58 304.732 824.219 304.383 824.192L296.698 823.602C295.914 820.688 294.595 818.007 292.866 815.661L297.192 809.039C297.382 808.747 297.271 808.3 296.934 808.001L292.541 804.133C292.204 803.837 291.749 803.784 291.481 804.011L285.553 809.109C283.055 807.664 280.277 806.667 277.334 806.208L275.707 798.395C275.635 798.052 275.244 797.815 274.793 797.845L268.956 798.224C268.509 798.253 268.149 798.539 268.121 798.888L267.523 806.716C264.639 807.478 261.985 808.763 259.652 810.458L253.006 806.097C252.715 805.907 252.27 806.018 251.971 806.355L248.113 810.76C247.817 811.097 247.765 811.554 247.991 811.822L253.048 817.732C251.569 820.248 250.547 823.055 250.067 826.03L242.389 827.636C242.047 827.708 241.811 828.1 241.84 828.552L242.218 834.403C242.247 834.852 242.532 835.213 242.88 835.241L250.512 835.825C251.271 838.79 252.572 841.52 254.304 843.913L250.071 850.394C249.882 850.686 249.993 851.132 250.329 851.431L254.723 855.299C255.059 855.595 255.515 855.648 255.782 855.422L261.513 850.492C264.081 852.012 266.947 853.056 269.99 853.526L271.554 861.041C271.626 861.383 272.017 861.62 272.468 861.591L278.305 861.211C278.752 861.182 279.112 860.897 279.14 860.547L279.143 860.547ZM259.46 830.789C258.952 822.935 264.889 816.158 272.723 815.649C280.558 815.139 287.318 821.091 287.826 828.945C288.334 836.799 282.397 843.576 274.563 844.085C266.729 844.595 259.968 838.643 259.46 830.789Z" fill="url(#paint2_linear_45_968)"/>
<g filter="url(#filter2_f_45_968)">
<path d="M259.742 742.376C262.007 741.611 263.923 744.195 262.538 746.144L253.83 758.393C253.211 759.265 253.222 760.436 253.859 761.295L262.798 773.345C264.22 775.262 262.362 777.883 260.084 777.172L245.748 772.695C244.73 772.377 243.623 772.751 243.005 773.621L234.287 785.884C232.903 787.832 229.837 786.868 229.815 784.477L229.677 769.469C229.667 768.398 228.968 767.456 227.947 767.137L213.637 762.668C211.358 761.956 211.321 758.739 213.584 757.975L227.828 753.161C228.838 752.82 229.515 751.867 229.505 750.8L229.367 735.763C229.345 733.374 232.388 732.35 233.81 734.268L242.749 746.318C243.386 747.176 244.503 747.526 245.515 747.184L259.742 742.376Z" fill="url(#paint3_linear_45_968)"/>
</g>
<defs>
<filter id="filter0_f_45_968" x="42.647" y="93.6471" width="88.7057" height="88.1452" filterUnits="userSpaceOnUse" color-interpolation-filters="sRGB">
<feFlood flood-opacity="0" result="BackgroundImageFix"/>
<feBlend mode="normal" in="SourceGraphic" in2="BackgroundImageFix" result="shape"/>
<feGaussianBlur stdDeviation="2.17643" result="effect1_foregroundBlur_45_968"/>
</filter>
<filter id="filter1_f_45_968" x="290.779" y="727.724" width="90.037" height="71.7699" filterUnits="userSpaceOnUse" color-interpolation-filters="sRGB">
<feFlood flood-opacity="0" result="BackgroundImageFix"/>
<feBlend mode="normal" in="SourceGraphic" in2="BackgroundImageFix" result="shape"/>
<feGaussianBlur stdDeviation="2.17629" result="effect1_foregroundBlur_45_968"/>
</filter>
<filter id="filter2_f_45_968" x="207.907" y="729.267" width="59.3876" height="61.6582" filterUnits="userSpaceOnUse" color-interpolation-filters="sRGB">
<feFlood flood-opacity="0" result="BackgroundImageFix"/>
<feBlend mode="normal" in="SourceGraphic" in2="BackgroundImageFix" result="shape"/>
<feGaussianBlur stdDeviation="2" result="effect1_foregroundBlur_45_968"/>
</filter>
<radialGradient id="paint0_radial_45_968" cx="0" cy="0" r="1" gradientUnits="userSpaceOnUse" gradientTransform="translate(196.5 435) rotate(26.2561) scale(373.141)">
<stop stop-color="white"/>
<stop offset="1" stop-color="white" stop-opacity="0"/>
</radialGradient>
<linearGradient id="paint1_linear_45_968" x1="103.381" y1="98" x2="46.8447" y2="159.346" gradientUnits="userSpaceOnUse">
<stop stop-color="#9CDCF9"/>
<stop offset="1" stop-color="#FFCDF7"/>
</linearGradient>
<linearGradient id="paint2_linear_45_968" x1="403.333" y1="769" x2="220.555" y2="840.967" gradientUnits="userSpaceOnUse">
<stop stop-color="#F45D72"/>
<stop offset="1" stop-color="#87DAFC"/>
</linearGradient>
<linearGradient id="paint3_linear_45_968" x1="219.981" y1="733.066" x2="260.017" y2="786.899" gradientUnits="userSpaceOnUse">
<stop stop-color="#FFCDF7"/>
<stop offset="1" stop-color="#0DAEF1"/>
</linearGradient>
</defs>
</svg>
