<svg xmlns="http://www.w3.org/2000/svg" width="191" height="253" fill="none"><path fill="#225C90" fill-rule="evenodd" d="m63.315 100.672 30.974 3.303 12.658 33.021-24.638 27.666-19.673.484-6.712 8.063-4.82.002-33.716 43.394-10.193-1.259-3.087-9.796 24.48-29.404-.713-3.002 16.582-19.919-1.584-7.743 1.974-2.371c-1.16-3.107-3.04-11.203-1.273-18.725zm8.142 7.582 17.305 2.361 7.121 20.382-25.844-14.288c-1.476-1.764-3.258-5.925 1.418-8.455" clip-rule="evenodd"/><path fill="url(#a)" fill-rule="evenodd" d="m78.411 112.438 30.736.695 16.133 27.883-19.106 30.666-13.905 1.272-5.133 6.165-5.214.477-33.237 53.428-10.112 4.43-2.845-2.369-2.694-15.09 4.186-2.135.234-7.032 6.083-.556 1.974-2.372-1.74-4.661 3.871-.792 1.974-2.371.077-3.951 5.689-.082 3.553-4.268-1.74-4.661 3.476-.318 2.21-4.583-2.77-11.14 3.158-3.794-3.164-5.845 4.738-5.691c-1.45-3.081-4.667-10.791-5.934-16.985zm5.614 8.688 19.992 2.992 11.069 15.639c.264 1.291-.282 3.619-4.581 2.61l-25.767-18.239z" clip-rule="evenodd"/><path stroke="#225C90" stroke-width="3.703" d="M141.387 115.883c-12.884 15.475-35.632 17.711-50.802 5.082s-17.097-35.406-4.213-50.882c12.883-15.475 35.631-17.71 50.802-5.082 15.17 12.63 17.096 35.406 4.213 50.882Z"/><path fill="#0DAEF1" d="M125.144 42.256c2.814-9.282 3.747-17.77 3.861-20.853l-6.785-.252-1.667 11.671c-2.486 13.74-1.708 23.815-1.007 27.134 8.439 25.508 13.353.702 14.755-14.89l-6.165-.23c-.453 15.793-2.702 18.838-3.77 18.387-.914-3.122-2.037-11.685.778-20.967"/><path fill="#0DAEF1" fill-rule="evenodd" d="M125.266 26.204a8.02 8.02 0 0 0 8.314-7.719 8.02 8.02 0 0 0-7.719-8.314 8.02 8.02 0 0 0-8.314 7.72 8.02 8.02 0 0 0 7.719 8.313m.183-4.933a3.085 3.085 0 1 0 .23-6.167 3.085 3.085 0 0 0-.23 6.167" clip-rule="evenodd"/><defs><linearGradient id="a" x1="113.416" x2="23.397" y1="116.687" y2="224.82" gradientUnits="userSpaceOnUse"><stop offset=".455" stop-color="#0DAEF1"/><stop offset="1" stop-color="#07648B"/></linearGradient></defs></svg>