<svg width="1200" height="246" viewBox="0 0 1200 246" fill="none" xmlns="http://www.w3.org/2000/svg">
    <rect y="211.5" width="1200" height="34" fill="#0DAEF1"/>
    <path d="M70.9709 117C69.5573 101.973 55.068 70.7009 48 56.943V52C61.5301 70.3878 70.9709 102.995 74 117H70.9709Z" fill="#A57288"/>
    <path d="M50 57C49.172 40.2402 38.0766 5.37642 0.319286 0C-1.75074 15.2664 5.28736 48.0393 50 57Z" fill="url(#paint0_linear_1691_7440)"/>
    <path d="M61.9183 84C80.9361 79.9632 116.414 61.3118 106.184 19C88.5596 20.1534 55.0325 34.7681 61.9183 84Z" fill="url(#paint1_linear_1691_7440)"/>
    <path d="M117 140C81.4623 142 61.5377 142 26 140L34.0442 214C62.5136 216 78.4753 216 106.945 214L117 140Z" fill="url(#paint2_linear_1691_7440)"/>
    <path d="M121 112C81.9476 114 60.0524 114 21 112V140C60.0524 142 81.9476 142 121 140V112Z" fill="url(#paint3_linear_1691_7440)"/>
    <defs>
        <linearGradient id="paint0_linear_1691_7440" x1="25" y1="0" x2="25" y2="57" gradientUnits="userSpaceOnUse">
            <stop stop-color="#F4CCFE"/>
            <stop offset="1" stop-color="#E587D6"/>
        </linearGradient>
        <linearGradient id="paint1_linear_1691_7440" x1="84.5" y1="19" x2="84.5" y2="84" gradientUnits="userSpaceOnUse">
            <stop stop-color="#FFCDF7"/>
            <stop offset="1" stop-color="#DA6BC8"/>
        </linearGradient>
        <linearGradient id="paint2_linear_1691_7440" x1="36" y1="140" x2="117" y2="140" gradientUnits="userSpaceOnUse">
            <stop offset="0.13" stop-color="#225C90"/>
            <stop offset="0.45" stop-color="#469DC6"/>
            <stop offset="0.955" stop-color="#B6D3ED"/>
        </linearGradient>
        <linearGradient id="paint3_linear_1691_7440" x1="55" y1="142" x2="121" y2="126.75" gradientUnits="userSpaceOnUse">
            <stop stop-color="#225C90"/>
            <stop offset="0.74" stop-color="#51B2D8"/>
            <stop offset="0.97" stop-color="#BEE3F2"/>
        </linearGradient>
    </defs>
</svg>
