<svg xmlns="http://www.w3.org/2000/svg" width="1200" height="246" fill="none"><path fill="#0DAEF1" d="M0 211.5h1200v34H0z"/><path fill="#A57288" d="M70.97 117C69.558 101.973 55.069 70.7 48 56.943V52c13.53 18.388 22.97 50.995 26 65z"/><path fill="url(#a)" d="M50 57C49.172 40.24 38.077 5.376.32 0-1.75 15.266 5.286 48.04 50 57"/><path fill="url(#b)" d="M61.918 84c19.018-4.037 54.496-22.688 44.266-65-17.624 1.153-51.151 15.768-44.266 65"/><path fill="url(#c)" d="M117 140c-35.538 2-55.462 2-91 0l8.044 74c28.47 2 44.431 2 72.901 0z"/><path fill="url(#d)" d="M121 112c-39.052 2-60.948 2-100 0v28c39.052 2 60.948 2 100 0z"/><defs><linearGradient id="a" x1="25" x2="25" y1="0" y2="57" gradientUnits="userSpaceOnUse"><stop stop-color="#F4CCFE"/><stop offset="1" stop-color="#E587D6"/></linearGradient><linearGradient id="b" x1="84.5" x2="84.5" y1="19" y2="84" gradientUnits="userSpaceOnUse"><stop stop-color="#FFCDF7"/><stop offset="1" stop-color="#DA6BC8"/></linearGradient><linearGradient id="c" x1="36" x2="117" y1="140" y2="140" gradientUnits="userSpaceOnUse"><stop offset=".13" stop-color="#225C90"/><stop offset=".45" stop-color="#469DC6"/><stop offset=".955" stop-color="#B6D3ED"/></linearGradient><linearGradient id="d" x1="55" x2="121" y1="142" y2="126.75" gradientUnits="userSpaceOnUse"><stop stop-color="#225C90"/><stop offset=".74" stop-color="#51B2D8"/><stop offset=".97" stop-color="#BEE3F2"/></linearGradient></defs></svg>