<svg width="1361" height="1065" viewBox="0 0 1361 1065" fill="none" xmlns="http://www.w3.org/2000/svg">
<g filter="url(#filter0_d_757_227)">
<path d="M670.729 667.814L597.342 726.929L1301.43 864.091L1248.2 779.968C1247.03 778.108 1245.14 776.815 1242.97 776.394L677.277 666.192C674.962 665.741 672.566 666.335 670.729 667.814Z" fill="#EC6D7F"/>
<path d="M591.581 728.657C595.807 722.038 603.7 719.577 611.408 721.078L1288.19 852.919C1297.65 854.763 1305.18 862.102 1306.79 871.611C1315.63 923.726 1308.8 956.88 1280.95 1003.57C1275.92 1012 1266.03 1016.17 1256.39 1014.29L578.384 882.207C571.569 880.879 565.689 876.608 563.874 869.906C560.5 857.447 557.289 833.31 565.861 795.986C573.98 760.633 584.561 739.649 591.581 728.657Z" fill="url(#paint0_linear_757_227)"/>
<path d="M828.809 864.789L829.467 861.507L842.479 853.735C843.528 853.121 844.282 852.485 844.739 851.828C845.209 851.174 845.514 850.488 845.654 849.769C845.831 848.862 845.789 848.011 845.528 847.214C845.27 846.406 844.829 845.721 844.205 845.159C843.581 844.597 842.809 844.227 841.891 844.048C840.948 843.865 840.063 843.924 839.233 844.227C838.418 844.521 837.733 844.993 837.179 845.643C836.624 846.293 836.27 847.043 836.117 847.893L832.336 847.156C832.657 845.507 833.309 844.137 834.292 843.045C835.289 841.943 836.509 841.172 837.952 840.732C839.397 840.28 840.962 840.218 842.646 840.546C844.248 840.858 845.614 841.503 846.744 842.481C847.876 843.447 848.684 844.632 849.169 846.034C849.666 847.439 849.757 848.949 849.442 850.562C849.215 851.728 848.869 852.688 848.405 853.441C847.94 854.194 847.334 854.858 846.586 855.434C845.838 856.01 844.926 856.614 843.849 857.248L833.811 863.215L833.611 862.076L846.703 864.626L846.018 868.142L828.809 864.789ZM857.692 870.985C856.385 870.73 855.218 870.227 854.19 869.477C853.177 868.717 852.361 867.788 851.744 866.69C851.129 865.58 850.771 864.373 850.67 863.07L854.407 862.808C854.461 863.6 854.675 864.321 855.05 864.968C855.437 865.618 855.93 866.161 856.53 866.595C857.133 867.018 857.787 867.299 858.494 867.436C859.424 867.618 860.31 867.558 861.151 867.257C862.004 866.959 862.722 866.475 863.304 865.806C863.899 865.139 864.284 864.353 864.461 863.446C864.642 862.515 864.577 861.628 864.264 860.785C863.963 859.944 863.473 859.231 862.792 858.646C862.125 858.052 861.338 857.666 860.431 857.489C859.395 857.287 858.477 857.323 857.679 857.595C856.88 857.867 856.227 858.235 855.721 858.699L852.726 856.942L856.109 843.719L869.837 846.393L869.159 849.874L857.321 847.568L859.095 846.464L856.525 856.362L855.983 855.284C856.785 854.743 857.686 854.387 858.685 854.215C859.685 854.043 860.644 854.046 861.562 854.225C863.141 854.533 864.477 855.172 865.572 856.143C866.678 857.117 867.468 858.304 867.941 859.704C868.416 861.093 868.499 862.582 868.189 864.172C867.881 865.75 867.195 867.108 866.13 868.245C865.067 869.371 863.79 870.186 862.298 870.69C860.806 871.194 859.271 871.292 857.692 870.985ZM877.955 869.485L879.229 862.948L872.692 861.675L873.27 858.707L879.807 859.98L881.074 853.478L884.042 854.057L882.775 860.558L889.295 861.828L888.716 864.797L882.197 863.527L880.924 870.064L877.955 869.485ZM907.302 880.649C905.476 880.293 903.888 879.66 902.537 878.749C901.201 877.828 900.169 876.692 899.442 875.34C898.729 873.979 898.389 872.464 898.42 870.795L902.385 870.962C902.471 872.593 903.048 873.964 904.115 875.077C905.184 876.177 906.543 876.888 908.192 877.21C909.217 877.409 910.19 877.434 911.112 877.283C912.036 877.121 912.816 876.79 913.451 876.29C914.1 875.781 914.507 875.102 914.673 874.254C914.762 873.795 914.759 873.372 914.663 872.987C914.579 872.604 914.42 872.255 914.188 871.941C913.97 871.617 913.679 871.322 913.315 871.056C912.966 870.78 912.569 870.525 912.125 870.292L905.981 867.096C905.382 866.784 904.781 866.416 904.179 865.993C903.579 865.559 903.049 865.046 902.589 864.455C902.144 863.855 901.821 863.162 901.619 862.377C901.42 861.58 901.421 860.664 901.623 859.627C901.928 858.061 902.587 856.813 903.599 855.886C904.625 854.949 905.881 854.338 907.367 854.053C908.855 853.756 910.453 853.774 912.161 854.106C913.876 854.465 915.353 855.07 916.593 855.923C917.845 856.778 918.81 857.847 919.49 859.128C920.183 860.4 920.548 861.853 920.585 863.486L916.496 863.386C916.506 862.398 916.288 861.506 915.844 860.71C915.402 859.903 914.799 859.235 914.034 858.707C913.271 858.167 912.402 857.796 911.426 857.594C910.489 857.387 909.595 857.36 908.747 857.512C907.91 857.667 907.202 857.975 906.623 858.437C906.055 858.901 905.702 859.493 905.562 860.211C905.424 860.918 905.519 861.529 905.846 862.045C906.174 862.561 906.612 863.008 907.163 863.384C907.727 863.75 908.293 864.075 908.862 864.357L913.304 866.597C913.86 866.877 914.482 867.23 915.169 867.657C915.87 868.075 916.52 868.599 917.119 869.229C917.729 869.862 918.184 870.635 918.482 871.549C918.783 872.451 918.813 873.52 918.572 874.757C918.322 876.041 917.843 877.121 917.134 877.998C916.428 878.863 915.557 879.537 914.521 880.02C913.5 880.493 912.368 880.78 911.126 880.88C909.884 880.981 908.609 880.904 907.302 880.649ZM928.982 884.872C927.027 884.491 925.451 883.732 924.255 882.594C923.058 881.457 922.243 880.057 921.809 878.395C921.386 876.736 921.357 874.939 921.722 873.005C922.117 871.04 922.832 869.376 923.868 868.013C924.906 866.638 926.198 865.655 927.743 865.064C929.289 864.473 931.027 864.365 932.959 864.741C935.044 865.147 936.721 866.012 937.992 867.336C939.274 868.661 939.975 870.271 940.095 872.165L936.214 872.509C936.058 871.366 935.619 870.419 934.897 869.667C934.19 868.905 933.3 868.42 932.228 868.212C931.015 867.975 929.963 868.07 929.073 868.496C928.186 868.91 927.457 869.575 926.888 870.49C926.318 871.406 925.903 872.499 925.644 873.769C925.272 875.738 925.41 877.416 926.057 878.801C926.716 880.189 927.917 881.052 929.66 881.392C930.85 881.624 931.863 881.54 932.699 881.14C933.548 880.731 934.268 880.052 934.856 879.103L938.429 880.716C937.443 882.455 936.133 883.686 934.501 884.407C932.871 885.117 931.032 885.272 928.982 884.872ZM954.399 889.274L956.226 879.892C956.371 879.15 956.454 878.377 956.476 877.575C956.512 876.763 956.419 875.987 956.196 875.246C955.985 874.508 955.602 873.871 955.046 873.335C954.502 872.801 953.724 872.436 952.711 872.238C952.051 872.11 951.405 872.1 950.773 872.209C950.142 872.307 949.557 872.553 949.015 872.949C948.485 873.347 948.014 873.915 947.601 874.654C947.2 875.395 946.889 876.331 946.669 877.461L944.541 876.148C944.878 874.417 945.499 872.955 946.404 871.762C947.311 870.557 948.443 869.702 949.801 869.196C951.159 868.69 952.697 868.605 954.417 868.94C955.736 869.197 956.802 869.625 957.615 870.223C958.427 870.821 959.043 871.522 959.461 872.325C959.893 873.118 960.177 873.95 960.314 874.82C960.45 875.69 960.495 876.524 960.45 877.322C960.404 878.12 960.324 878.814 960.209 879.402L958.144 890.003L954.399 889.274ZM940.989 886.661L945.945 861.219L949.249 861.863L946.575 875.591L947.016 875.677L944.734 887.391L940.989 886.661ZM970.929 893.044C969.021 892.672 967.45 891.92 966.216 890.787C964.982 889.654 964.129 888.259 963.657 886.602C963.199 884.936 963.163 883.114 963.548 881.135C963.936 879.144 964.665 877.471 965.737 876.115C966.81 874.747 968.129 873.781 969.693 873.218C971.26 872.643 972.98 872.538 974.853 872.903C976.761 873.274 978.332 874.027 979.566 875.159C980.8 876.292 981.654 877.687 982.125 879.344C982.597 881.001 982.642 882.813 982.258 884.78C981.871 886.77 981.14 888.45 980.067 889.818C979.007 891.176 977.693 892.149 976.124 892.736C974.557 893.311 972.826 893.413 970.929 893.044ZM971.607 889.563C973.433 889.919 974.913 889.572 976.046 888.521C977.194 887.461 977.958 885.959 978.336 884.016C978.724 882.025 978.574 880.345 977.887 878.977C977.215 877.599 975.977 876.734 974.175 876.383C972.938 876.142 971.864 876.226 970.953 876.636C970.044 877.033 969.299 877.689 968.718 878.603C968.139 879.505 967.723 880.603 967.47 881.899C967.08 883.901 967.228 885.593 967.912 886.973C968.597 888.353 969.829 889.217 971.607 889.563ZM992.462 897.239C990.554 896.867 988.983 896.115 987.749 894.982C986.514 893.849 985.661 892.454 985.189 890.797C984.732 889.131 984.695 887.308 985.081 885.33C985.469 883.339 986.198 881.666 987.269 880.309C988.343 878.941 989.662 877.976 991.226 877.413C992.793 876.838 994.513 876.732 996.386 877.097C998.294 877.469 999.865 878.221 1001.1 879.354C1002.33 880.487 1003.19 881.882 1003.66 883.539C1004.13 885.196 1004.17 887.007 1003.79 888.974C1003.4 890.965 1002.67 892.644 1001.6 894.012C1000.54 895.371 999.226 896.343 997.657 896.93C996.09 897.505 994.358 897.608 992.462 897.239ZM993.14 893.758C994.966 894.114 996.445 893.766 997.579 892.716C998.727 891.656 999.49 890.154 999.869 888.21C1000.26 886.22 1000.11 884.54 999.42 883.172C998.747 881.793 997.51 880.929 995.708 880.578C994.471 880.337 993.397 880.421 992.486 880.83C991.577 881.228 990.832 881.884 990.251 882.797C989.671 883.699 989.256 884.798 989.003 886.094C988.613 888.096 988.76 889.787 989.445 891.168C990.13 892.548 991.361 893.412 993.14 893.758ZM1006.17 899.358L1011.22 873.386L1014.92 874.106L1009.86 900.077L1006.17 899.358ZM1022.36 903.045C1020.04 902.593 1018.25 901.712 1016.99 900.403C1015.73 899.094 1015.11 897.476 1015.15 895.551L1019.04 895.704C1019.08 896.74 1019.47 897.629 1020.21 898.371C1020.96 899.104 1021.97 899.594 1023.24 899.842C1024.4 900.067 1025.34 900.007 1026.08 899.662C1026.83 899.319 1027.29 898.736 1027.45 897.911C1027.54 897.428 1027.5 897.017 1027.32 896.676C1027.16 896.326 1026.74 895.945 1026.06 895.532C1025.38 895.119 1024.34 894.566 1022.92 893.874C1021.36 893.131 1020.15 892.424 1019.28 891.753C1018.42 891.073 1017.85 890.368 1017.56 889.64C1017.29 888.902 1017.25 888.068 1017.43 887.138C1017.65 885.984 1018.15 885.036 1018.93 884.296C1019.71 883.555 1020.7 883.057 1021.9 882.802C1023.11 882.549 1024.47 882.568 1025.96 882.859C1027.42 883.144 1028.68 883.627 1029.73 884.309C1030.79 884.991 1031.58 885.824 1032.12 886.81C1032.67 887.784 1032.9 888.85 1032.82 890.009L1028.91 889.961C1028.96 889.017 1028.67 888.209 1028.04 887.537C1027.41 886.864 1026.52 886.391 1025.36 886.117C1024.25 885.852 1023.31 885.863 1022.53 886.152C1021.76 886.429 1021.3 886.933 1021.16 887.663C1021.07 888.087 1021.13 888.471 1021.34 888.816C1021.55 889.164 1022.01 889.547 1022.73 889.967C1023.44 890.387 1024.51 890.931 1025.93 891.6C1027.45 892.324 1028.63 893.031 1029.48 893.721C1030.32 894.4 1030.88 895.125 1031.14 895.898C1031.42 896.662 1031.47 897.532 1031.28 898.51C1030.91 900.394 1029.93 901.738 1028.34 902.542C1026.77 903.347 1024.77 903.515 1022.36 903.045Z" fill="#EC6D7F"/>
</g>
<g filter="url(#filter1_d_757_227)">
<g filter="url(#filter2_d_757_227)">
<path d="M1259.31 749.74L1003.37 772.056L1006.77 715.123L1042.31 656.354L1282.31 641.24C1254.43 689.316 1249.91 713.274 1259.31 749.74Z" fill="#F3F4F5"/>
<path d="M718.314 370.947L447.228 370.948L1053.81 657.854L1280.31 629.356L718.314 370.947Z" fill="#B6FFF6"/>
<path d="M1266.24 751.971L1009.71 776.564C1007.23 776.801 1004.93 775.282 1004.17 772.915C1003.14 769.696 1005.36 766.351 1008.73 766.048L1265.4 742.937C1266 742.883 1266.61 742.949 1267.19 743.132C1271.89 744.629 1271.16 751.499 1266.24 751.971Z" fill="#B6FFF6"/>
<path d="M1280.43 643.333L1055.7 657.436C1054.15 657.533 1052.64 656.961 1051.54 655.866C1048.28 652.608 1050.34 647.029 1054.93 646.666L1279.41 628.928C1280.01 628.88 1280.62 628.909 1281.21 629.012C1289.64 630.479 1288.97 642.797 1280.43 643.333Z" fill="#B6FFF6"/>
<path d="M444.153 372.885C446.13 371.588 448.592 371.593 450.73 372.604L1054.31 657.854C1006.93 701.088 1002.27 728.778 1005.81 776.354L395.265 488.847C393.403 487.97 391.957 486.417 391.516 484.407C389.824 476.69 387.539 454.751 404.619 422.049C421.148 390.404 437.44 377.287 444.153 372.885Z" fill="url(#paint1_linear_757_227)"/>
</g>
<path d="M617.004 509.75C618.512 510.462 619.703 511.469 620.575 512.77C621.452 514.06 621.951 515.503 622.073 517.1C622.195 518.697 621.874 520.304 621.111 521.921L617.591 529.375C616.782 531.09 615.714 532.424 614.388 533.377C613.078 534.324 611.619 534.856 610.011 534.973C608.415 535.095 606.791 534.766 605.142 533.988C603.905 533.404 602.854 532.622 601.989 531.643C601.124 530.664 600.508 529.524 600.141 528.222L603.746 527.078C603.92 527.864 604.261 528.589 604.77 529.254C605.279 529.918 605.907 530.428 606.656 530.781C607.622 531.237 608.584 531.406 609.542 531.288C610.511 531.175 611.378 530.841 612.144 530.287C612.91 529.733 613.496 529.027 613.9 528.17L615.929 523.873L616.259 524.945C615.172 525.506 614.008 525.806 612.769 525.845C611.53 525.883 610.341 525.634 609.201 525.096C607.736 524.404 606.593 523.453 605.771 522.242C604.95 521.031 604.482 519.689 604.368 518.215C604.254 516.742 604.543 515.272 605.235 513.808C605.927 512.343 606.921 511.193 608.217 510.359C609.513 509.524 610.936 509.041 612.484 508.91C614.032 508.778 615.539 509.058 617.004 509.75ZM615.452 513.038C614.605 512.638 613.732 512.478 612.832 512.557C611.948 512.631 611.136 512.918 610.396 513.418C609.655 513.917 609.085 514.59 608.686 515.437C608.286 516.283 608.126 517.156 608.205 518.056C608.29 518.946 608.582 519.76 609.082 520.501C609.581 521.241 610.254 521.811 611.101 522.21C611.947 522.61 612.815 522.768 613.704 522.683C614.593 522.599 615.408 522.307 616.148 521.807C616.894 521.296 617.466 520.618 617.866 519.771C618.26 518.936 618.415 518.073 618.331 517.184C618.257 516.3 617.971 515.488 617.471 514.748C616.971 514.008 616.298 513.438 615.452 513.038ZM626.256 543.957C624.661 543.204 623.414 542.19 622.516 540.917C621.623 539.633 621.113 538.211 620.987 536.652C620.871 535.098 621.19 533.523 621.943 531.928L625.755 523.855C626.508 522.259 627.522 521.013 628.795 520.114C630.079 519.221 631.498 518.717 633.053 518.601C634.612 518.475 636.189 518.788 637.784 519.542C639.379 520.295 640.623 521.313 641.517 522.598C642.415 523.871 642.922 525.285 643.037 526.839C643.164 528.398 642.85 529.975 642.097 531.571L638.285 539.644C637.532 541.239 636.513 542.483 635.229 543.376C633.956 544.275 632.539 544.787 630.98 544.913C629.426 545.029 627.851 544.71 626.256 543.957ZM627.793 540.701C628.661 541.111 629.545 541.277 630.445 541.197C631.361 541.112 632.198 540.817 632.954 540.311C633.715 539.795 634.303 539.097 634.718 538.219L638.745 529.689C639.155 528.821 639.315 527.935 639.225 527.03C639.14 526.114 638.837 525.28 638.315 524.53C637.81 523.774 637.123 523.191 636.255 522.781C635.387 522.371 634.495 522.208 633.579 522.293C632.679 522.373 631.848 522.671 631.087 523.187C630.33 523.692 629.747 524.379 629.337 525.247L625.31 533.776C624.895 534.655 624.73 535.553 624.815 536.469C624.906 537.374 625.203 538.205 625.709 538.961C626.23 539.711 626.925 540.292 627.793 540.701ZM646.951 547.816L649.795 541.794L643.772 538.95L645.063 536.216L651.086 539.059L653.914 533.069L656.649 534.36L653.82 540.35L659.827 543.186L658.535 545.921L652.529 543.085L649.686 549.107L646.951 547.816ZM664.381 561.36L675.447 537.922L684.921 542.394C685.148 542.502 685.425 542.646 685.752 542.827C686.083 542.996 686.388 543.18 686.666 543.378C687.871 544.199 688.746 545.156 689.291 546.25C689.847 547.348 690.096 548.521 690.039 549.767C689.981 551.014 689.655 552.267 689.06 553.526C688.461 554.795 687.698 555.848 686.772 556.685C685.846 557.522 684.783 558.075 683.581 558.343C682.39 558.617 681.095 558.55 679.695 558.141C679.371 558.041 679.03 557.92 678.673 557.777C678.326 557.64 678.044 557.521 677.827 557.418L671.756 554.551L667.783 562.967L664.381 561.36ZM673.277 551.329L679.219 554.134C679.436 554.236 679.679 554.338 679.95 554.439C680.232 554.546 680.505 554.628 680.769 554.687C681.54 554.852 682.24 554.817 682.868 554.583C683.501 554.338 684.046 553.971 684.502 553.483C684.958 552.995 685.322 552.464 685.593 551.889C685.865 551.313 686.042 550.7 686.124 550.049C686.211 549.387 686.145 548.739 685.927 548.105C685.714 547.46 685.298 546.892 684.681 546.402C684.473 546.224 684.238 546.06 683.977 545.91C683.727 545.766 683.493 545.642 683.276 545.54L677.335 542.734L673.277 551.329ZM684.79 570.997L693.09 553.418L696.118 554.847L694.104 559.112L693.942 558.359C694.426 557.897 694.951 557.515 695.519 557.212C696.092 556.899 696.678 556.697 697.277 556.609C697.875 556.493 698.487 556.477 699.112 556.559C699.752 556.636 700.368 556.794 700.958 557.033C701.554 557.261 702.094 557.55 702.58 557.898L701.074 561.089C700.57 560.665 699.95 560.32 699.214 560.052C698.489 559.789 697.744 559.709 696.979 559.812C696.256 559.909 695.612 560.135 695.045 560.492C694.49 560.853 693.993 561.315 693.555 561.878C693.122 562.43 692.741 563.053 692.413 563.748L688.225 572.619L684.79 570.997ZM704.465 580.884C702.707 580.054 701.369 578.938 700.452 577.536C699.535 576.134 699.051 574.572 699.002 572.85C698.968 571.122 699.382 569.347 700.243 567.524C701.109 565.69 702.228 564.248 703.6 563.197C704.977 562.135 706.493 561.524 708.148 561.363C709.808 561.192 711.501 561.513 713.226 562.328C714.984 563.158 716.322 564.274 717.239 565.676C718.156 567.078 718.64 568.639 718.689 570.361C718.739 572.083 718.336 573.85 717.48 575.663C716.614 577.497 715.493 578.944 714.115 580.006C712.754 581.062 711.241 581.681 709.576 581.864C707.916 582.035 706.212 581.708 704.465 580.884ZM705.979 577.677C707.661 578.471 709.181 578.499 710.538 577.76C711.912 577.015 713.021 575.747 713.866 573.957C714.732 572.123 715.001 570.458 714.672 568.962C714.359 567.461 713.372 566.318 711.712 565.534C710.573 564.997 709.511 564.814 708.527 564.986C707.549 565.148 706.665 565.6 705.877 566.342C705.093 567.074 704.42 568.036 703.856 569.23C702.985 571.075 702.712 572.75 703.035 574.257C703.359 575.763 704.34 576.903 705.979 577.677ZM710.606 592.741L712.128 589.518L713.023 589.94C713.923 590.366 714.682 590.459 715.3 590.219C715.928 589.985 716.455 589.418 716.88 588.517L726.094 569.001L729.513 570.615L719.645 591.514C718.968 592.947 718.05 593.867 716.889 594.274C715.738 594.686 714.431 594.547 712.966 593.855L710.606 592.741ZM727.455 566.12L729.015 562.816L732.433 564.43L730.873 567.734L727.455 566.12ZM733.43 594.56C731.683 593.735 730.327 592.63 729.362 591.245C728.413 589.855 727.892 588.302 727.799 586.586C727.723 584.865 728.113 583.098 728.968 581.286C729.875 579.365 731.02 577.869 732.402 576.796C733.795 575.729 735.319 575.115 736.974 574.954C738.629 574.793 740.314 575.118 742.029 575.927C743.819 576.773 745.146 577.91 746.011 579.34C746.88 580.759 747.263 582.38 747.159 584.202C747.066 586.029 746.457 587.964 745.333 590.008L741.931 588.402L742.515 587.165C743.457 585.114 743.778 583.422 743.48 582.086C743.192 580.756 742.278 579.727 740.737 579C739.033 578.195 737.499 578.128 736.135 578.798C734.77 579.467 733.609 580.816 732.651 582.846C731.739 584.777 731.461 586.477 731.816 587.945C732.176 589.403 733.165 590.513 734.781 591.276C735.845 591.778 736.874 591.973 737.87 591.859C738.882 591.739 739.818 591.332 740.677 590.636L743.514 593.27C742.088 594.52 740.475 595.252 738.676 595.464C736.882 595.666 735.134 595.364 733.43 594.56ZM731.091 583.283L732.343 580.63L744.893 586.556L743.64 589.209L731.091 583.283ZM752.578 603.6C750.776 602.75 749.436 601.626 748.556 600.229C747.677 598.831 747.231 597.274 747.219 595.556C747.218 593.844 747.632 592.095 748.462 590.311C749.328 588.504 750.431 587.067 751.771 586.001C753.115 584.924 754.609 584.289 756.253 584.096C757.896 583.904 759.608 584.227 761.388 585.068C763.308 585.975 764.721 587.226 765.627 588.821C766.543 590.421 766.827 592.154 766.477 594.019L762.63 593.398C762.76 592.251 762.568 591.225 762.053 590.319C761.555 589.407 760.812 588.717 759.825 588.251C758.707 587.723 757.665 587.556 756.697 587.75C755.735 587.933 754.865 588.398 754.088 589.145C753.31 589.893 752.639 590.85 752.075 592.017C751.23 593.834 750.951 595.494 751.237 596.996C751.534 598.503 752.486 599.635 754.092 600.394C755.188 600.911 756.19 601.079 757.098 600.898C758.023 600.71 758.887 600.229 759.691 599.454L762.757 601.897C761.372 603.34 759.801 604.211 758.041 604.508C756.287 604.794 754.466 604.492 752.578 603.6ZM773.85 613.047C772.64 612.741 771.512 612.321 770.464 611.786C769.416 611.252 768.563 610.597 767.907 609.823C767.251 609.049 766.903 608.155 766.864 607.141C766.828 606.235 766.97 605.4 767.291 604.635C767.628 603.866 768.022 603.003 768.473 602.048L775.812 586.504L779.23 588.118L771.968 603.499C771.635 604.205 771.351 604.82 771.116 605.346C770.891 605.877 770.798 606.371 770.835 606.826C770.908 607.683 771.345 608.361 772.145 608.858C772.961 609.35 773.983 609.785 775.21 610.166L773.85 613.047ZM768.846 592.531L770.137 589.796L782.15 595.468L780.859 598.202L768.846 592.531ZM784.055 618.443C781.918 617.433 780.399 616.139 779.499 614.56C778.599 612.98 778.402 611.262 778.908 609.404L782.645 610.511C782.431 611.525 782.59 612.483 783.12 613.383C783.666 614.278 784.525 615.002 785.697 615.555C786.761 616.058 787.693 616.232 788.495 616.08C789.308 615.933 789.893 615.48 790.252 614.72C790.462 614.275 790.523 613.866 790.434 613.492C790.361 613.113 790.047 612.639 789.492 612.072C788.937 611.505 788.058 610.711 786.854 609.692C785.53 608.589 784.528 607.605 783.848 606.74C783.184 605.869 782.804 605.046 782.706 604.27C782.623 603.488 782.785 602.668 783.19 601.811C783.692 600.748 784.412 599.953 785.35 599.427C786.288 598.902 787.37 598.662 788.595 598.71C789.831 598.763 791.138 599.114 792.516 599.765C793.861 600.4 794.961 601.178 795.813 602.098C796.666 603.019 797.234 604.023 797.516 605.112C797.803 606.189 797.766 607.28 797.404 608.383L793.621 607.373C793.902 606.471 793.821 605.616 793.378 604.81C792.936 604.004 792.188 603.326 791.134 602.775C790.124 602.245 789.206 602.024 788.382 602.113C787.562 602.19 786.994 602.565 786.676 603.238C786.492 603.629 786.455 604.016 786.565 604.4C786.687 604.789 787.041 605.275 787.629 605.858C788.216 606.44 789.117 607.231 790.331 608.229C791.628 609.305 792.6 610.282 793.248 611.158C793.901 612.024 794.26 612.864 794.327 613.678C794.41 614.487 794.238 615.342 793.813 616.242C792.993 617.978 791.715 619.041 789.98 619.429C788.255 619.822 786.28 619.493 784.055 618.443Z" fill="#225C90"/>
</g>
<g filter="url(#filter3_d_757_227)">
<path d="M374.122 237.752C378.16 232.241 385.068 230.393 391.803 231.539L1074.92 347.732C1083.59 349.208 1090.88 355.294 1093.28 363.762C1104.59 403.669 1099.89 429.306 1076.05 464.486C1071 471.94 1061.93 475.477 1053.05 473.967L368.776 357.576C362.954 356.585 357.662 353.452 355.386 348.002C351.28 338.167 346.609 319.127 352.879 289.895C358.736 262.588 367.824 246.348 374.122 237.752Z" fill="#FFCDF7"/>
<path d="M461.194 186.008L381.148 230.211L1089.17 350.641L1022.14 281.421L461.194 186.008Z" fill="#225C90"/>
<path d="M582.442 344.118C581.128 343.895 579.949 343.42 578.904 342.695C577.873 341.959 577.036 341.05 576.392 339.967C575.751 338.872 575.364 337.674 575.232 336.374L578.962 336.022C579.034 336.813 579.266 337.528 579.656 338.167C580.058 338.807 580.565 339.338 581.175 339.758C581.787 340.166 582.448 340.431 583.158 340.552C584.092 340.711 584.976 340.63 585.81 340.309C586.655 339.99 587.361 339.49 587.928 338.807C588.506 338.126 588.873 337.33 589.028 336.42C589.187 335.485 589.1 334.6 588.767 333.764C588.447 332.931 587.939 332.23 587.244 331.661C586.564 331.083 585.768 330.716 584.857 330.561C583.816 330.384 582.9 330.441 582.107 330.733C581.315 331.024 580.672 331.407 580.177 331.883L577.141 330.198L580.206 316.898L593.994 319.243L593.4 322.739L581.511 320.717L583.257 319.571L580.925 329.527L580.357 328.463C581.146 327.903 582.038 327.526 583.033 327.33C584.028 327.134 584.987 327.114 585.91 327.271C587.495 327.541 588.846 328.148 589.964 329.093C591.093 330.039 591.911 331.207 592.417 332.596C592.925 333.972 593.044 335.459 592.772 337.056C592.502 338.642 591.849 340.015 590.811 341.178C589.776 342.329 588.518 343.174 587.039 343.713C585.559 344.253 584.027 344.388 582.442 344.118ZM604.464 347.864C602.725 347.568 601.251 346.928 600.043 345.943C598.837 344.947 597.963 343.715 597.422 342.248C596.892 340.782 596.775 339.18 597.071 337.441L598.568 328.639C598.864 326.9 599.504 325.427 600.488 324.219C601.485 323.013 602.716 322.145 604.181 321.615C605.649 321.073 607.252 320.95 608.991 321.246C610.73 321.542 612.203 322.188 613.409 323.184C614.617 324.169 615.486 325.394 616.015 326.86C616.557 328.327 616.68 329.93 616.384 331.669L614.887 340.471C614.591 342.21 613.945 343.683 612.949 344.889C611.964 346.097 610.738 346.971 609.271 347.513C607.805 348.043 606.203 348.16 604.464 347.864ZM605.067 344.315C606.014 344.476 606.91 344.397 607.755 344.078C608.614 343.75 609.34 343.24 609.932 342.55C610.526 341.847 610.905 341.017 611.068 340.059L612.65 330.76C612.811 329.814 612.726 328.917 612.395 328.07C612.067 327.21 611.55 326.49 610.846 325.907C610.155 325.315 609.337 324.938 608.39 324.777C607.444 324.617 606.541 324.7 605.682 325.029C604.837 325.348 604.117 325.858 603.523 326.56C602.93 327.251 602.554 328.069 602.393 329.016L600.811 338.314C600.648 339.272 600.731 340.181 601.06 341.04C601.39 341.888 601.901 342.608 602.591 343.2C603.296 343.782 604.121 344.154 605.067 344.315ZM627.234 351.737C625.495 351.441 624.022 350.801 622.814 349.817C621.608 348.82 620.734 347.588 620.192 346.121C619.663 344.655 619.546 343.053 619.841 341.314L621.338 332.512C621.634 330.773 622.274 329.3 623.259 328.092C624.255 326.886 625.486 326.018 626.952 325.488C628.419 324.946 630.023 324.824 631.762 325.119C633.501 325.415 634.973 326.061 636.179 327.058C637.387 328.042 638.256 329.267 638.786 330.733C639.327 332.2 639.45 333.804 639.155 335.543L637.657 344.344C637.362 346.083 636.716 347.556 635.719 348.762C634.735 349.97 633.509 350.845 632.041 351.386C630.576 351.916 628.973 352.033 627.234 351.737ZM627.838 348.188C628.784 348.349 629.68 348.27 630.526 347.951C631.385 347.623 632.111 347.113 632.703 346.423C633.297 345.72 633.676 344.89 633.839 343.932L635.42 334.634C635.581 333.687 635.496 332.79 635.166 331.943C634.837 331.084 634.321 330.363 633.616 329.78C632.926 329.188 632.107 328.812 631.161 328.651C630.215 328.49 629.312 328.573 628.453 328.902C627.607 329.221 626.887 329.731 626.293 330.434C625.701 331.124 625.324 331.943 625.163 332.889L623.582 342.187C623.419 343.146 623.502 344.054 623.83 344.914C624.161 345.761 624.671 346.481 625.362 347.073C626.066 347.655 626.891 348.027 627.838 348.188ZM648.204 349.881L649.321 343.315L642.755 342.199L643.262 339.217L649.828 340.334L650.939 333.804L653.92 334.311L652.809 340.841L659.357 341.955L658.85 344.936L652.302 343.822L651.185 350.388L648.204 349.881ZM668.637 358.232L672.983 332.679L683.311 334.435C683.559 334.478 683.865 334.542 684.228 334.628C684.592 334.702 684.935 334.797 685.256 334.912C686.638 335.379 687.738 336.065 688.558 336.971C689.389 337.879 689.945 338.942 690.225 340.158C690.505 341.374 690.529 342.668 690.295 344.04C690.06 345.425 689.609 346.644 688.942 347.699C688.276 348.755 687.4 349.573 686.315 350.156C685.242 350.74 683.977 351.024 682.519 351.007C682.18 350.998 681.819 350.973 681.436 350.932C681.065 350.894 680.762 350.854 680.525 350.814L673.906 349.688L672.346 358.862L668.637 358.232ZM674.504 346.175L680.981 347.276C681.217 347.317 681.48 347.349 681.767 347.374C682.067 347.4 682.352 347.406 682.623 347.391C683.41 347.343 684.075 347.121 684.616 346.726C685.16 346.32 685.586 345.82 685.894 345.227C686.202 344.634 686.409 344.025 686.515 343.398C686.622 342.771 686.627 342.132 686.531 341.483C686.436 340.822 686.199 340.215 685.818 339.664C685.439 339.1 684.886 338.665 684.159 338.359C683.911 338.244 683.641 338.149 683.349 338.075C683.069 338.003 682.811 337.947 682.574 337.907L676.097 336.805L674.504 346.175ZM695.62 363.369C694.2 363.128 693.056 362.665 692.186 361.982C691.318 361.286 690.71 360.465 690.36 359.516C690.023 358.558 689.944 357.559 690.121 356.518C690.286 355.548 690.602 354.725 691.07 354.05C691.538 353.375 692.152 352.84 692.913 352.446C693.676 352.041 694.576 351.762 695.612 351.609C696.506 351.506 697.507 351.451 698.616 351.445C699.725 351.438 700.885 351.453 702.096 351.489C703.319 351.526 704.53 351.562 705.729 351.596L704.254 352.111C704.533 350.613 704.403 349.447 703.863 348.612C703.337 347.768 702.276 347.21 700.679 346.939C699.673 346.768 698.71 346.847 697.79 347.178C696.871 347.496 696.155 348.165 695.641 349.186L692.362 347.532C693.114 345.968 694.236 344.814 695.726 344.07C697.228 343.327 699.085 343.144 701.297 343.52C703.012 343.812 704.453 344.361 705.618 345.168C706.797 345.965 707.574 347.046 707.951 348.413C708.152 349.092 708.228 349.787 708.18 350.497C708.133 351.207 708.04 351.964 707.904 352.769L705.896 364.569L702.613 364.011L703.359 359.628L703.901 360.304C702.859 361.636 701.662 362.559 700.308 363.071C698.969 363.574 697.406 363.673 695.62 363.369ZM696.793 360.446C697.846 360.625 698.782 360.596 699.601 360.358C700.423 360.108 701.114 359.733 701.674 359.232C702.234 358.73 702.638 358.178 702.886 357.575C703.184 357.042 703.405 356.422 703.55 355.716C703.706 355.013 703.82 354.448 703.893 354.022L705.024 354.671C703.822 354.649 702.731 354.628 701.748 354.607C700.766 354.586 699.872 354.58 699.067 354.589C698.276 354.588 697.563 354.631 696.927 354.718C696.388 354.809 695.897 354.944 695.452 355.124C695.02 355.306 694.655 355.555 694.358 355.869C694.073 356.186 693.887 356.599 693.8 357.107C693.716 357.604 693.762 358.087 693.938 358.555C694.116 359.011 694.438 359.407 694.904 359.742C695.371 360.077 696 360.311 696.793 360.446ZM710.504 365.353L713.764 346.188L717.065 346.75L716.274 351.399L715.915 350.717C716.256 350.142 716.659 349.633 717.125 349.188C717.592 348.732 718.102 348.381 718.655 348.134C719.2 347.862 719.785 347.681 720.409 347.592C721.046 347.494 721.682 347.48 722.315 347.551C722.95 347.611 723.548 347.743 724.109 347.948L723.518 351.426C722.919 351.154 722.229 350.988 721.448 350.928C720.679 350.87 719.94 350.994 719.23 351.299C718.561 351.587 718.001 351.979 717.552 352.474C717.114 352.972 716.76 353.551 716.489 354.211C716.221 354.859 716.022 355.562 715.893 356.319L714.248 365.99L710.504 365.353ZM735.195 369.553C733.949 369.584 732.748 369.483 731.595 369.251C730.442 369.018 729.445 368.617 728.604 368.048C727.764 367.479 727.188 366.712 726.878 365.746C726.599 364.883 726.511 364.04 726.614 363.218C726.731 362.386 726.879 361.449 727.056 360.408L729.938 343.462L733.665 344.096L730.812 360.865C730.681 361.634 730.574 362.303 730.489 362.873C730.416 363.445 730.459 363.945 730.617 364.374C730.918 365.18 731.521 365.714 732.426 365.978C733.344 366.231 734.446 366.376 735.73 366.412L735.195 369.553ZM724.852 351.142L725.359 348.161L738.455 350.388L737.948 353.369L724.852 351.142ZM743.385 347.995L743.998 344.393L747.707 345.023L747.094 348.626L743.385 347.995ZM739.591 370.3L742.851 351.136L746.56 351.767L743.3 370.931L739.591 370.3ZM756.736 373.765C754.772 373.43 753.179 372.709 751.955 371.6C750.732 370.491 749.883 369.112 749.41 367.461C748.948 365.812 748.876 364.016 749.194 362.074C749.542 360.101 750.217 358.42 751.22 357.033C752.225 355.633 753.493 354.62 755.024 353.991C756.555 353.363 758.29 353.214 760.23 353.544C762.324 353.9 764.022 354.725 765.324 356.017C766.637 357.312 767.377 358.904 767.542 360.795L763.67 361.232C763.486 360.093 763.025 359.156 762.286 358.422C761.56 357.678 760.659 357.214 759.583 357.031C758.364 356.824 757.315 356.943 756.436 357.39C755.558 357.825 754.846 358.507 754.298 359.437C753.751 360.366 753.362 361.469 753.133 362.744C752.809 364.722 752.987 366.395 753.667 367.765C754.359 369.136 755.58 369.971 757.331 370.269C758.526 370.472 759.536 370.364 760.362 369.944C761.202 369.515 761.905 368.819 762.47 367.856L766.081 369.383C765.136 371.146 763.857 372.407 762.242 373.167C760.63 373.916 758.795 374.115 756.736 373.765ZM772.429 352.935L773.042 349.333L776.75 349.964L776.138 353.566L772.429 352.935ZM768.635 375.241L771.895 356.076L775.603 356.707L772.344 375.871L768.635 375.241ZM786.579 378.841C784.745 378.529 783.282 377.823 782.191 376.725C781.102 375.614 780.368 374.242 779.988 372.607C779.609 370.972 779.583 369.197 779.909 367.28C780.235 365.364 780.841 363.696 781.727 362.276C782.626 360.859 783.765 359.817 785.144 359.151C786.537 358.475 788.138 358.291 789.948 358.599C791.747 358.905 793.221 359.612 794.371 360.721C795.536 361.819 796.343 363.192 796.793 364.839C797.245 366.474 797.307 368.256 796.979 370.184C796.653 372.1 796.005 373.767 795.033 375.184C794.076 376.592 792.871 377.628 791.419 378.294C789.978 378.962 788.365 379.144 786.579 378.841ZM776.206 385.292L780.914 357.61L784.215 358.172L781.87 371.959L782.296 372.032L779.932 385.926L776.206 385.292ZM786.634 375.399C787.817 375.6 788.845 375.465 789.716 374.992C790.6 374.522 791.317 373.81 791.869 372.857C792.434 371.894 792.825 370.78 793.04 369.514C793.253 368.26 793.251 367.091 793.034 366.007C792.828 364.925 792.381 364.016 791.691 363.277C791.001 362.539 790.041 362.065 788.81 361.856C787.651 361.659 786.644 361.78 785.791 362.219C784.949 362.66 784.258 363.358 783.718 364.313C783.19 365.27 782.813 366.411 782.588 367.736C782.363 369.061 782.341 370.262 782.523 371.34C782.705 372.418 783.131 373.312 783.801 374.023C784.471 374.733 785.416 375.192 786.634 375.399ZM804.586 381.903C803.167 381.662 802.022 381.2 801.152 380.516C800.285 379.821 799.676 378.999 799.326 378.051C798.99 377.093 798.91 376.093 799.087 375.052C799.252 374.082 799.569 373.26 800.036 372.585C800.504 371.91 801.119 371.375 801.879 370.981C802.642 370.575 803.542 370.296 804.578 370.144C805.472 370.04 806.474 369.985 807.582 369.979C808.691 369.973 809.851 369.988 811.062 370.023C812.285 370.061 813.496 370.096 814.696 370.13L813.22 370.646C813.499 369.147 813.369 367.981 812.829 367.147C812.304 366.303 811.242 365.745 809.645 365.473C808.639 365.302 807.676 365.382 806.756 365.712C805.838 366.031 805.121 366.7 804.607 367.72L801.328 366.067C802.081 364.503 803.202 363.349 804.692 362.604C806.194 361.861 808.051 361.678 810.263 362.054C811.978 362.346 813.419 362.895 814.584 363.702C815.763 364.499 816.541 365.581 816.917 366.947C817.118 367.627 817.194 368.321 817.147 369.031C817.099 369.741 817.007 370.499 816.87 371.303L814.863 383.104L811.58 382.545L812.325 378.162L812.867 378.839C811.825 380.171 810.628 381.093 809.275 381.605C807.935 382.108 806.373 382.207 804.586 381.903ZM805.759 378.981C806.812 379.16 807.748 379.13 808.568 378.892C809.389 378.643 810.08 378.267 810.64 377.766C811.2 377.265 811.604 376.713 811.853 376.11C812.15 375.576 812.371 374.957 812.516 374.251C812.672 373.547 812.786 372.982 812.859 372.556L813.99 373.205C812.789 373.183 811.697 373.162 810.714 373.141C809.732 373.12 808.838 373.114 808.033 373.123C807.242 373.123 806.529 373.166 805.893 373.252C805.355 373.343 804.863 373.479 804.418 373.659C803.986 373.841 803.621 374.089 803.324 374.404C803.039 374.72 802.853 375.133 802.767 375.642C802.682 376.139 802.728 376.621 802.904 377.089C803.082 377.546 803.404 377.941 803.87 378.276C804.337 378.611 804.966 378.846 805.759 378.981ZM832.921 386.175L834.524 376.753C834.651 376.007 834.715 375.233 834.718 374.43C834.735 373.618 834.623 372.844 834.383 372.109C834.154 371.377 833.756 370.749 833.187 370.226C832.631 369.705 831.844 369.359 830.827 369.186C830.164 369.073 829.518 369.079 828.888 369.203C828.26 369.315 827.681 369.576 827.149 369.984C826.628 370.395 826.171 370.974 825.776 371.722C825.392 372.473 825.104 373.416 824.911 374.552L822.752 373.29C823.048 371.551 823.634 370.074 824.51 368.86C825.388 367.634 826.499 366.751 827.845 366.213C829.19 365.675 830.726 365.553 832.453 365.847C833.778 366.072 834.854 366.475 835.681 367.053C836.507 367.632 837.139 368.318 837.577 369.11C838.028 369.893 838.332 370.718 838.489 371.584C838.646 372.451 838.711 373.284 838.685 374.083C838.658 374.881 838.595 375.577 838.494 376.168L836.683 386.815L832.921 386.175ZM819.453 383.884L822.712 364.72L826.031 365.284L825.089 370.821L825.533 370.896L823.215 384.524L819.453 383.884ZM852.272 389.467C851.025 389.498 849.825 389.397 848.671 389.165C847.518 388.932 846.521 388.531 845.681 387.962C844.84 387.393 844.265 386.626 843.954 385.66C843.675 384.797 843.587 383.954 843.69 383.132C843.808 382.3 843.955 381.363 844.132 380.322L847.014 363.376L850.741 364.01L847.889 380.779C847.758 381.548 847.65 382.217 847.565 382.787C847.492 383.359 847.535 383.859 847.693 384.288C847.995 385.094 848.597 385.628 849.502 385.892C850.421 386.145 851.522 386.29 852.806 386.326L852.272 389.467ZM841.929 371.056L842.436 368.074L855.532 370.302L855.024 373.283L841.929 371.056ZM863.554 391.915C861.223 391.519 859.412 390.681 858.12 389.402C856.828 388.124 856.176 386.522 856.162 384.596L860.059 384.656C860.127 385.69 860.537 386.57 861.29 387.294C862.057 388.009 863.08 388.475 864.357 388.692C865.517 388.89 866.462 388.807 867.193 388.444C867.936 388.084 868.378 387.49 868.519 386.661C868.601 386.176 868.549 385.766 868.363 385.43C868.191 385.084 867.761 384.713 867.074 384.316C866.387 383.919 865.326 383.392 863.892 382.734C862.32 382.028 861.09 381.351 860.203 380.701C859.329 380.041 858.74 379.35 858.437 378.629C858.147 377.898 858.082 377.065 858.241 376.131C858.438 374.972 858.918 374.012 859.68 373.253C860.442 372.494 861.419 371.973 862.612 371.689C863.816 371.407 865.17 371.394 866.672 371.649C868.139 371.899 869.407 372.352 870.476 373.008C871.545 373.665 872.362 374.479 872.927 375.452C873.494 376.413 873.752 377.473 873.701 378.633L869.785 378.679C869.812 377.734 869.504 376.933 868.861 376.276C868.218 375.619 867.315 375.167 866.152 374.92C865.036 374.682 864.093 374.716 863.323 375.023C862.554 375.319 862.108 375.833 861.983 376.567C861.911 376.992 861.979 377.375 862.189 377.715C862.411 378.057 862.883 378.43 863.606 378.833C864.329 379.236 865.409 379.754 866.847 380.388C868.386 381.076 869.585 381.755 870.445 382.424C871.307 383.082 871.879 383.794 872.163 384.561C872.46 385.317 872.525 386.186 872.358 387.168C872.036 389.061 871.092 390.428 869.524 391.269C867.969 392.112 865.979 392.328 863.554 391.915Z" fill="#225C90"/>
</g>
<g filter="url(#filter4_d_757_227)">
<path d="M-100.993 298.737L58.3969 316.181L63.6465 267.582L24.913 201.67L-124.488 183.625C-100.43 226.653 -94.9751 251.846 -100.993 298.737Z" fill="#F3F4F5"/>
<path d="M529.909 50.0578L688.918 66.1408L24.9127 201.67L-114.681 181.624L529.909 50.0578Z" fill="#0DAEF1"/>
<path d="M-92.9415 303.782L43.8009 320.147C46.2604 320.442 48.7183 319.586 50.4631 317.828C55.2306 313.024 52.2914 304.838 45.5569 304.164L-91.4769 290.451C-92.1478 290.384 -92.825 290.418 -93.4856 290.553C-100.944 292.075 -100.499 302.877 -92.9415 303.782Z" fill="#0DAEF1"/>
<path d="M-113.446 190.945L36.6449 202.703C40.1614 202.979 43.5204 201.198 45.2653 198.132C48.6777 192.138 44.4414 184.674 37.5451 184.531L-112.973 181.398C-113.336 181.391 -113.699 181.424 -114.054 181.499C-119.463 182.633 -118.956 190.514 -113.446 190.945Z" fill="#0DAEF1"/>
<path d="M688.679 65.763L23.8573 201.458C48.5622 247.287 53.5013 273.389 48.0306 319.892L703.877 186.029C709.657 184.849 714.843 181.545 716.888 176.012C720.411 166.482 724.002 148.527 717.294 121.606C706.72 79.1737 688.679 65.763 688.679 65.763Z" fill="url(#paint2_linear_757_227)"/>
<line x1="-104.684" y1="204.476" x2="24.7663" y2="214.458" stroke="#EBEBEA" stroke-width="1.98157"/>
<line x1="-101.117" y1="221.95" x2="28.3329" y2="231.931" stroke="#EBEBEA" stroke-width="1.98157"/>
<line x1="-97.5505" y1="239.423" x2="31.8993" y2="249.405" stroke="#EBEBEA" stroke-width="1.98157"/>
<line x1="-93.9839" y1="256.897" x2="35.466" y2="266.879" stroke="#EBEBEA" stroke-width="1.98157"/>
<line x1="-90.4172" y1="274.371" x2="39.0326" y2="284.353" stroke="#EBEBEA" stroke-width="1.98157"/>
<path d="M266.506 228.743L265.664 224.616L269.35 223.864L270.192 227.991L266.506 228.743ZM260.736 200.472L259.89 196.328L263.576 195.575L264.422 199.72L260.736 200.472ZM267.926 225.349C266.162 225.709 264.522 225.713 263.005 225.361C261.488 225.009 260.164 224.343 259.033 223.361C257.911 222.365 257.052 221.095 256.455 219.552L259.987 218.224C260.647 219.657 261.644 220.703 262.979 221.362C264.311 222.008 265.782 222.167 267.393 221.838C268.992 221.512 270.213 220.865 271.057 219.896C271.912 218.926 272.218 217.847 271.976 216.659C271.803 215.813 271.404 215.178 270.779 214.754C270.165 214.328 269.245 214.051 268.018 213.921L261.683 213.304C257.933 212.93 255.737 211.174 255.096 208.035C254.794 206.553 254.884 205.194 255.366 203.956C255.86 202.717 256.693 201.665 257.863 200.801C259.034 199.938 260.484 199.329 262.212 198.977C263.875 198.662 265.407 198.667 266.809 198.994C268.222 199.318 269.465 199.946 270.537 200.878C271.621 201.808 272.486 203.016 273.132 204.5L269.512 205.937C269.163 205.066 268.652 204.337 267.982 203.751C267.323 203.163 266.554 202.757 265.675 202.532C264.808 202.305 263.88 202.286 262.89 202.476C261.956 202.642 261.151 202.959 260.476 203.428C259.809 203.882 259.316 204.436 258.996 205.089C258.685 205.728 258.602 206.401 258.746 207.106C258.905 207.882 259.339 208.479 260.049 208.898C260.759 209.316 261.8 209.587 263.173 209.711L268.123 210.115C270.393 210.314 272.113 210.85 273.284 211.726C274.455 212.602 275.221 213.927 275.583 215.702C275.9 217.254 275.789 218.692 275.251 220.014C274.722 221.322 273.831 222.447 272.578 223.389C271.322 224.319 269.772 224.972 267.926 225.349ZM285.251 221.261L280.895 199.921L276.71 203.807L275.871 199.698L280.067 195.865L283.824 195.098L289.007 220.495L285.251 221.261ZM303.943 217.997C302.285 218.336 300.748 218.306 299.333 217.91C297.926 217.499 296.737 216.774 295.766 215.735C294.806 214.694 294.167 213.391 293.847 211.828C293.55 210.37 293.618 208.966 294.053 207.615C294.488 206.265 295.311 205.105 296.521 204.136L296.71 205.42C295.491 204.97 294.486 204.306 293.694 203.427C292.912 202.533 292.393 201.463 292.139 200.217C291.844 198.771 291.923 197.45 292.377 196.255C292.832 195.06 293.588 194.055 294.646 193.238C295.716 192.42 297.015 191.855 298.544 191.543C300.072 191.231 301.483 191.243 302.776 191.579C304.07 191.915 305.159 192.544 306.046 193.465C306.932 194.387 307.522 195.57 307.818 197.017C308.072 198.263 308.025 199.442 307.676 200.554C307.328 201.667 306.653 202.68 305.651 203.595L305.347 202.371C306.821 202.756 308.03 203.489 308.974 204.57C309.914 205.639 310.534 206.903 310.831 208.361C311.15 209.925 311.067 211.375 310.58 212.711C310.094 214.048 309.278 215.182 308.133 216.113C306.986 217.033 305.589 217.661 303.943 217.997ZM303.227 214.488C304.591 214.209 305.62 213.613 306.316 212.7C307.009 211.775 307.209 210.595 306.916 209.16C306.623 207.726 305.977 206.719 304.977 206.139C303.986 205.545 302.803 205.389 301.427 205.669C300.051 205.95 299.018 206.559 298.328 207.496C297.647 208.419 297.452 209.598 297.745 211.032C298.038 212.467 298.684 213.474 299.684 214.053C300.682 214.621 301.863 214.766 303.227 214.488ZM300.707 202.142C301.871 201.905 302.753 201.425 303.352 200.702C303.961 199.965 304.145 199.003 303.902 197.816C303.66 196.628 303.114 195.815 302.265 195.376C301.426 194.923 300.424 194.815 299.26 195.052C298.096 195.29 297.211 195.783 296.604 196.531C295.995 197.268 295.812 198.23 296.054 199.418C296.297 200.605 296.842 201.418 297.691 201.858C298.538 202.285 299.543 202.38 300.707 202.142ZM316.906 214.8L311.74 189.4L315.479 188.637L318.647 204.157L324.253 193.46L328.944 192.502L322.987 203.639L333.643 211.384L328.634 212.407L318.791 204.863L320.663 214.034L316.906 214.8ZM338.31 187.339L337.58 183.759L341.266 183.006L341.996 186.587L338.31 187.339ZM342.835 209.508L338.948 190.461L342.634 189.708L346.521 208.756L342.835 209.508ZM365.186 204.946L363.274 195.581C363.123 194.84 362.904 194.095 362.616 193.346C362.338 192.582 361.954 191.901 361.464 191.303C360.986 190.702 360.388 190.261 359.669 189.979C358.962 189.695 358.103 189.656 357.092 189.862C356.433 189.996 355.833 190.235 355.291 190.579C354.746 190.91 354.299 191.363 353.951 191.936C353.614 192.507 353.397 193.213 353.299 194.053C353.213 194.891 353.285 195.875 353.516 197.003L351.047 196.607C350.694 194.879 350.706 193.29 351.084 191.841C351.46 190.381 352.177 189.157 353.237 188.169C354.297 187.181 355.685 186.512 357.402 186.161C358.719 185.892 359.867 185.878 360.847 186.119C361.827 186.36 362.664 186.771 363.358 187.352C364.062 187.919 364.644 188.578 365.103 189.329C365.563 190.08 365.924 190.833 366.189 191.588C366.453 192.342 366.645 193.013 366.765 193.601L368.925 204.183L365.186 204.946ZM351.8 207.678L347.912 188.631L351.21 187.958L352.333 193.46L352.774 193.37L355.539 206.915L351.8 207.678ZM380.58 201.804L375.396 176.408L385.661 174.313C385.908 174.262 386.216 174.211 386.585 174.161C386.952 174.098 387.306 174.062 387.647 174.054C389.104 173.989 390.378 174.232 391.47 174.78C392.573 175.327 393.475 176.116 394.176 177.149C394.877 178.182 395.366 179.38 395.645 180.744C395.925 182.119 395.946 183.42 395.706 184.644C395.466 185.869 394.945 186.949 394.144 187.884C393.355 188.817 392.277 189.539 390.912 190.05C390.592 190.164 390.247 190.272 389.876 190.372C389.516 190.47 389.218 190.543 388.983 190.591L382.405 191.934L384.266 201.052L380.58 201.804ZM381.692 188.442L388.129 187.128C388.365 187.08 388.621 187.015 388.898 186.934C389.187 186.851 389.455 186.753 389.702 186.641C390.418 186.311 390.958 185.865 391.32 185.301C391.681 184.725 391.897 184.105 391.97 183.441C392.042 182.777 392.015 182.134 391.888 181.511C391.761 180.887 391.535 180.291 391.21 179.72C390.883 179.138 390.442 178.658 389.888 178.281C389.331 177.893 388.658 177.687 387.87 177.664C387.597 177.647 387.311 177.656 387.012 177.693C386.725 177.727 386.464 177.768 386.229 177.816L379.791 179.13L381.692 188.442ZM402.694 197.29L398.807 178.243L402.087 177.573L403.03 182.194L402.449 181.688C402.56 181.029 402.751 180.408 403.024 179.825C403.295 179.231 403.644 178.719 404.07 178.289C404.48 177.838 404.96 177.459 405.51 177.15C406.068 176.828 406.656 176.586 407.272 176.423C407.885 176.249 408.491 176.156 409.089 176.144L409.794 179.601C409.137 179.564 408.434 179.658 407.684 179.885C406.946 180.109 406.302 180.491 405.751 181.033C405.23 181.543 404.85 182.11 404.61 182.735C404.382 183.357 404.261 184.025 404.247 184.738C404.231 185.439 404.3 186.166 404.454 186.919L406.416 196.531L402.694 197.29ZM412.163 172.265L411.432 168.685L415.118 167.933L415.849 171.513L412.163 172.265ZM416.688 194.434L412.8 175.387L416.486 174.634L420.374 193.682L416.688 194.434ZM423.906 192.961L423.787 192.379L431.503 175.005L421.679 177.01L421.006 173.712L436.685 170.512L436.807 171.111L429.106 188.464L439.37 186.369L440.043 189.667L423.906 192.961ZM451.586 187.862C449.693 188.248 447.946 188.177 446.343 187.646C444.75 187.102 443.403 186.171 442.301 184.852C441.208 183.52 440.462 181.872 440.061 179.908C439.636 177.827 439.656 175.943 440.12 174.256C440.596 172.567 441.448 171.162 442.677 170.042C443.905 168.922 445.449 168.172 447.306 167.793C449.246 167.397 450.991 167.512 452.539 168.139C454.086 168.754 455.363 169.822 456.372 171.343C457.392 172.862 458.064 174.776 458.389 177.086L454.703 177.838L454.429 176.498C453.955 174.292 453.198 172.744 452.159 171.854C451.131 170.962 449.783 170.686 448.113 171.027C446.267 171.403 444.999 172.268 444.308 173.622C443.616 174.976 443.495 176.752 443.944 178.95C444.371 181.043 445.167 182.571 446.331 183.534C447.492 184.485 448.949 184.781 450.701 184.424C451.853 184.189 452.794 183.727 453.523 183.039C454.262 182.337 454.766 181.451 455.038 180.379L458.887 180.787C458.494 182.643 457.641 184.195 456.328 185.443C455.013 186.679 453.432 187.485 451.586 187.862ZM442.957 180.236L442.37 177.361L455.968 174.586L456.555 177.46L442.957 180.236ZM471.465 183.786C469.149 184.259 467.158 184.133 465.491 183.407C463.824 182.682 462.637 181.424 461.928 179.634L465.584 178.281C466.02 179.221 466.721 179.892 467.685 180.296C468.658 180.685 469.78 180.75 471.05 180.491C472.202 180.256 473.054 179.837 473.604 179.235C474.167 178.63 474.364 177.916 474.196 177.093C474.098 176.611 473.901 176.247 473.606 176.001C473.32 175.741 472.785 175.55 472.001 175.428C471.217 175.307 470.037 175.198 468.462 175.103C466.742 175.014 465.35 174.826 464.287 174.541C463.234 174.242 462.436 173.81 461.892 173.248C461.358 172.671 460.996 171.918 460.807 170.989C460.572 169.837 460.672 168.769 461.108 167.786C461.545 166.803 462.267 165.964 463.277 165.268C464.298 164.57 465.555 164.068 467.048 163.763C468.506 163.466 469.852 163.43 471.086 163.655C472.32 163.881 473.376 164.345 474.254 165.048C475.13 165.739 475.754 166.634 476.125 167.734L472.492 169.192C472.175 168.302 471.598 167.666 470.761 167.286C469.924 166.905 468.919 166.811 467.745 167.001C466.619 167.182 465.752 167.555 465.145 168.12C464.535 168.673 464.304 169.314 464.453 170.043C464.54 170.466 464.742 170.798 465.061 171.04C465.391 171.278 465.966 171.455 466.786 171.569C467.605 171.684 468.8 171.777 470.37 171.848C472.053 171.933 473.416 172.133 474.46 172.446C475.501 172.748 476.293 173.205 476.834 173.817C477.385 174.415 477.76 175.202 477.959 176.178C478.343 178.059 477.956 179.675 476.799 181.026C475.654 182.374 473.876 183.294 471.465 183.786Z" fill="#225C90"/>
</g>
<defs>
<filter id="filter0_d_757_227" x="510.376" y="616.044" width="850.043" height="448.688" filterUnits="userSpaceOnUse" color-interpolation-filters="sRGB">
<feFlood flood-opacity="0" result="BackgroundImageFix"/>
<feColorMatrix in="SourceAlpha" type="matrix" values="0 0 0 0 0 0 0 0 0 0 0 0 0 0 0 0 0 0 127 0" result="hardAlpha"/>
<feOffset/>
<feGaussianBlur stdDeviation="25"/>
<feComposite in2="hardAlpha" operator="out"/>
<feColorMatrix type="matrix" values="0 0 0 0 0.713726 0 0 0 0 1 0 0 0 0 0.964706 0 0 0 0.5 0"/>
<feBlend mode="normal" in2="BackgroundImageFix" result="effect1_dropShadow_757_227"/>
<feBlend mode="normal" in="SourceGraphic" in2="effect1_dropShadow_757_227" result="shape"/>
</filter>
<filter id="filter1_d_757_227" x="340.364" y="320.947" width="996.832" height="505.641" filterUnits="userSpaceOnUse" color-interpolation-filters="sRGB">
<feFlood flood-opacity="0" result="BackgroundImageFix"/>
<feColorMatrix in="SourceAlpha" type="matrix" values="0 0 0 0 0 0 0 0 0 0 0 0 0 0 0 0 0 0 127 0" result="hardAlpha"/>
<feOffset/>
<feGaussianBlur stdDeviation="25"/>
<feComposite in2="hardAlpha" operator="out"/>
<feColorMatrix type="matrix" values="0 0 0 0 0.713726 0 0 0 0 1 0 0 0 0 0.964706 0 0 0 0.5 0"/>
<feBlend mode="normal" in2="BackgroundImageFix" result="effect1_dropShadow_757_227"/>
<feBlend mode="normal" in="SourceGraphic" in2="effect1_dropShadow_757_227" result="shape"/>
</filter>
<filter id="filter2_d_757_227" x="340.364" y="324.947" width="996.832" height="505.641" filterUnits="userSpaceOnUse" color-interpolation-filters="sRGB">
<feFlood flood-opacity="0" result="BackgroundImageFix"/>
<feColorMatrix in="SourceAlpha" type="matrix" values="0 0 0 0 0 0 0 0 0 0 0 0 0 0 0 0 0 0 127 0" result="hardAlpha"/>
<feOffset dy="4"/>
<feGaussianBlur stdDeviation="25"/>
<feComposite in2="hardAlpha" operator="out"/>
<feColorMatrix type="matrix" values="0 0 0 0 0.713726 0 0 0 0 1 0 0 0 0 0.964706 0 0 0 0.5 0"/>
<feBlend mode="normal" in2="BackgroundImageFix" result="effect1_dropShadow_757_227"/>
<feBlend mode="normal" in="SourceGraphic" in2="effect1_dropShadow_757_227" result="shape"/>
</filter>
<filter id="filter3_d_757_227" x="299.823" y="136.008" width="849.316" height="388.302" filterUnits="userSpaceOnUse" color-interpolation-filters="sRGB">
<feFlood flood-opacity="0" result="BackgroundImageFix"/>
<feColorMatrix in="SourceAlpha" type="matrix" values="0 0 0 0 0 0 0 0 0 0 0 0 0 0 0 0 0 0 127 0" result="hardAlpha"/>
<feOffset/>
<feGaussianBlur stdDeviation="25"/>
<feComposite in2="hardAlpha" operator="out"/>
<feColorMatrix type="matrix" values="0 0 0 0 0.713726 0 0 0 0 1 0 0 0 0 0.964706 0 0 0 0.5 0"/>
<feBlend mode="normal" in2="BackgroundImageFix" result="effect1_dropShadow_757_227"/>
<feBlend mode="normal" in="SourceGraphic" in2="effect1_dropShadow_757_227" result="shape"/>
</filter>
<filter id="filter4_d_757_227" x="-174.488" y="0.0578613" width="945.554" height="370.146" filterUnits="userSpaceOnUse" color-interpolation-filters="sRGB">
<feFlood flood-opacity="0" result="BackgroundImageFix"/>
<feColorMatrix in="SourceAlpha" type="matrix" values="0 0 0 0 0 0 0 0 0 0 0 0 0 0 0 0 0 0 127 0" result="hardAlpha"/>
<feOffset/>
<feGaussianBlur stdDeviation="25"/>
<feComposite in2="hardAlpha" operator="out"/>
<feColorMatrix type="matrix" values="0 0 0 0 0.713726 0 0 0 0 1 0 0 0 0 0.964706 0 0 0 0.55 0"/>
<feBlend mode="normal" in2="BackgroundImageFix" result="effect1_dropShadow_757_227"/>
<feBlend mode="normal" in="SourceGraphic" in2="effect1_dropShadow_757_227" result="shape"/>
</filter>
<linearGradient id="paint0_linear_757_227" x1="562.172" y1="816.5" x2="600.196" y2="638.895" gradientUnits="userSpaceOnUse">
<stop stop-color="#FFCDF7"/>
<stop offset="1" stop-color="#FAC4CB"/>
</linearGradient>
<linearGradient id="paint1_linear_757_227" x1="1396.81" y1="813.856" x2="425.315" y2="433.356" gradientUnits="userSpaceOnUse">
<stop stop-color="#B6FFF6"/>
<stop offset="1" stop-color="#0DAEF1"/>
</linearGradient>
<linearGradient id="paint2_linear_757_227" x1="690.679" y1="127.119" x2="35.6832" y2="260.808" gradientUnits="userSpaceOnUse">
<stop stop-color="#A5D8ED"/>
<stop offset="1" stop-color="#B6FFF6"/>
</linearGradient>
</defs>
</svg>
