<svg width="1536" height="1065" viewBox="0 0 1536 1065" fill="none" xmlns="http://www.w3.org/2000/svg">
<g filter="url(#filter0_d_1353_2122)">
<path d="M845.729 667.814L772.342 726.929L1476.43 864.091L1423.2 779.968C1422.03 778.108 1420.14 776.815 1417.97 776.394L852.277 666.192C849.962 665.741 847.566 666.335 845.729 667.814Z" fill="#EC6D7F"/>
<path d="M766.58 728.657C770.807 722.038 778.7 719.577 786.408 721.078L1463.19 852.919C1472.65 854.763 1480.18 862.102 1481.79 871.611C1490.63 923.726 1483.8 956.88 1455.95 1003.57C1450.92 1012 1441.03 1016.17 1431.39 1014.29L753.384 882.207C746.569 880.879 740.688 876.608 738.873 869.906C735.499 857.447 732.289 833.31 740.861 795.986C748.98 760.633 759.56 739.649 766.58 728.657Z" fill="url(#paint0_linear_1353_2122)"/>
<path d="M1003.81 864.789L1004.47 861.507L1017.48 853.735C1018.53 853.121 1019.28 852.485 1019.74 851.828C1020.21 851.174 1020.51 850.488 1020.65 849.769C1020.83 848.862 1020.79 848.011 1020.53 847.214C1020.27 846.406 1019.83 845.721 1019.21 845.159C1018.58 844.597 1017.81 844.227 1016.89 844.048C1015.95 843.865 1015.06 843.924 1014.23 844.227C1013.42 844.521 1012.73 844.993 1012.18 845.643C1011.62 846.293 1011.27 847.043 1011.12 847.893L1007.34 847.156C1007.66 845.507 1008.31 844.137 1009.29 843.045C1010.29 841.943 1011.51 841.172 1012.95 840.732C1014.4 840.28 1015.96 840.218 1017.65 840.546C1019.25 840.858 1020.61 841.503 1021.74 842.481C1022.88 843.447 1023.68 844.632 1024.17 846.034C1024.67 847.439 1024.76 848.949 1024.44 850.562C1024.22 851.728 1023.87 852.688 1023.4 853.441C1022.94 854.194 1022.33 854.858 1021.59 855.434C1020.84 856.01 1019.93 856.614 1018.85 857.248L1008.81 863.215L1008.61 862.076L1021.7 864.626L1021.02 868.142L1003.81 864.789ZM1032.69 870.985C1031.39 870.73 1030.22 870.227 1029.19 869.477C1028.18 868.717 1027.36 867.788 1026.74 866.69C1026.13 865.58 1025.77 864.373 1025.67 863.07L1029.41 862.808C1029.46 863.6 1029.68 864.321 1030.05 864.968C1030.44 865.618 1030.93 866.161 1031.53 866.595C1032.13 867.018 1032.79 867.299 1033.49 867.436C1034.42 867.618 1035.31 867.558 1036.15 867.257C1037 866.959 1037.72 866.475 1038.3 865.806C1038.9 865.139 1039.28 864.353 1039.46 863.446C1039.64 862.515 1039.58 861.628 1039.26 860.785C1038.96 859.944 1038.47 859.231 1037.79 858.646C1037.13 858.052 1036.34 857.666 1035.43 857.489C1034.4 857.287 1033.48 857.323 1032.68 857.595C1031.88 857.867 1031.23 858.235 1030.72 858.699L1027.73 856.942L1031.11 843.719L1044.84 846.393L1044.16 849.874L1032.32 847.568L1034.1 846.464L1031.53 856.362L1030.98 855.284C1031.79 854.743 1032.69 854.387 1033.69 854.215C1034.68 854.043 1035.64 854.046 1036.56 854.225C1038.14 854.533 1039.48 855.172 1040.57 856.143C1041.68 857.117 1042.47 858.304 1042.94 859.704C1043.42 861.093 1043.5 862.582 1043.19 864.172C1042.88 865.75 1042.2 867.108 1041.13 868.245C1040.07 869.371 1038.79 870.186 1037.3 870.69C1035.81 871.194 1034.27 871.292 1032.69 870.985ZM1052.96 869.485L1054.23 862.948L1047.69 861.675L1048.27 858.707L1054.81 859.98L1056.07 853.478L1059.04 854.057L1057.78 860.558L1064.29 861.828L1063.72 864.797L1057.2 863.527L1055.92 870.064L1052.96 869.485ZM1082.3 880.649C1080.48 880.293 1078.89 879.66 1077.54 878.749C1076.2 877.828 1075.17 876.692 1074.44 875.34C1073.73 873.979 1073.39 872.464 1073.42 870.795L1077.39 870.962C1077.47 872.593 1078.05 873.964 1079.11 875.077C1080.18 876.177 1081.54 876.888 1083.19 877.21C1084.22 877.409 1085.19 877.434 1086.11 877.283C1087.04 877.121 1087.82 876.79 1088.45 876.29C1089.1 875.781 1089.51 875.102 1089.67 874.254C1089.76 873.795 1089.76 873.372 1089.66 872.987C1089.58 872.604 1089.42 872.255 1089.19 871.941C1088.97 871.617 1088.68 871.322 1088.32 871.056C1087.97 870.78 1087.57 870.525 1087.13 870.292L1080.98 867.096C1080.38 866.784 1079.78 866.416 1079.18 865.993C1078.58 865.559 1078.05 865.046 1077.59 864.455C1077.14 863.855 1076.82 863.162 1076.62 862.377C1076.42 861.58 1076.42 860.664 1076.62 859.627C1076.93 858.061 1077.59 856.813 1078.6 855.886C1079.62 854.949 1080.88 854.338 1082.37 854.053C1083.86 853.756 1085.45 853.774 1087.16 854.106C1088.88 854.465 1090.35 855.07 1091.59 855.923C1092.84 856.778 1093.81 857.847 1094.49 859.128C1095.18 860.4 1095.55 861.853 1095.58 863.486L1091.5 863.386C1091.51 862.398 1091.29 861.506 1090.84 860.71C1090.4 859.903 1089.8 859.235 1089.03 858.707C1088.27 858.167 1087.4 857.796 1086.43 857.594C1085.49 857.387 1084.6 857.36 1083.75 857.512C1082.91 857.667 1082.2 857.975 1081.62 858.437C1081.06 858.901 1080.7 859.493 1080.56 860.211C1080.42 860.918 1080.52 861.529 1080.85 862.045C1081.17 862.561 1081.61 863.008 1082.16 863.384C1082.73 863.75 1083.29 864.075 1083.86 864.357L1088.3 866.597C1088.86 866.877 1089.48 867.23 1090.17 867.657C1090.87 868.075 1091.52 868.599 1092.12 869.229C1092.73 869.862 1093.18 870.635 1093.48 871.549C1093.78 872.451 1093.81 873.52 1093.57 874.757C1093.32 876.041 1092.84 877.121 1092.13 877.998C1091.43 878.863 1090.56 879.537 1089.52 880.02C1088.5 880.493 1087.37 880.78 1086.13 880.88C1084.88 880.981 1083.61 880.904 1082.3 880.649ZM1103.98 884.872C1102.03 884.491 1100.45 883.732 1099.25 882.594C1098.06 881.457 1097.24 880.057 1096.81 878.395C1096.39 876.736 1096.36 874.939 1096.72 873.005C1097.12 871.04 1097.83 869.376 1098.87 868.013C1099.91 866.638 1101.2 865.655 1102.74 865.064C1104.29 864.473 1106.03 864.365 1107.96 864.741C1110.04 865.147 1111.72 866.012 1112.99 867.336C1114.27 868.661 1114.98 870.271 1115.1 872.165L1111.21 872.509C1111.06 871.366 1110.62 870.419 1109.9 869.667C1109.19 868.905 1108.3 868.42 1107.23 868.212C1106.01 867.975 1104.96 868.07 1104.07 868.496C1103.19 868.91 1102.46 869.575 1101.89 870.49C1101.32 871.406 1100.9 872.499 1100.64 873.769C1100.27 875.738 1100.41 877.416 1101.06 878.801C1101.72 880.189 1102.92 881.052 1104.66 881.392C1105.85 881.624 1106.86 881.54 1107.7 881.14C1108.55 880.731 1109.27 880.052 1109.86 879.103L1113.43 880.716C1112.44 882.455 1111.13 883.686 1109.5 884.407C1107.87 885.117 1106.03 885.272 1103.98 884.872ZM1129.4 889.274L1131.23 879.892C1131.37 879.15 1131.45 878.377 1131.48 877.575C1131.51 876.763 1131.42 875.987 1131.2 875.246C1130.99 874.508 1130.6 873.871 1130.05 873.335C1129.5 872.801 1128.72 872.436 1127.71 872.238C1127.05 872.11 1126.41 872.1 1125.77 872.209C1125.14 872.307 1124.56 872.553 1124.01 872.949C1123.49 873.347 1123.01 873.915 1122.6 874.654C1122.2 875.395 1121.89 876.331 1121.67 877.461L1119.54 876.148C1119.88 874.417 1120.5 872.955 1121.4 871.762C1122.31 870.557 1123.44 869.702 1124.8 869.196C1126.16 868.69 1127.7 868.605 1129.42 868.94C1130.74 869.197 1131.8 869.625 1132.61 870.223C1133.43 870.821 1134.04 871.522 1134.46 872.325C1134.89 873.118 1135.18 873.95 1135.31 874.82C1135.45 875.69 1135.5 876.524 1135.45 877.322C1135.4 878.12 1135.32 878.814 1135.21 879.402L1133.14 890.003L1129.4 889.274ZM1115.99 886.661L1120.95 861.219L1124.25 861.863L1121.57 875.591L1122.02 875.677L1119.73 887.391L1115.99 886.661ZM1145.93 893.044C1144.02 892.672 1142.45 891.92 1141.22 890.787C1139.98 889.654 1139.13 888.259 1138.66 886.602C1138.2 884.936 1138.16 883.114 1138.55 881.135C1138.94 879.144 1139.67 877.471 1140.74 876.115C1141.81 874.747 1143.13 873.781 1144.69 873.218C1146.26 872.643 1147.98 872.538 1149.85 872.903C1151.76 873.274 1153.33 874.027 1154.57 875.159C1155.8 876.292 1156.65 877.687 1157.13 879.344C1157.6 881.001 1157.64 882.813 1157.26 884.78C1156.87 886.77 1156.14 888.45 1155.07 889.818C1154.01 891.176 1152.69 892.149 1151.12 892.736C1149.56 893.311 1147.83 893.413 1145.93 893.044ZM1146.61 889.563C1148.43 889.919 1149.91 889.572 1151.05 888.521C1152.19 887.461 1152.96 885.959 1153.34 884.016C1153.72 882.025 1153.57 880.345 1152.89 878.977C1152.21 877.599 1150.98 876.734 1149.17 876.383C1147.94 876.142 1146.86 876.226 1145.95 876.636C1145.04 877.033 1144.3 877.689 1143.72 878.603C1143.14 879.505 1142.72 880.603 1142.47 881.899C1142.08 883.901 1142.23 885.593 1142.91 886.973C1143.6 888.353 1144.83 889.217 1146.61 889.563ZM1167.46 897.239C1165.55 896.867 1163.98 896.115 1162.75 894.982C1161.51 893.849 1160.66 892.454 1160.19 890.797C1159.73 889.131 1159.7 887.308 1160.08 885.33C1160.47 883.339 1161.2 881.666 1162.27 880.309C1163.34 878.941 1164.66 877.976 1166.23 877.413C1167.79 876.838 1169.51 876.732 1171.39 877.097C1173.29 877.469 1174.87 878.221 1176.1 879.354C1177.33 880.487 1178.19 881.882 1178.66 883.539C1179.13 885.196 1179.17 887.007 1178.79 888.974C1178.4 890.965 1177.67 892.644 1176.6 894.012C1175.54 895.371 1174.23 896.343 1172.66 896.93C1171.09 897.505 1169.36 897.608 1167.46 897.239ZM1168.14 893.758C1169.97 894.114 1171.45 893.766 1172.58 892.716C1173.73 891.656 1174.49 890.154 1174.87 888.21C1175.26 886.22 1175.11 884.54 1174.42 883.172C1173.75 881.793 1172.51 880.929 1170.71 880.578C1169.47 880.337 1168.4 880.421 1167.49 880.83C1166.58 881.228 1165.83 881.884 1165.25 882.797C1164.67 883.699 1164.26 884.798 1164 886.094C1163.61 888.096 1163.76 889.787 1164.45 891.168C1165.13 892.548 1166.36 893.412 1168.14 893.758ZM1181.17 899.358L1186.22 873.386L1189.92 874.106L1184.86 900.077L1181.17 899.358ZM1197.36 903.045C1195.04 902.593 1193.25 901.712 1191.99 900.403C1190.73 899.094 1190.11 897.476 1190.15 895.551L1194.04 895.704C1194.08 896.74 1194.47 897.629 1195.21 898.371C1195.96 899.104 1196.97 899.594 1198.24 899.842C1199.4 900.067 1200.34 900.007 1201.08 899.662C1201.83 899.319 1202.29 898.736 1202.45 897.911C1202.54 897.428 1202.5 897.017 1202.32 896.676C1202.16 896.326 1201.74 895.945 1201.06 895.532C1200.38 895.119 1199.34 894.566 1197.92 893.874C1196.36 893.131 1195.15 892.424 1194.28 891.753C1193.42 891.073 1192.85 890.368 1192.56 889.64C1192.29 888.902 1192.25 888.068 1192.43 887.138C1192.65 885.984 1193.15 885.036 1193.93 884.296C1194.71 883.555 1195.7 883.057 1196.9 882.802C1198.11 882.549 1199.47 882.568 1200.96 882.859C1202.42 883.144 1203.68 883.627 1204.73 884.309C1205.79 884.991 1206.58 885.824 1207.12 886.81C1207.67 887.784 1207.9 888.85 1207.82 890.009L1203.91 889.961C1203.96 889.017 1203.67 888.209 1203.04 887.537C1202.41 886.864 1201.52 886.391 1200.36 886.117C1199.25 885.852 1198.31 885.863 1197.53 886.152C1196.76 886.429 1196.3 886.933 1196.16 887.663C1196.07 888.087 1196.13 888.471 1196.34 888.816C1196.55 889.164 1197.01 889.547 1197.73 889.967C1198.44 890.387 1199.51 890.931 1200.93 891.6C1202.45 892.324 1203.63 893.031 1204.48 893.721C1205.32 894.4 1205.88 895.125 1206.14 895.898C1206.42 896.662 1206.47 897.532 1206.28 898.51C1205.91 900.394 1204.93 901.738 1203.34 902.542C1201.77 903.347 1199.77 903.515 1197.36 903.045Z" fill="#EC6D7F"/>
</g>
<g filter="url(#filter1_d_1353_2122)">
<g filter="url(#filter2_d_1353_2122)">
<path d="M1434.31 749.74L1178.37 772.056L1181.77 715.123L1217.31 656.354L1457.31 641.24C1429.44 689.316 1424.91 713.274 1434.31 749.74Z" fill="#F3F4F5"/>
<path d="M893.313 370.947L622.227 370.948L1228.81 657.854L1455.31 629.356L893.313 370.947Z" fill="#B6FFF6"/>
<path d="M1441.24 751.971L1184.71 776.564C1182.23 776.801 1179.93 775.282 1179.17 772.915C1178.14 769.696 1180.36 766.351 1183.73 766.048L1440.4 742.937C1441 742.883 1441.61 742.949 1442.18 743.132C1446.89 744.629 1446.16 751.499 1441.24 751.971Z" fill="#B6FFF6"/>
<path d="M1455.43 643.333L1230.7 657.436C1229.15 657.533 1227.64 656.961 1226.54 655.866C1223.28 652.608 1225.34 647.029 1229.93 646.666L1454.41 628.928C1455.01 628.88 1455.62 628.909 1456.21 629.012C1464.64 630.479 1463.97 642.797 1455.43 643.333Z" fill="#B6FFF6"/>
<path d="M619.152 372.885C621.13 371.588 623.592 371.593 625.73 372.604L1229.31 657.854C1181.93 701.088 1177.27 728.778 1180.81 776.354L570.265 488.847C568.403 487.97 566.956 486.417 566.516 484.407C564.824 476.69 562.538 454.751 579.619 422.049C596.147 390.404 612.439 377.287 619.152 372.885Z" fill="url(#paint1_linear_1353_2122)"/>
</g>
<path d="M773.558 530.282L782.857 510.587L777.178 511.19L778.969 507.397L784.625 506.843L788.092 508.48L777.025 531.919L773.558 530.282ZM787.292 536.766L796.591 517.071L790.912 517.674L792.702 513.882L798.358 513.328L801.825 514.965L790.759 538.403L787.292 536.766ZM804.88 545.668C803.285 544.915 802.038 543.902 801.14 542.628C800.247 541.344 799.737 539.922 799.611 538.363C799.495 536.809 799.814 535.234 800.567 533.639L804.379 525.566C805.132 523.971 806.145 522.724 807.419 521.826C808.703 520.932 810.122 520.428 811.676 520.313C813.236 520.186 814.813 520.5 816.408 521.253C818.003 522.006 819.247 523.025 820.14 524.309C821.039 525.582 821.546 526.996 821.661 528.55C821.788 530.109 821.474 531.687 820.721 533.282L816.909 541.355C816.156 542.95 815.137 544.194 813.853 545.088C812.58 545.986 811.163 546.498 809.604 546.625C808.05 546.74 806.475 546.421 804.88 545.668ZM806.417 542.413C807.285 542.823 808.169 542.988 809.069 542.909C809.985 542.824 810.822 542.528 811.578 542.023C812.339 541.506 812.927 540.809 813.342 539.93L817.369 531.401C817.779 530.533 817.939 529.646 817.849 528.741C817.764 527.825 817.461 526.992 816.939 526.241C816.434 525.485 815.747 524.902 814.879 524.492C814.011 524.082 813.119 523.92 812.203 524.005C811.302 524.084 810.472 524.382 809.71 524.898C808.954 525.404 808.371 526.09 807.961 526.959L803.934 535.488C803.519 536.367 803.354 537.264 803.439 538.18C803.529 539.085 803.827 539.916 804.333 540.672C804.854 541.423 805.549 542.003 806.417 542.413ZM825.575 549.527L828.419 543.505L822.396 540.661L823.687 537.927L829.71 540.77L832.538 534.781L835.272 536.072L832.444 542.062L838.45 544.897L837.159 547.632L831.153 544.796L828.31 550.819L825.575 549.527ZM843.005 563.072L854.071 539.633L863.544 544.106C863.772 544.213 864.049 544.357 864.376 544.538C864.707 544.708 865.012 544.891 865.29 545.089C866.495 545.91 867.37 546.867 867.915 547.961C868.471 549.059 868.72 550.232 868.662 551.479C868.605 552.725 868.279 553.978 867.684 555.237C867.085 556.506 866.322 557.56 865.396 558.396C864.47 559.233 863.407 559.786 862.205 560.054C861.014 560.328 859.719 560.261 858.319 559.852C857.995 559.752 857.654 559.631 857.297 559.489C856.95 559.352 856.668 559.232 856.451 559.129L850.38 556.263L846.406 564.678L843.005 563.072ZM851.901 553.04L857.842 555.845C858.06 555.947 858.303 556.049 858.574 556.151C858.856 556.257 859.128 556.339 859.393 556.398C860.164 556.563 860.864 556.528 861.492 556.294C862.125 556.049 862.67 555.683 863.126 555.195C863.582 554.707 863.946 554.175 864.217 553.6C864.489 553.025 864.666 552.411 864.748 551.76C864.835 551.098 864.769 550.45 864.551 549.816C864.338 549.171 863.922 548.604 863.305 548.113C863.097 547.935 862.862 547.771 862.601 547.621C862.351 547.477 862.117 547.353 861.9 547.251L855.959 544.446L851.901 553.04ZM863.414 572.708L871.714 555.129L874.742 556.559L872.728 560.823L872.566 560.07C873.05 559.608 873.575 559.226 874.143 558.923C874.716 558.61 875.302 558.409 875.901 558.32C876.499 558.205 877.111 558.188 877.735 558.271C878.376 558.347 878.991 558.505 879.582 558.744C880.178 558.972 880.718 559.261 881.204 559.61L879.697 562.8C879.194 562.376 878.574 562.031 877.838 561.763C877.113 561.5 876.368 561.42 875.603 561.523C874.88 561.62 874.236 561.847 873.669 562.203C873.114 562.564 872.617 563.026 872.179 563.589C871.746 564.141 871.365 564.764 871.037 565.459L866.849 574.33L863.414 572.708ZM883.089 582.595C881.331 581.765 879.993 580.649 879.076 579.247C878.159 577.845 877.675 576.283 877.626 574.561C877.592 572.834 878.006 571.058 878.867 569.235C879.733 567.401 880.851 565.959 882.223 564.908C883.601 563.847 885.117 563.235 886.772 563.075C888.432 562.903 890.125 563.225 891.85 564.039C893.608 564.869 894.946 565.985 895.863 567.387C896.78 568.789 897.263 570.351 897.313 572.073C897.363 573.795 896.959 575.562 896.104 577.374C895.238 579.208 894.117 580.656 892.739 581.717C891.378 582.773 889.865 583.392 888.2 583.575C886.54 583.746 884.836 583.42 883.089 582.595ZM884.603 579.388C886.285 580.182 887.805 580.21 889.162 579.471C890.536 578.726 891.645 577.458 892.49 575.668C893.356 573.834 893.625 572.169 893.296 570.674C892.983 569.172 891.996 568.03 890.336 567.246C889.197 566.708 888.135 566.525 887.151 566.697C886.173 566.859 885.289 567.311 884.5 568.054C883.717 568.785 883.044 569.748 882.48 570.941C881.609 572.786 881.336 574.462 881.659 575.968C881.983 577.475 882.964 578.615 884.603 579.388ZM889.23 594.452L890.751 591.229L891.647 591.652C892.547 592.077 893.306 592.17 893.924 591.93C894.552 591.696 895.078 591.129 895.504 590.228L904.718 570.712L908.136 572.326L898.269 593.226C897.592 594.658 896.674 595.578 895.513 595.985C894.362 596.397 893.055 596.258 891.59 595.566L889.23 594.452ZM906.079 567.831L907.639 564.527L911.057 566.141L909.497 569.445L906.079 567.831ZM912.054 596.271C910.307 595.446 908.951 594.341 907.986 592.957C907.036 591.566 906.516 590.013 906.423 588.298C906.347 586.576 906.737 584.809 907.592 582.997C908.499 581.077 909.644 579.58 911.026 578.507C912.419 577.44 913.943 576.826 915.598 576.665C917.253 576.505 918.938 576.829 920.652 577.638C922.443 578.484 923.77 579.621 924.635 581.051C925.504 582.47 925.887 584.091 925.783 585.913C925.69 587.74 925.081 589.676 923.957 591.719L920.555 590.113L921.139 588.876C922.081 586.826 922.402 585.133 922.104 583.798C921.816 582.467 920.902 581.439 919.361 580.711C917.657 579.907 916.123 579.839 914.759 580.509C913.394 581.178 912.233 582.528 911.275 584.557C910.363 586.488 910.084 588.188 910.44 589.656C910.8 591.114 911.788 592.224 913.405 592.988C914.469 593.49 915.498 593.684 916.494 593.57C917.506 593.451 918.442 593.043 919.301 592.347L922.138 594.981C920.712 596.232 919.099 596.963 917.3 597.175C915.506 597.377 913.758 597.075 912.054 596.271ZM909.715 584.995L910.967 582.341L923.517 588.267L922.264 590.92L909.715 584.995ZM931.202 605.312C929.4 604.461 928.06 603.337 927.18 601.94C926.301 600.542 925.855 598.985 925.843 597.268C925.842 595.555 926.256 593.807 927.086 592.022C927.952 590.215 929.055 588.778 930.394 587.712C931.739 586.635 933.233 586 934.877 585.808C936.52 585.615 938.232 585.939 940.012 586.779C941.932 587.686 943.345 588.937 944.251 590.532C945.167 592.133 945.451 593.866 945.101 595.731L941.254 595.109C941.384 593.962 941.192 592.936 940.677 592.03C940.179 591.118 939.436 590.429 938.449 589.962C937.331 589.435 936.289 589.268 935.321 589.461C934.359 589.644 933.489 590.109 932.712 590.857C931.934 591.604 931.263 592.561 930.699 593.728C929.854 595.545 929.575 597.205 929.861 598.707C930.158 600.214 931.11 601.347 932.716 602.105C933.812 602.622 934.814 602.79 935.722 602.609C936.647 602.422 937.511 601.941 938.315 601.166L941.381 603.609C939.996 605.052 938.424 605.922 936.665 606.219C934.911 606.506 933.09 606.203 931.202 605.312ZM952.474 614.758C951.264 614.452 950.136 614.032 949.088 613.498C948.039 612.963 947.187 612.309 946.531 611.534C945.875 610.76 945.527 609.866 945.488 608.852C945.452 607.946 945.594 607.111 945.915 606.347C946.252 605.577 946.646 604.714 947.097 603.76L954.436 588.215L957.854 589.829L950.592 605.211C950.259 605.916 949.975 606.532 949.74 607.058C949.515 607.589 949.422 608.082 949.459 608.537C949.532 609.395 949.969 610.072 950.769 610.569C951.585 611.061 952.607 611.497 953.834 611.877L952.474 614.758ZM947.47 594.242L948.761 591.507L960.774 597.179L959.482 599.914L947.47 594.242ZM962.679 620.154C960.542 619.145 959.023 617.85 958.123 616.271C957.223 614.692 957.026 612.973 957.532 611.115L961.269 612.222C961.055 613.236 961.214 614.194 961.744 615.094C962.29 615.989 963.149 616.713 964.321 617.267C965.385 617.769 966.317 617.944 967.119 617.791C967.932 617.644 968.517 617.191 968.876 616.431C969.086 615.986 969.147 615.577 969.058 615.203C968.985 614.824 968.671 614.351 968.116 613.783C967.561 613.216 966.681 612.423 965.478 611.403C964.154 610.3 963.152 609.316 962.472 608.451C961.808 607.581 961.427 606.757 961.329 605.981C961.247 605.199 961.409 604.379 961.814 603.522C962.316 602.459 963.036 601.664 963.974 601.139C964.912 600.613 965.994 600.374 967.219 600.421C968.455 600.474 969.762 600.826 971.14 601.476C972.485 602.112 973.585 602.889 974.437 603.81C975.29 604.73 975.858 605.734 976.14 606.823C976.427 607.901 976.39 608.991 976.028 610.094L972.245 609.085C972.526 608.182 972.445 607.327 972.002 606.522C971.56 605.716 970.812 605.037 969.758 604.487C968.748 603.957 967.83 603.736 967.006 603.824C966.186 603.901 965.618 604.277 965.3 604.949C965.115 605.34 965.079 605.727 965.189 606.111C965.311 606.5 965.665 606.986 966.253 607.569C966.84 608.152 967.741 608.942 968.955 609.94C970.252 611.016 971.224 611.993 971.872 612.869C972.524 613.735 972.884 614.575 972.951 615.389C973.034 616.198 972.862 617.053 972.437 617.953C971.617 619.69 970.339 620.752 968.604 621.14C966.879 621.533 964.904 621.204 962.679 620.154Z" fill="#225C90"/>
</g>
<g filter="url(#filter3_d_1353_2122)">
<path d="M549.122 237.752C553.16 232.241 560.068 230.393 566.803 231.539L1249.92 347.732C1258.59 349.208 1265.88 355.294 1268.28 363.762C1279.59 403.669 1274.9 429.306 1251.05 464.486C1246 471.94 1236.93 475.477 1228.05 473.967L543.777 357.576C537.954 356.585 532.662 353.452 530.387 348.002C526.281 338.167 521.61 319.127 527.879 289.895C533.736 262.588 542.824 246.348 549.122 237.752Z" fill="#FFCDF7"/>
<path d="M636.194 186.008L556.148 230.211L1264.17 350.641L1197.14 281.421L636.194 186.008Z" fill="#225C90"/>
<path d="M757.442 344.118C756.129 343.895 754.949 343.42 753.904 342.695C752.873 341.959 752.036 341.05 751.392 339.967C750.751 338.872 750.364 337.674 750.232 336.374L753.962 336.022C754.034 336.813 754.266 337.528 754.656 338.167C755.059 338.807 755.565 339.338 756.175 339.758C756.787 340.166 757.448 340.431 758.158 340.552C759.093 340.711 759.977 340.63 760.81 340.309C761.656 339.99 762.362 339.49 762.928 338.807C763.506 338.126 763.873 337.33 764.028 336.42C764.187 335.485 764.1 334.6 763.768 333.764C763.447 332.931 762.939 332.23 762.245 331.661C761.564 331.083 760.768 330.716 759.857 330.561C758.816 330.384 757.9 330.441 757.108 330.733C756.316 331.024 755.672 331.407 755.177 331.883L752.141 330.198L755.207 316.898L768.994 319.243L768.4 322.739L756.511 320.717L758.257 319.571L755.925 329.527L755.357 328.463C756.146 327.903 757.038 327.526 758.033 327.33C759.028 327.134 759.987 327.114 760.91 327.271C762.495 327.541 763.846 328.148 764.964 329.093C766.093 330.039 766.911 331.207 767.417 332.596C767.925 333.972 768.044 335.459 767.772 337.056C767.503 338.642 766.849 340.015 765.811 341.178C764.776 342.329 763.518 343.174 762.039 343.713C760.559 344.253 759.027 344.388 757.442 344.118ZM779.464 347.864C777.725 347.568 776.251 346.928 775.043 345.943C773.837 344.947 772.963 343.715 772.422 342.248C771.892 340.782 771.775 339.18 772.071 337.441L773.568 328.639C773.864 326.9 774.504 325.427 775.488 324.219C776.485 323.013 777.716 322.145 779.181 321.615C780.649 321.073 782.252 320.95 783.991 321.246C785.73 321.542 787.203 322.188 788.409 323.184C789.617 324.169 790.486 325.394 791.015 326.86C791.557 328.327 791.68 329.93 791.384 331.669L789.887 340.471C789.591 342.21 788.945 343.683 787.949 344.889C786.964 346.097 785.738 346.971 784.271 347.513C782.805 348.043 781.203 348.16 779.464 347.864ZM780.067 344.315C781.014 344.476 781.91 344.397 782.755 344.078C783.614 343.75 784.34 343.24 784.932 342.55C785.526 341.847 785.905 341.017 786.068 340.059L787.65 330.76C787.811 329.814 787.726 328.917 787.395 328.07C787.067 327.21 786.55 326.49 785.846 325.907C785.155 325.315 784.337 324.938 783.391 324.777C782.444 324.617 781.541 324.7 780.682 325.029C779.837 325.348 779.117 325.858 778.523 326.56C777.931 327.251 777.554 328.069 777.393 329.016L775.811 338.314C775.648 339.272 775.731 340.181 776.06 341.04C776.39 341.888 776.901 342.608 777.591 343.2C778.296 343.782 779.121 344.154 780.067 344.315ZM802.234 351.737C800.495 351.441 799.022 350.801 797.814 349.817C796.608 348.82 795.734 347.588 795.192 346.121C794.663 344.655 794.546 343.053 794.841 341.314L796.339 332.512C796.634 330.773 797.275 329.3 798.259 328.092C799.255 326.886 800.486 326.018 801.952 325.488C803.42 324.946 805.023 324.824 806.762 325.119C808.501 325.415 809.973 326.061 811.179 327.058C812.387 328.042 813.256 329.267 813.786 330.733C814.328 332.2 814.45 333.804 814.155 335.543L812.658 344.344C812.362 346.083 811.716 347.556 810.719 348.762C809.735 349.97 808.509 350.845 807.041 351.386C805.576 351.916 803.973 352.033 802.234 351.737ZM802.838 348.188C803.784 348.349 804.68 348.27 805.526 347.951C806.385 347.623 807.111 347.113 807.703 346.423C808.297 345.72 808.676 344.89 808.839 343.932L810.42 334.634C810.581 333.687 810.496 332.79 810.166 331.943C809.837 331.084 809.321 330.363 808.617 329.78C807.926 329.188 807.108 328.812 806.161 328.651C805.215 328.49 804.312 328.573 803.453 328.902C802.607 329.221 801.887 329.731 801.293 330.434C800.701 331.124 800.325 331.943 800.164 332.889L798.582 342.187C798.419 343.146 798.502 344.054 798.83 344.914C799.161 345.761 799.671 346.481 800.362 347.073C801.066 347.655 801.892 348.027 802.838 348.188ZM823.204 349.881L824.321 343.315L817.755 342.199L818.262 339.217L824.828 340.334L825.939 333.804L828.92 334.311L827.809 340.841L834.357 341.955L833.85 344.936L827.302 343.822L826.185 350.388L823.204 349.881ZM843.637 358.232L847.983 332.679L858.311 334.435C858.559 334.478 858.865 334.542 859.228 334.628C859.592 334.702 859.935 334.797 860.257 334.912C861.638 335.379 862.738 336.065 863.558 336.971C864.39 337.879 864.945 338.942 865.225 340.158C865.505 341.374 865.529 342.668 865.295 344.04C865.06 345.425 864.609 346.644 863.943 347.699C863.276 348.755 862.4 349.573 861.315 350.156C860.242 350.74 858.977 351.024 857.519 351.007C857.18 350.998 856.819 350.973 856.436 350.932C856.065 350.894 855.762 350.854 855.525 350.814L848.906 349.688L847.346 358.862L843.637 358.232ZM849.504 346.175L855.981 347.276C856.217 347.317 856.48 347.349 856.768 347.374C857.067 347.4 857.352 347.406 857.623 347.391C858.41 347.343 859.075 347.121 859.616 346.726C860.16 346.32 860.586 345.82 860.894 345.227C861.202 344.634 861.409 344.025 861.516 343.398C861.622 342.771 861.627 342.132 861.531 341.483C861.436 340.822 861.199 340.215 860.818 339.664C860.439 339.1 859.886 338.665 859.159 338.359C858.911 338.244 858.641 338.149 858.349 338.075C858.069 338.003 857.811 337.947 857.574 337.907L851.097 336.805L849.504 346.175ZM870.62 363.369C869.201 363.128 868.056 362.665 867.186 361.982C866.319 361.286 865.71 360.465 865.36 359.516C865.024 358.558 864.944 357.559 865.121 356.518C865.286 355.548 865.603 354.725 866.07 354.05C866.538 353.375 867.153 352.84 867.913 352.446C868.676 352.041 869.576 351.762 870.612 351.609C871.506 351.506 872.507 351.451 873.616 351.445C874.725 351.438 875.885 351.453 877.096 351.489C878.319 351.526 879.53 351.562 880.73 351.596L879.254 352.111C879.533 350.613 879.403 349.447 878.863 348.612C878.337 347.768 877.276 347.21 875.679 346.939C874.673 346.768 873.71 346.847 872.79 347.178C871.872 347.496 871.155 348.165 870.641 349.186L867.362 347.532C868.115 345.968 869.236 344.814 870.726 344.07C872.228 343.327 874.085 343.144 876.297 343.52C878.012 343.812 879.453 344.361 880.618 345.168C881.797 345.965 882.575 347.046 882.951 348.413C883.152 349.092 883.228 349.787 883.181 350.497C883.133 351.207 883.04 351.964 882.904 352.769L880.896 364.569L877.614 364.011L878.359 359.628L878.901 360.304C877.859 361.636 876.662 362.559 875.309 363.071C873.969 363.574 872.407 363.673 870.62 363.369ZM871.793 360.446C872.846 360.625 873.782 360.596 874.601 360.358C875.423 360.108 876.114 359.733 876.674 359.232C877.234 358.73 877.638 358.178 877.887 357.575C878.184 357.042 878.405 356.422 878.55 355.716C878.706 355.013 878.82 354.448 878.893 354.022L880.024 354.671C878.823 354.649 877.731 354.628 876.748 354.607C875.766 354.586 874.872 354.58 874.067 354.589C873.276 354.588 872.563 354.631 871.927 354.718C871.389 354.809 870.897 354.944 870.452 355.124C870.02 355.306 869.655 355.555 869.358 355.869C869.073 356.186 868.887 356.599 868.8 357.107C868.716 357.604 868.762 358.087 868.938 358.555C869.116 359.011 869.438 359.407 869.904 359.742C870.371 360.077 871 360.311 871.793 360.446ZM885.504 365.353L888.764 346.188L892.065 346.75L891.274 351.399L890.915 350.717C891.256 350.142 891.66 349.633 892.125 349.188C892.592 348.732 893.102 348.381 893.655 348.134C894.201 347.862 894.785 347.681 895.409 347.592C896.046 347.494 896.682 347.48 897.315 347.551C897.95 347.611 898.548 347.743 899.11 347.948L898.518 351.426C897.919 351.154 897.229 350.988 896.448 350.928C895.679 350.87 894.94 350.994 894.231 351.299C893.561 351.587 893.001 351.979 892.552 352.474C892.114 352.972 891.76 353.551 891.489 354.211C891.221 354.859 891.022 355.562 890.894 356.319L889.249 365.99L885.504 365.353ZM910.196 369.553C908.949 369.584 907.749 369.483 906.595 369.251C905.442 369.018 904.445 368.617 903.605 368.048C902.764 367.479 902.189 366.712 901.878 365.746C901.599 364.883 901.511 364.04 901.614 363.218C901.732 362.386 901.879 361.449 902.056 360.408L904.938 343.462L908.665 344.096L905.812 360.865C905.682 361.634 905.574 362.303 905.489 362.873C905.416 363.445 905.459 363.945 905.617 364.374C905.918 365.18 906.521 365.714 907.426 365.978C908.344 366.231 909.446 366.376 910.73 366.412L910.196 369.553ZM899.852 351.142L900.359 348.161L913.455 350.388L912.948 353.369L899.852 351.142ZM918.385 347.995L918.998 344.393L922.707 345.023L922.094 348.626L918.385 347.995ZM914.591 370.3L917.851 351.136L921.56 351.767L918.3 370.931L914.591 370.3ZM931.736 373.765C929.773 373.43 928.179 372.709 926.956 371.6C925.732 370.491 924.884 369.112 924.41 367.461C923.948 365.812 923.876 364.016 924.194 362.074C924.542 360.101 925.217 358.42 926.22 357.033C927.225 355.633 928.493 354.62 930.024 353.991C931.555 353.363 933.29 353.214 935.231 353.544C937.324 353.9 939.022 354.725 940.324 356.017C941.637 357.312 942.377 358.904 942.542 360.795L938.67 361.232C938.486 360.093 938.025 359.156 937.286 358.422C936.56 357.678 935.659 357.214 934.583 357.031C933.364 356.824 932.315 356.943 931.436 357.39C930.558 357.825 929.846 358.507 929.298 359.437C928.751 360.366 928.362 361.469 928.133 362.744C927.809 364.722 927.987 366.395 928.667 367.765C929.359 369.136 930.58 369.971 932.331 370.269C933.526 370.472 934.536 370.364 935.362 369.944C936.202 369.515 936.905 368.819 937.47 367.856L941.081 369.383C940.136 371.146 938.857 372.407 937.242 373.167C935.63 373.916 933.795 374.115 931.736 373.765ZM947.429 352.935L948.042 349.333L951.75 349.964L951.138 353.566L947.429 352.935ZM943.635 375.241L946.895 356.076L950.603 356.707L947.344 375.871L943.635 375.241ZM961.579 378.841C959.745 378.529 958.283 377.823 957.191 376.725C956.102 375.614 955.368 374.242 954.989 372.607C954.609 370.972 954.583 369.197 954.909 367.28C955.235 365.364 955.841 363.696 956.728 362.276C957.626 360.859 958.765 359.817 960.144 359.151C961.537 358.475 963.139 358.291 964.949 358.599C966.747 358.905 968.221 359.612 969.371 360.721C970.536 361.819 971.343 363.192 971.793 364.839C972.245 366.474 972.308 368.256 971.98 370.184C971.654 372.1 971.005 373.767 970.033 375.184C969.076 376.592 967.871 377.628 966.419 378.294C964.978 378.962 963.365 379.144 961.579 378.841ZM951.206 385.292L955.915 357.61L959.215 358.172L956.87 371.959L957.296 372.032L954.932 385.926L951.206 385.292ZM961.635 375.399C962.818 375.6 963.845 375.465 964.716 374.992C965.6 374.522 966.317 373.81 966.869 372.857C967.434 371.894 967.825 370.78 968.04 369.514C968.253 368.26 968.251 367.091 968.034 366.007C967.829 364.925 967.381 364.016 966.691 363.277C966.001 362.539 965.041 362.065 963.81 361.856C962.651 361.659 961.644 361.78 960.791 362.219C959.949 362.66 959.258 363.358 958.718 364.313C958.19 365.27 957.814 366.411 957.588 367.736C957.363 369.061 957.341 370.262 957.523 371.34C957.705 372.418 958.131 373.312 958.801 374.023C959.472 374.733 960.416 375.192 961.635 375.399ZM979.586 381.903C978.167 381.662 977.022 381.2 976.152 380.516C975.285 379.821 974.676 378.999 974.326 378.051C973.99 377.093 973.91 376.093 974.087 375.052C974.252 374.082 974.569 373.26 975.037 372.585C975.504 371.91 976.119 371.375 976.88 370.981C977.642 370.575 978.542 370.296 979.578 370.144C980.472 370.04 981.474 369.985 982.582 369.979C983.691 369.973 984.851 369.988 986.062 370.023C987.285 370.061 988.496 370.096 989.696 370.13L988.22 370.646C988.5 369.147 988.369 367.981 987.83 367.147C987.304 366.303 986.242 365.745 984.645 365.473C983.64 365.302 982.677 365.382 981.756 365.712C980.838 366.031 980.121 366.7 979.607 367.72L976.328 366.067C977.081 364.503 978.202 363.349 979.692 362.604C981.194 361.861 983.051 361.678 985.263 362.054C986.979 362.346 988.419 362.895 989.584 363.702C990.763 364.499 991.541 365.581 991.917 366.947C992.118 367.627 992.194 368.321 992.147 369.031C992.099 369.741 992.007 370.499 991.87 371.303L989.863 383.104L986.58 382.545L987.325 378.162L987.868 378.839C986.825 380.171 985.628 381.093 984.275 381.605C982.936 382.108 981.373 382.207 979.586 381.903ZM980.759 378.981C981.812 379.16 982.748 379.13 983.568 378.892C984.389 378.643 985.08 378.267 985.64 377.766C986.2 377.265 986.604 376.713 986.853 376.11C987.15 375.576 987.372 374.957 987.516 374.251C987.672 373.547 987.786 372.982 987.859 372.556L988.99 373.205C987.789 373.183 986.697 373.162 985.715 373.141C984.732 373.12 983.838 373.114 983.034 373.123C982.242 373.123 981.529 373.166 980.894 373.252C980.355 373.343 979.863 373.479 979.419 373.659C978.986 373.841 978.621 374.089 978.324 374.404C978.039 374.72 977.853 375.133 977.767 375.642C977.682 376.139 977.728 376.621 977.904 377.089C978.082 377.546 978.404 377.941 978.871 378.276C979.337 378.611 979.966 378.846 980.759 378.981ZM1007.92 386.175L1009.52 376.753C1009.65 376.007 1009.72 375.233 1009.72 374.43C1009.73 373.618 1009.62 372.844 1009.38 372.109C1009.15 371.377 1008.76 370.749 1008.19 370.226C1007.63 369.705 1006.84 369.359 1005.83 369.186C1005.16 369.073 1004.52 369.079 1003.89 369.203C1003.26 369.315 1002.68 369.576 1002.15 369.984C1001.63 370.395 1001.17 370.974 1000.78 371.722C1000.39 372.473 1000.1 373.416 999.911 374.552L997.752 373.29C998.048 371.551 998.634 370.074 999.51 368.86C1000.39 367.634 1001.5 366.751 1002.84 366.213C1004.19 365.675 1005.73 365.553 1007.45 365.847C1008.78 366.072 1009.85 366.475 1010.68 367.053C1011.51 367.632 1012.14 368.318 1012.58 369.11C1013.03 369.893 1013.33 370.718 1013.49 371.584C1013.65 372.451 1013.71 373.284 1013.68 374.083C1013.66 374.881 1013.59 375.577 1013.49 376.168L1011.68 386.815L1007.92 386.175ZM994.453 383.884L997.713 364.72L1001.03 365.284L1000.09 370.821L1000.53 370.896L998.215 384.524L994.453 383.884ZM1027.27 389.467C1026.02 389.498 1024.82 389.397 1023.67 389.165C1022.52 388.932 1021.52 388.531 1020.68 387.962C1019.84 387.393 1019.26 386.626 1018.95 385.66C1018.68 384.797 1018.59 383.954 1018.69 383.132C1018.81 382.3 1018.95 381.363 1019.13 380.322L1022.01 363.376L1025.74 364.01L1022.89 380.779C1022.76 381.548 1022.65 382.217 1022.57 382.787C1022.49 383.359 1022.54 383.859 1022.69 384.288C1022.99 385.094 1023.6 385.628 1024.5 385.892C1025.42 386.145 1026.52 386.29 1027.81 386.326L1027.27 389.467ZM1016.93 371.056L1017.44 368.074L1030.53 370.302L1030.02 373.283L1016.93 371.056ZM1038.55 391.915C1036.22 391.519 1034.41 390.681 1033.12 389.402C1031.83 388.124 1031.18 386.522 1031.16 384.596L1035.06 384.656C1035.13 385.69 1035.54 386.57 1036.29 387.294C1037.06 388.009 1038.08 388.475 1039.36 388.692C1040.52 388.89 1041.46 388.807 1042.19 388.444C1042.94 388.084 1043.38 387.49 1043.52 386.661C1043.6 386.176 1043.55 385.766 1043.36 385.43C1043.19 385.084 1042.76 384.713 1042.07 384.316C1041.39 383.919 1040.33 383.392 1038.89 382.734C1037.32 382.028 1036.09 381.351 1035.2 380.701C1034.33 380.041 1033.74 379.35 1033.44 378.629C1033.15 377.898 1033.08 377.065 1033.24 376.131C1033.44 374.972 1033.92 374.012 1034.68 373.253C1035.44 372.494 1036.42 371.973 1037.61 371.689C1038.82 371.407 1040.17 371.394 1041.67 371.649C1043.14 371.899 1044.41 372.352 1045.48 373.008C1046.55 373.665 1047.36 374.479 1047.93 375.452C1048.49 376.413 1048.75 377.473 1048.7 378.633L1044.79 378.679C1044.81 377.734 1044.5 376.933 1043.86 376.276C1043.22 375.619 1042.32 375.167 1041.15 374.92C1040.04 374.682 1039.09 374.716 1038.32 375.023C1037.55 375.319 1037.11 375.833 1036.98 376.567C1036.91 376.992 1036.98 377.375 1037.19 377.715C1037.41 378.057 1037.88 378.43 1038.61 378.833C1039.33 379.236 1040.41 379.754 1041.85 380.388C1043.39 381.076 1044.58 381.755 1045.44 382.424C1046.31 383.082 1046.88 383.794 1047.16 384.561C1047.46 385.317 1047.53 386.186 1047.36 387.168C1047.04 389.061 1046.09 390.428 1044.52 391.269C1042.97 392.112 1040.98 392.328 1038.55 391.915Z" fill="#225C90"/>
</g>
<g filter="url(#filter4_d_1353_2122)">
<path d="M74.0068 298.737L233.396 316.181L238.646 267.582L199.913 201.67L50.5115 183.625C74.5696 226.653 80.0244 251.846 74.0068 298.737Z" fill="#F3F4F5"/>
<path d="M704.909 50.0578L863.918 66.1408L199.913 201.67L60.3192 181.624L704.909 50.0578Z" fill="#0DAEF1"/>
<path d="M82.0583 303.782L218.801 320.147C221.26 320.442 223.718 319.586 225.463 317.828C230.23 313.024 227.291 304.838 220.557 304.164L83.5229 290.451C82.852 290.384 82.1748 290.418 81.5141 290.553C74.0559 292.075 74.5003 302.877 82.0583 303.782Z" fill="#0DAEF1"/>
<path d="M61.5533 190.945L211.645 202.703C215.161 202.979 218.52 201.198 220.265 198.132C223.677 192.138 219.441 184.674 212.545 184.531L62.0263 181.398C61.6633 181.391 61.3006 181.424 60.9453 181.499C55.5369 182.633 56.0441 190.514 61.5533 190.945Z" fill="#0DAEF1"/>
<path d="M863.678 65.763L198.857 201.458C223.562 247.287 228.501 273.389 223.03 319.892L878.876 186.029C884.656 184.849 889.842 181.545 891.888 176.012C895.41 166.482 899.002 148.527 892.293 121.606C881.72 79.1737 863.678 65.763 863.678 65.763Z" fill="url(#paint2_linear_1353_2122)"/>
<line x1="70.3164" y1="204.476" x2="199.766" y2="214.458" stroke="#EBEBEA" stroke-width="1.98157"/>
<line x1="73.8828" y1="221.95" x2="203.333" y2="231.931" stroke="#EBEBEA" stroke-width="1.98157"/>
<line x1="77.4492" y1="239.423" x2="206.899" y2="249.405" stroke="#EBEBEA" stroke-width="1.98157"/>
<line x1="81.0166" y1="256.897" x2="210.466" y2="266.879" stroke="#EBEBEA" stroke-width="1.98157"/>
<line x1="84.583" y1="274.371" x2="214.033" y2="284.353" stroke="#EBEBEA" stroke-width="1.98157"/>
<path d="M441.506 228.743L440.664 224.616L444.35 223.864L445.192 227.991L441.506 228.743ZM435.736 200.472L434.89 196.328L438.576 195.575L439.422 199.72L435.736 200.472ZM442.926 225.349C441.162 225.709 439.522 225.713 438.005 225.361C436.488 225.009 435.164 224.343 434.033 223.361C432.911 222.365 432.052 221.095 431.455 219.552L434.987 218.224C435.647 219.657 436.644 220.703 437.979 221.362C439.311 222.008 440.782 222.167 442.393 221.838C443.992 221.512 445.213 220.865 446.057 219.896C446.912 218.926 447.218 217.847 446.976 216.659C446.803 215.813 446.404 215.178 445.779 214.754C445.165 214.328 444.245 214.051 443.018 213.921L436.683 213.304C432.933 212.93 430.737 211.174 430.096 208.035C429.794 206.553 429.884 205.194 430.366 203.956C430.86 202.717 431.693 201.665 432.863 200.801C434.034 199.938 435.484 199.329 437.212 198.977C438.875 198.662 440.407 198.667 441.809 198.994C443.222 199.318 444.465 199.946 445.537 200.878C446.621 201.808 447.486 203.016 448.132 204.5L444.512 205.937C444.163 205.066 443.652 204.337 442.982 203.751C442.323 203.163 441.554 202.757 440.675 202.532C439.808 202.305 438.88 202.286 437.89 202.476C436.956 202.642 436.151 202.959 435.476 203.428C434.809 203.882 434.316 204.436 433.996 205.089C433.685 205.728 433.602 206.401 433.746 207.106C433.905 207.882 434.339 208.479 435.049 208.898C435.759 209.316 436.8 209.587 438.173 209.711L443.123 210.115C445.393 210.314 447.113 210.85 448.284 211.726C449.455 212.602 450.221 213.927 450.583 215.702C450.9 217.254 450.789 218.692 450.251 220.014C449.722 221.322 448.831 222.447 447.578 223.389C446.322 224.319 444.772 224.972 442.926 225.349ZM460.251 221.261L455.895 199.921L451.71 203.807L450.871 199.698L455.067 195.865L458.824 195.098L464.007 220.495L460.251 221.261ZM478.943 217.997C477.285 218.336 475.748 218.306 474.333 217.91C472.926 217.499 471.737 216.774 470.766 215.735C469.806 214.694 469.167 213.391 468.847 211.828C468.55 210.37 468.618 208.966 469.053 207.615C469.488 206.265 470.311 205.105 471.521 204.136L471.71 205.42C470.491 204.97 469.486 204.306 468.694 203.427C467.912 202.533 467.393 201.463 467.139 200.217C466.844 198.771 466.923 197.45 467.377 196.255C467.832 195.06 468.588 194.055 469.646 193.238C470.716 192.42 472.015 191.855 473.544 191.543C475.072 191.231 476.483 191.243 477.776 191.579C479.07 191.915 480.159 192.544 481.046 193.465C481.932 194.387 482.522 195.57 482.818 197.017C483.072 198.263 483.025 199.442 482.676 200.554C482.328 201.667 481.653 202.68 480.651 203.595L480.347 202.371C481.821 202.756 483.03 203.489 483.974 204.57C484.914 205.639 485.534 206.903 485.831 208.361C486.15 209.925 486.067 211.375 485.58 212.711C485.094 214.048 484.278 215.182 483.133 216.113C481.986 217.033 480.589 217.661 478.943 217.997ZM478.227 214.488C479.591 214.209 480.62 213.613 481.316 212.7C482.009 211.775 482.209 210.595 481.916 209.16C481.623 207.726 480.977 206.719 479.977 206.139C478.986 205.545 477.803 205.389 476.427 205.669C475.051 205.95 474.018 206.559 473.328 207.496C472.647 208.419 472.452 209.598 472.745 211.032C473.038 212.467 473.684 213.474 474.684 214.053C475.682 214.621 476.863 214.766 478.227 214.488ZM475.707 202.142C476.871 201.905 477.753 201.425 478.352 200.702C478.961 199.965 479.145 199.003 478.902 197.816C478.66 196.628 478.114 195.815 477.265 195.376C476.426 194.923 475.424 194.815 474.26 195.052C473.096 195.29 472.211 195.783 471.604 196.531C470.995 197.268 470.812 198.23 471.054 199.418C471.297 200.605 471.842 201.418 472.691 201.858C473.538 202.285 474.543 202.38 475.707 202.142ZM491.906 214.8L486.74 189.4L490.479 188.637L493.647 204.157L499.253 193.46L503.944 192.502L497.987 203.639L508.643 211.384L503.634 212.407L493.791 204.863L495.663 214.034L491.906 214.8ZM513.31 187.339L512.58 183.759L516.266 183.006L516.996 186.587L513.31 187.339ZM517.835 209.508L513.948 190.461L517.634 189.708L521.521 208.756L517.835 209.508ZM540.186 204.946L538.274 195.581C538.123 194.84 537.904 194.095 537.616 193.346C537.338 192.582 536.954 191.901 536.464 191.303C535.986 190.702 535.388 190.261 534.669 189.979C533.962 189.695 533.103 189.656 532.092 189.862C531.433 189.996 530.833 190.235 530.291 190.579C529.746 190.91 529.299 191.363 528.951 191.936C528.614 192.507 528.397 193.213 528.299 194.053C528.213 194.891 528.285 195.875 528.516 197.003L526.047 196.607C525.694 194.879 525.706 193.29 526.084 191.841C526.46 190.381 527.177 189.157 528.237 188.169C529.297 187.181 530.685 186.512 532.402 186.161C533.719 185.892 534.867 185.878 535.847 186.119C536.827 186.36 537.664 186.771 538.358 187.352C539.062 187.919 539.644 188.578 540.103 189.329C540.563 190.08 540.924 190.833 541.189 191.588C541.453 192.342 541.645 193.013 541.765 193.601L543.925 204.183L540.186 204.946ZM526.8 207.678L522.912 188.631L526.21 187.958L527.333 193.46L527.774 193.37L530.539 206.915L526.8 207.678ZM555.58 201.804L550.396 176.408L560.661 174.313C560.908 174.262 561.216 174.211 561.585 174.161C561.952 174.098 562.306 174.062 562.647 174.054C564.104 173.989 565.378 174.232 566.47 174.78C567.573 175.327 568.475 176.116 569.176 177.149C569.877 178.182 570.366 179.38 570.645 180.744C570.925 182.119 570.946 183.42 570.706 184.644C570.466 185.869 569.945 186.949 569.144 187.884C568.355 188.817 567.277 189.539 565.912 190.05C565.592 190.164 565.247 190.272 564.876 190.372C564.516 190.47 564.218 190.543 563.983 190.591L557.405 191.934L559.266 201.052L555.58 201.804ZM556.692 188.442L563.129 187.128C563.365 187.08 563.621 187.015 563.898 186.934C564.187 186.851 564.455 186.753 564.702 186.641C565.418 186.311 565.958 185.865 566.32 185.301C566.681 184.725 566.897 184.105 566.97 183.441C567.042 182.777 567.015 182.134 566.888 181.511C566.761 180.887 566.535 180.291 566.21 179.72C565.883 179.138 565.442 178.658 564.888 178.281C564.331 177.893 563.658 177.687 562.87 177.664C562.597 177.647 562.311 177.656 562.012 177.693C561.725 177.727 561.464 177.768 561.229 177.816L554.791 179.13L556.692 188.442ZM577.694 197.29L573.807 178.243L577.087 177.573L578.03 182.194L577.449 181.688C577.56 181.029 577.751 180.408 578.024 179.825C578.295 179.231 578.644 178.719 579.07 178.289C579.48 177.838 579.96 177.459 580.51 177.15C581.068 176.828 581.656 176.586 582.272 176.423C582.885 176.249 583.491 176.156 584.089 176.144L584.794 179.601C584.137 179.564 583.434 179.658 582.684 179.885C581.946 180.109 581.302 180.491 580.751 181.033C580.23 181.543 579.85 182.11 579.61 182.735C579.382 183.357 579.261 184.025 579.247 184.738C579.231 185.439 579.3 186.166 579.454 186.919L581.416 196.531L577.694 197.29ZM587.163 172.265L586.432 168.685L590.118 167.933L590.849 171.513L587.163 172.265ZM591.688 194.434L587.8 175.387L591.486 174.634L595.374 193.682L591.688 194.434ZM598.906 192.961L598.787 192.379L606.503 175.005L596.679 177.01L596.006 173.712L611.685 170.512L611.807 171.111L604.106 188.464L614.37 186.369L615.043 189.667L598.906 192.961ZM626.586 187.862C624.693 188.248 622.946 188.177 621.343 187.646C619.75 187.102 618.403 186.171 617.301 184.852C616.208 183.52 615.462 181.872 615.061 179.908C614.636 177.827 614.656 175.943 615.12 174.256C615.596 172.567 616.448 171.162 617.677 170.042C618.905 168.922 620.449 168.172 622.306 167.793C624.246 167.397 625.991 167.512 627.539 168.139C629.086 168.754 630.363 169.822 631.372 171.343C632.392 172.862 633.064 174.776 633.389 177.086L629.703 177.838L629.429 176.498C628.955 174.292 628.198 172.744 627.159 171.854C626.131 170.962 624.783 170.686 623.113 171.027C621.267 171.403 619.999 172.268 619.308 173.622C618.616 174.976 618.495 176.752 618.944 178.95C619.371 181.043 620.167 182.571 621.331 183.534C622.492 184.485 623.949 184.781 625.701 184.424C626.853 184.189 627.794 183.727 628.523 183.039C629.262 182.337 629.766 181.451 630.038 180.379L633.887 180.787C633.494 182.643 632.641 184.195 631.328 185.443C630.013 186.679 628.432 187.485 626.586 187.862ZM617.957 180.236L617.37 177.361L630.968 174.586L631.555 177.46L617.957 180.236ZM646.465 183.786C644.149 184.259 642.158 184.133 640.491 183.407C638.824 182.682 637.637 181.424 636.928 179.634L640.584 178.281C641.02 179.221 641.721 179.892 642.685 180.296C643.658 180.685 644.78 180.75 646.05 180.491C647.202 180.256 648.054 179.837 648.604 179.235C649.167 178.63 649.364 177.916 649.196 177.093C649.098 176.611 648.901 176.247 648.606 176.001C648.32 175.741 647.785 175.55 647.001 175.428C646.217 175.307 645.037 175.198 643.462 175.103C641.742 175.014 640.35 174.826 639.287 174.541C638.234 174.242 637.436 173.81 636.892 173.248C636.358 172.671 635.996 171.918 635.807 170.989C635.572 169.837 635.672 168.769 636.108 167.786C636.545 166.803 637.267 165.964 638.277 165.268C639.298 164.57 640.555 164.068 642.048 163.763C643.506 163.466 644.852 163.43 646.086 163.655C647.32 163.881 648.376 164.345 649.254 165.048C650.13 165.739 650.754 166.634 651.125 167.734L647.492 169.192C647.175 168.302 646.598 167.666 645.761 167.286C644.924 166.905 643.919 166.811 642.745 167.001C641.619 167.182 640.752 167.555 640.145 168.12C639.535 168.673 639.304 169.314 639.453 170.043C639.54 170.466 639.742 170.798 640.061 171.04C640.391 171.278 640.966 171.455 641.786 171.569C642.605 171.684 643.8 171.777 645.37 171.848C647.053 171.933 648.416 172.133 649.46 172.446C650.501 172.748 651.293 173.205 651.834 173.817C652.385 174.415 652.76 175.202 652.959 176.178C653.343 178.059 652.956 179.675 651.799 181.026C650.654 182.374 648.876 183.294 646.465 183.786Z" fill="#225C90"/>
</g>
<defs>
<filter id="filter0_d_1353_2122" x="685.376" y="616.044" width="850.043" height="448.688" filterUnits="userSpaceOnUse" color-interpolation-filters="sRGB">
<feFlood flood-opacity="0" result="BackgroundImageFix"/>
<feColorMatrix in="SourceAlpha" type="matrix" values="0 0 0 0 0 0 0 0 0 0 0 0 0 0 0 0 0 0 127 0" result="hardAlpha"/>
<feOffset/>
<feGaussianBlur stdDeviation="25"/>
<feComposite in2="hardAlpha" operator="out"/>
<feColorMatrix type="matrix" values="0 0 0 0 0.713726 0 0 0 0 1 0 0 0 0 0.964706 0 0 0 0.5 0"/>
<feBlend mode="normal" in2="BackgroundImageFix" result="effect1_dropShadow_1353_2122"/>
<feBlend mode="normal" in="SourceGraphic" in2="effect1_dropShadow_1353_2122" result="shape"/>
</filter>
<filter id="filter1_d_1353_2122" x="515.363" y="320.947" width="996.833" height="505.641" filterUnits="userSpaceOnUse" color-interpolation-filters="sRGB">
<feFlood flood-opacity="0" result="BackgroundImageFix"/>
<feColorMatrix in="SourceAlpha" type="matrix" values="0 0 0 0 0 0 0 0 0 0 0 0 0 0 0 0 0 0 127 0" result="hardAlpha"/>
<feOffset/>
<feGaussianBlur stdDeviation="25"/>
<feComposite in2="hardAlpha" operator="out"/>
<feColorMatrix type="matrix" values="0 0 0 0 0.713726 0 0 0 0 1 0 0 0 0 0.964706 0 0 0 0.5 0"/>
<feBlend mode="normal" in2="BackgroundImageFix" result="effect1_dropShadow_1353_2122"/>
<feBlend mode="normal" in="SourceGraphic" in2="effect1_dropShadow_1353_2122" result="shape"/>
</filter>
<filter id="filter2_d_1353_2122" x="515.363" y="324.947" width="996.833" height="505.641" filterUnits="userSpaceOnUse" color-interpolation-filters="sRGB">
<feFlood flood-opacity="0" result="BackgroundImageFix"/>
<feColorMatrix in="SourceAlpha" type="matrix" values="0 0 0 0 0 0 0 0 0 0 0 0 0 0 0 0 0 0 127 0" result="hardAlpha"/>
<feOffset dy="4"/>
<feGaussianBlur stdDeviation="25"/>
<feComposite in2="hardAlpha" operator="out"/>
<feColorMatrix type="matrix" values="0 0 0 0 0.713726 0 0 0 0 1 0 0 0 0 0.964706 0 0 0 0.5 0"/>
<feBlend mode="normal" in2="BackgroundImageFix" result="effect1_dropShadow_1353_2122"/>
<feBlend mode="normal" in="SourceGraphic" in2="effect1_dropShadow_1353_2122" result="shape"/>
</filter>
<filter id="filter3_d_1353_2122" x="474.823" y="136.008" width="849.316" height="388.302" filterUnits="userSpaceOnUse" color-interpolation-filters="sRGB">
<feFlood flood-opacity="0" result="BackgroundImageFix"/>
<feColorMatrix in="SourceAlpha" type="matrix" values="0 0 0 0 0 0 0 0 0 0 0 0 0 0 0 0 0 0 127 0" result="hardAlpha"/>
<feOffset/>
<feGaussianBlur stdDeviation="25"/>
<feComposite in2="hardAlpha" operator="out"/>
<feColorMatrix type="matrix" values="0 0 0 0 0.713726 0 0 0 0 1 0 0 0 0 0.964706 0 0 0 0.5 0"/>
<feBlend mode="normal" in2="BackgroundImageFix" result="effect1_dropShadow_1353_2122"/>
<feBlend mode="normal" in="SourceGraphic" in2="effect1_dropShadow_1353_2122" result="shape"/>
</filter>
<filter id="filter4_d_1353_2122" x="0.511719" y="0.0578613" width="945.554" height="370.146" filterUnits="userSpaceOnUse" color-interpolation-filters="sRGB">
<feFlood flood-opacity="0" result="BackgroundImageFix"/>
<feColorMatrix in="SourceAlpha" type="matrix" values="0 0 0 0 0 0 0 0 0 0 0 0 0 0 0 0 0 0 127 0" result="hardAlpha"/>
<feOffset/>
<feGaussianBlur stdDeviation="25"/>
<feComposite in2="hardAlpha" operator="out"/>
<feColorMatrix type="matrix" values="0 0 0 0 0.713726 0 0 0 0 1 0 0 0 0 0.964706 0 0 0 0.55 0"/>
<feBlend mode="normal" in2="BackgroundImageFix" result="effect1_dropShadow_1353_2122"/>
<feBlend mode="normal" in="SourceGraphic" in2="effect1_dropShadow_1353_2122" result="shape"/>
</filter>
<linearGradient id="paint0_linear_1353_2122" x1="737.172" y1="816.5" x2="775.196" y2="638.895" gradientUnits="userSpaceOnUse">
<stop stop-color="#FFCDF7"/>
<stop offset="1" stop-color="#FAC4CB"/>
</linearGradient>
<linearGradient id="paint1_linear_1353_2122" x1="1571.81" y1="813.856" x2="600.314" y2="433.356" gradientUnits="userSpaceOnUse">
<stop stop-color="#B6FFF6"/>
<stop offset="1" stop-color="#0DAEF1"/>
</linearGradient>
<linearGradient id="paint2_linear_1353_2122" x1="865.678" y1="127.119" x2="210.683" y2="260.808" gradientUnits="userSpaceOnUse">
<stop stop-color="#A5D8ED"/>
<stop offset="1" stop-color="#B6FFF6"/>
</linearGradient>
</defs>
</svg>
