<svg xmlns="http://www.w3.org/2000/svg" width="1512" height="1748" fill="none"><g fill="#92DDDA" fill-opacity=".7" filter="url(#a)" style="mix-blend-mode:soft-light"><path d="M1002.23 1425.61c0 2.55-2.07 4.62-4.617 4.62a4.615 4.615 0 1 1 4.617-4.62M1029.9 1425.61c0 2.55-2.06 4.62-4.61 4.62s-4.61-2.07-4.61-4.62c0-2.54 2.06-4.61 4.61-4.61s4.61 2.07 4.61 4.61M1057.58 1425.61c0 2.55-2.06 4.62-4.61 4.62s-4.62-2.07-4.62-4.62a4.62 4.62 0 0 1 4.62-4.61c2.55 0 4.61 2.07 4.61 4.61M1085.26 1425.61a4.62 4.62 0 0 1-4.61 4.62c-2.55 0-4.62-2.07-4.62-4.62a4.62 4.62 0 0 1 4.62-4.61c2.54 0 4.61 2.07 4.61 4.61M1112.94 1425.61c0 2.55-2.07 4.62-4.62 4.62s-4.61-2.07-4.61-4.62c0-2.54 2.06-4.61 4.61-4.61a4.62 4.62 0 0 1 4.62 4.61M1140.61 1425.61c0 2.55-2.06 4.62-4.61 4.62s-4.61-2.07-4.61-4.62c0-2.54 2.06-4.61 4.61-4.61s4.61 2.07 4.61 4.61M1168.29 1425.61c0 2.55-2.06 4.62-4.61 4.62s-4.62-2.07-4.62-4.62a4.62 4.62 0 0 1 4.62-4.61c2.55 0 4.61 2.07 4.61 4.61M1195.97 1425.61c0 2.55-2.07 4.62-4.62 4.62a4.62 4.62 0 0 1-4.61-4.62c0-2.54 2.07-4.61 4.61-4.61a4.62 4.62 0 0 1 4.62 4.61M1223.65 1425.61c0 2.55-2.07 4.62-4.62 4.62s-4.61-2.07-4.61-4.62c0-2.54 2.06-4.61 4.61-4.61a4.62 4.62 0 0 1 4.62 4.61M1251.32 1425.61c0 2.55-2.06 4.62-4.61 4.62s-4.61-2.07-4.61-4.62c0-2.54 2.06-4.61 4.61-4.61s4.61 2.07 4.61 4.61M1279 1425.61a4.62 4.62 0 0 1-4.61 4.62c-2.55 0-4.62-2.07-4.62-4.62a4.62 4.62 0 0 1 4.62-4.61c2.54 0 4.61 2.07 4.61 4.61M1002.23 1453.29c0 2.55-2.07 4.61-4.617 4.61a4.61 4.61 0 0 1-4.613-4.61c0-2.55 2.065-4.61 4.613-4.61a4.613 4.613 0 0 1 4.617 4.61M1029.9 1453.29c0 2.55-2.06 4.61-4.61 4.61s-4.61-2.06-4.61-4.61 2.06-4.61 4.61-4.61 4.61 2.06 4.61 4.61M1057.58 1453.29c0 2.55-2.06 4.61-4.61 4.61s-4.62-2.06-4.62-4.61 2.07-4.61 4.62-4.61 4.61 2.06 4.61 4.61M1085.26 1453.29c0 2.55-2.07 4.61-4.61 4.61-2.55 0-4.62-2.06-4.62-4.61s2.07-4.61 4.62-4.61c2.54 0 4.61 2.06 4.61 4.61M1112.94 1453.29c0 2.55-2.07 4.61-4.62 4.61s-4.61-2.06-4.61-4.61 2.06-4.61 4.61-4.61 4.62 2.06 4.62 4.61M1140.61 1453.29c0 2.55-2.06 4.61-4.61 4.61s-4.61-2.06-4.61-4.61 2.06-4.61 4.61-4.61 4.61 2.06 4.61 4.61M1168.29 1453.29c0 2.55-2.06 4.61-4.61 4.61s-4.62-2.06-4.62-4.61 2.07-4.61 4.62-4.61 4.61 2.06 4.61 4.61M1195.97 1453.29c0 2.55-2.07 4.61-4.62 4.61-2.54 0-4.61-2.06-4.61-4.61s2.07-4.61 4.61-4.61c2.55 0 4.62 2.06 4.62 4.61M1223.65 1453.29c0 2.55-2.07 4.61-4.62 4.61s-4.61-2.06-4.61-4.61 2.06-4.61 4.61-4.61 4.62 2.06 4.62 4.61M1251.32 1453.29c0 2.55-2.06 4.61-4.61 4.61s-4.61-2.06-4.61-4.61 2.06-4.61 4.61-4.61 4.61 2.06 4.61 4.61M1279 1453.29c0 2.55-2.07 4.61-4.61 4.61-2.55 0-4.62-2.06-4.62-4.61s2.07-4.61 4.62-4.61c2.54 0 4.61 2.06 4.61 4.61M1002.23 1480.97c0 2.55-2.07 4.61-4.617 4.61a4.61 4.61 0 0 1-4.613-4.61c0-2.55 2.065-4.62 4.613-4.62a4.62 4.62 0 0 1 4.617 4.62M1029.9 1480.97c0 2.55-2.06 4.61-4.61 4.61s-4.61-2.06-4.61-4.61 2.06-4.62 4.61-4.62 4.61 2.07 4.61 4.62M1057.58 1480.97c0 2.55-2.06 4.61-4.61 4.61s-4.62-2.06-4.62-4.61 2.07-4.62 4.62-4.62 4.61 2.07 4.61 4.62M1085.26 1480.97c0 2.55-2.07 4.61-4.61 4.61-2.55 0-4.62-2.06-4.62-4.61s2.07-4.62 4.62-4.62a4.62 4.62 0 0 1 4.61 4.62M1112.94 1480.97c0 2.55-2.07 4.61-4.62 4.61s-4.61-2.06-4.61-4.61 2.06-4.62 4.61-4.62 4.62 2.07 4.62 4.62M1140.61 1480.97c0 2.55-2.06 4.61-4.61 4.61s-4.61-2.06-4.61-4.61 2.06-4.62 4.61-4.62 4.61 2.07 4.61 4.62M1168.29 1480.97c0 2.55-2.06 4.61-4.61 4.61s-4.62-2.06-4.62-4.61 2.07-4.62 4.62-4.62 4.61 2.07 4.61 4.62M1195.97 1480.97c0 2.55-2.07 4.61-4.62 4.61-2.54 0-4.61-2.06-4.61-4.61a4.62 4.62 0 0 1 4.61-4.62c2.55 0 4.62 2.07 4.62 4.62M1223.65 1480.97c0 2.55-2.07 4.61-4.62 4.61s-4.61-2.06-4.61-4.61 2.06-4.62 4.61-4.62 4.62 2.07 4.62 4.62M1251.32 1480.97c0 2.55-2.06 4.61-4.61 4.61s-4.61-2.06-4.61-4.61 2.06-4.62 4.61-4.62 4.61 2.07 4.61 4.62M1279 1480.97c0 2.55-2.07 4.61-4.61 4.61-2.55 0-4.62-2.06-4.62-4.61s2.07-4.62 4.62-4.62a4.62 4.62 0 0 1 4.61 4.62M1002.23 1508.65a4.615 4.615 0 1 1-4.617-4.62 4.62 4.62 0 0 1 4.617 4.62M1029.9 1508.65c0 2.54-2.06 4.61-4.61 4.61s-4.61-2.07-4.61-4.61c0-2.55 2.06-4.62 4.61-4.62s4.61 2.07 4.61 4.62M1057.58 1508.65c0 2.54-2.06 4.61-4.61 4.61a4.62 4.62 0 0 1-4.62-4.61c0-2.55 2.07-4.62 4.62-4.62s4.61 2.07 4.61 4.62M1085.26 1508.65c0 2.54-2.07 4.61-4.61 4.61a4.62 4.62 0 0 1-4.62-4.61c0-2.55 2.07-4.62 4.62-4.62a4.62 4.62 0 0 1 4.61 4.62M1112.94 1508.65a4.62 4.62 0 0 1-4.62 4.61c-2.55 0-4.61-2.07-4.61-4.61 0-2.55 2.06-4.62 4.61-4.62s4.62 2.07 4.62 4.62M1140.61 1508.65c0 2.54-2.06 4.61-4.61 4.61s-4.61-2.07-4.61-4.61c0-2.55 2.06-4.62 4.61-4.62s4.61 2.07 4.61 4.62M1168.29 1508.65c0 2.54-2.06 4.61-4.61 4.61a4.62 4.62 0 0 1-4.62-4.61c0-2.55 2.07-4.62 4.62-4.62s4.61 2.07 4.61 4.62M1195.97 1508.65a4.62 4.62 0 0 1-4.62 4.61c-2.54 0-4.61-2.07-4.61-4.61a4.62 4.62 0 0 1 4.61-4.62c2.55 0 4.62 2.07 4.62 4.62M1223.65 1508.65a4.62 4.62 0 0 1-4.62 4.61c-2.55 0-4.61-2.07-4.61-4.61 0-2.55 2.06-4.62 4.61-4.62s4.62 2.07 4.62 4.62M1251.32 1508.65c0 2.54-2.06 4.61-4.61 4.61s-4.61-2.07-4.61-4.61c0-2.55 2.06-4.62 4.61-4.62s4.61 2.07 4.61 4.62M1279 1508.65c0 2.54-2.07 4.61-4.61 4.61a4.62 4.62 0 0 1-4.62-4.61c0-2.55 2.07-4.62 4.62-4.62a4.62 4.62 0 0 1 4.61 4.62M1002.23 1536.32c0 2.55-2.07 4.62-4.617 4.62a4.617 4.617 0 0 1-4.613-4.62c0-2.55 2.065-4.61 4.613-4.61a4.613 4.613 0 0 1 4.617 4.61M1029.9 1536.32c0 2.55-2.06 4.62-4.61 4.62s-4.61-2.07-4.61-4.62 2.06-4.61 4.61-4.61 4.61 2.06 4.61 4.61M1057.58 1536.32c0 2.55-2.06 4.62-4.61 4.62s-4.62-2.07-4.62-4.62 2.07-4.61 4.62-4.61 4.61 2.06 4.61 4.61M1085.26 1536.32a4.62 4.62 0 0 1-4.61 4.62c-2.55 0-4.62-2.07-4.62-4.62s2.07-4.61 4.62-4.61c2.54 0 4.61 2.06 4.61 4.61M1112.94 1536.32c0 2.55-2.07 4.62-4.62 4.62s-4.61-2.07-4.61-4.62 2.06-4.61 4.61-4.61 4.62 2.06 4.62 4.61M1140.61 1536.32c0 2.55-2.06 4.62-4.61 4.62s-4.61-2.07-4.61-4.62 2.06-4.61 4.61-4.61 4.61 2.06 4.61 4.61M1168.29 1536.32c0 2.55-2.06 4.62-4.61 4.62s-4.62-2.07-4.62-4.62 2.07-4.61 4.62-4.61 4.61 2.06 4.61 4.61M1195.97 1536.32c0 2.55-2.07 4.62-4.62 4.62a4.62 4.62 0 0 1-4.61-4.62c0-2.55 2.07-4.61 4.61-4.61 2.55 0 4.62 2.06 4.62 4.61M1223.65 1536.32c0 2.55-2.07 4.62-4.62 4.62s-4.61-2.07-4.61-4.62 2.06-4.61 4.61-4.61 4.62 2.06 4.62 4.61M1251.32 1536.32c0 2.55-2.06 4.62-4.61 4.62s-4.61-2.07-4.61-4.62 2.06-4.61 4.61-4.61 4.61 2.06 4.61 4.61M1279 1536.32a4.62 4.62 0 0 1-4.61 4.62c-2.55 0-4.62-2.07-4.62-4.62s2.07-4.61 4.62-4.61c2.54 0 4.61 2.06 4.61 4.61M1002.23 1564c0 2.55-2.07 4.61-4.617 4.61A4.61 4.61 0 0 1 993 1564c0-2.55 2.065-4.61 4.613-4.61a4.613 4.613 0 0 1 4.617 4.61M1029.9 1564c0 2.55-2.06 4.61-4.61 4.61s-4.61-2.06-4.61-4.61 2.06-4.61 4.61-4.61 4.61 2.06 4.61 4.61M1057.58 1564c0 2.55-2.06 4.61-4.61 4.61s-4.62-2.06-4.62-4.61 2.07-4.61 4.62-4.61 4.61 2.06 4.61 4.61M1085.26 1564c0 2.55-2.07 4.61-4.61 4.61-2.55 0-4.62-2.06-4.62-4.61s2.07-4.61 4.62-4.61c2.54 0 4.61 2.06 4.61 4.61M1112.94 1564c0 2.55-2.07 4.61-4.62 4.61s-4.61-2.06-4.61-4.61 2.06-4.61 4.61-4.61 4.62 2.06 4.62 4.61M1140.61 1564c0 2.55-2.06 4.61-4.61 4.61s-4.61-2.06-4.61-4.61 2.06-4.61 4.61-4.61 4.61 2.06 4.61 4.61M1168.29 1564c0 2.55-2.06 4.61-4.61 4.61s-4.62-2.06-4.62-4.61 2.07-4.61 4.62-4.61 4.61 2.06 4.61 4.61M1195.97 1564c0 2.55-2.07 4.61-4.62 4.61-2.54 0-4.61-2.06-4.61-4.61s2.07-4.61 4.61-4.61c2.55 0 4.62 2.06 4.62 4.61M1223.65 1564c0 2.55-2.07 4.61-4.62 4.61s-4.61-2.06-4.61-4.61 2.06-4.61 4.61-4.61 4.62 2.06 4.62 4.61M1251.32 1564c0 2.55-2.06 4.61-4.61 4.61s-4.61-2.06-4.61-4.61 2.06-4.61 4.61-4.61 4.61 2.06 4.61 4.61M1279 1564c0 2.55-2.07 4.61-4.61 4.61-2.55 0-4.62-2.06-4.62-4.61s2.07-4.61 4.62-4.61c2.54 0 4.61 2.06 4.61 4.61M1002.23 1591.68c0 2.55-2.07 4.61-4.617 4.61a4.61 4.61 0 0 1-4.613-4.61c0-2.55 2.065-4.62 4.613-4.62a4.62 4.62 0 0 1 4.617 4.62M1029.9 1591.68c0 2.55-2.06 4.61-4.61 4.61s-4.61-2.06-4.61-4.61 2.06-4.62 4.61-4.62 4.61 2.07 4.61 4.62M1057.58 1591.68c0 2.55-2.06 4.61-4.61 4.61s-4.62-2.06-4.62-4.61 2.07-4.62 4.62-4.62 4.61 2.07 4.61 4.62M1085.26 1591.68c0 2.55-2.07 4.61-4.61 4.61-2.55 0-4.62-2.06-4.62-4.61s2.07-4.62 4.62-4.62a4.62 4.62 0 0 1 4.61 4.62M1112.94 1591.68c0 2.55-2.07 4.61-4.62 4.61s-4.61-2.06-4.61-4.61 2.06-4.62 4.61-4.62 4.62 2.07 4.62 4.62M1140.61 1591.68c0 2.55-2.06 4.61-4.61 4.61s-4.61-2.06-4.61-4.61 2.06-4.62 4.61-4.62 4.61 2.07 4.61 4.62M1168.29 1591.68c0 2.55-2.06 4.61-4.61 4.61s-4.62-2.06-4.62-4.61 2.07-4.62 4.62-4.62 4.61 2.07 4.61 4.62M1195.97 1591.68c0 2.55-2.07 4.61-4.62 4.61-2.54 0-4.61-2.06-4.61-4.61a4.62 4.62 0 0 1 4.61-4.62c2.55 0 4.62 2.07 4.62 4.62M1223.65 1591.68c0 2.55-2.07 4.61-4.62 4.61s-4.61-2.06-4.61-4.61 2.06-4.62 4.61-4.62 4.62 2.07 4.62 4.62M1251.32 1591.68c0 2.55-2.06 4.61-4.61 4.61s-4.61-2.06-4.61-4.61 2.06-4.62 4.61-4.62 4.61 2.07 4.61 4.62M1279 1591.68c0 2.55-2.07 4.61-4.61 4.61-2.55 0-4.62-2.06-4.62-4.61s2.07-4.62 4.62-4.62a4.62 4.62 0 0 1 4.61 4.62M1002.23 1619.35c0 2.55-2.07 4.62-4.617 4.62a4.615 4.615 0 1 1 4.617-4.62M1029.9 1619.35c0 2.55-2.06 4.62-4.61 4.62s-4.61-2.07-4.61-4.62c0-2.54 2.06-4.61 4.61-4.61s4.61 2.07 4.61 4.61M1057.58 1619.35c0 2.55-2.06 4.62-4.61 4.62s-4.62-2.07-4.62-4.62a4.62 4.62 0 0 1 4.62-4.61c2.55 0 4.61 2.07 4.61 4.61M1085.26 1619.35a4.62 4.62 0 0 1-4.61 4.62c-2.55 0-4.62-2.07-4.62-4.62a4.62 4.62 0 0 1 4.62-4.61c2.54 0 4.61 2.07 4.61 4.61M1112.94 1619.35c0 2.55-2.07 4.62-4.62 4.62s-4.61-2.07-4.61-4.62c0-2.54 2.06-4.61 4.61-4.61a4.62 4.62 0 0 1 4.62 4.61M1140.61 1619.35c0 2.55-2.06 4.62-4.61 4.62s-4.61-2.07-4.61-4.62c0-2.54 2.06-4.61 4.61-4.61s4.61 2.07 4.61 4.61M1168.29 1619.35c0 2.55-2.06 4.62-4.61 4.62s-4.62-2.07-4.62-4.62a4.62 4.62 0 0 1 4.62-4.61c2.55 0 4.61 2.07 4.61 4.61M1195.97 1619.35c0 2.55-2.07 4.62-4.62 4.62a4.62 4.62 0 0 1-4.61-4.62c0-2.54 2.07-4.61 4.61-4.61a4.62 4.62 0 0 1 4.62 4.61M1223.65 1619.35c0 2.55-2.07 4.62-4.62 4.62s-4.61-2.07-4.61-4.62c0-2.54 2.06-4.61 4.61-4.61a4.62 4.62 0 0 1 4.62 4.61M1251.32 1619.35c0 2.55-2.06 4.62-4.61 4.62s-4.61-2.07-4.61-4.62c0-2.54 2.06-4.61 4.61-4.61s4.61 2.07 4.61 4.61M1279 1619.35a4.62 4.62 0 0 1-4.61 4.62c-2.55 0-4.62-2.07-4.62-4.62a4.62 4.62 0 0 1 4.62-4.61c2.54 0 4.61 2.07 4.61 4.61M1002.23 1647.03c0 2.55-2.07 4.62-4.617 4.62a4.617 4.617 0 0 1-4.613-4.62c0-2.55 2.065-4.61 4.613-4.61a4.613 4.613 0 0 1 4.617 4.61M1029.9 1647.03c0 2.55-2.06 4.62-4.61 4.62s-4.61-2.07-4.61-4.62 2.06-4.61 4.61-4.61 4.61 2.06 4.61 4.61M1057.58 1647.03c0 2.55-2.06 4.62-4.61 4.62s-4.62-2.07-4.62-4.62 2.07-4.61 4.62-4.61 4.61 2.06 4.61 4.61M1085.26 1647.03a4.62 4.62 0 0 1-4.61 4.62c-2.55 0-4.62-2.07-4.62-4.62s2.07-4.61 4.62-4.61c2.54 0 4.61 2.06 4.61 4.61M1112.94 1647.03c0 2.55-2.07 4.62-4.62 4.62s-4.61-2.07-4.61-4.62 2.06-4.61 4.61-4.61 4.62 2.06 4.62 4.61M1140.61 1647.03c0 2.55-2.06 4.62-4.61 4.62s-4.61-2.07-4.61-4.62 2.06-4.61 4.61-4.61 4.61 2.06 4.61 4.61M1168.29 1647.03c0 2.55-2.06 4.62-4.61 4.62s-4.62-2.07-4.62-4.62 2.07-4.61 4.62-4.61 4.61 2.06 4.61 4.61M1195.97 1647.03c0 2.55-2.07 4.62-4.62 4.62a4.62 4.62 0 0 1-4.61-4.62c0-2.55 2.07-4.61 4.61-4.61 2.55 0 4.62 2.06 4.62 4.61M1223.65 1647.03c0 2.55-2.07 4.62-4.62 4.62s-4.61-2.07-4.61-4.62 2.06-4.61 4.61-4.61 4.62 2.06 4.62 4.61M1251.32 1647.03c0 2.55-2.06 4.62-4.61 4.62s-4.61-2.07-4.61-4.62 2.06-4.61 4.61-4.61 4.61 2.06 4.61 4.61M1279 1647.03a4.62 4.62 0 0 1-4.61 4.62c-2.55 0-4.62-2.07-4.62-4.62s2.07-4.61 4.62-4.61c2.54 0 4.61 2.06 4.61 4.61M1002.23 1674.71c0 2.55-2.07 4.61-4.617 4.61a4.61 4.61 0 0 1-4.613-4.61c0-2.55 2.065-4.61 4.613-4.61a4.613 4.613 0 0 1 4.617 4.61M1029.9 1674.71c0 2.55-2.06 4.61-4.61 4.61s-4.61-2.06-4.61-4.61 2.06-4.61 4.61-4.61 4.61 2.06 4.61 4.61M1057.58 1674.71c0 2.55-2.06 4.61-4.61 4.61s-4.62-2.06-4.62-4.61 2.07-4.61 4.62-4.61 4.61 2.06 4.61 4.61M1085.26 1674.71c0 2.55-2.07 4.61-4.61 4.61-2.55 0-4.62-2.06-4.62-4.61s2.07-4.61 4.62-4.61c2.54 0 4.61 2.06 4.61 4.61M1112.94 1674.71c0 2.55-2.07 4.61-4.62 4.61s-4.61-2.06-4.61-4.61 2.06-4.61 4.61-4.61 4.62 2.06 4.62 4.61M1140.61 1674.71c0 2.55-2.06 4.61-4.61 4.61s-4.61-2.06-4.61-4.61 2.06-4.61 4.61-4.61 4.61 2.06 4.61 4.61M1168.29 1674.71c0 2.55-2.06 4.61-4.61 4.61s-4.62-2.06-4.62-4.61 2.07-4.61 4.62-4.61 4.61 2.06 4.61 4.61M1195.97 1674.71c0 2.55-2.07 4.61-4.62 4.61-2.54 0-4.61-2.06-4.61-4.61s2.07-4.61 4.61-4.61c2.55 0 4.62 2.06 4.62 4.61M1223.65 1674.71c0 2.55-2.07 4.61-4.62 4.61s-4.61-2.06-4.61-4.61 2.06-4.61 4.61-4.61 4.62 2.06 4.62 4.61M1251.32 1674.71c0 2.55-2.06 4.61-4.61 4.61s-4.61-2.06-4.61-4.61 2.06-4.61 4.61-4.61 4.61 2.06 4.61 4.61M1279 1674.71c0 2.55-2.07 4.61-4.61 4.61-2.55 0-4.62-2.06-4.62-4.61s2.07-4.61 4.62-4.61c2.54 0 4.61 2.06 4.61 4.61M1002.23 1702.39a4.615 4.615 0 1 1-4.617-4.62 4.62 4.62 0 0 1 4.617 4.62M1029.9 1702.39c0 2.54-2.06 4.61-4.61 4.61s-4.61-2.07-4.61-4.61c0-2.55 2.06-4.62 4.61-4.62s4.61 2.07 4.61 4.62M1057.58 1702.39c0 2.54-2.06 4.61-4.61 4.61a4.62 4.62 0 0 1-4.62-4.61c0-2.55 2.07-4.62 4.62-4.62s4.61 2.07 4.61 4.62M1085.26 1702.39c0 2.54-2.07 4.61-4.61 4.61a4.62 4.62 0 0 1-4.62-4.61c0-2.55 2.07-4.62 4.62-4.62a4.62 4.62 0 0 1 4.61 4.62M1112.94 1702.39a4.62 4.62 0 0 1-4.62 4.61c-2.55 0-4.61-2.07-4.61-4.61 0-2.55 2.06-4.62 4.61-4.62s4.62 2.07 4.62 4.62M1140.61 1702.39c0 2.54-2.06 4.61-4.61 4.61s-4.61-2.07-4.61-4.61c0-2.55 2.06-4.62 4.61-4.62s4.61 2.07 4.61 4.62M1168.29 1702.39c0 2.54-2.06 4.61-4.61 4.61a4.62 4.62 0 0 1-4.62-4.61c0-2.55 2.07-4.62 4.62-4.62s4.61 2.07 4.61 4.62M1195.97 1702.39a4.62 4.62 0 0 1-4.62 4.61c-2.54 0-4.61-2.07-4.61-4.61a4.62 4.62 0 0 1 4.61-4.62c2.55 0 4.62 2.07 4.62 4.62M1223.65 1702.39a4.62 4.62 0 0 1-4.62 4.61c-2.55 0-4.61-2.07-4.61-4.61 0-2.55 2.06-4.62 4.61-4.62s4.62 2.07 4.62 4.62M1251.32 1702.39c0 2.54-2.06 4.61-4.61 4.61s-4.61-2.07-4.61-4.61c0-2.55 2.06-4.62 4.61-4.62s4.61 2.07 4.61 4.62M1279 1702.39c0 2.54-2.07 4.61-4.61 4.61a4.62 4.62 0 0 1-4.62-4.61c0-2.55 2.07-4.62 4.62-4.62a4.62 4.62 0 0 1 4.61 4.62"/></g><rect width="1200" height="1548" x="156" y="160" fill="#BAE8FC" fill-opacity=".64" rx="18"/><rect width="28" height="112" x="360" y="75" fill="#225C90" rx="14"/><rect width="28" height="112" x="1124" y="75" fill="#225C90" rx="14"/><defs><filter id="a" width="298" height="298" x="987" y="1415" color-interpolation-filters="sRGB" filterUnits="userSpaceOnUse"><feFlood flood-opacity="0" result="BackgroundImageFix"/><feBlend in="SourceGraphic" in2="BackgroundImageFix" result="shape"/><feGaussianBlur result="effect1_foregroundBlur_1340_1926" stdDeviation="3"/></filter></defs></svg>