<svg xmlns="http://www.w3.org/2000/svg" width="1512" height="1748" fill="none"><g fill="#92DDDA" fill-opacity=".7" filter="url(#a)" style="mix-blend-mode:soft-light"><path d="M1002.23 1425.61c0 2.55-2.07 4.62-4.617 4.62a4.615 4.615 0 1 1 4.617-4.62m27.67 0c0 2.55-2.06 4.62-4.61 4.62s-4.61-2.07-4.61-4.62c0-2.54 2.06-4.61 4.61-4.61s4.61 2.07 4.61 4.61m27.68 0c0 2.55-2.06 4.62-4.61 4.62s-4.62-2.07-4.62-4.62a4.62 4.62 0 0 1 4.62-4.61c2.55 0 4.61 2.07 4.61 4.61m27.68 0a4.62 4.62 0 0 1-4.61 4.62c-2.55 0-4.62-2.07-4.62-4.62a4.62 4.62 0 0 1 4.62-4.61c2.54 0 4.61 2.07 4.61 4.61m27.68 0c0 2.55-2.07 4.62-4.62 4.62s-4.61-2.07-4.61-4.62c0-2.54 2.06-4.61 4.61-4.61a4.62 4.62 0 0 1 4.62 4.61m27.67 0c0 2.55-2.06 4.62-4.61 4.62s-4.61-2.07-4.61-4.62c0-2.54 2.06-4.61 4.61-4.61s4.61 2.07 4.61 4.61m27.68 0c0 2.55-2.06 4.62-4.61 4.62s-4.62-2.07-4.62-4.62a4.62 4.62 0 0 1 4.62-4.61c2.55 0 4.61 2.07 4.61 4.61m27.68 0c0 2.55-2.07 4.62-4.62 4.62a4.62 4.62 0 0 1-4.61-4.62c0-2.54 2.07-4.61 4.61-4.61a4.62 4.62 0 0 1 4.62 4.61m27.68 0c0 2.55-2.07 4.62-4.62 4.62s-4.61-2.07-4.61-4.62c0-2.54 2.06-4.61 4.61-4.61a4.62 4.62 0 0 1 4.62 4.61m27.67 0c0 2.55-2.06 4.62-4.61 4.62s-4.61-2.07-4.61-4.62c0-2.54 2.06-4.61 4.61-4.61s4.61 2.07 4.61 4.61m27.68 0a4.62 4.62 0 0 1-4.61 4.62c-2.55 0-4.62-2.07-4.62-4.62a4.62 4.62 0 0 1 4.62-4.61c2.54 0 4.61 2.07 4.61 4.61m-276.77 27.68c0 2.55-2.07 4.61-4.617 4.61a4.61 4.61 0 0 1-4.613-4.61c0-2.55 2.065-4.61 4.613-4.61a4.613 4.613 0 0 1 4.617 4.61m27.67 0c0 2.55-2.06 4.61-4.61 4.61s-4.61-2.06-4.61-4.61 2.06-4.61 4.61-4.61 4.61 2.06 4.61 4.61m27.68 0c0 2.55-2.06 4.61-4.61 4.61s-4.62-2.06-4.62-4.61 2.07-4.61 4.62-4.61 4.61 2.06 4.61 4.61m27.68 0c0 2.55-2.07 4.61-4.61 4.61-2.55 0-4.62-2.06-4.62-4.61s2.07-4.61 4.62-4.61c2.54 0 4.61 2.06 4.61 4.61m27.68 0c0 2.55-2.07 4.61-4.62 4.61s-4.61-2.06-4.61-4.61 2.06-4.61 4.61-4.61 4.62 2.06 4.62 4.61m27.67 0c0 2.55-2.06 4.61-4.61 4.61s-4.61-2.06-4.61-4.61 2.06-4.61 4.61-4.61 4.61 2.06 4.61 4.61m27.68 0c0 2.55-2.06 4.61-4.61 4.61s-4.62-2.06-4.62-4.61 2.07-4.61 4.62-4.61 4.61 2.06 4.61 4.61m27.68 0c0 2.55-2.07 4.61-4.62 4.61-2.54 0-4.61-2.06-4.61-4.61s2.07-4.61 4.61-4.61c2.55 0 4.62 2.06 4.62 4.61m27.68 0c0 2.55-2.07 4.61-4.62 4.61s-4.61-2.06-4.61-4.61 2.06-4.61 4.61-4.61 4.62 2.06 4.62 4.61m27.67 0c0 2.55-2.06 4.61-4.61 4.61s-4.61-2.06-4.61-4.61 2.06-4.61 4.61-4.61 4.61 2.06 4.61 4.61m27.68 0c0 2.55-2.07 4.61-4.61 4.61-2.55 0-4.62-2.06-4.62-4.61s2.07-4.61 4.62-4.61c2.54 0 4.61 2.06 4.61 4.61m-276.77 27.68c0 2.55-2.07 4.61-4.617 4.61a4.61 4.61 0 0 1-4.613-4.61c0-2.55 2.065-4.62 4.613-4.62a4.62 4.62 0 0 1 4.617 4.62m27.67 0c0 2.55-2.06 4.61-4.61 4.61s-4.61-2.06-4.61-4.61 2.06-4.62 4.61-4.62 4.61 2.07 4.61 4.62m27.68 0c0 2.55-2.06 4.61-4.61 4.61s-4.62-2.06-4.62-4.61 2.07-4.62 4.62-4.62 4.61 2.07 4.61 4.62m27.68 0c0 2.55-2.07 4.61-4.61 4.61-2.55 0-4.62-2.06-4.62-4.61s2.07-4.62 4.62-4.62a4.62 4.62 0 0 1 4.61 4.62m27.68 0c0 2.55-2.07 4.61-4.62 4.61s-4.61-2.06-4.61-4.61 2.06-4.62 4.61-4.62 4.62 2.07 4.62 4.62m27.67 0c0 2.55-2.06 4.61-4.61 4.61s-4.61-2.06-4.61-4.61 2.06-4.62 4.61-4.62 4.61 2.07 4.61 4.62m27.68 0c0 2.55-2.06 4.61-4.61 4.61s-4.62-2.06-4.62-4.61 2.07-4.62 4.62-4.62 4.61 2.07 4.61 4.62m27.68 0c0 2.55-2.07 4.61-4.62 4.61-2.54 0-4.61-2.06-4.61-4.61a4.62 4.62 0 0 1 4.61-4.62c2.55 0 4.62 2.07 4.62 4.62m27.68 0c0 2.55-2.07 4.61-4.62 4.61s-4.61-2.06-4.61-4.61 2.06-4.62 4.61-4.62 4.62 2.07 4.62 4.62m27.67 0c0 2.55-2.06 4.61-4.61 4.61s-4.61-2.06-4.61-4.61 2.06-4.62 4.61-4.62 4.61 2.07 4.61 4.62m27.68 0c0 2.55-2.07 4.61-4.61 4.61-2.55 0-4.62-2.06-4.62-4.61s2.07-4.62 4.62-4.62a4.62 4.62 0 0 1 4.61 4.62m-276.77 27.68a4.615 4.615 0 1 1-4.617-4.62 4.62 4.62 0 0 1 4.617 4.62m27.67 0c0 2.54-2.06 4.61-4.61 4.61s-4.61-2.07-4.61-4.61c0-2.55 2.06-4.62 4.61-4.62s4.61 2.07 4.61 4.62m27.68 0c0 2.54-2.06 4.61-4.61 4.61a4.62 4.62 0 0 1-4.62-4.61c0-2.55 2.07-4.62 4.62-4.62s4.61 2.07 4.61 4.62m27.68 0c0 2.54-2.07 4.61-4.61 4.61a4.62 4.62 0 0 1-4.62-4.61c0-2.55 2.07-4.62 4.62-4.62a4.62 4.62 0 0 1 4.61 4.62m27.68 0a4.62 4.62 0 0 1-4.62 4.61c-2.55 0-4.61-2.07-4.61-4.61 0-2.55 2.06-4.62 4.61-4.62s4.62 2.07 4.62 4.62m27.67 0c0 2.54-2.06 4.61-4.61 4.61s-4.61-2.07-4.61-4.61c0-2.55 2.06-4.62 4.61-4.62s4.61 2.07 4.61 4.62m27.68 0c0 2.54-2.06 4.61-4.61 4.61a4.62 4.62 0 0 1-4.62-4.61c0-2.55 2.07-4.62 4.62-4.62s4.61 2.07 4.61 4.62m27.68 0a4.62 4.62 0 0 1-4.62 4.61c-2.54 0-4.61-2.07-4.61-4.61a4.62 4.62 0 0 1 4.61-4.62c2.55 0 4.62 2.07 4.62 4.62m27.68 0a4.62 4.62 0 0 1-4.62 4.61c-2.55 0-4.61-2.07-4.61-4.61 0-2.55 2.06-4.62 4.61-4.62s4.62 2.07 4.62 4.62m27.67 0c0 2.54-2.06 4.61-4.61 4.61s-4.61-2.07-4.61-4.61c0-2.55 2.06-4.62 4.61-4.62s4.61 2.07 4.61 4.62m27.68 0c0 2.54-2.07 4.61-4.61 4.61a4.62 4.62 0 0 1-4.62-4.61c0-2.55 2.07-4.62 4.62-4.62a4.62 4.62 0 0 1 4.61 4.62m-276.77 27.67c0 2.55-2.07 4.62-4.617 4.62a4.617 4.617 0 0 1-4.613-4.62c0-2.55 2.065-4.61 4.613-4.61a4.613 4.613 0 0 1 4.617 4.61m27.67 0c0 2.55-2.06 4.62-4.61 4.62s-4.61-2.07-4.61-4.62 2.06-4.61 4.61-4.61 4.61 2.06 4.61 4.61m27.68 0c0 2.55-2.06 4.62-4.61 4.62s-4.62-2.07-4.62-4.62 2.07-4.61 4.62-4.61 4.61 2.06 4.61 4.61m27.68 0a4.62 4.62 0 0 1-4.61 4.62c-2.55 0-4.62-2.07-4.62-4.62s2.07-4.61 4.62-4.61c2.54 0 4.61 2.06 4.61 4.61m27.68 0c0 2.55-2.07 4.62-4.62 4.62s-4.61-2.07-4.61-4.62 2.06-4.61 4.61-4.61 4.62 2.06 4.62 4.61m27.67 0c0 2.55-2.06 4.62-4.61 4.62s-4.61-2.07-4.61-4.62 2.06-4.61 4.61-4.61 4.61 2.06 4.61 4.61m27.68 0c0 2.55-2.06 4.62-4.61 4.62s-4.62-2.07-4.62-4.62 2.07-4.61 4.62-4.61 4.61 2.06 4.61 4.61m27.68 0c0 2.55-2.07 4.62-4.62 4.62a4.62 4.62 0 0 1-4.61-4.62c0-2.55 2.07-4.61 4.61-4.61 2.55 0 4.62 2.06 4.62 4.61m27.68 0c0 2.55-2.07 4.62-4.62 4.62s-4.61-2.07-4.61-4.62 2.06-4.61 4.61-4.61 4.62 2.06 4.62 4.61m27.67 0c0 2.55-2.06 4.62-4.61 4.62s-4.61-2.07-4.61-4.62 2.06-4.61 4.61-4.61 4.61 2.06 4.61 4.61m27.68 0a4.62 4.62 0 0 1-4.61 4.62c-2.55 0-4.62-2.07-4.62-4.62s2.07-4.61 4.62-4.61c2.54 0 4.61 2.06 4.61 4.61M1002.23 1564c0 2.55-2.07 4.61-4.617 4.61A4.61 4.61 0 0 1 993 1564c0-2.55 2.065-4.61 4.613-4.61a4.613 4.613 0 0 1 4.617 4.61m27.67 0c0 2.55-2.06 4.61-4.61 4.61s-4.61-2.06-4.61-4.61 2.06-4.61 4.61-4.61 4.61 2.06 4.61 4.61m27.68 0c0 2.55-2.06 4.61-4.61 4.61s-4.62-2.06-4.62-4.61 2.07-4.61 4.62-4.61 4.61 2.06 4.61 4.61m27.68 0c0 2.55-2.07 4.61-4.61 4.61-2.55 0-4.62-2.06-4.62-4.61s2.07-4.61 4.62-4.61c2.54 0 4.61 2.06 4.61 4.61m27.68 0c0 2.55-2.07 4.61-4.62 4.61s-4.61-2.06-4.61-4.61 2.06-4.61 4.61-4.61 4.62 2.06 4.62 4.61m27.67 0c0 2.55-2.06 4.61-4.61 4.61s-4.61-2.06-4.61-4.61 2.06-4.61 4.61-4.61 4.61 2.06 4.61 4.61m27.68 0c0 2.55-2.06 4.61-4.61 4.61s-4.62-2.06-4.62-4.61 2.07-4.61 4.62-4.61 4.61 2.06 4.61 4.61m27.68 0c0 2.55-2.07 4.61-4.62 4.61-2.54 0-4.61-2.06-4.61-4.61s2.07-4.61 4.61-4.61c2.55 0 4.62 2.06 4.62 4.61m27.68 0c0 2.55-2.07 4.61-4.62 4.61s-4.61-2.06-4.61-4.61 2.06-4.61 4.61-4.61 4.62 2.06 4.62 4.61m27.67 0c0 2.55-2.06 4.61-4.61 4.61s-4.61-2.06-4.61-4.61 2.06-4.61 4.61-4.61 4.61 2.06 4.61 4.61m27.68 0c0 2.55-2.07 4.61-4.61 4.61-2.55 0-4.62-2.06-4.62-4.61s2.07-4.61 4.62-4.61c2.54 0 4.61 2.06 4.61 4.61m-276.77 27.68c0 2.55-2.07 4.61-4.617 4.61a4.61 4.61 0 0 1-4.613-4.61c0-2.55 2.065-4.62 4.613-4.62a4.62 4.62 0 0 1 4.617 4.62m27.67 0c0 2.55-2.06 4.61-4.61 4.61s-4.61-2.06-4.61-4.61 2.06-4.62 4.61-4.62 4.61 2.07 4.61 4.62m27.68 0c0 2.55-2.06 4.61-4.61 4.61s-4.62-2.06-4.62-4.61 2.07-4.62 4.62-4.62 4.61 2.07 4.61 4.62m27.68 0c0 2.55-2.07 4.61-4.61 4.61-2.55 0-4.62-2.06-4.62-4.61s2.07-4.62 4.62-4.62a4.62 4.62 0 0 1 4.61 4.62m27.68 0c0 2.55-2.07 4.61-4.62 4.61s-4.61-2.06-4.61-4.61 2.06-4.62 4.61-4.62 4.62 2.07 4.62 4.62m27.67 0c0 2.55-2.06 4.61-4.61 4.61s-4.61-2.06-4.61-4.61 2.06-4.62 4.61-4.62 4.61 2.07 4.61 4.62m27.68 0c0 2.55-2.06 4.61-4.61 4.61s-4.62-2.06-4.62-4.61 2.07-4.62 4.62-4.62 4.61 2.07 4.61 4.62m27.68 0c0 2.55-2.07 4.61-4.62 4.61-2.54 0-4.61-2.06-4.61-4.61a4.62 4.62 0 0 1 4.61-4.62c2.55 0 4.62 2.07 4.62 4.62m27.68 0c0 2.55-2.07 4.61-4.62 4.61s-4.61-2.06-4.61-4.61 2.06-4.62 4.61-4.62 4.62 2.07 4.62 4.62m27.67 0c0 2.55-2.06 4.61-4.61 4.61s-4.61-2.06-4.61-4.61 2.06-4.62 4.61-4.62 4.61 2.07 4.61 4.62m27.68 0c0 2.55-2.07 4.61-4.61 4.61-2.55 0-4.62-2.06-4.62-4.61s2.07-4.62 4.62-4.62a4.62 4.62 0 0 1 4.61 4.62m-276.77 27.67c0 2.55-2.07 4.62-4.617 4.62a4.615 4.615 0 1 1 4.617-4.62m27.67 0c0 2.55-2.06 4.62-4.61 4.62s-4.61-2.07-4.61-4.62c0-2.54 2.06-4.61 4.61-4.61s4.61 2.07 4.61 4.61m27.68 0c0 2.55-2.06 4.62-4.61 4.62s-4.62-2.07-4.62-4.62a4.62 4.62 0 0 1 4.62-4.61c2.55 0 4.61 2.07 4.61 4.61m27.68 0a4.62 4.62 0 0 1-4.61 4.62c-2.55 0-4.62-2.07-4.62-4.62a4.62 4.62 0 0 1 4.62-4.61c2.54 0 4.61 2.07 4.61 4.61m27.68 0c0 2.55-2.07 4.62-4.62 4.62s-4.61-2.07-4.61-4.62c0-2.54 2.06-4.61 4.61-4.61a4.62 4.62 0 0 1 4.62 4.61m27.67 0c0 2.55-2.06 4.62-4.61 4.62s-4.61-2.07-4.61-4.62c0-2.54 2.06-4.61 4.61-4.61s4.61 2.07 4.61 4.61m27.68 0c0 2.55-2.06 4.62-4.61 4.62s-4.62-2.07-4.62-4.62a4.62 4.62 0 0 1 4.62-4.61c2.55 0 4.61 2.07 4.61 4.61m27.68 0c0 2.55-2.07 4.62-4.62 4.62a4.62 4.62 0 0 1-4.61-4.62c0-2.54 2.07-4.61 4.61-4.61a4.62 4.62 0 0 1 4.62 4.61m27.68 0c0 2.55-2.07 4.62-4.62 4.62s-4.61-2.07-4.61-4.62c0-2.54 2.06-4.61 4.61-4.61a4.62 4.62 0 0 1 4.62 4.61m27.67 0c0 2.55-2.06 4.62-4.61 4.62s-4.61-2.07-4.61-4.62c0-2.54 2.06-4.61 4.61-4.61s4.61 2.07 4.61 4.61m27.68 0a4.62 4.62 0 0 1-4.61 4.62c-2.55 0-4.62-2.07-4.62-4.62a4.62 4.62 0 0 1 4.62-4.61c2.54 0 4.61 2.07 4.61 4.61m-276.77 27.68c0 2.55-2.07 4.62-4.617 4.62a4.617 4.617 0 0 1-4.613-4.62c0-2.55 2.065-4.61 4.613-4.61a4.613 4.613 0 0 1 4.617 4.61m27.67 0c0 2.55-2.06 4.62-4.61 4.62s-4.61-2.07-4.61-4.62 2.06-4.61 4.61-4.61 4.61 2.06 4.61 4.61m27.68 0c0 2.55-2.06 4.62-4.61 4.62s-4.62-2.07-4.62-4.62 2.07-4.61 4.62-4.61 4.61 2.06 4.61 4.61m27.68 0a4.62 4.62 0 0 1-4.61 4.62c-2.55 0-4.62-2.07-4.62-4.62s2.07-4.61 4.62-4.61c2.54 0 4.61 2.06 4.61 4.61m27.68 0c0 2.55-2.07 4.62-4.62 4.62s-4.61-2.07-4.61-4.62 2.06-4.61 4.61-4.61 4.62 2.06 4.62 4.61m27.67 0c0 2.55-2.06 4.62-4.61 4.62s-4.61-2.07-4.61-4.62 2.06-4.61 4.61-4.61 4.61 2.06 4.61 4.61m27.68 0c0 2.55-2.06 4.62-4.61 4.62s-4.62-2.07-4.62-4.62 2.07-4.61 4.62-4.61 4.61 2.06 4.61 4.61m27.68 0c0 2.55-2.07 4.62-4.62 4.62a4.62 4.62 0 0 1-4.61-4.62c0-2.55 2.07-4.61 4.61-4.61 2.55 0 4.62 2.06 4.62 4.61m27.68 0c0 2.55-2.07 4.62-4.62 4.62s-4.61-2.07-4.61-4.62 2.06-4.61 4.61-4.61 4.62 2.06 4.62 4.61m27.67 0c0 2.55-2.06 4.62-4.61 4.62s-4.61-2.07-4.61-4.62 2.06-4.61 4.61-4.61 4.61 2.06 4.61 4.61m27.68 0a4.62 4.62 0 0 1-4.61 4.62c-2.55 0-4.62-2.07-4.62-4.62s2.07-4.61 4.62-4.61c2.54 0 4.61 2.06 4.61 4.61m-276.77 27.68c0 2.55-2.07 4.61-4.617 4.61a4.61 4.61 0 0 1-4.613-4.61c0-2.55 2.065-4.61 4.613-4.61a4.613 4.613 0 0 1 4.617 4.61m27.67 0c0 2.55-2.06 4.61-4.61 4.61s-4.61-2.06-4.61-4.61 2.06-4.61 4.61-4.61 4.61 2.06 4.61 4.61m27.68 0c0 2.55-2.06 4.61-4.61 4.61s-4.62-2.06-4.62-4.61 2.07-4.61 4.62-4.61 4.61 2.06 4.61 4.61m27.68 0c0 2.55-2.07 4.61-4.61 4.61-2.55 0-4.62-2.06-4.62-4.61s2.07-4.61 4.62-4.61c2.54 0 4.61 2.06 4.61 4.61m27.68 0c0 2.55-2.07 4.61-4.62 4.61s-4.61-2.06-4.61-4.61 2.06-4.61 4.61-4.61 4.62 2.06 4.62 4.61m27.67 0c0 2.55-2.06 4.61-4.61 4.61s-4.61-2.06-4.61-4.61 2.06-4.61 4.61-4.61 4.61 2.06 4.61 4.61m27.68 0c0 2.55-2.06 4.61-4.61 4.61s-4.62-2.06-4.62-4.61 2.07-4.61 4.62-4.61 4.61 2.06 4.61 4.61m27.68 0c0 2.55-2.07 4.61-4.62 4.61-2.54 0-4.61-2.06-4.61-4.61s2.07-4.61 4.61-4.61c2.55 0 4.62 2.06 4.62 4.61m27.68 0c0 2.55-2.07 4.61-4.62 4.61s-4.61-2.06-4.61-4.61 2.06-4.61 4.61-4.61 4.62 2.06 4.62 4.61m27.67 0c0 2.55-2.06 4.61-4.61 4.61s-4.61-2.06-4.61-4.61 2.06-4.61 4.61-4.61 4.61 2.06 4.61 4.61m27.68 0c0 2.55-2.07 4.61-4.61 4.61-2.55 0-4.62-2.06-4.62-4.61s2.07-4.61 4.62-4.61c2.54 0 4.61 2.06 4.61 4.61m-276.77 27.68a4.615 4.615 0 1 1-4.617-4.62 4.62 4.62 0 0 1 4.617 4.62m27.67 0c0 2.54-2.06 4.61-4.61 4.61s-4.61-2.07-4.61-4.61c0-2.55 2.06-4.62 4.61-4.62s4.61 2.07 4.61 4.62m27.68 0c0 2.54-2.06 4.61-4.61 4.61a4.62 4.62 0 0 1-4.62-4.61c0-2.55 2.07-4.62 4.62-4.62s4.61 2.07 4.61 4.62m27.68 0c0 2.54-2.07 4.61-4.61 4.61a4.62 4.62 0 0 1-4.62-4.61c0-2.55 2.07-4.62 4.62-4.62a4.62 4.62 0 0 1 4.61 4.62m27.68 0a4.62 4.62 0 0 1-4.62 4.61c-2.55 0-4.61-2.07-4.61-4.61 0-2.55 2.06-4.62 4.61-4.62s4.62 2.07 4.62 4.62m27.67 0c0 2.54-2.06 4.61-4.61 4.61s-4.61-2.07-4.61-4.61c0-2.55 2.06-4.62 4.61-4.62s4.61 2.07 4.61 4.62m27.68 0c0 2.54-2.06 4.61-4.61 4.61a4.62 4.62 0 0 1-4.62-4.61c0-2.55 2.07-4.62 4.62-4.62s4.61 2.07 4.61 4.62m27.68 0a4.62 4.62 0 0 1-4.62 4.61c-2.54 0-4.61-2.07-4.61-4.61a4.62 4.62 0 0 1 4.61-4.62c2.55 0 4.62 2.07 4.62 4.62m27.68 0a4.62 4.62 0 0 1-4.62 4.61c-2.55 0-4.61-2.07-4.61-4.61 0-2.55 2.06-4.62 4.61-4.62s4.62 2.07 4.62 4.62m27.67 0c0 2.54-2.06 4.61-4.61 4.61s-4.61-2.07-4.61-4.61c0-2.55 2.06-4.62 4.61-4.62s4.61 2.07 4.61 4.62m27.68 0c0 2.54-2.07 4.61-4.61 4.61a4.62 4.62 0 0 1-4.62-4.61c0-2.55 2.07-4.62 4.62-4.62a4.62 4.62 0 0 1 4.61 4.62"/></g><rect width="1200" height="1548" x="156" y="160" fill="#BAE8FC" fill-opacity=".64" rx="18"/><rect width="28" height="112" x="360" y="75" fill="#225C90" rx="14"/><rect width="28" height="112" x="1124" y="75" fill="#225C90" rx="14"/><defs><filter id="a" width="298" height="298" x="987" y="1415" color-interpolation-filters="sRGB" filterUnits="userSpaceOnUse"><feFlood flood-opacity="0" result="BackgroundImageFix"/><feBlend in="SourceGraphic" in2="BackgroundImageFix" result="shape"/><feGaussianBlur result="effect1_foregroundBlur_1340_1926" stdDeviation="3"/></filter></defs></svg>