<svg width="1512" height="1748" viewBox="0 0 1512 1748" fill="none" xmlns="http://www.w3.org/2000/svg">
<g style="mix-blend-mode:soft-light" filter="url(#filter0_f_1340_1926)">
<path d="M1002.23 1425.61C1002.23 1428.16 1000.16 1430.23 997.613 1430.23C995.065 1430.23 993 1428.16 993 1425.61C993 1423.07 995.065 1421 997.613 1421C1000.16 1421 1002.23 1423.07 1002.23 1425.61Z" fill="#92DDDA" fill-opacity="0.7"/>
<path d="M1029.9 1425.61C1029.9 1428.16 1027.84 1430.23 1025.29 1430.23C1022.74 1430.23 1020.68 1428.16 1020.68 1425.61C1020.68 1423.07 1022.74 1421 1025.29 1421C1027.84 1421 1029.9 1423.07 1029.9 1425.61Z" fill="#92DDDA" fill-opacity="0.7"/>
<path d="M1057.58 1425.61C1057.58 1428.16 1055.52 1430.23 1052.97 1430.23C1050.42 1430.23 1048.35 1428.16 1048.35 1425.61C1048.35 1423.07 1050.42 1421 1052.97 1421C1055.52 1421 1057.58 1423.07 1057.58 1425.61Z" fill="#92DDDA" fill-opacity="0.7"/>
<path d="M1085.26 1425.61C1085.26 1428.16 1083.19 1430.23 1080.65 1430.23C1078.1 1430.23 1076.03 1428.16 1076.03 1425.61C1076.03 1423.07 1078.1 1421 1080.65 1421C1083.19 1421 1085.26 1423.07 1085.26 1425.61Z" fill="#92DDDA" fill-opacity="0.7"/>
<path d="M1112.94 1425.61C1112.94 1428.16 1110.87 1430.23 1108.32 1430.23C1105.77 1430.23 1103.71 1428.16 1103.71 1425.61C1103.71 1423.07 1105.77 1421 1108.32 1421C1110.87 1421 1112.94 1423.07 1112.94 1425.61Z" fill="#92DDDA" fill-opacity="0.7"/>
<path d="M1140.61 1425.61C1140.61 1428.16 1138.55 1430.23 1136 1430.23C1133.45 1430.23 1131.39 1428.16 1131.39 1425.61C1131.39 1423.07 1133.45 1421 1136 1421C1138.55 1421 1140.61 1423.07 1140.61 1425.61Z" fill="#92DDDA" fill-opacity="0.7"/>
<path d="M1168.29 1425.61C1168.29 1428.16 1166.23 1430.23 1163.68 1430.23C1161.13 1430.23 1159.06 1428.16 1159.06 1425.61C1159.06 1423.07 1161.13 1421 1163.68 1421C1166.23 1421 1168.29 1423.07 1168.29 1425.61Z" fill="#92DDDA" fill-opacity="0.7"/>
<path d="M1195.97 1425.61C1195.97 1428.16 1193.9 1430.23 1191.35 1430.23C1188.81 1430.23 1186.74 1428.16 1186.74 1425.61C1186.74 1423.07 1188.81 1421 1191.35 1421C1193.9 1421 1195.97 1423.07 1195.97 1425.61Z" fill="#92DDDA" fill-opacity="0.7"/>
<path d="M1223.65 1425.61C1223.65 1428.16 1221.58 1430.23 1219.03 1430.23C1216.48 1430.23 1214.42 1428.16 1214.42 1425.61C1214.42 1423.07 1216.48 1421 1219.03 1421C1221.58 1421 1223.65 1423.07 1223.65 1425.61Z" fill="#92DDDA" fill-opacity="0.7"/>
<path d="M1251.32 1425.61C1251.32 1428.16 1249.26 1430.23 1246.71 1430.23C1244.16 1430.23 1242.1 1428.16 1242.1 1425.61C1242.1 1423.07 1244.16 1421 1246.71 1421C1249.26 1421 1251.32 1423.07 1251.32 1425.61Z" fill="#92DDDA" fill-opacity="0.7"/>
<path d="M1279 1425.61C1279 1428.16 1276.93 1430.23 1274.39 1430.23C1271.84 1430.23 1269.77 1428.16 1269.77 1425.61C1269.77 1423.07 1271.84 1421 1274.39 1421C1276.93 1421 1279 1423.07 1279 1425.61Z" fill="#92DDDA" fill-opacity="0.7"/>
<path d="M1002.23 1453.29C1002.23 1455.84 1000.16 1457.9 997.613 1457.9C995.065 1457.9 993 1455.84 993 1453.29C993 1450.74 995.065 1448.68 997.613 1448.68C1000.16 1448.68 1002.23 1450.74 1002.23 1453.29Z" fill="#92DDDA" fill-opacity="0.7"/>
<path d="M1029.9 1453.29C1029.9 1455.84 1027.84 1457.9 1025.29 1457.9C1022.74 1457.9 1020.68 1455.84 1020.68 1453.29C1020.68 1450.74 1022.74 1448.68 1025.29 1448.68C1027.84 1448.68 1029.9 1450.74 1029.9 1453.29Z" fill="#92DDDA" fill-opacity="0.7"/>
<path d="M1057.58 1453.29C1057.58 1455.84 1055.52 1457.9 1052.97 1457.9C1050.42 1457.9 1048.35 1455.84 1048.35 1453.29C1048.35 1450.74 1050.42 1448.68 1052.97 1448.68C1055.52 1448.68 1057.58 1450.74 1057.58 1453.29Z" fill="#92DDDA" fill-opacity="0.7"/>
<path d="M1085.26 1453.29C1085.26 1455.84 1083.19 1457.9 1080.65 1457.9C1078.1 1457.9 1076.03 1455.84 1076.03 1453.29C1076.03 1450.74 1078.1 1448.68 1080.65 1448.68C1083.19 1448.68 1085.26 1450.74 1085.26 1453.29Z" fill="#92DDDA" fill-opacity="0.7"/>
<path d="M1112.94 1453.29C1112.94 1455.84 1110.87 1457.9 1108.32 1457.9C1105.77 1457.9 1103.71 1455.84 1103.71 1453.29C1103.71 1450.74 1105.77 1448.68 1108.32 1448.68C1110.87 1448.68 1112.94 1450.74 1112.94 1453.29Z" fill="#92DDDA" fill-opacity="0.7"/>
<path d="M1140.61 1453.29C1140.61 1455.84 1138.55 1457.9 1136 1457.9C1133.45 1457.9 1131.39 1455.84 1131.39 1453.29C1131.39 1450.74 1133.45 1448.68 1136 1448.68C1138.55 1448.68 1140.61 1450.74 1140.61 1453.29Z" fill="#92DDDA" fill-opacity="0.7"/>
<path d="M1168.29 1453.29C1168.29 1455.84 1166.23 1457.9 1163.68 1457.9C1161.13 1457.9 1159.06 1455.84 1159.06 1453.29C1159.06 1450.74 1161.13 1448.68 1163.68 1448.68C1166.23 1448.68 1168.29 1450.74 1168.29 1453.29Z" fill="#92DDDA" fill-opacity="0.7"/>
<path d="M1195.97 1453.29C1195.97 1455.84 1193.9 1457.9 1191.35 1457.9C1188.81 1457.9 1186.74 1455.84 1186.74 1453.29C1186.74 1450.74 1188.81 1448.68 1191.35 1448.68C1193.9 1448.68 1195.97 1450.74 1195.97 1453.29Z" fill="#92DDDA" fill-opacity="0.7"/>
<path d="M1223.65 1453.29C1223.65 1455.84 1221.58 1457.9 1219.03 1457.9C1216.48 1457.9 1214.42 1455.84 1214.42 1453.29C1214.42 1450.74 1216.48 1448.68 1219.03 1448.68C1221.58 1448.68 1223.65 1450.74 1223.65 1453.29Z" fill="#92DDDA" fill-opacity="0.7"/>
<path d="M1251.32 1453.29C1251.32 1455.84 1249.26 1457.9 1246.71 1457.9C1244.16 1457.9 1242.1 1455.84 1242.1 1453.29C1242.1 1450.74 1244.16 1448.68 1246.71 1448.68C1249.26 1448.68 1251.32 1450.74 1251.32 1453.29Z" fill="#92DDDA" fill-opacity="0.7"/>
<path d="M1279 1453.29C1279 1455.84 1276.93 1457.9 1274.39 1457.9C1271.84 1457.9 1269.77 1455.84 1269.77 1453.29C1269.77 1450.74 1271.84 1448.68 1274.39 1448.68C1276.93 1448.68 1279 1450.74 1279 1453.29Z" fill="#92DDDA" fill-opacity="0.7"/>
<path d="M1002.23 1480.97C1002.23 1483.52 1000.16 1485.58 997.613 1485.58C995.065 1485.58 993 1483.52 993 1480.97C993 1478.42 995.065 1476.35 997.613 1476.35C1000.16 1476.35 1002.23 1478.42 1002.23 1480.97Z" fill="#92DDDA" fill-opacity="0.7"/>
<path d="M1029.9 1480.97C1029.9 1483.52 1027.84 1485.58 1025.29 1485.58C1022.74 1485.58 1020.68 1483.52 1020.68 1480.97C1020.68 1478.42 1022.74 1476.35 1025.29 1476.35C1027.84 1476.35 1029.9 1478.42 1029.9 1480.97Z" fill="#92DDDA" fill-opacity="0.7"/>
<path d="M1057.58 1480.97C1057.58 1483.52 1055.52 1485.58 1052.97 1485.58C1050.42 1485.58 1048.35 1483.52 1048.35 1480.97C1048.35 1478.42 1050.42 1476.35 1052.97 1476.35C1055.52 1476.35 1057.58 1478.42 1057.58 1480.97Z" fill="#92DDDA" fill-opacity="0.7"/>
<path d="M1085.26 1480.97C1085.26 1483.52 1083.19 1485.58 1080.65 1485.58C1078.1 1485.58 1076.03 1483.52 1076.03 1480.97C1076.03 1478.42 1078.1 1476.35 1080.65 1476.35C1083.19 1476.35 1085.26 1478.42 1085.26 1480.97Z" fill="#92DDDA" fill-opacity="0.7"/>
<path d="M1112.94 1480.97C1112.94 1483.52 1110.87 1485.58 1108.32 1485.58C1105.77 1485.58 1103.71 1483.52 1103.71 1480.97C1103.71 1478.42 1105.77 1476.35 1108.32 1476.35C1110.87 1476.35 1112.94 1478.42 1112.94 1480.97Z" fill="#92DDDA" fill-opacity="0.7"/>
<path d="M1140.61 1480.97C1140.61 1483.52 1138.55 1485.58 1136 1485.58C1133.45 1485.58 1131.39 1483.52 1131.39 1480.97C1131.39 1478.42 1133.45 1476.35 1136 1476.35C1138.55 1476.35 1140.61 1478.42 1140.61 1480.97Z" fill="#92DDDA" fill-opacity="0.7"/>
<path d="M1168.29 1480.97C1168.29 1483.52 1166.23 1485.58 1163.68 1485.58C1161.13 1485.58 1159.06 1483.52 1159.06 1480.97C1159.06 1478.42 1161.13 1476.35 1163.68 1476.35C1166.23 1476.35 1168.29 1478.42 1168.29 1480.97Z" fill="#92DDDA" fill-opacity="0.7"/>
<path d="M1195.97 1480.97C1195.97 1483.52 1193.9 1485.58 1191.35 1485.58C1188.81 1485.58 1186.74 1483.52 1186.74 1480.97C1186.74 1478.42 1188.81 1476.35 1191.35 1476.35C1193.9 1476.35 1195.97 1478.42 1195.97 1480.97Z" fill="#92DDDA" fill-opacity="0.7"/>
<path d="M1223.65 1480.97C1223.65 1483.52 1221.58 1485.58 1219.03 1485.58C1216.48 1485.58 1214.42 1483.52 1214.42 1480.97C1214.42 1478.42 1216.48 1476.35 1219.03 1476.35C1221.58 1476.35 1223.65 1478.42 1223.65 1480.97Z" fill="#92DDDA" fill-opacity="0.7"/>
<path d="M1251.32 1480.97C1251.32 1483.52 1249.26 1485.58 1246.71 1485.58C1244.16 1485.58 1242.1 1483.52 1242.1 1480.97C1242.1 1478.42 1244.16 1476.35 1246.71 1476.35C1249.26 1476.35 1251.32 1478.42 1251.32 1480.97Z" fill="#92DDDA" fill-opacity="0.7"/>
<path d="M1279 1480.97C1279 1483.52 1276.93 1485.58 1274.39 1485.58C1271.84 1485.58 1269.77 1483.52 1269.77 1480.97C1269.77 1478.42 1271.84 1476.35 1274.39 1476.35C1276.93 1476.35 1279 1478.42 1279 1480.97Z" fill="#92DDDA" fill-opacity="0.7"/>
<path d="M1002.23 1508.65C1002.23 1511.19 1000.16 1513.26 997.613 1513.26C995.065 1513.26 993 1511.19 993 1508.65C993 1506.1 995.065 1504.03 997.613 1504.03C1000.16 1504.03 1002.23 1506.1 1002.23 1508.65Z" fill="#92DDDA" fill-opacity="0.7"/>
<path d="M1029.9 1508.65C1029.9 1511.19 1027.84 1513.26 1025.29 1513.26C1022.74 1513.26 1020.68 1511.19 1020.68 1508.65C1020.68 1506.1 1022.74 1504.03 1025.29 1504.03C1027.84 1504.03 1029.9 1506.1 1029.9 1508.65Z" fill="#92DDDA" fill-opacity="0.7"/>
<path d="M1057.58 1508.65C1057.58 1511.19 1055.52 1513.26 1052.97 1513.26C1050.42 1513.26 1048.35 1511.19 1048.35 1508.65C1048.35 1506.1 1050.42 1504.03 1052.97 1504.03C1055.52 1504.03 1057.58 1506.1 1057.58 1508.65Z" fill="#92DDDA" fill-opacity="0.7"/>
<path d="M1085.26 1508.65C1085.26 1511.19 1083.19 1513.26 1080.65 1513.26C1078.1 1513.26 1076.03 1511.19 1076.03 1508.65C1076.03 1506.1 1078.1 1504.03 1080.65 1504.03C1083.19 1504.03 1085.26 1506.1 1085.26 1508.65Z" fill="#92DDDA" fill-opacity="0.7"/>
<path d="M1112.94 1508.65C1112.94 1511.19 1110.87 1513.26 1108.32 1513.26C1105.77 1513.26 1103.71 1511.19 1103.71 1508.65C1103.71 1506.1 1105.77 1504.03 1108.32 1504.03C1110.87 1504.03 1112.94 1506.1 1112.94 1508.65Z" fill="#92DDDA" fill-opacity="0.7"/>
<path d="M1140.61 1508.65C1140.61 1511.19 1138.55 1513.26 1136 1513.26C1133.45 1513.26 1131.39 1511.19 1131.39 1508.65C1131.39 1506.1 1133.45 1504.03 1136 1504.03C1138.55 1504.03 1140.61 1506.1 1140.61 1508.65Z" fill="#92DDDA" fill-opacity="0.7"/>
<path d="M1168.29 1508.65C1168.29 1511.19 1166.23 1513.26 1163.68 1513.26C1161.13 1513.26 1159.06 1511.19 1159.06 1508.65C1159.06 1506.1 1161.13 1504.03 1163.68 1504.03C1166.23 1504.03 1168.29 1506.1 1168.29 1508.65Z" fill="#92DDDA" fill-opacity="0.7"/>
<path d="M1195.97 1508.65C1195.97 1511.19 1193.9 1513.26 1191.35 1513.26C1188.81 1513.26 1186.74 1511.19 1186.74 1508.65C1186.74 1506.1 1188.81 1504.03 1191.35 1504.03C1193.9 1504.03 1195.97 1506.1 1195.97 1508.65Z" fill="#92DDDA" fill-opacity="0.7"/>
<path d="M1223.65 1508.65C1223.65 1511.19 1221.58 1513.26 1219.03 1513.26C1216.48 1513.26 1214.42 1511.19 1214.42 1508.65C1214.42 1506.1 1216.48 1504.03 1219.03 1504.03C1221.58 1504.03 1223.65 1506.1 1223.65 1508.65Z" fill="#92DDDA" fill-opacity="0.7"/>
<path d="M1251.32 1508.65C1251.32 1511.19 1249.26 1513.26 1246.71 1513.26C1244.16 1513.26 1242.1 1511.19 1242.1 1508.65C1242.1 1506.1 1244.16 1504.03 1246.71 1504.03C1249.26 1504.03 1251.32 1506.1 1251.32 1508.65Z" fill="#92DDDA" fill-opacity="0.7"/>
<path d="M1279 1508.65C1279 1511.19 1276.93 1513.26 1274.39 1513.26C1271.84 1513.26 1269.77 1511.19 1269.77 1508.65C1269.77 1506.1 1271.84 1504.03 1274.39 1504.03C1276.93 1504.03 1279 1506.1 1279 1508.65Z" fill="#92DDDA" fill-opacity="0.7"/>
<path d="M1002.23 1536.32C1002.23 1538.87 1000.16 1540.94 997.613 1540.94C995.065 1540.94 993 1538.87 993 1536.32C993 1533.77 995.065 1531.71 997.613 1531.71C1000.16 1531.71 1002.23 1533.77 1002.23 1536.32Z" fill="#92DDDA" fill-opacity="0.7"/>
<path d="M1029.9 1536.32C1029.9 1538.87 1027.84 1540.94 1025.29 1540.94C1022.74 1540.94 1020.68 1538.87 1020.68 1536.32C1020.68 1533.77 1022.74 1531.71 1025.29 1531.71C1027.84 1531.71 1029.9 1533.77 1029.9 1536.32Z" fill="#92DDDA" fill-opacity="0.7"/>
<path d="M1057.58 1536.32C1057.58 1538.87 1055.52 1540.94 1052.97 1540.94C1050.42 1540.94 1048.35 1538.87 1048.35 1536.32C1048.35 1533.77 1050.42 1531.71 1052.97 1531.71C1055.52 1531.71 1057.58 1533.77 1057.58 1536.32Z" fill="#92DDDA" fill-opacity="0.7"/>
<path d="M1085.26 1536.32C1085.26 1538.87 1083.19 1540.94 1080.65 1540.94C1078.1 1540.94 1076.03 1538.87 1076.03 1536.32C1076.03 1533.77 1078.1 1531.71 1080.65 1531.71C1083.19 1531.71 1085.26 1533.77 1085.26 1536.32Z" fill="#92DDDA" fill-opacity="0.7"/>
<path d="M1112.94 1536.32C1112.94 1538.87 1110.87 1540.94 1108.32 1540.94C1105.77 1540.94 1103.71 1538.87 1103.71 1536.32C1103.71 1533.77 1105.77 1531.71 1108.32 1531.71C1110.87 1531.71 1112.94 1533.77 1112.94 1536.32Z" fill="#92DDDA" fill-opacity="0.7"/>
<path d="M1140.61 1536.32C1140.61 1538.87 1138.55 1540.94 1136 1540.94C1133.45 1540.94 1131.39 1538.87 1131.39 1536.32C1131.39 1533.77 1133.45 1531.71 1136 1531.71C1138.55 1531.71 1140.61 1533.77 1140.61 1536.32Z" fill="#92DDDA" fill-opacity="0.7"/>
<path d="M1168.29 1536.32C1168.29 1538.87 1166.23 1540.94 1163.68 1540.94C1161.13 1540.94 1159.06 1538.87 1159.06 1536.32C1159.06 1533.77 1161.13 1531.71 1163.68 1531.71C1166.23 1531.71 1168.29 1533.77 1168.29 1536.32Z" fill="#92DDDA" fill-opacity="0.7"/>
<path d="M1195.97 1536.32C1195.97 1538.87 1193.9 1540.94 1191.35 1540.94C1188.81 1540.94 1186.74 1538.87 1186.74 1536.32C1186.74 1533.77 1188.81 1531.71 1191.35 1531.71C1193.9 1531.71 1195.97 1533.77 1195.97 1536.32Z" fill="#92DDDA" fill-opacity="0.7"/>
<path d="M1223.65 1536.32C1223.65 1538.87 1221.58 1540.94 1219.03 1540.94C1216.48 1540.94 1214.42 1538.87 1214.42 1536.32C1214.42 1533.77 1216.48 1531.71 1219.03 1531.71C1221.58 1531.71 1223.65 1533.77 1223.65 1536.32Z" fill="#92DDDA" fill-opacity="0.7"/>
<path d="M1251.32 1536.32C1251.32 1538.87 1249.26 1540.94 1246.71 1540.94C1244.16 1540.94 1242.1 1538.87 1242.1 1536.32C1242.1 1533.77 1244.16 1531.71 1246.71 1531.71C1249.26 1531.71 1251.32 1533.77 1251.32 1536.32Z" fill="#92DDDA" fill-opacity="0.7"/>
<path d="M1279 1536.32C1279 1538.87 1276.93 1540.94 1274.39 1540.94C1271.84 1540.94 1269.77 1538.87 1269.77 1536.32C1269.77 1533.77 1271.84 1531.71 1274.39 1531.71C1276.93 1531.71 1279 1533.77 1279 1536.32Z" fill="#92DDDA" fill-opacity="0.7"/>
<path d="M1002.23 1564C1002.23 1566.55 1000.16 1568.61 997.613 1568.61C995.065 1568.61 993 1566.55 993 1564C993 1561.45 995.065 1559.39 997.613 1559.39C1000.16 1559.39 1002.23 1561.45 1002.23 1564Z" fill="#92DDDA" fill-opacity="0.7"/>
<path d="M1029.9 1564C1029.9 1566.55 1027.84 1568.61 1025.29 1568.61C1022.74 1568.61 1020.68 1566.55 1020.68 1564C1020.68 1561.45 1022.74 1559.39 1025.29 1559.39C1027.84 1559.39 1029.9 1561.45 1029.9 1564Z" fill="#92DDDA" fill-opacity="0.7"/>
<path d="M1057.58 1564C1057.58 1566.55 1055.52 1568.61 1052.97 1568.61C1050.42 1568.61 1048.35 1566.55 1048.35 1564C1048.35 1561.45 1050.42 1559.39 1052.97 1559.39C1055.52 1559.39 1057.58 1561.45 1057.58 1564Z" fill="#92DDDA" fill-opacity="0.7"/>
<path d="M1085.26 1564C1085.26 1566.55 1083.19 1568.61 1080.65 1568.61C1078.1 1568.61 1076.03 1566.55 1076.03 1564C1076.03 1561.45 1078.1 1559.39 1080.65 1559.39C1083.19 1559.39 1085.26 1561.45 1085.26 1564Z" fill="#92DDDA" fill-opacity="0.7"/>
<path d="M1112.94 1564C1112.94 1566.55 1110.87 1568.61 1108.32 1568.61C1105.77 1568.61 1103.71 1566.55 1103.71 1564C1103.71 1561.45 1105.77 1559.39 1108.32 1559.39C1110.87 1559.39 1112.94 1561.45 1112.94 1564Z" fill="#92DDDA" fill-opacity="0.7"/>
<path d="M1140.61 1564C1140.61 1566.55 1138.55 1568.61 1136 1568.61C1133.45 1568.61 1131.39 1566.55 1131.39 1564C1131.39 1561.45 1133.45 1559.39 1136 1559.39C1138.55 1559.39 1140.61 1561.45 1140.61 1564Z" fill="#92DDDA" fill-opacity="0.7"/>
<path d="M1168.29 1564C1168.29 1566.55 1166.23 1568.61 1163.68 1568.61C1161.13 1568.61 1159.06 1566.55 1159.06 1564C1159.06 1561.45 1161.13 1559.39 1163.68 1559.39C1166.23 1559.39 1168.29 1561.45 1168.29 1564Z" fill="#92DDDA" fill-opacity="0.7"/>
<path d="M1195.97 1564C1195.97 1566.55 1193.9 1568.61 1191.35 1568.61C1188.81 1568.61 1186.74 1566.55 1186.74 1564C1186.74 1561.45 1188.81 1559.39 1191.35 1559.39C1193.9 1559.39 1195.97 1561.45 1195.97 1564Z" fill="#92DDDA" fill-opacity="0.7"/>
<path d="M1223.65 1564C1223.65 1566.55 1221.58 1568.61 1219.03 1568.61C1216.48 1568.61 1214.42 1566.55 1214.42 1564C1214.42 1561.45 1216.48 1559.39 1219.03 1559.39C1221.58 1559.39 1223.65 1561.45 1223.65 1564Z" fill="#92DDDA" fill-opacity="0.7"/>
<path d="M1251.32 1564C1251.32 1566.55 1249.26 1568.61 1246.71 1568.61C1244.16 1568.61 1242.1 1566.55 1242.1 1564C1242.1 1561.45 1244.16 1559.39 1246.71 1559.39C1249.26 1559.39 1251.32 1561.45 1251.32 1564Z" fill="#92DDDA" fill-opacity="0.7"/>
<path d="M1279 1564C1279 1566.55 1276.93 1568.61 1274.39 1568.61C1271.84 1568.61 1269.77 1566.55 1269.77 1564C1269.77 1561.45 1271.84 1559.39 1274.39 1559.39C1276.93 1559.39 1279 1561.45 1279 1564Z" fill="#92DDDA" fill-opacity="0.7"/>
<path d="M1002.23 1591.68C1002.23 1594.23 1000.16 1596.29 997.613 1596.29C995.065 1596.29 993 1594.23 993 1591.68C993 1589.13 995.065 1587.06 997.613 1587.06C1000.16 1587.06 1002.23 1589.13 1002.23 1591.68Z" fill="#92DDDA" fill-opacity="0.7"/>
<path d="M1029.9 1591.68C1029.9 1594.23 1027.84 1596.29 1025.29 1596.29C1022.74 1596.29 1020.68 1594.23 1020.68 1591.68C1020.68 1589.13 1022.74 1587.06 1025.29 1587.06C1027.84 1587.06 1029.9 1589.13 1029.9 1591.68Z" fill="#92DDDA" fill-opacity="0.7"/>
<path d="M1057.58 1591.68C1057.58 1594.23 1055.52 1596.29 1052.97 1596.29C1050.42 1596.29 1048.35 1594.23 1048.35 1591.68C1048.35 1589.13 1050.42 1587.06 1052.97 1587.06C1055.52 1587.06 1057.58 1589.13 1057.58 1591.68Z" fill="#92DDDA" fill-opacity="0.7"/>
<path d="M1085.26 1591.68C1085.26 1594.23 1083.19 1596.29 1080.65 1596.29C1078.1 1596.29 1076.03 1594.23 1076.03 1591.68C1076.03 1589.13 1078.1 1587.06 1080.65 1587.06C1083.19 1587.06 1085.26 1589.13 1085.26 1591.68Z" fill="#92DDDA" fill-opacity="0.7"/>
<path d="M1112.94 1591.68C1112.94 1594.23 1110.87 1596.29 1108.32 1596.29C1105.77 1596.29 1103.71 1594.23 1103.71 1591.68C1103.71 1589.13 1105.77 1587.06 1108.32 1587.06C1110.87 1587.06 1112.94 1589.13 1112.94 1591.68Z" fill="#92DDDA" fill-opacity="0.7"/>
<path d="M1140.61 1591.68C1140.61 1594.23 1138.55 1596.29 1136 1596.29C1133.45 1596.29 1131.39 1594.23 1131.39 1591.68C1131.39 1589.13 1133.45 1587.06 1136 1587.06C1138.55 1587.06 1140.61 1589.13 1140.61 1591.68Z" fill="#92DDDA" fill-opacity="0.7"/>
<path d="M1168.29 1591.68C1168.29 1594.23 1166.23 1596.29 1163.68 1596.29C1161.13 1596.29 1159.06 1594.23 1159.06 1591.68C1159.06 1589.13 1161.13 1587.06 1163.68 1587.06C1166.23 1587.06 1168.29 1589.13 1168.29 1591.68Z" fill="#92DDDA" fill-opacity="0.7"/>
<path d="M1195.97 1591.68C1195.97 1594.23 1193.9 1596.29 1191.35 1596.29C1188.81 1596.29 1186.74 1594.23 1186.74 1591.68C1186.74 1589.13 1188.81 1587.06 1191.35 1587.06C1193.9 1587.06 1195.97 1589.13 1195.97 1591.68Z" fill="#92DDDA" fill-opacity="0.7"/>
<path d="M1223.65 1591.68C1223.65 1594.23 1221.58 1596.29 1219.03 1596.29C1216.48 1596.29 1214.42 1594.23 1214.42 1591.68C1214.42 1589.13 1216.48 1587.06 1219.03 1587.06C1221.58 1587.06 1223.65 1589.13 1223.65 1591.68Z" fill="#92DDDA" fill-opacity="0.7"/>
<path d="M1251.32 1591.68C1251.32 1594.23 1249.26 1596.29 1246.71 1596.29C1244.16 1596.29 1242.1 1594.23 1242.1 1591.68C1242.1 1589.13 1244.16 1587.06 1246.71 1587.06C1249.26 1587.06 1251.32 1589.13 1251.32 1591.68Z" fill="#92DDDA" fill-opacity="0.7"/>
<path d="M1279 1591.68C1279 1594.23 1276.93 1596.29 1274.39 1596.29C1271.84 1596.29 1269.77 1594.23 1269.77 1591.68C1269.77 1589.13 1271.84 1587.06 1274.39 1587.06C1276.93 1587.06 1279 1589.13 1279 1591.68Z" fill="#92DDDA" fill-opacity="0.7"/>
<path d="M1002.23 1619.35C1002.23 1621.9 1000.16 1623.97 997.613 1623.97C995.065 1623.97 993 1621.9 993 1619.35C993 1616.81 995.065 1614.74 997.613 1614.74C1000.16 1614.74 1002.23 1616.81 1002.23 1619.35Z" fill="#92DDDA" fill-opacity="0.7"/>
<path d="M1029.9 1619.35C1029.9 1621.9 1027.84 1623.97 1025.29 1623.97C1022.74 1623.97 1020.68 1621.9 1020.68 1619.35C1020.68 1616.81 1022.74 1614.74 1025.29 1614.74C1027.84 1614.74 1029.9 1616.81 1029.9 1619.35Z" fill="#92DDDA" fill-opacity="0.7"/>
<path d="M1057.58 1619.35C1057.58 1621.9 1055.52 1623.97 1052.97 1623.97C1050.42 1623.97 1048.35 1621.9 1048.35 1619.35C1048.35 1616.81 1050.42 1614.74 1052.97 1614.74C1055.52 1614.74 1057.58 1616.81 1057.58 1619.35Z" fill="#92DDDA" fill-opacity="0.7"/>
<path d="M1085.26 1619.35C1085.26 1621.9 1083.19 1623.97 1080.65 1623.97C1078.1 1623.97 1076.03 1621.9 1076.03 1619.35C1076.03 1616.81 1078.1 1614.74 1080.65 1614.74C1083.19 1614.74 1085.26 1616.81 1085.26 1619.35Z" fill="#92DDDA" fill-opacity="0.7"/>
<path d="M1112.94 1619.35C1112.94 1621.9 1110.87 1623.97 1108.32 1623.97C1105.77 1623.97 1103.71 1621.9 1103.71 1619.35C1103.71 1616.81 1105.77 1614.74 1108.32 1614.74C1110.87 1614.74 1112.94 1616.81 1112.94 1619.35Z" fill="#92DDDA" fill-opacity="0.7"/>
<path d="M1140.61 1619.35C1140.61 1621.9 1138.55 1623.97 1136 1623.97C1133.45 1623.97 1131.39 1621.9 1131.39 1619.35C1131.39 1616.81 1133.45 1614.74 1136 1614.74C1138.55 1614.74 1140.61 1616.81 1140.61 1619.35Z" fill="#92DDDA" fill-opacity="0.7"/>
<path d="M1168.29 1619.35C1168.29 1621.9 1166.23 1623.97 1163.68 1623.97C1161.13 1623.97 1159.06 1621.9 1159.06 1619.35C1159.06 1616.81 1161.13 1614.74 1163.68 1614.74C1166.23 1614.74 1168.29 1616.81 1168.29 1619.35Z" fill="#92DDDA" fill-opacity="0.7"/>
<path d="M1195.97 1619.35C1195.97 1621.9 1193.9 1623.97 1191.35 1623.97C1188.81 1623.97 1186.74 1621.9 1186.74 1619.35C1186.74 1616.81 1188.81 1614.74 1191.35 1614.74C1193.9 1614.74 1195.97 1616.81 1195.97 1619.35Z" fill="#92DDDA" fill-opacity="0.7"/>
<path d="M1223.65 1619.35C1223.65 1621.9 1221.58 1623.97 1219.03 1623.97C1216.48 1623.97 1214.42 1621.9 1214.42 1619.35C1214.42 1616.81 1216.48 1614.74 1219.03 1614.74C1221.58 1614.74 1223.65 1616.81 1223.65 1619.35Z" fill="#92DDDA" fill-opacity="0.7"/>
<path d="M1251.32 1619.35C1251.32 1621.9 1249.26 1623.97 1246.71 1623.97C1244.16 1623.97 1242.1 1621.9 1242.1 1619.35C1242.1 1616.81 1244.16 1614.74 1246.71 1614.74C1249.26 1614.74 1251.32 1616.81 1251.32 1619.35Z" fill="#92DDDA" fill-opacity="0.7"/>
<path d="M1279 1619.35C1279 1621.9 1276.93 1623.97 1274.39 1623.97C1271.84 1623.97 1269.77 1621.9 1269.77 1619.35C1269.77 1616.81 1271.84 1614.74 1274.39 1614.74C1276.93 1614.74 1279 1616.81 1279 1619.35Z" fill="#92DDDA" fill-opacity="0.7"/>
<path d="M1002.23 1647.03C1002.23 1649.58 1000.16 1651.65 997.613 1651.65C995.065 1651.65 993 1649.58 993 1647.03C993 1644.48 995.065 1642.42 997.613 1642.42C1000.16 1642.42 1002.23 1644.48 1002.23 1647.03Z" fill="#92DDDA" fill-opacity="0.7"/>
<path d="M1029.9 1647.03C1029.9 1649.58 1027.84 1651.65 1025.29 1651.65C1022.74 1651.65 1020.68 1649.58 1020.68 1647.03C1020.68 1644.48 1022.74 1642.42 1025.29 1642.42C1027.84 1642.42 1029.9 1644.48 1029.9 1647.03Z" fill="#92DDDA" fill-opacity="0.7"/>
<path d="M1057.58 1647.03C1057.58 1649.58 1055.52 1651.65 1052.97 1651.65C1050.42 1651.65 1048.35 1649.58 1048.35 1647.03C1048.35 1644.48 1050.42 1642.42 1052.97 1642.42C1055.52 1642.42 1057.58 1644.48 1057.58 1647.03Z" fill="#92DDDA" fill-opacity="0.7"/>
<path d="M1085.26 1647.03C1085.26 1649.58 1083.19 1651.65 1080.65 1651.65C1078.1 1651.65 1076.03 1649.58 1076.03 1647.03C1076.03 1644.48 1078.1 1642.42 1080.65 1642.42C1083.19 1642.42 1085.26 1644.48 1085.26 1647.03Z" fill="#92DDDA" fill-opacity="0.7"/>
<path d="M1112.94 1647.03C1112.94 1649.58 1110.87 1651.65 1108.32 1651.65C1105.77 1651.65 1103.71 1649.58 1103.71 1647.03C1103.71 1644.48 1105.77 1642.42 1108.32 1642.42C1110.87 1642.42 1112.94 1644.48 1112.94 1647.03Z" fill="#92DDDA" fill-opacity="0.7"/>
<path d="M1140.61 1647.03C1140.61 1649.58 1138.55 1651.65 1136 1651.65C1133.45 1651.65 1131.39 1649.58 1131.39 1647.03C1131.39 1644.48 1133.45 1642.42 1136 1642.42C1138.55 1642.42 1140.61 1644.48 1140.61 1647.03Z" fill="#92DDDA" fill-opacity="0.7"/>
<path d="M1168.29 1647.03C1168.29 1649.58 1166.23 1651.65 1163.68 1651.65C1161.13 1651.65 1159.06 1649.58 1159.06 1647.03C1159.06 1644.48 1161.13 1642.42 1163.68 1642.42C1166.23 1642.42 1168.29 1644.48 1168.29 1647.03Z" fill="#92DDDA" fill-opacity="0.7"/>
<path d="M1195.97 1647.03C1195.97 1649.58 1193.9 1651.65 1191.35 1651.65C1188.81 1651.65 1186.74 1649.58 1186.74 1647.03C1186.74 1644.48 1188.81 1642.42 1191.35 1642.42C1193.9 1642.42 1195.97 1644.48 1195.97 1647.03Z" fill="#92DDDA" fill-opacity="0.7"/>
<path d="M1223.65 1647.03C1223.65 1649.58 1221.58 1651.65 1219.03 1651.65C1216.48 1651.65 1214.42 1649.58 1214.42 1647.03C1214.42 1644.48 1216.48 1642.42 1219.03 1642.42C1221.58 1642.42 1223.65 1644.48 1223.65 1647.03Z" fill="#92DDDA" fill-opacity="0.7"/>
<path d="M1251.32 1647.03C1251.32 1649.58 1249.26 1651.65 1246.71 1651.65C1244.16 1651.65 1242.1 1649.58 1242.1 1647.03C1242.1 1644.48 1244.16 1642.42 1246.71 1642.42C1249.26 1642.42 1251.32 1644.48 1251.32 1647.03Z" fill="#92DDDA" fill-opacity="0.7"/>
<path d="M1279 1647.03C1279 1649.58 1276.93 1651.65 1274.39 1651.65C1271.84 1651.65 1269.77 1649.58 1269.77 1647.03C1269.77 1644.48 1271.84 1642.42 1274.39 1642.42C1276.93 1642.42 1279 1644.48 1279 1647.03Z" fill="#92DDDA" fill-opacity="0.7"/>
<path d="M1002.23 1674.71C1002.23 1677.26 1000.16 1679.32 997.613 1679.32C995.065 1679.32 993 1677.26 993 1674.71C993 1672.16 995.065 1670.1 997.613 1670.1C1000.16 1670.1 1002.23 1672.16 1002.23 1674.71Z" fill="#92DDDA" fill-opacity="0.7"/>
<path d="M1029.9 1674.71C1029.9 1677.26 1027.84 1679.32 1025.29 1679.32C1022.74 1679.32 1020.68 1677.26 1020.68 1674.71C1020.68 1672.16 1022.74 1670.1 1025.29 1670.1C1027.84 1670.1 1029.9 1672.16 1029.9 1674.71Z" fill="#92DDDA" fill-opacity="0.7"/>
<path d="M1057.58 1674.71C1057.58 1677.26 1055.52 1679.32 1052.97 1679.32C1050.42 1679.32 1048.35 1677.26 1048.35 1674.71C1048.35 1672.16 1050.42 1670.1 1052.97 1670.1C1055.52 1670.1 1057.58 1672.16 1057.58 1674.71Z" fill="#92DDDA" fill-opacity="0.7"/>
<path d="M1085.26 1674.71C1085.26 1677.26 1083.19 1679.32 1080.65 1679.32C1078.1 1679.32 1076.03 1677.26 1076.03 1674.71C1076.03 1672.16 1078.1 1670.1 1080.65 1670.1C1083.19 1670.1 1085.26 1672.16 1085.26 1674.71Z" fill="#92DDDA" fill-opacity="0.7"/>
<path d="M1112.94 1674.71C1112.94 1677.26 1110.87 1679.32 1108.32 1679.32C1105.77 1679.32 1103.71 1677.26 1103.71 1674.71C1103.71 1672.16 1105.77 1670.1 1108.32 1670.1C1110.87 1670.1 1112.94 1672.16 1112.94 1674.71Z" fill="#92DDDA" fill-opacity="0.7"/>
<path d="M1140.61 1674.71C1140.61 1677.26 1138.55 1679.32 1136 1679.32C1133.45 1679.32 1131.39 1677.26 1131.39 1674.71C1131.39 1672.16 1133.45 1670.1 1136 1670.1C1138.55 1670.1 1140.61 1672.16 1140.61 1674.71Z" fill="#92DDDA" fill-opacity="0.7"/>
<path d="M1168.29 1674.71C1168.29 1677.26 1166.23 1679.32 1163.68 1679.32C1161.13 1679.32 1159.06 1677.26 1159.06 1674.71C1159.06 1672.16 1161.13 1670.1 1163.68 1670.1C1166.23 1670.1 1168.29 1672.16 1168.29 1674.71Z" fill="#92DDDA" fill-opacity="0.7"/>
<path d="M1195.97 1674.71C1195.97 1677.26 1193.9 1679.32 1191.35 1679.32C1188.81 1679.32 1186.74 1677.26 1186.74 1674.71C1186.74 1672.16 1188.81 1670.1 1191.35 1670.1C1193.9 1670.1 1195.97 1672.16 1195.97 1674.71Z" fill="#92DDDA" fill-opacity="0.7"/>
<path d="M1223.65 1674.71C1223.65 1677.26 1221.58 1679.32 1219.03 1679.32C1216.48 1679.32 1214.42 1677.26 1214.42 1674.71C1214.42 1672.16 1216.48 1670.1 1219.03 1670.1C1221.58 1670.1 1223.65 1672.16 1223.65 1674.71Z" fill="#92DDDA" fill-opacity="0.7"/>
<path d="M1251.32 1674.71C1251.32 1677.26 1249.26 1679.32 1246.71 1679.32C1244.16 1679.32 1242.1 1677.26 1242.1 1674.71C1242.1 1672.16 1244.16 1670.1 1246.71 1670.1C1249.26 1670.1 1251.32 1672.16 1251.32 1674.71Z" fill="#92DDDA" fill-opacity="0.7"/>
<path d="M1279 1674.71C1279 1677.26 1276.93 1679.32 1274.39 1679.32C1271.84 1679.32 1269.77 1677.26 1269.77 1674.71C1269.77 1672.16 1271.84 1670.1 1274.39 1670.1C1276.93 1670.1 1279 1672.16 1279 1674.71Z" fill="#92DDDA" fill-opacity="0.7"/>
<path d="M1002.23 1702.39C1002.23 1704.93 1000.16 1707 997.613 1707C995.065 1707 993 1704.93 993 1702.39C993 1699.84 995.065 1697.77 997.613 1697.77C1000.16 1697.77 1002.23 1699.84 1002.23 1702.39Z" fill="#92DDDA" fill-opacity="0.7"/>
<path d="M1029.9 1702.39C1029.9 1704.93 1027.84 1707 1025.29 1707C1022.74 1707 1020.68 1704.93 1020.68 1702.39C1020.68 1699.84 1022.74 1697.77 1025.29 1697.77C1027.84 1697.77 1029.9 1699.84 1029.9 1702.39Z" fill="#92DDDA" fill-opacity="0.7"/>
<path d="M1057.58 1702.39C1057.58 1704.93 1055.52 1707 1052.97 1707C1050.42 1707 1048.35 1704.93 1048.35 1702.39C1048.35 1699.84 1050.42 1697.77 1052.97 1697.77C1055.52 1697.77 1057.58 1699.84 1057.58 1702.39Z" fill="#92DDDA" fill-opacity="0.7"/>
<path d="M1085.26 1702.39C1085.26 1704.93 1083.19 1707 1080.65 1707C1078.1 1707 1076.03 1704.93 1076.03 1702.39C1076.03 1699.84 1078.1 1697.77 1080.65 1697.77C1083.19 1697.77 1085.26 1699.84 1085.26 1702.39Z" fill="#92DDDA" fill-opacity="0.7"/>
<path d="M1112.94 1702.39C1112.94 1704.93 1110.87 1707 1108.32 1707C1105.77 1707 1103.71 1704.93 1103.71 1702.39C1103.71 1699.84 1105.77 1697.77 1108.32 1697.77C1110.87 1697.77 1112.94 1699.84 1112.94 1702.39Z" fill="#92DDDA" fill-opacity="0.7"/>
<path d="M1140.61 1702.39C1140.61 1704.93 1138.55 1707 1136 1707C1133.45 1707 1131.39 1704.93 1131.39 1702.39C1131.39 1699.84 1133.45 1697.77 1136 1697.77C1138.55 1697.77 1140.61 1699.84 1140.61 1702.39Z" fill="#92DDDA" fill-opacity="0.7"/>
<path d="M1168.29 1702.39C1168.29 1704.93 1166.23 1707 1163.68 1707C1161.13 1707 1159.06 1704.93 1159.06 1702.39C1159.06 1699.84 1161.13 1697.77 1163.68 1697.77C1166.23 1697.77 1168.29 1699.84 1168.29 1702.39Z" fill="#92DDDA" fill-opacity="0.7"/>
<path d="M1195.97 1702.39C1195.97 1704.93 1193.9 1707 1191.35 1707C1188.81 1707 1186.74 1704.93 1186.74 1702.39C1186.74 1699.84 1188.81 1697.77 1191.35 1697.77C1193.9 1697.77 1195.97 1699.84 1195.97 1702.39Z" fill="#92DDDA" fill-opacity="0.7"/>
<path d="M1223.65 1702.39C1223.65 1704.93 1221.58 1707 1219.03 1707C1216.48 1707 1214.42 1704.93 1214.42 1702.39C1214.42 1699.84 1216.48 1697.77 1219.03 1697.77C1221.58 1697.77 1223.65 1699.84 1223.65 1702.39Z" fill="#92DDDA" fill-opacity="0.7"/>
<path d="M1251.32 1702.39C1251.32 1704.93 1249.26 1707 1246.71 1707C1244.16 1707 1242.1 1704.93 1242.1 1702.39C1242.1 1699.84 1244.16 1697.77 1246.71 1697.77C1249.26 1697.77 1251.32 1699.84 1251.32 1702.39Z" fill="#92DDDA" fill-opacity="0.7"/>
<path d="M1279 1702.39C1279 1704.93 1276.93 1707 1274.39 1707C1271.84 1707 1269.77 1704.93 1269.77 1702.39C1269.77 1699.84 1271.84 1697.77 1274.39 1697.77C1276.93 1697.77 1279 1699.84 1279 1702.39Z" fill="#92DDDA" fill-opacity="0.7"/>
</g>
<rect x="156" y="160" width="1200" height="1548" rx="18" fill="#BAE8FC" fill-opacity="0.64"/>
<rect x="360" y="75" width="28" height="112" rx="14" fill="#225C90"/>
<rect x="1124" y="75" width="28" height="112" rx="14" fill="#225C90"/>
<defs>
<filter id="filter0_f_1340_1926" x="987" y="1415" width="298" height="298" filterUnits="userSpaceOnUse" color-interpolation-filters="sRGB">
<feFlood flood-opacity="0" result="BackgroundImageFix"/>
<feBlend mode="normal" in="SourceGraphic" in2="BackgroundImageFix" result="shape"/>
<feGaussianBlur stdDeviation="3" result="effect1_foregroundBlur_1340_1926"/>
</filter>
</defs>
</svg>
