<svg width="1354" height="1615" viewBox="0 0 1354 1615" fill="none" xmlns="http://www.w3.org/2000/svg">
<g style="mix-blend-mode:hard-light" opacity="0.5">
<path d="M1 1V1614" stroke="#225C90"/>
<path d="M91.1367 1V1614" stroke="#225C90"/>
<path d="M181.27 1V1614" stroke="#225C90"/>
<path d="M271.402 1V1614" stroke="#225C90"/>
<path d="M361.539 1V1614" stroke="#225C90"/>
<path d="M451.668 1V1614" stroke="#225C90"/>
<path d="M541.801 1V1614" stroke="#225C90"/>
<path d="M631.938 1V1614" stroke="#225C90"/>
<path d="M722.07 1V1614" stroke="#225C90"/>
<path d="M812.199 1V1614" stroke="#225C90"/>
<path d="M902.34 1V1614" stroke="#225C90"/>
<path d="M992.469 1V1614" stroke="#225C90"/>
<path d="M1082.6 1V1614" stroke="#225C90"/>
<path d="M1172.74 1V1614" stroke="#225C90"/>
<path d="M1262.87 1V1614" stroke="#225C90"/>
<path d="M1353 1V1614" stroke="#225C90"/>
<path d="M1 1614H1353" stroke="#225C90"/>
<path d="M1 1467.36H1353" stroke="#225C90"/>
<path d="M1 1320.73H1353" stroke="#225C90"/>
<path d="M1 1174.09H1353" stroke="#225C90"/>
<path d="M1 1027.45H1353" stroke="#225C90"/>
<path d="M1 880.818H1353" stroke="#225C90"/>
<path d="M1 734.181H1353" stroke="#225C90"/>
<path d="M1 587.543H1353" stroke="#225C90"/>
<path d="M1 440.909H1353" stroke="#225C90"/>
<path d="M1 294.272H1353" stroke="#225C90"/>
<path d="M1 147.635H1353" stroke="#225C90"/>
<path d="M1 1H1353" stroke="#225C90"/>
</g>
</svg>
