<svg xmlns="http://www.w3.org/2000/svg" width="1354" height="1615" fill="none"><g stroke="#225C90" opacity=".5" style="mix-blend-mode:hard-light"><path d="M1 1v1613M91.137 1v1613M181.27 1v1613M271.402 1v1613M361.539 1v1613M451.668 1v1613M541.801 1v1613M631.938 1v1613M722.07 1v1613M812.199 1v1613M902.34 1v1613M992.469 1v1613M1082.6 1v1613M1172.74 1v1613M1262.87 1v1613M1353 1v1613M1 1614h1352M1 1467.36h1352M1 1320.73h1352M1 1174.09h1352M1 1027.45h1352M1 880.818h1352M1 734.181h1352M1 587.543h1352M1 440.909h1352M1 294.272h1352M1 147.635h1352M1 1h1352"/></g></svg>