<svg xmlns="http://www.w3.org/2000/svg" width="1007" height="655" fill="none"><g filter="url(#a)"><g filter="url(#b)"><path fill="#F3F4F5" d="m919.314 522.74-255.947 22.316 3.402-56.933 35.545-58.769 240-15.114c-27.879 48.076-32.402 72.034-23 108.5"/><path fill="#B6FFF6" d="m378.314 143.947-271.086.001 606.586 286.906 226.501-28.498zM926.242 524.971l-256.535 24.593a5.28 5.28 0 0 1-5.534-3.649c-1.029-3.219 1.19-6.564 4.556-6.867l256.673-23.111a4.5 4.5 0 0 1 1.783.195c4.704 1.497 3.971 8.367-.943 8.839"/><path fill="#B6FFF6" d="m940.427 416.333-224.729 14.103a5.4 5.4 0 0 1-4.155-1.57c-3.258-3.258-1.201-8.837 3.392-9.2l224.471-17.738a7.2 7.2 0 0 1 1.806.084c8.432 1.467 7.756 13.785-.785 14.321"/><path fill="url(#c)" d="M104.153 145.885c1.978-1.297 4.439-1.292 6.578-.281l603.583 285.25c-47.38 43.234-52.041 70.924-48.5 118.5L55.265 261.847c-1.862-.877-3.308-2.43-3.749-4.44-1.692-7.717-3.977-29.656 13.103-62.358 16.529-31.645 32.82-44.762 39.534-49.164"/></g><path fill="#225C90" d="m258.558 303.282 9.3-19.695-5.68.603 1.791-3.793 5.656-.554 3.467 1.637-11.067 23.439zm13.734 6.484 9.299-19.695-5.679.603 1.791-3.792 5.656-.554 3.467 1.637-11.067 23.438zm17.589 8.902q-2.393-1.13-3.74-3.04a8.55 8.55 0 0 1-1.53-4.265q-.173-2.331.957-4.724l3.812-8.073q1.13-2.393 3.039-3.74a8.4 8.4 0 0 1 4.258-1.513q2.338-.19 4.732.94 2.392 1.13 3.732 3.056a8.3 8.3 0 0 1 1.521 4.241q.19 2.339-.94 4.732l-3.812 8.073q-1.13 2.392-3.057 3.733a8.43 8.43 0 0 1-4.248 1.537q-2.332.173-4.724-.957m1.537-3.255q1.302.615 2.652.496a5.33 5.33 0 0 0 2.508-.886q1.143-.775 1.765-2.093l4.027-8.529q.615-1.302.479-2.66a5.15 5.15 0 0 0-.909-2.5q-.759-1.134-2.061-1.749a5.07 5.07 0 0 0-2.676-.487q-1.35.119-2.492.893-1.134.758-1.749 2.061l-4.027 8.529q-.623 1.318-.495 2.692a5.4 5.4 0 0 0 .893 2.492 5.2 5.2 0 0 0 2.085 1.741m19.158 7.114 2.843-6.022-6.022-2.844 1.291-2.734 6.022 2.843 2.828-5.989 2.735 1.291-2.828 5.99 6.006 2.835-1.291 2.735-6.006-2.836-2.844 6.023zm17.429 13.545 11.067-23.439 9.473 4.473q.342.16.831.432a7.4 7.4 0 0 1 .914.551q1.808 1.231 2.625 2.872a6.94 6.94 0 0 1 .748 3.518q-.087 1.87-.978 3.758-.9 1.904-2.288 3.159a6.94 6.94 0 0 1-3.192 1.658q-1.786.411-3.885-.202-.487-.15-1.023-.363a14 14 0 0 1-.845-.36l-6.072-2.866-3.973 8.415zm8.897-10.032 5.941 2.805q.325.153.732.306.422.159.818.247 1.157.247 2.1-.104a4.36 4.36 0 0 0 1.633-1.099q.684-.732 1.092-1.595a6 6 0 0 0 .53-1.84 4.2 4.2 0 0 0-.197-1.944q-.32-.967-1.246-1.703a4.6 4.6 0 0 0-.703-.492 10 10 0 0 0-.701-.37l-5.941-2.805zm11.513 19.668 8.3-17.579 3.027 1.43-2.013 4.264-.162-.753a7.2 7.2 0 0 1 1.576-1.147 5.3 5.3 0 0 1 1.758-.603 5.7 5.7 0 0 1 1.835-.049 7.1 7.1 0 0 1 1.846.473 7 7 0 0 1 1.622.866l-1.506 3.19q-.755-.635-1.859-1.037a4.65 4.65 0 0 0-2.236-.24 4.8 4.8 0 0 0-1.933.68 6.1 6.1 0 0 0-1.491 1.386 9.8 9.8 0 0 0-1.141 1.87l-4.189 8.871zm19.674 9.887q-2.637-1.245-4.012-3.348-1.377-2.103-1.451-4.686-.05-2.591 1.241-5.326 1.299-2.75 3.357-4.327 2.065-1.592 4.548-1.833 2.49-.258 5.079.964 2.636 1.245 4.012 3.348t1.451 4.686q.074 2.583-1.21 5.301-1.299 2.751-3.364 4.343-2.041 1.584-4.54 1.858-2.49.257-5.111-.98m1.514-3.207q2.523 1.191 4.56.083 2.06-1.118 3.328-3.803 1.299-2.751.805-4.994-.47-2.253-2.959-3.428-1.71-.807-3.185-.549-1.469.243-2.651 1.357-1.175 1.097-2.02 2.887-1.307 2.768-.821 5.027t2.943 3.42m4.627 15.064 1.522-3.223.895.423q1.352.638 2.277.278.942-.35 1.58-1.702l9.215-19.516 3.418 1.614-9.868 20.9q-1.014 2.148-2.756 2.759-1.725.619-3.923-.419zm16.849-26.621 1.56-3.304 3.418 1.614-1.56 3.304zm5.976 28.44q-2.621-1.238-4.069-3.314-1.424-2.087-1.562-4.659-.115-2.583 1.169-5.301 1.36-2.88 3.433-4.49 2.09-1.6 4.573-1.842 2.482-.24 5.054.973 2.686 1.269 3.982 3.413 1.304 2.129 1.148 4.862-.139 2.741-1.826 5.806l-3.401-1.606.584-1.237q1.412-3.075.964-5.078-.431-1.996-2.743-3.087-2.554-1.207-4.602-.202-2.046 1.004-3.484 4.048-1.368 2.897-.835 5.099.54 2.187 2.966 3.332 1.595.753 3.089.582 1.518-.179 2.806-1.223l2.838 2.634q-2.14 1.876-4.838 2.194-2.691.303-5.246-.904m-2.34-11.276 1.253-2.654 12.549 5.926-1.252 2.653zm21.487 20.317q-2.702-1.277-4.021-3.372-1.32-2.097-1.338-4.672-.001-2.569 1.243-5.246 1.3-2.71 3.309-4.31 2.018-1.616 4.482-1.904 2.466-.29 5.135.971 2.882 1.36 4.239 3.753 1.375 2.401.85 5.199l-3.847-.622q.195-1.72-.576-3.079-.747-1.368-2.229-2.068-1.676-.79-3.127-.501-1.443.274-2.61 1.396-1.166 1.12-2.012 2.871-1.268 2.726-.838 4.979.445 2.26 2.854 3.398 1.644.775 3.007.504 1.386-.28 2.592-1.443l3.067 2.443q-2.077 2.164-4.716 2.61-2.632.43-5.464-.907m21.272 9.446a16.2 16.2 0 0 1-3.386-1.26q-1.572-.802-2.556-1.964a4.3 4.3 0 0 1-1.043-2.682q-.055-1.359.427-2.505.504-1.155 1.181-2.587l7.34-15.545 3.418 1.614-7.263 15.382a98 98 0 0 0-.852 1.847q-.336.797-.281 1.479.11 1.287 1.31 2.032 1.225.738 3.065 1.308zm-5.003-20.516 1.291-2.735 12.012 5.672-1.291 2.735zm15.209 25.912q-3.207-1.514-4.556-3.883t-.592-5.156l3.737 1.107a3.9 3.9 0 0 0 .476 2.872q.819 1.342 2.577 2.173 1.595.753 2.798.524 1.219-.22 1.756-1.36.316-.667.182-1.228-.11-.568-.942-1.42-.832-.85-2.638-2.38-1.986-1.654-3.005-2.952-.996-1.306-1.143-2.47-.123-1.173.484-2.459.753-1.595 2.161-2.383 1.407-.789 3.244-.718 1.854.08 3.921 1.055 2.019.953 3.298 2.334 1.28 1.38 1.702 3.013.431 1.617-.111 3.271l-3.783-1.009q.42-1.355-.243-2.563-.663-1.21-2.244-2.035-1.516-.795-2.753-.663-1.229.116-1.706 1.125-.276.586-.11 1.162.182.584 1.063 1.458.882.874 2.703 2.371 1.944 1.615 2.916 2.929.98 1.299 1.079 2.52.125 1.214-.514 2.564-1.229 2.605-3.833 3.187-2.588.59-5.924-.986"/></g><defs><filter id="a" width="996.833" height="505.641" x=".364" y="93.947" color-interpolation-filters="sRGB" filterUnits="userSpaceOnUse"><feFlood flood-opacity="0" result="BackgroundImageFix"/><feColorMatrix in="SourceAlpha" result="hardAlpha" values="0 0 0 0 0 0 0 0 0 0 0 0 0 0 0 0 0 0 127 0"/><feOffset/><feGaussianBlur stdDeviation="25"/><feComposite in2="hardAlpha" operator="out"/><feColorMatrix values="0 0 0 0 0.713726 0 0 0 0 1 0 0 0 0 0.964706 0 0 0 0.5 0"/><feBlend in2="BackgroundImageFix" result="effect1_dropShadow_877_701"/><feBlend in="SourceGraphic" in2="effect1_dropShadow_877_701" result="shape"/></filter><filter id="b" width="996.833" height="505.641" x=".364" y="97.947" color-interpolation-filters="sRGB" filterUnits="userSpaceOnUse"><feFlood flood-opacity="0" result="BackgroundImageFix"/><feColorMatrix in="SourceAlpha" result="hardAlpha" values="0 0 0 0 0 0 0 0 0 0 0 0 0 0 0 0 0 0 127 0"/><feOffset dy="4"/><feGaussianBlur stdDeviation="25"/><feComposite in2="hardAlpha" operator="out"/><feColorMatrix values="0 0 0 0 0.713726 0 0 0 0 1 0 0 0 0 0.964706 0 0 0 0.5 0"/><feBlend in2="BackgroundImageFix" result="effect1_dropShadow_877_701"/><feBlend in="SourceGraphic" in2="effect1_dropShadow_877_701" result="shape"/></filter><linearGradient id="c" x1="1056.82" x2="85.315" y1="586.856" y2="206.356" gradientUnits="userSpaceOnUse"><stop stop-color="#B6FFF6"/><stop offset="1" stop-color="#0DAEF1"/></linearGradient></defs></svg>