<svg width="851" height="389" viewBox="0 0 851 389" fill="none" xmlns="http://www.w3.org/2000/svg">
<g filter="url(#filter0_d_516_561)">
<path d="M75.1218 101.752C79.16 96.241 86.0675 94.3934 92.803 95.539L775.916 211.732C784.593 213.208 791.877 219.294 794.277 227.762C805.586 267.669 800.895 293.306 777.048 328.486C771.995 335.94 762.93 339.477 754.053 337.967L69.7763 221.576C63.9537 220.585 58.6618 217.452 56.3863 212.002C52.2803 202.167 47.6093 183.127 53.8791 153.895C59.7359 126.588 68.8235 110.348 75.1218 101.752Z" fill="#FFCDF7"/>
<path d="M162.194 50.0078L82.148 94.2112L790.166 214.641L723.137 145.421L162.194 50.0078Z" fill="#225C90"/>
<path d="M283.442 208.118C282.128 207.895 280.949 207.42 279.904 206.695C278.873 205.959 278.036 205.05 277.392 203.967C276.751 202.872 276.364 201.674 276.232 200.373L279.962 200.022C280.034 200.813 280.266 201.528 280.656 202.167C281.058 202.807 281.565 203.338 282.175 203.758C282.787 204.166 283.448 204.431 284.158 204.552C285.092 204.711 285.976 204.63 286.81 204.309C287.655 203.99 288.361 203.489 288.928 202.807C289.506 202.126 289.873 201.33 290.028 200.419C290.187 199.485 290.1 198.6 289.767 197.764C289.447 196.931 288.939 196.23 288.244 195.661C287.564 195.083 286.768 194.716 285.857 194.561C284.816 194.384 283.9 194.441 283.107 194.732C282.315 195.024 281.672 195.407 281.177 195.883L278.141 194.198L281.206 180.898L294.994 183.243L294.4 186.739L282.511 184.717L284.257 183.571L281.925 193.527L281.357 192.463C282.146 191.903 283.038 191.525 284.033 191.33C285.028 191.134 285.987 191.114 286.91 191.271C288.495 191.541 289.846 192.148 290.964 193.093C292.093 194.039 292.911 195.207 293.417 196.596C293.925 197.972 294.044 199.459 293.772 201.056C293.502 202.642 292.849 204.015 291.811 205.178C290.776 206.329 289.518 207.174 288.039 207.713C286.559 208.253 285.027 208.388 283.442 208.118ZM305.464 211.864C303.725 211.568 302.251 210.928 301.043 209.943C299.837 208.947 298.963 207.715 298.422 206.247C297.892 204.782 297.775 203.18 298.071 201.441L299.568 192.639C299.864 190.9 300.504 189.426 301.488 188.218C302.485 187.012 303.716 186.145 305.181 185.615C306.649 185.073 308.252 184.95 309.991 185.246C311.73 185.542 313.203 186.188 314.409 187.184C315.617 188.169 316.486 189.394 317.015 190.859C317.557 192.327 317.68 193.93 317.384 195.669L315.887 204.471C315.591 206.21 314.945 207.683 313.949 208.889C312.964 210.097 311.738 210.971 310.271 211.513C308.805 212.043 307.203 212.16 305.464 211.864ZM306.067 208.315C307.014 208.476 307.91 208.397 308.755 208.078C309.614 207.75 310.34 207.24 310.932 206.55C311.526 205.847 311.905 205.017 312.068 204.059L313.65 194.76C313.811 193.814 313.726 192.917 313.395 192.07C313.067 191.21 312.55 190.49 311.846 189.907C311.155 189.315 310.337 188.938 309.39 188.777C308.444 188.616 307.541 188.7 306.682 189.029C305.837 189.348 305.117 189.858 304.523 190.56C303.93 191.251 303.554 192.069 303.393 193.016L301.811 202.314C301.648 203.272 301.731 204.181 302.06 205.04C302.39 205.888 302.901 206.608 303.591 207.2C304.296 207.782 305.121 208.154 306.067 208.315ZM328.234 215.737C326.495 215.441 325.022 214.801 323.814 213.817C322.608 212.82 321.734 211.588 321.192 210.121C320.663 208.655 320.546 207.053 320.841 205.314L322.338 196.512C322.634 194.773 323.274 193.3 324.259 192.092C325.255 190.886 326.486 190.018 327.952 189.488C329.419 188.946 331.023 188.823 332.762 189.119C334.501 189.415 335.973 190.061 337.179 191.057C338.387 192.042 339.256 193.267 339.786 194.733C340.327 196.2 340.45 197.804 340.155 199.543L338.657 208.344C338.362 210.083 337.716 211.556 336.719 212.762C335.735 213.97 334.509 214.844 333.041 215.386C331.576 215.916 329.973 216.033 328.234 215.737ZM328.838 212.188C329.784 212.349 330.68 212.27 331.526 211.951C332.385 211.623 333.111 211.113 333.703 210.423C334.297 209.72 334.676 208.89 334.839 207.932L336.42 198.633C336.581 197.687 336.496 196.79 336.166 195.943C335.837 195.083 335.321 194.363 334.616 193.78C333.926 193.188 333.107 192.812 332.161 192.651C331.215 192.49 330.312 192.573 329.453 192.902C328.607 193.221 327.887 193.731 327.293 194.434C326.701 195.124 326.324 195.942 326.163 196.889L324.582 206.187C324.419 207.146 324.502 208.054 324.83 208.914C325.161 209.761 325.671 210.481 326.362 211.073C327.066 211.655 327.891 212.027 328.838 212.188ZM349.204 213.881L350.321 207.315L343.755 206.199L344.262 203.217L350.828 204.334L351.939 197.804L354.92 198.311L353.809 204.841L360.357 205.955L359.85 208.936L353.302 207.822L352.185 214.388L349.204 213.881ZM369.637 222.232L373.983 196.679L384.311 198.435C384.559 198.477 384.865 198.542 385.228 198.628C385.592 198.702 385.935 198.797 386.256 198.912C387.638 199.378 388.738 200.065 389.558 200.971C390.389 201.879 390.945 202.942 391.225 204.158C391.505 205.374 391.529 206.668 391.295 208.04C391.06 209.425 390.609 210.644 389.942 211.699C389.276 212.755 388.4 213.573 387.315 214.156C386.242 214.74 384.977 215.024 383.519 215.007C383.18 214.998 382.819 214.973 382.436 214.932C382.065 214.894 381.762 214.854 381.525 214.814L374.906 213.688L373.346 222.862L369.637 222.232ZM375.504 210.175L381.981 211.276C382.217 211.317 382.48 211.349 382.767 211.374C383.067 211.4 383.352 211.406 383.623 211.391C384.41 211.343 385.075 211.121 385.616 210.726C386.16 210.32 386.586 209.82 386.894 209.227C387.202 208.634 387.409 208.024 387.515 207.397C387.622 206.77 387.627 206.132 387.531 205.483C387.436 204.822 387.199 204.215 386.818 203.664C386.439 203.1 385.886 202.665 385.159 202.359C384.911 202.244 384.641 202.149 384.349 202.075C384.069 202.003 383.811 201.947 383.574 201.907L377.097 200.805L375.504 210.175ZM396.62 227.369C395.2 227.128 394.056 226.665 393.186 225.982C392.318 225.286 391.71 224.464 391.36 223.516C391.023 222.558 390.944 221.559 391.121 220.518C391.286 219.548 391.602 218.725 392.07 218.05C392.538 217.375 393.152 216.84 393.913 216.446C394.676 216.041 395.576 215.761 396.612 215.609C397.506 215.506 398.507 215.451 399.616 215.445C400.725 215.438 401.885 215.453 403.096 215.489C404.319 215.526 405.53 215.562 406.729 215.595L405.254 216.111C405.533 214.613 405.403 213.447 404.863 212.612C404.337 211.768 403.276 211.21 401.679 210.939C400.673 210.768 399.71 210.847 398.79 211.178C397.871 211.496 397.155 212.165 396.641 213.186L393.362 211.532C394.114 209.968 395.236 208.814 396.726 208.069C398.228 207.327 400.085 207.144 402.297 207.52C404.012 207.812 405.453 208.361 406.618 209.168C407.797 209.965 408.574 211.046 408.951 212.413C409.152 213.092 409.228 213.787 409.18 214.497C409.133 215.207 409.04 215.964 408.904 216.769L406.896 228.569L403.613 228.011L404.359 223.628L404.901 224.304C403.859 225.636 402.662 226.559 401.308 227.071C399.969 227.573 398.406 227.673 396.62 227.369ZM397.793 224.446C398.846 224.625 399.782 224.596 400.601 224.358C401.423 224.108 402.114 223.733 402.674 223.231C403.234 222.73 403.638 222.178 403.886 221.575C404.184 221.042 404.405 220.422 404.55 219.716C404.706 219.013 404.82 218.448 404.893 218.022L406.024 218.671C404.822 218.649 403.731 218.628 402.748 218.607C401.766 218.585 400.872 218.58 400.067 218.589C399.276 218.588 398.563 218.631 397.927 218.718C397.388 218.809 396.897 218.944 396.452 219.124C396.02 219.306 395.655 219.554 395.358 219.869C395.073 220.186 394.887 220.598 394.8 221.107C394.716 221.604 394.762 222.087 394.938 222.555C395.116 223.011 395.438 223.407 395.904 223.742C396.371 224.077 397 224.311 397.793 224.446ZM411.504 229.353L414.764 210.188L418.065 210.75L417.274 215.399L416.915 214.717C417.256 214.142 417.659 213.632 418.125 213.188C418.592 212.732 419.102 212.381 419.655 212.134C420.2 211.861 420.785 211.681 421.409 211.592C422.046 211.494 422.682 211.48 423.315 211.551C423.95 211.611 424.548 211.743 425.109 211.948L424.518 215.426C423.919 215.154 423.229 214.988 422.448 214.928C421.679 214.87 420.94 214.994 420.23 215.299C419.561 215.587 419.001 215.979 418.552 216.474C418.114 216.972 417.76 217.551 417.489 218.211C417.221 218.859 417.022 219.562 416.893 220.319L415.248 229.99L411.504 229.353ZM436.195 233.553C434.949 233.584 433.748 233.483 432.595 233.251C431.442 233.018 430.445 232.617 429.604 232.048C428.764 231.479 428.188 230.712 427.878 229.746C427.599 228.883 427.511 228.04 427.614 227.218C427.731 226.386 427.879 225.449 428.056 224.408L430.938 207.462L434.665 208.096L431.812 224.865C431.681 225.634 431.574 226.303 431.489 226.873C431.416 227.445 431.459 227.945 431.617 228.374C431.918 229.18 432.521 229.714 433.426 229.978C434.344 230.231 435.446 230.376 436.73 230.412L436.195 233.553ZM425.852 215.142L426.359 212.16L439.455 214.388L438.948 217.369L425.852 215.142ZM444.385 211.995L444.998 208.393L448.707 209.023L448.094 212.626L444.385 211.995ZM440.591 234.3L443.851 215.136L447.56 215.766L444.3 234.931L440.591 234.3ZM457.736 237.764C455.772 237.43 454.179 236.709 452.955 235.6C451.732 234.491 450.883 233.111 450.41 231.461C449.948 229.812 449.876 228.016 450.194 226.074C450.542 224.101 451.217 222.42 452.22 221.033C453.225 219.633 454.493 218.619 456.024 217.991C457.555 217.363 459.29 217.214 461.23 217.544C463.324 217.9 465.022 218.725 466.324 220.017C467.637 221.312 468.377 222.904 468.542 224.795L464.67 225.232C464.486 224.093 464.025 223.156 463.286 222.422C462.56 221.678 461.659 221.214 460.583 221.031C459.364 220.824 458.315 220.943 457.436 221.39C456.558 221.825 455.846 222.507 455.298 223.437C454.751 224.366 454.362 225.469 454.133 226.744C453.809 228.722 453.987 230.395 454.667 231.765C455.359 233.136 456.58 233.971 458.331 234.269C459.526 234.472 460.536 234.364 461.362 233.944C462.202 233.515 462.905 232.819 463.47 231.856L467.081 233.383C466.136 235.146 464.857 236.407 463.242 237.167C461.63 237.916 459.795 238.115 457.736 237.764ZM473.429 216.935L474.042 213.333L477.75 213.964L477.138 217.566L473.429 216.935ZM469.635 239.241L472.895 220.076L476.603 220.707L473.344 239.871L469.635 239.241ZM487.579 242.84C485.745 242.529 484.282 241.823 483.191 240.725C482.102 239.614 481.368 238.242 480.988 236.607C480.609 234.972 480.583 233.197 480.909 231.28C481.235 229.364 481.841 227.696 482.727 226.276C483.626 224.859 484.765 223.817 486.144 223.151C487.537 222.475 489.138 222.291 490.948 222.599C492.747 222.905 494.221 223.612 495.371 224.721C496.536 225.819 497.343 227.192 497.793 228.839C498.245 230.474 498.307 232.256 497.979 234.184C497.653 236.1 497.005 237.767 496.033 239.184C495.076 240.592 493.871 241.628 492.419 242.294C490.978 242.962 489.365 243.144 487.579 242.84ZM477.206 249.292L481.914 221.61L485.215 222.171L482.87 235.959L483.296 236.032L480.932 249.926L477.206 249.292ZM487.634 239.399C488.817 239.6 489.845 239.465 490.716 238.992C491.6 238.522 492.317 237.81 492.869 236.857C493.434 235.894 493.825 234.78 494.04 233.514C494.253 232.26 494.251 231.091 494.034 230.007C493.828 228.925 493.381 228.015 492.691 227.277C492.001 226.539 491.041 226.065 489.81 225.856C488.651 225.659 487.644 225.78 486.791 226.219C485.949 226.66 485.258 227.358 484.718 228.313C484.19 229.27 483.813 230.411 483.588 231.736C483.363 233.061 483.341 234.262 483.523 235.34C483.705 236.418 484.131 237.312 484.801 238.022C485.471 238.733 486.416 239.192 487.634 239.399ZM505.586 245.903C504.167 245.662 503.022 245.199 502.152 244.516C501.285 243.821 500.676 242.999 500.326 242.051C499.99 241.093 499.91 240.093 500.087 239.052C500.252 238.082 500.569 237.26 501.036 236.585C501.504 235.909 502.119 235.375 502.879 234.981C503.642 234.575 504.542 234.296 505.578 234.144C506.472 234.04 507.474 233.985 508.582 233.979C509.691 233.973 510.851 233.988 512.062 234.023C513.285 234.061 514.496 234.096 515.696 234.13L514.22 234.646C514.499 233.147 514.369 231.981 513.829 231.147C513.304 230.303 512.242 229.745 510.645 229.473C509.639 229.302 508.676 229.382 507.756 229.712C506.838 230.031 506.121 230.7 505.607 231.72L502.328 230.067C503.081 228.503 504.202 227.349 505.692 226.604C507.194 225.861 509.051 225.678 511.263 226.054C512.978 226.346 514.419 226.895 515.584 227.702C516.763 228.499 517.541 229.581 517.917 230.947C518.118 231.627 518.194 232.321 518.147 233.031C518.099 233.741 518.007 234.499 517.87 235.303L515.863 247.104L512.58 246.545L513.325 242.162L513.867 242.839C512.825 244.171 511.628 245.093 510.275 245.605C508.935 246.108 507.373 246.207 505.586 245.903ZM506.759 242.981C507.812 243.16 508.748 243.13 509.568 242.892C510.389 242.643 511.08 242.267 511.64 241.766C512.2 241.265 512.604 240.713 512.853 240.11C513.15 239.576 513.371 238.957 513.516 238.251C513.672 237.547 513.786 236.982 513.859 236.556L514.99 237.205C513.789 237.183 512.697 237.162 511.714 237.141C510.732 237.12 509.838 237.114 509.033 237.123C508.242 237.122 507.529 237.165 506.893 237.252C506.355 237.343 505.863 237.479 505.418 237.659C504.986 237.841 504.621 238.089 504.324 238.404C504.039 238.72 503.853 239.133 503.767 239.642C503.682 240.138 503.728 240.621 503.904 241.089C504.082 241.545 504.404 241.941 504.87 242.276C505.337 242.611 505.966 242.846 506.759 242.981ZM533.921 250.175L535.524 240.753C535.651 240.007 535.715 239.233 535.718 238.43C535.735 237.618 535.623 236.844 535.383 236.109C535.154 235.376 534.756 234.749 534.187 234.226C533.631 233.705 532.844 233.359 531.827 233.185C531.164 233.073 530.518 233.079 529.888 233.203C529.26 233.315 528.681 233.575 528.149 233.984C527.628 234.395 527.171 234.974 526.776 235.722C526.392 236.473 526.104 237.416 525.911 238.551L523.752 237.29C524.048 235.551 524.634 234.074 525.51 232.86C526.388 231.633 527.499 230.751 528.845 230.213C530.19 229.675 531.726 229.553 533.453 229.847C534.778 230.072 535.854 230.474 536.681 231.053C537.507 231.632 538.139 232.318 538.577 233.11C539.028 233.893 539.332 234.718 539.489 235.584C539.646 236.451 539.711 237.284 539.685 238.082C539.658 238.881 539.595 239.577 539.494 240.168L537.683 250.815L533.921 250.175ZM520.453 247.884L523.712 228.72L527.031 229.284L526.089 234.821L526.533 234.896L524.215 248.524L520.453 247.884ZM553.272 253.467C552.025 253.498 550.825 253.397 549.671 253.165C548.518 252.932 547.521 252.531 546.681 251.962C545.84 251.393 545.265 250.626 544.954 249.66C544.675 248.797 544.587 247.954 544.69 247.132C544.808 246.3 544.955 245.363 545.132 244.322L548.014 227.376L551.741 228.01L548.889 244.779C548.758 245.548 548.65 246.217 548.565 246.787C548.492 247.359 548.535 247.859 548.693 248.288C548.995 249.094 549.597 249.628 550.502 249.892C551.421 250.145 552.522 250.29 553.806 250.326L553.272 253.467ZM542.929 235.056L543.436 232.074L556.532 234.302L556.024 237.283L542.929 235.056ZM564.554 255.915C562.223 255.519 560.412 254.681 559.12 253.402C557.828 252.124 557.176 250.522 557.162 248.596L561.059 248.656C561.127 249.69 561.537 250.57 562.29 251.294C563.057 252.009 564.08 252.475 565.357 252.692C566.517 252.889 567.462 252.807 568.193 252.444C568.936 252.084 569.378 251.489 569.519 250.661C569.601 250.176 569.549 249.766 569.363 249.43C569.191 249.084 568.761 248.713 568.074 248.316C567.387 247.919 566.326 247.392 564.892 246.734C563.32 246.028 562.09 245.35 561.203 244.7C560.329 244.041 559.74 243.35 559.437 242.629C559.147 241.898 559.082 241.065 559.241 240.131C559.438 238.971 559.918 238.012 560.68 237.253C561.442 236.494 562.419 235.973 563.612 235.689C564.816 235.407 566.17 235.394 567.672 235.649C569.139 235.899 570.407 236.352 571.476 237.008C572.545 237.665 573.362 238.479 573.927 239.452C574.494 240.412 574.752 241.473 574.701 242.633L570.785 242.679C570.812 241.734 570.504 240.933 569.861 240.276C569.218 239.619 568.315 239.167 567.152 238.92C566.036 238.682 565.093 238.716 564.323 239.023C563.554 239.319 563.108 239.833 562.983 240.566C562.911 240.992 562.979 241.375 563.189 241.715C563.411 242.057 563.883 242.43 564.606 242.833C565.329 243.236 566.409 243.754 567.847 244.388C569.386 245.076 570.585 245.755 571.445 246.424C572.307 247.082 572.879 247.794 573.163 248.561C573.46 249.317 573.525 250.186 573.358 251.168C573.036 253.061 572.092 254.428 570.524 255.269C568.969 256.112 566.979 256.328 564.554 255.915Z" fill="#225C90"/>
</g>
<defs>
<filter id="filter0_d_516_561" x="0.823181" y="0.0078125" width="849.316" height="388.302" filterUnits="userSpaceOnUse" color-interpolation-filters="sRGB">
<feFlood flood-opacity="0" result="BackgroundImageFix"/>
<feColorMatrix in="SourceAlpha" type="matrix" values="0 0 0 0 0 0 0 0 0 0 0 0 0 0 0 0 0 0 127 0" result="hardAlpha"/>
<feOffset/>
<feGaussianBlur stdDeviation="25"/>
<feComposite in2="hardAlpha" operator="out"/>
<feColorMatrix type="matrix" values="0 0 0 0 0.713726 0 0 0 0 1 0 0 0 0 0.964706 0 0 0 0.5 0"/>
<feBlend mode="normal" in2="BackgroundImageFix" result="effect1_dropShadow_516_561"/>
<feBlend mode="normal" in="SourceGraphic" in2="effect1_dropShadow_516_561" result="shape"/>
</filter>
</defs>
</svg>
