<svg width="497" height="604" viewBox="0 0 497 604" fill="none" xmlns="http://www.w3.org/2000/svg">
<path d="M106.1 164.954C155.033 63.751 225.985 34.5766 321.431 39.974C323.237 40.0762 324.857 41.161 325.639 42.7923L487.148 379.493C488.883 383.111 485.847 387.464 481.836 387.374C463.902 386.972 421.335 389.554 363.228 416C285.228 451.5 264.746 493.59 264.746 493.59L106.1 164.954Z" fill="#0DAEF1"/>
<path d="M-92.8226 278.126C-54.295 212.565 -3.29362 169.065 116.206 186.669L264.729 493.5C264.729 493.5 226.728 480 154.728 515.5C101.442 541.773 74.447 577.357 64.0137 594.08C61.7557 597.699 55.9543 597.545 54.1532 593.678L-92.8226 278.126Z" fill="#0DAEF1"/>
<path d="M116.707 139.566C159.207 48.566 222.207 23.5663 307.572 30.0342L459.228 335C459.228 335 417.496 315.705 345.496 351.205C273.496 386.705 259.551 435.19 259.551 435.19L116.707 139.566Z" fill="#F8F8F8"/>
<path d="M-104.05 235.735C-62.3812 168.604 -8.17413 123.503 116.205 138.67L259.752 435.193C259.752 435.193 215.86 416.522 139.904 453.998C63.9491 491.473 48.322 540.798 48.322 540.798L-104.05 235.735Z" fill="white"/>
<path d="M64.7279 580.5C64.7279 580.5 60.7287 570 48.7285 541C36.7283 512 176.228 401.5 259.728 435C261.693 435.788 259.728 483 259.728 483C259.728 483 221.228 465.5 152.728 496.5C84.2277 527.5 64.7279 580.5 64.7279 580.5Z" fill="#F8F8F8"/>
<path d="M259.729 483C259.729 483 259.229 473.532 259.229 435.031C259.229 396.531 381.729 303.939 459.228 335.031C461.194 335.82 459.228 377.5 459.228 377.5C459.228 377.5 420.729 365.532 352.229 396.532C283.729 427.532 259.729 483 259.729 483Z" fill="#E2E2E2"/>
</svg>
