<svg width="358" height="424" viewBox="0 0 358 424" fill="none" xmlns="http://www.w3.org/2000/svg">
<path d="M274.096 115.741C239.912 45.0409 190.412 24.4404 123.883 28.0001C122.076 28.0968 120.46 29.1824 119.677 30.8137L7.94912 263.737C6.21397 267.354 9.25874 271.761 13.2706 271.78C27.1643 271.846 55.6889 274.599 93.6808 291.89C148.41 316.799 162.781 346.331 162.781 346.331L274.096 115.741Z" fill="#0DAEF1"/>
<path d="M413.672 195.15C386.639 149.148 350.853 118.626 267.006 130.978L162.794 346.268C162.794 346.268 189.457 336.796 239.977 361.705C274.675 378.813 293.485 401.548 301.864 414.11C304.231 417.659 310.109 417.495 311.91 413.628L413.672 195.15Z" fill="#0DAEF1"/>
<path d="M266.653 97.9272C236.832 34.0765 192.628 16.5353 132.731 21.0736L26.3204 235.055C26.3204 235.055 55.6019 221.516 106.121 246.425C156.641 271.334 166.425 305.354 166.425 305.354L266.653 97.9272Z" fill="#F8F8F8"/>
<path d="M421.549 165.405C392.312 118.302 354.277 86.657 267.005 97.2985L166.284 305.357C166.284 305.357 197.082 292.256 250.376 318.551C303.671 344.846 314.636 379.455 314.636 379.455L421.549 165.405Z" fill="white"/>
<path d="M303.124 407.312C303.124 407.312 305.931 399.945 314.351 379.597C322.771 359.249 224.89 281.716 166.301 305.221C164.922 305.774 166.301 338.901 166.301 338.901C166.301 338.901 193.315 326.622 241.379 348.373C289.442 370.125 303.124 407.312 303.124 407.312Z" fill="#F8F8F8"/>
<path d="M166.301 338.901C166.301 338.901 166.651 332.257 166.651 305.243C166.651 278.229 80.6983 213.261 26.32 235.077C24.9409 235.631 26.32 264.876 26.32 264.876C26.32 264.876 53.3337 256.478 101.397 278.229C149.461 299.981 166.301 338.901 166.301 338.901Z" fill="#E2E2E2"/>
</svg>
