<svg xmlns="http://www.w3.org/2000/svg" width="497" height="604" fill="none"><path fill="#0DAEF1" d="M106.1 164.954C155.033 63.751 225.985 34.577 321.431 39.974a4.99 4.99 0 0 1 4.208 2.818l161.509 336.701c1.735 3.618-1.301 7.971-5.312 7.881-17.934-.402-60.501 2.18-118.608 28.626-78 35.5-98.482 77.59-98.482 77.59z"/><path fill="#0DAEF1" d="M-92.823 278.126c38.528-65.561 89.53-109.061 209.029-91.457L264.729 493.5s-38.001-13.5-110.001 22c-53.286 26.273-80.281 61.857-90.714 78.58-2.258 3.619-8.06 3.465-9.86-.402z"/><path fill="#F8F8F8" d="M116.707 139.566c42.5-91 105.5-116 190.865-109.532L459.228 335s-41.732-19.295-113.732 16.205-85.945 83.985-85.945 83.985z"/><path fill="#fff" d="M-104.05 235.735c41.669-67.131 95.876-112.232 220.255-97.065l143.547 296.523s-43.892-18.671-119.848 18.805-91.582 86.8-91.582 86.8z"/><path fill="#F8F8F8" d="M64.728 580.5s-4-10.5-16-39.5 127.5-139.5 211-106c1.965.788 0 48 0 48s-38.5-17.5-107 13.5-88 84-88 84"/><path fill="#E2E2E2" d="M259.729 483s-.5-9.468-.5-47.969c0-38.5 122.5-131.092 199.999-100 1.966.789 0 42.469 0 42.469s-38.499-11.968-106.999 19.032-92.5 86.468-92.5 86.468"/></svg>