<svg xmlns="http://www.w3.org/2000/svg" width="358" height="424" fill="none"><path fill="#0DAEF1" d="M274.096 115.741c-34.184-70.7-83.684-91.3-150.213-87.74a4.97 4.97 0 0 0-4.206 2.813L7.949 263.737c-1.735 3.617 1.31 8.024 5.322 8.043 13.893.066 42.418 2.819 80.41 20.11 54.729 24.909 69.1 54.441 69.1 54.441z"/><path fill="#0DAEF1" d="M413.672 195.15c-27.033-46.002-62.819-76.524-146.666-64.172l-104.212 215.29s26.663-9.472 77.183 15.437c34.698 17.108 53.508 39.843 61.887 52.405 2.367 3.549 8.245 3.385 10.046-.482z"/><path fill="#F8F8F8" d="M266.653 97.927c-29.821-63.85-74.025-81.392-133.922-76.853L26.321 235.055s29.28-13.539 79.8 11.37 60.304 58.929 60.304 58.929z"/><path fill="#fff" d="M421.549 165.405c-29.237-47.103-67.272-78.748-154.544-68.106L166.284 305.357s30.798-13.101 84.092 13.194c53.295 26.295 64.26 60.904 64.26 60.904z"/><path fill="#F8F8F8" d="M303.124 407.312s2.807-7.367 11.227-27.715-89.461-97.881-148.05-74.376c-1.379.553 0 33.68 0 33.68s27.014-12.279 75.078 9.472c48.063 21.752 61.745 58.939 61.745 58.939"/><path fill="#E2E2E2" d="M166.301 338.901s.35-6.644.35-33.658-85.953-91.982-140.331-70.166c-1.38.554 0 29.799 0 29.799s27.014-8.398 75.077 13.353c48.064 21.752 64.904 60.672 64.904 60.672"/></svg>