<svg xmlns="http://www.w3.org/2000/svg" width="947" height="371" fill="none"><g filter="url(#a)"><path fill="#F3F4F5" d="m74.007 298.737 159.39 17.444 5.25-48.599-38.734-65.912-149.401-18.045c24.058 43.028 29.513 68.221 23.495 115.112"/><path fill="#0DAEF1" d="M704.909 50.058 863.918 66.14 199.913 201.67 60.319 181.624zM82.058 303.782l136.743 16.365a8.04 8.04 0 0 0 6.662-2.319c4.767-4.804 1.828-12.99-4.906-13.664L83.523 290.451a6.7 6.7 0 0 0-2.009.102c-7.458 1.523-7.014 12.324.544 13.229"/><path fill="#0DAEF1" d="m61.554 190.945 150.091 11.758a9.1 9.1 0 0 0 8.62-4.571c3.413-5.994-.824-13.458-7.72-13.601l-150.518-3.133a4.8 4.8 0 0 0-1.081.101c-5.409 1.134-4.902 9.015.608 9.446"/><path fill="url(#b)" d="M863.679 65.763 198.857 201.458c24.705 45.829 29.644 71.931 24.174 118.434l655.846-133.863c5.78-1.18 10.966-4.484 13.011-10.017 3.523-9.53 7.114-27.485.406-54.406-10.574-42.432-28.615-55.843-28.615-55.843"/><path stroke="#EBEBEA" stroke-width="1.982" d="m70.317 204.476 129.449 9.981M73.883 221.95l129.45 9.981M77.45 239.423l129.449 9.982m-125.883 7.492 129.45 9.982m-125.883 7.492 129.45 9.982"/><path fill="#225C90" d="m441.506 228.743-.842-4.127 3.686-.752.842 4.127zm-5.77-28.271-.846-4.145 3.686-.752.846 4.145zm7.19 24.877q-2.646.54-4.921.012t-3.972-2q-1.683-1.494-2.578-3.809l3.532-1.328q.99 2.15 2.992 3.137 1.998.97 4.414.477 2.398-.489 3.664-1.942 1.282-1.455.919-3.237-.26-1.269-1.197-1.905-.92-.638-2.761-.833l-6.335-.617q-5.625-.56-6.587-5.269-.453-2.222.27-4.079.741-1.86 2.497-3.155 1.757-1.296 4.349-1.825 2.494-.472 4.597.018a8.5 8.5 0 0 1 3.728 1.884q1.626 1.396 2.595 3.622l-3.62 1.437a5.64 5.64 0 0 0-1.53-2.186 5.44 5.44 0 0 0-2.307-1.219q-1.3-.34-2.785-.056-1.401.249-2.414.952-1 .681-1.48 1.661a3.08 3.08 0 0 0-.25 2.017q.238 1.164 1.303 1.792 1.065.627 3.124.813l4.95.404q3.405.297 5.161 1.611 1.756 1.313 2.299 3.976.475 2.328-.332 4.312-.793 1.962-2.673 3.375-1.883 1.395-4.652 1.96m17.325-4.088-4.356-21.34-4.185 3.886-.839-4.109 4.196-3.833 3.757-.767 5.183 25.397zm18.692-3.264q-2.487.508-4.61-.088-2.11-.616-3.567-2.174-1.44-1.562-1.919-3.907-.446-2.187.206-4.213.653-2.025 2.468-3.48l.189 1.285q-1.828-.674-3.016-1.994-1.173-1.34-1.555-3.209-.443-2.17.238-3.962.682-1.793 2.269-3.017 1.605-1.227 3.898-1.695 2.292-.468 4.232.036t3.27 1.886q1.329 1.383 1.772 3.551.381 1.87-.142 3.538-.522 1.668-2.025 3.041l-.304-1.224q2.211.577 3.627 2.199 1.41 1.604 1.857 3.791.479 2.346-.251 4.35t-2.447 3.402q-1.72 1.38-4.19 1.884m-.716-3.509q2.045-.419 3.089-1.788 1.04-1.388.6-3.54-.44-2.151-1.939-3.021-1.486-.89-3.55-.47-2.064.422-3.099 1.827-1.022 1.385-.583 3.536t1.939 3.021q1.497.852 3.543.435m-2.52-12.346q1.746-.357 2.645-1.44.914-1.106.55-2.886-.363-1.782-1.637-2.44-1.259-.68-3.005-.324t-2.656 1.479q-.913 1.105-.55 2.887.364 1.78 1.637 2.439 1.27.642 3.016.285m16.199 12.658-5.166-25.4 3.739-.763 3.168 15.52 5.606-10.697 4.691-.958-5.957 11.137 10.656 7.745-5.009 1.022-9.843-7.543 1.872 9.17zm21.404-27.461-.73-3.58 3.686-.753.73 3.581zm4.525 22.169-3.887-19.047 3.686-.753 3.887 19.047zm22.351-4.562-1.912-9.365a14 14 0 0 0-.658-2.236 7 7 0 0 0-1.152-2.042 4.2 4.2 0 0 0-1.795-1.324q-1.06-.427-2.577-.117a5.3 5.3 0 0 0-1.801.717 4 4 0 0 0-1.34 1.357q-.505.856-.652 2.117-.13 1.257.217 2.95l-2.469-.396q-.53-2.592.037-4.766.563-2.19 2.153-3.672t4.165-2.008q1.975-.404 3.445-.042t2.511 1.233a7.7 7.7 0 0 1 1.745 1.977q.69 1.127 1.086 2.259t.576 2.013l2.16 10.582zm-13.386 2.732-3.888-19.047 3.298-.673 1.123 5.502.441-.09 2.765 13.545zm28.78-5.874-5.184-25.397 10.265-2.095q.37-.075.924-.152a7.4 7.4 0 0 1 1.062-.106q2.185-.097 3.823.726a6.96 6.96 0 0 1 2.706 2.369q1.051 1.55 1.469 3.595.42 2.063.061 3.9a6.95 6.95 0 0 1-1.562 3.24q-1.184 1.4-3.232 2.166-.48.172-1.036.322-.54.147-.893.219l-6.578 1.342 1.861 9.118zm1.112-13.363 6.437-1.313q.354-.072.769-.194.433-.125.804-.293 1.074-.495 1.618-1.34a4.36 4.36 0 0 0 .65-1.86 6.03 6.03 0 0 0-.76-3.721 4.2 4.2 0 0 0-1.322-1.439q-.836-.582-2.018-.617a4.7 4.7 0 0 0-.858.028 10 10 0 0 0-.783.124l-6.438 1.313zm21.002 8.849-3.887-19.047 3.28-.67.943 4.621-.581-.506q.166-.988.575-1.863a5.3 5.3 0 0 1 1.046-1.536q.615-.677 1.44-1.139a7.2 7.2 0 0 1 1.762-.727 7.2 7.2 0 0 1 1.817-.279l.705 3.457q-.985-.057-2.11.284a4.64 4.64 0 0 0-1.933 1.147 4.8 4.8 0 0 0-1.141 1.703 6.1 6.1 0 0 0-.363 2.003 9.8 9.8 0 0 0 .207 2.181l1.962 9.612zm9.469-25.025-.731-3.58 3.686-.753.731 3.581zm4.525 22.169-3.888-19.047 3.686-.753 3.888 19.048zm7.218-1.473-.119-.582 7.716-17.374-9.824 2.005-.673-3.298 15.679-3.2.122.599-7.701 17.353 10.264-2.095.673 3.298zm27.68-5.099q-2.839.579-5.243-.216-2.39-.816-4.042-2.794-1.639-1.998-2.24-4.944-.637-3.121.059-5.652.714-2.534 2.557-4.214t4.629-2.25q2.91-.593 5.233.347 2.32.923 3.833 3.204 1.53 2.278 2.017 5.743l-3.686.752-.274-1.34q-.711-3.309-2.27-4.644-1.541-1.338-4.046-.828-2.769.565-3.805 2.596-1.038 2.031-.364 5.328.64 3.14 2.387 4.584 1.742 1.426 4.37.89 1.728-.353 2.822-1.385 1.108-1.053 1.515-2.66l3.849.408q-.59 2.784-2.559 4.656-1.973 1.854-4.742 2.419m-8.629-7.626-.587-2.875 13.598-2.775.587 2.874zm28.508 3.55q-3.474.71-5.974-.379t-3.563-3.773l3.656-1.353q.654 1.41 2.101 2.015 1.46.584 3.365.195 1.729-.353 2.554-1.257.844-.906.592-2.141-.147-.723-.59-1.092-.429-.39-1.605-.573t-3.539-.325q-2.58-.134-4.175-.562-1.58-.45-2.395-1.293-.801-.866-1.085-2.259-.353-1.728.301-3.203.655-1.474 2.169-2.518 1.532-1.048 3.771-1.505 2.187-.446 4.038-.108 1.851.339 3.168 1.393 1.314 1.036 1.871 2.686l-3.633 1.458q-.476-1.336-1.731-1.906-1.255-.572-3.016-.285-1.69.272-2.6 1.119-.915.83-.692 1.923.13.635.608.996.495.359 1.725.53 1.229.173 3.584.279 2.524.128 4.09.598 1.562.453 2.374 1.371.827.897 1.125 2.361.576 2.822-1.16 4.848-1.717 2.022-5.334 2.76"/></g><defs><linearGradient id="b" x1="865.679" x2="210.683" y1="127.119" y2="260.808" gradientUnits="userSpaceOnUse"><stop stop-color="#A5D8ED"/><stop offset="1" stop-color="#B6FFF6"/></linearGradient><filter id="a" width="945.554" height="370.147" x=".512" y=".058" color-interpolation-filters="sRGB" filterUnits="userSpaceOnUse"><feFlood flood-opacity="0" result="BackgroundImageFix"/><feColorMatrix in="SourceAlpha" result="hardAlpha" values="0 0 0 0 0 0 0 0 0 0 0 0 0 0 0 0 0 0 127 0"/><feOffset/><feGaussianBlur stdDeviation="25"/><feComposite in2="hardAlpha" operator="out"/><feColorMatrix values="0 0 0 0 0.713726 0 0 0 0 1 0 0 0 0 0.964706 0 0 0 0.55 0"/><feBlend in2="BackgroundImageFix" result="effect1_dropShadow_516_566"/><feBlend in="SourceGraphic" in2="effect1_dropShadow_516_566" result="shape"/></filter></defs></svg>