<svg xmlns="http://www.w3.org/2000/svg" width="851" height="389" fill="none"><g filter="url(#a)"><path fill="#FFCDF7" d="M75.122 101.752c4.038-5.511 10.945-7.359 17.681-6.213l683.113 116.193c8.677 1.476 15.961 7.562 18.361 16.03 11.309 39.907 6.618 65.544-17.229 100.724-5.053 7.454-14.118 10.991-22.995 9.481L69.776 221.576c-5.822-.991-11.114-4.124-13.39-9.574-4.106-9.835-8.777-28.875-2.507-58.107 5.857-27.307 14.944-43.547 21.243-52.143"/><path fill="#225C90" d="M162.194 50.008 82.148 94.21l708.018 120.43-67.029-69.22zm121.248 158.11a8.7 8.7 0 0 1-3.538-1.423 8.9 8.9 0 0 1-2.512-2.728 8.8 8.8 0 0 1-1.16-3.594l3.73-.351q.108 1.186.694 2.145a5.4 5.4 0 0 0 1.519 1.591 5.1 5.1 0 0 0 1.983.794q1.401.238 2.652-.243a5 5 0 0 0 2.118-1.502 4.9 4.9 0 0 0 1.1-2.388q.239-1.401-.261-2.655a5 5 0 0 0-1.523-2.103 4.9 4.9 0 0 0-2.387-1.1q-1.561-.266-2.75.171-1.188.438-1.93 1.151l-3.036-1.685 3.065-13.3 13.788 2.345-.594 3.496-11.889-2.022 1.746-1.146-2.332 9.956-.568-1.064a6.8 6.8 0 0 1 2.676-1.133 7.9 7.9 0 0 1 2.877-.059q2.377.405 4.054 1.822a8.1 8.1 0 0 1 2.453 3.503q.762 2.064.355 4.46-.404 2.378-1.961 4.122a9.25 9.25 0 0 1-3.772 2.535 8.85 8.85 0 0 1-4.597.405m22.022 3.746q-2.609-.444-4.421-1.921a8.55 8.55 0 0 1-2.621-3.696q-.795-2.198-.351-4.806l1.497-8.802q.444-2.609 1.92-4.421a8.43 8.43 0 0 1 3.693-2.603q2.202-.813 4.81-.369 2.609.444 4.418 1.938a8.3 8.3 0 0 1 2.606 3.675q.813 2.202.369 4.81l-1.497 8.802q-.444 2.609-1.938 4.418a8.43 8.43 0 0 1-3.678 2.624q-2.199.795-4.807.351m.603-3.549q1.42.242 2.688-.237a5.3 5.3 0 0 0 2.177-1.528q.891-1.054 1.136-2.491l1.582-9.299q.242-1.42-.255-2.69a5.14 5.14 0 0 0-1.549-2.163q-1.036-.888-2.456-1.13a5.06 5.06 0 0 0-2.708.252 5.2 5.2 0 0 0-2.159 1.531q-.889 1.036-1.13 2.456l-1.582 9.298q-.244 1.437.249 2.726.495 1.272 1.531 2.16a5.2 5.2 0 0 0 2.476 1.115m22.167 7.422q-2.608-.444-4.42-1.92a8.57 8.57 0 0 1-2.622-3.696q-.793-2.199-.351-4.807l1.497-8.802q.444-2.608 1.921-4.42a8.4 8.4 0 0 1 3.693-2.604q2.201-.813 4.81-.369t4.417 1.938a8.3 8.3 0 0 1 2.607 3.676q.811 2.201.369 4.81l-1.498 8.801q-.442 2.609-1.938 4.418a8.4 8.4 0 0 1-3.678 2.624q-2.198.795-4.807.351m.604-3.549q1.419.242 2.688-.237a5.3 5.3 0 0 0 2.177-1.528q.891-1.054 1.136-2.491l1.581-9.299q.241-1.42-.254-2.69a5.14 5.14 0 0 0-1.55-2.163q-1.036-.888-2.455-1.129a5.06 5.06 0 0 0-2.708.251 5.2 5.2 0 0 0-2.16 1.532q-.888 1.035-1.13 2.455l-1.581 9.298q-.244 1.438.248 2.727a5.4 5.4 0 0 0 1.532 2.159 5.17 5.17 0 0 0 2.476 1.115m20.366 1.693 1.117-6.566-6.566-1.116.507-2.982 6.566 1.117 1.111-6.53 2.981.507-1.111 6.53 6.548 1.114-.507 2.981-6.548-1.114-1.117 6.566zm20.433 8.351 4.346-25.553 10.328 1.756q.372.063.917.193.546.111 1.028.284 2.072.7 3.302 2.059a6.95 6.95 0 0 1 1.667 3.187q.42 1.824.07 3.882-.352 2.077-1.353 3.659a6.95 6.95 0 0 1-2.627 2.457q-1.61.876-3.796.851-.508-.013-1.083-.075a15 15 0 0 1-.911-.118l-6.619-1.126-1.56 9.174zm5.867-12.057 6.477 1.101q.355.061.786.098.45.04.856.017 1.181-.072 1.993-.665.816-.61 1.278-1.499a6.05 6.05 0 0 0 .637-3.744 4.2 4.2 0 0 0-.713-1.819q-.568-.846-1.659-1.305a4.6 4.6 0 0 0-.81-.284 9 9 0 0 0-.775-.168l-6.477-1.102zm21.116 17.194q-2.13-.362-3.434-1.387-1.301-1.044-1.826-2.466a5.9 5.9 0 0 1-.239-2.998q.247-1.455.949-2.468a5 5 0 0 1 1.843-1.604q1.145-.608 2.699-.837a28 28 0 0 1 3.004-.164 97 97 0 0 1 3.48.044q1.835.056 3.633.106l-1.475.516q.419-2.247-.391-3.499-.789-1.266-3.184-1.673a5.6 5.6 0 0 0-2.889.239q-1.378.477-2.149 2.008l-3.279-1.654q1.128-2.346 3.364-3.463 2.253-1.113 5.571-.549 2.573.438 4.321 1.648 1.768 1.195 2.333 3.245.301 1.019.229 2.084t-.276 2.272l-2.008 11.8-3.283-.558.746-4.383.542.676q-1.562 1.999-3.593 2.767-2.009.754-4.688.298m1.173-2.923q1.58.269 2.808-.088 1.233-.374 2.073-1.127.84-.752 1.212-1.656.447-.8.664-1.859.234-1.055.343-1.694l1.131.649q-1.802-.033-3.276-.064a80 80 0 0 0-2.681-.018 16 16 0 0 0-2.14.129 7 7 0 0 0-1.475.406q-.648.273-1.094.745-.427.475-.558 1.238-.126.746.138 1.448.267.684.966 1.187.7.502 1.889.704m13.711 4.907 3.26-19.165 3.301.562-.791 4.649-.359-.682a7 7 0 0 1 1.21-1.529 5.3 5.3 0 0 1 1.53-1.054 5.7 5.7 0 0 1 1.754-.542 7.2 7.2 0 0 1 1.906-.041 7.2 7.2 0 0 1 1.794.397l-.591 3.478q-.898-.408-2.07-.498a4.65 4.65 0 0 0-2.218.371 4.8 4.8 0 0 0-1.678 1.175 6.1 6.1 0 0 0-1.063 1.737 9.8 9.8 0 0 0-.596 2.108l-1.645 9.671zm24.691 4.2a16.2 16.2 0 0 1-3.6-.302q-1.73-.35-2.991-1.203a4.3 4.3 0 0 1-1.726-2.302q-.418-1.295-.264-2.528.176-1.248.442-2.81l2.882-16.946 3.727.634-2.853 16.769a99 99 0 0 0-.323 2.008q-.11.858.128 1.501.451 1.208 1.809 1.604 1.377.38 3.304.434zm-10.343-18.411.507-2.982 13.096 2.228-.507 2.981zm18.533-3.147.613-3.602 3.709.63-.613 3.603zm-3.794 22.305 3.26-19.164 3.709.63-3.26 19.165zm17.145 3.464q-2.946-.5-4.781-2.164t-2.545-4.139q-.693-2.474-.216-5.387.522-2.96 2.026-5.041 1.508-2.1 3.804-3.042t5.206-.447q3.141.535 5.094 2.473 1.97 1.942 2.218 4.778l-3.872.437q-.276-1.709-1.384-2.81-1.089-1.116-2.703-1.391-1.829-.311-3.147.359-1.316.652-2.138 2.047-.821 1.394-1.165 3.307-.486 2.967.534 5.021 1.038 2.057 3.664 2.504 1.792.305 3.031-.325 1.26-.643 2.108-2.088l3.611 1.527q-1.417 2.644-3.839 3.784-2.418 1.124-5.506.597m15.693-20.829.613-3.602 3.708.631-.612 3.602zm-3.794 22.306 3.26-19.165 3.708.631-3.259 19.164zm17.944 3.599q-2.751-.467-4.388-2.115-1.633-1.666-2.203-4.118-.568-2.452-.079-5.327t1.818-5.004q1.349-2.126 3.417-3.125 2.09-1.014 4.804-.552 2.698.459 4.423 2.122 1.747 1.647 2.422 4.118.678 2.453.186 5.345-.489 2.874-1.946 5-1.436 2.112-3.614 3.11-2.161 1.002-4.84.546m-10.373 6.452 4.708-27.682 3.301.561-2.345 13.788.426.073-2.364 13.894zm10.428-9.893q1.775.302 3.082-.407 1.326-.705 2.153-2.135.848-1.444 1.171-3.343.32-1.881-.006-3.507-.308-1.623-1.343-2.73t-2.881-1.421q-1.739-.296-3.019.363-1.263.662-2.073 2.094-.792 1.435-1.13 3.423t-.065 3.604 1.278 2.682q1.006 1.067 2.833 1.377m17.952 6.504q-2.129-.362-3.434-1.387-1.3-1.043-1.826-2.465a5.9 5.9 0 0 1-.239-2.999q.248-1.455.949-2.467a5 5 0 0 1 1.843-1.604q1.145-.609 2.699-.837a28 28 0 0 1 3.004-.165q1.663-.009 3.48.044 1.834.056 3.634.107l-1.476.516q.419-2.248-.391-3.499-.788-1.266-3.184-1.674a5.6 5.6 0 0 0-2.889.239q-1.378.478-2.149 2.008l-3.279-1.653q1.13-2.346 3.364-3.463 2.253-1.114 5.571-.55 2.573.438 4.321 1.648 1.769 1.196 2.333 3.245.301 1.02.23 2.084-.072 1.065-.277 2.272l-2.007 11.801-3.283-.559.745-4.383.542.677q-1.563 1.998-3.592 2.766-2.01.754-4.689.298m1.173-2.922q1.58.268 2.809-.089 1.232-.374 2.072-1.126t1.213-1.656a6.5 6.5 0 0 0 .663-1.859q.234-1.056.343-1.695l1.131.649a1096 1096 0 0 1-3.276-.064 83 83 0 0 0-2.681-.018 16 16 0 0 0-2.14.129 7 7 0 0 0-1.475.407q-.648.273-1.094.745-.428.474-.557 1.238-.127.745.137 1.447.267.684.966 1.187.7.502 1.889.705m27.162 7.194 1.603-9.422q.19-1.119.194-2.323a7 7 0 0 0-.335-2.321 4.2 4.2 0 0 0-1.196-1.883q-.834-.78-2.36-1.041a5.4 5.4 0 0 0-1.939.018 3.96 3.96 0 0 0-1.739.781q-.781.616-1.373 1.738-.576 1.127-.865 2.829l-2.159-1.261q.444-2.609 1.758-4.43 1.317-1.84 3.335-2.647t4.608-.366q1.987.338 3.228 1.206 1.239.869 1.896 2.057.677 1.175.912 2.474t.196 2.498-.191 2.086l-1.811 10.647zm-13.468-2.291 3.259-19.164 3.319.564-.942 5.537.444.075-2.318 13.628zm32.819 5.583a16.2 16.2 0 0 1-3.601-.302q-1.73-.35-2.99-1.203a4.3 4.3 0 0 1-1.727-2.302q-.418-1.295-.264-2.528.177-1.248.442-2.81l2.882-16.946 3.727.634-2.852 16.769a100 100 0 0 0-.324 2.008q-.11.858.128 1.501.452 1.208 1.809 1.604 1.378.38 3.304.434zm-10.343-18.411.507-2.982 13.096 2.228-.508 2.981zm21.625 20.859q-3.496-.594-5.434-2.513-1.937-1.917-1.958-4.806l3.897.06a3.9 3.9 0 0 0 1.231 2.638q1.151 1.073 3.067 1.398 1.74.296 2.836-.248 1.114-.54 1.326-1.783.123-.727-.156-1.231-.258-.519-1.289-1.114t-3.182-1.582q-2.358-1.059-3.689-2.034-1.311-.989-1.766-2.071-.435-1.097-.196-2.498.296-1.74 1.439-2.878t2.932-1.564q1.806-.423 4.06-.04 2.2.375 3.804 1.359 1.603.985 2.451 2.444.85 1.44.774 3.181l-3.916.046q.04-1.417-.924-2.403t-2.709-1.356q-1.674-.357-2.829.103-1.153.444-1.34 1.543-.109.639.206 1.149.333.513 1.417 1.118 1.084.604 3.241 1.555 2.308 1.032 3.598 2.036 1.293.987 1.718 2.137.445 1.134.195 2.607-.483 2.84-2.834 4.101-2.332 1.265-5.97.646"/></g><defs><filter id="a" width="849.316" height="388.302" x=".823" y=".008" color-interpolation-filters="sRGB" filterUnits="userSpaceOnUse"><feFlood flood-opacity="0" result="BackgroundImageFix"/><feColorMatrix in="SourceAlpha" result="hardAlpha" values="0 0 0 0 0 0 0 0 0 0 0 0 0 0 0 0 0 0 127 0"/><feOffset/><feGaussianBlur stdDeviation="25"/><feComposite in2="hardAlpha" operator="out"/><feColorMatrix values="0 0 0 0 0.713726 0 0 0 0 1 0 0 0 0 0.964706 0 0 0 0.5 0"/><feBlend in2="BackgroundImageFix" result="effect1_dropShadow_516_561"/><feBlend in="SourceGraphic" in2="effect1_dropShadow_516_561" result="shape"/></filter></defs></svg>