<svg xmlns="http://www.w3.org/2000/svg" width="851" height="449" fill="none"><g filter="url(#a)"><path fill="#EC6D7F" d="M160.729 51.814 87.342 110.93l704.091 137.162-53.229-84.123a8 8 0 0 0-5.23-3.574L167.277 50.192a8 8 0 0 0-6.548 1.622"/><path fill="url(#b)" d="M81.58 112.657c4.228-6.619 12.12-9.08 19.829-7.579l676.777 131.841c9.466 1.844 16.997 9.183 18.608 18.692 8.833 52.115 2.008 85.269-25.843 131.956-5.031 8.433-14.918 12.598-24.557 10.721L68.384 266.207c-6.815-1.328-12.695-5.599-14.51-12.301-3.374-12.459-6.585-36.596 1.987-73.92 8.12-35.353 18.7-56.337 25.72-67.329"/><path fill="#EC6D7F" d="m318.809 248.789.658-3.282 13.012-7.772q1.574-.921 2.26-1.907.705-.98.915-2.059.265-1.36-.126-2.555a4.6 4.6 0 0 0-1.323-2.055q-.936-.843-2.314-1.111-1.414-.275-2.658.179-1.223.441-2.054 1.416a4.7 4.7 0 0 0-1.062 2.25l-3.781-.737q.482-2.473 1.956-4.111a8 8 0 0 1 3.66-2.313q2.168-.678 4.694-.186 2.403.468 4.098 1.935a8.05 8.05 0 0 1 2.425 3.553q.745 2.108.273 4.528-.34 1.75-1.037 2.879a7.5 7.5 0 0 1-1.819 1.993q-1.122.864-2.737 1.814l-10.038 5.967-.2-1.139 13.092 2.55-.685 3.516zm28.883 6.196a8.7 8.7 0 0 1-3.502-1.508 8.9 8.9 0 0 1-2.446-2.787 8.8 8.8 0 0 1-1.074-3.62l3.737-.262q.08 1.189.643 2.16a5.4 5.4 0 0 0 1.48 1.627 5.1 5.1 0 0 0 1.964.841q1.395.273 2.657-.179a5 5 0 0 0 2.153-1.451 4.9 4.9 0 0 0 1.157-2.36q.272-1.397-.197-2.661a5 5 0 0 0-1.472-2.139 4.9 4.9 0 0 0-2.361-1.157q-1.555-.303-2.752.106-1.199.408-1.958 1.104l-2.995-1.757 3.383-13.223 13.728 2.674-.678 3.481-11.838-2.306 1.774-1.104-2.57 9.898-.542-1.078a6.85 6.85 0 0 1 2.702-1.069q1.5-.258 2.877.01 2.368.462 4.01 1.918a8.14 8.14 0 0 1 2.369 3.561q.713 2.083.248 4.468-.462 2.367-2.059 4.073a9.26 9.26 0 0 1-3.832 2.445 8.87 8.87 0 0 1-4.606.295m20.263-1.5 1.274-6.537-6.537-1.273.578-2.968 6.537 1.273 1.267-6.502 2.968.579-1.267 6.501 6.52 1.27-.579 2.969-6.519-1.27-1.273 6.537zm29.347 11.164q-2.739-.534-4.765-1.9-2.004-1.381-3.095-3.409-1.069-2.041-1.022-4.545l3.965.167q.13 2.446 1.73 4.115 1.603 1.65 4.077 2.133 1.537.299 2.92.073 1.386-.243 2.339-.993.973-.764 1.222-2.036a2.9 2.9 0 0 0-.01-1.267 2.7 2.7 0 0 0-.475-1.046 3.6 3.6 0 0 0-.873-.885 7.6 7.6 0 0 0-1.19-.764l-6.144-3.196q-.899-.468-1.802-1.103a7.8 7.8 0 0 1-1.59-1.538 5.9 5.9 0 0 1-.97-2.078q-.299-1.195.004-2.75.458-2.35 1.976-3.741 1.539-1.405 3.768-1.833 2.232-.445 4.794.053 2.572.538 4.432 1.817 1.877 1.283 2.897 3.205 1.04 1.908 1.095 4.358l-4.089-.1q.014-1.482-.652-2.676a5.8 5.8 0 0 0-1.81-2.003 6.9 6.9 0 0 0-2.608-1.113q-1.406-.31-2.679-.082-1.256.232-2.124.925a2.96 2.96 0 0 0-1.061 1.774q-.207 1.06.284 1.834t1.317 1.339q.846.55 1.699.973l4.442 2.24q.834.42 1.865 1.06a9.2 9.2 0 0 1 1.95 1.572q.916.95 1.363 2.32.452 1.353.09 3.208-.375 1.926-1.438 3.241a7.3 7.3 0 0 1-2.613 2.022q-1.532.71-3.395.86a14 14 0 0 1-3.824-.231m21.68 4.223q-2.933-.571-4.727-2.278-1.795-1.706-2.446-4.199-.634-2.489-.087-5.39.592-2.947 2.146-4.992 1.557-2.062 3.875-2.949t5.216-.323q3.127.609 5.033 2.595 1.923 1.988 2.103 4.829l-3.881.344q-.234-1.714-1.317-2.842-1.06-1.143-2.669-1.455-1.82-.355-3.155.284-1.331.621-2.185 1.994-.855 1.374-1.244 3.279-.558 2.954.413 5.032.989 2.081 3.603 2.591 1.785.348 3.039-.252 1.274-.614 2.157-2.037l3.573 1.613q-1.48 2.609-3.928 3.691-2.445 1.065-5.519.465m25.417 4.402 1.827-9.382q.217-1.113.25-2.317a7 7 0 0 0-.28-2.329 4.2 4.2 0 0 0-1.15-1.911q-.816-.8-2.335-1.097a5.3 5.3 0 0 0-1.938-.029 4 4 0 0 0-1.758.74q-.795.597-1.414 1.705-.602 1.112-.932 2.807l-2.128-1.313q.506-2.596 1.863-4.386 1.36-1.807 3.397-2.566t4.616-.256q1.979.386 3.198 1.283t1.846 2.102q.648 1.19.853 2.495t.136 2.502a16 16 0 0 1-.241 2.08l-2.065 10.601zm-13.41-2.613 4.956-25.442 3.304.644-2.674 13.728.441.086-2.282 11.714zm29.94 6.383q-2.862-.558-4.713-2.257t-2.559-4.185q-.687-2.499-.109-5.467.582-2.986 2.189-5.02 1.61-2.052 3.956-2.897 2.35-.863 5.16-.315 2.862.557 4.713 2.256 1.852 1.7 2.559 4.185t.133 5.436q-.581 2.986-2.191 5.038-1.59 2.037-3.943 2.918-2.35.862-5.195.308m.678-3.481q2.74.534 4.439-1.042 1.722-1.59 2.29-4.505.582-2.987-.449-5.039-1.008-2.067-3.712-2.594-1.856-.362-3.222.253-1.363.596-2.235 1.967-.869 1.353-1.248 3.296-.584 3.004.442 5.074 1.028 2.07 3.695 2.59m20.855 7.676q-2.862-.558-4.713-2.257-1.852-1.7-2.56-4.185-.686-2.5-.108-5.467.582-2.986 2.188-5.021 1.611-2.052 3.957-2.896 2.35-.863 5.16-.316 2.862.558 4.713 2.257t2.559 4.185.133 5.435q-.581 2.986-2.192 5.038-1.589 2.038-3.942 2.918-2.35.863-5.195.309m.678-3.481q2.739.533 4.439-1.042 1.722-1.59 2.29-4.506.582-2.986-.449-5.038-1.01-2.068-3.712-2.594-1.856-.361-3.222.252-1.363.597-2.235 1.967-.87 1.353-1.248 3.297-.585 3.003.442 5.074t3.695 2.59m13.025 5.6 5.06-25.972 3.692.72-5.059 25.971zm16.195 3.687q-3.48-.678-5.372-2.642t-1.842-4.852l3.895.153a3.9 3.9 0 0 0 1.167 2.667q1.125 1.1 3.033 1.471 1.731.337 2.841-.18 1.126-.514 1.368-1.751.141-.724-.126-1.235-.247-.525-1.263-1.144-1.016-.62-3.143-1.658-2.332-1.115-3.64-2.121-1.286-1.02-1.715-2.113-.408-1.107-.136-2.502.337-1.731 1.507-2.842t2.969-1.494q1.816-.38 4.059.057 2.192.427 3.771 1.45 1.58 1.023 2.392 2.501.815 1.46.697 3.199l-3.915-.048q.073-1.416-.867-2.424-.94-1.01-2.675-1.42-1.665-.398-2.831.035-1.163.416-1.377 1.511-.124.636.179 1.153.32.522 1.39 1.151 1.068.63 3.203 1.633 2.282 1.086 3.547 2.121 1.27 1.018 1.667 2.177.418 1.145.133 2.612-.55 2.826-2.931 4.032-2.363 1.208-5.985.503"/></g><defs><linearGradient id="b" x1="52.172" x2="90.196" y1="200.5" y2="22.895" gradientUnits="userSpaceOnUse"><stop stop-color="#FFCDF7"/><stop offset="1" stop-color="#FAC4CB"/></linearGradient><filter id="a" width="850.043" height="448.688" x=".376" y=".044" color-interpolation-filters="sRGB" filterUnits="userSpaceOnUse"><feFlood flood-opacity="0" result="BackgroundImageFix"/><feColorMatrix in="SourceAlpha" result="hardAlpha" values="0 0 0 0 0 0 0 0 0 0 0 0 0 0 0 0 0 0 127 0"/><feOffset/><feGaussianBlur stdDeviation="25"/><feComposite in2="hardAlpha" operator="out"/><feColorMatrix values="0 0 0 0 0.713726 0 0 0 0 1 0 0 0 0 0.964706 0 0 0 0.5 0"/><feBlend in2="BackgroundImageFix" result="effect1_dropShadow_516_548"/><feBlend in="SourceGraphic" in2="effect1_dropShadow_516_548" result="shape"/></filter></defs></svg>