<svg xmlns="http://www.w3.org/2000/svg" width="1536" height="1065" fill="none"><g filter="url(#a)"><path fill="#EC6D7F" d="m845.729 667.814-73.387 59.115 704.088 137.162-53.23-84.123a7.96 7.96 0 0 0-5.23-3.574L852.277 666.192a8 8 0 0 0-6.548 1.622"/><path fill="url(#b)" d="M766.58 728.657c4.227-6.619 12.12-9.08 19.828-7.579l676.782 131.841c9.46 1.844 16.99 9.183 18.6 18.692 8.84 52.115 2.01 85.269-25.84 131.959-5.03 8.43-14.92 12.6-24.56 10.72L753.384 882.207c-6.815-1.328-12.696-5.599-14.511-12.301-3.374-12.459-6.584-36.596 1.988-73.92 8.119-35.353 18.699-56.337 25.719-67.329"/><path fill="#EC6D7F" d="m1003.81 864.789.66-3.282 13.01-7.772c1.05-.614 1.8-1.25 2.26-1.907.47-.654.77-1.34.91-2.059q.27-1.36-.12-2.555a4.64 4.64 0 0 0-1.32-2.055c-.63-.562-1.4-.932-2.32-1.111-.94-.183-1.83-.124-2.66.179-.81.294-1.5.766-2.05 1.416-.56.65-.91 1.4-1.06 2.25l-3.78-.737q.48-2.473 1.95-4.111a8 8 0 0 1 3.66-2.313c1.45-.452 3.01-.514 4.7-.186 1.6.312 2.96.957 4.09 1.935a8.04 8.04 0 0 1 2.43 3.553q.75 2.108.27 4.528c-.22 1.166-.57 2.126-1.04 2.879a7.5 7.5 0 0 1-1.81 1.993c-.75.576-1.66 1.18-2.74 1.814l-10.04 5.967-.2-1.139 13.09 2.55-.68 3.516zm28.88 6.196a8.7 8.7 0 0 1-3.5-1.508 9 9 0 0 1-2.45-2.787 8.8 8.8 0 0 1-1.07-3.62l3.74-.262c.05.792.27 1.513.64 2.16.39.65.88 1.193 1.48 1.627.6.423 1.26.704 1.96.841.93.182 1.82.122 2.66-.179a5 5 0 0 0 2.15-1.451c.6-.667.98-1.453 1.16-2.36.18-.931.12-1.818-.2-2.661a5 5 0 0 0-1.47-2.139 4.84 4.84 0 0 0-2.36-1.157c-1.03-.202-1.95-.166-2.75.106s-1.45.64-1.96 1.104l-2.99-1.757 3.38-13.223 13.73 2.674-.68 3.481-11.84-2.306 1.78-1.104-2.57 9.898-.55-1.078a6.9 6.9 0 0 1 2.71-1.069 7.9 7.9 0 0 1 2.87.01c1.58.308 2.92.947 4.01 1.918a8.1 8.1 0 0 1 2.37 3.561c.48 1.389.56 2.878.25 4.468-.31 1.578-.99 2.936-2.06 4.073a9.25 9.25 0 0 1-3.83 2.445 8.9 8.9 0 0 1-4.61.295m20.27-1.5 1.27-6.537-6.54-1.273.58-2.968 6.54 1.273 1.26-6.502 2.97.579-1.26 6.501 6.51 1.27-.57 2.969-6.52-1.27-1.28 6.537zm29.34 11.164c-1.82-.356-3.41-.989-4.76-1.9-1.34-.921-2.37-2.057-3.1-3.409q-1.065-2.042-1.02-4.545l3.97.167c.08 1.631.66 3.002 1.72 4.115q1.605 1.65 4.08 2.133c1.03.199 2 .224 2.92.073q1.395-.243 2.34-.993c.65-.509 1.06-1.188 1.22-2.036.09-.459.09-.882-.01-1.267a2.7 2.7 0 0 0-.47-1.046 3.7 3.7 0 0 0-.87-.885 8 8 0 0 0-1.19-.764l-6.15-3.196q-.9-.468-1.8-1.103a7.8 7.8 0 0 1-1.59-1.538c-.45-.6-.77-1.293-.97-2.078q-.3-1.195 0-2.75.465-2.35 1.98-3.741c1.02-.937 2.28-1.548 3.77-1.833 1.49-.297 3.08-.279 4.79.053 1.72.359 3.19.964 4.43 1.817 1.25.855 2.22 1.924 2.9 3.205.69 1.272 1.06 2.725 1.09 4.358l-4.08-.1q.015-1.482-.66-2.676a5.7 5.7 0 0 0-1.81-2.003 6.85 6.85 0 0 0-2.6-1.113c-.94-.207-1.83-.234-2.68-.082q-1.26.232-2.13.925a3 3 0 0 0-1.06 1.774c-.14.707-.04 1.318.29 1.834.32.516.76.963 1.31 1.339.57.366 1.13.691 1.7.973l4.44 2.24c.56.28 1.18.633 1.87 1.06q1.05.627 1.95 1.572c.61.633 1.06 1.406 1.36 2.32q.45 1.353.09 3.208-.375 1.926-1.44 3.241a7.2 7.2 0 0 1-2.61 2.022q-1.53.71-3.39.86c-1.25.101-2.52.024-3.83-.231m21.68 4.223c-1.95-.381-3.53-1.14-4.73-2.278-1.19-1.137-2.01-2.537-2.44-4.199q-.63-2.489-.09-5.39c.4-1.965 1.11-3.629 2.15-4.992q1.56-2.062 3.87-2.949 2.325-.887 5.22-.323c2.08.406 3.76 1.271 5.03 2.595 1.28 1.325 1.99 2.935 2.11 4.829l-3.89.344c-.15-1.143-.59-2.09-1.31-2.842q-1.065-1.143-2.67-1.455c-1.22-.237-2.27-.142-3.16.284-.88.414-1.61 1.079-2.18 1.994-.57.916-.99 2.009-1.25 3.279q-.555 2.954.42 5.032.99 2.081 3.6 2.591c1.19.232 2.2.148 3.04-.252q1.275-.613 2.16-2.037l3.57 1.613q-1.485 2.609-3.93 3.691-2.445 1.065-5.52.465m25.42 4.402 1.83-9.382c.14-.742.22-1.515.25-2.317a7.2 7.2 0 0 0-.28-2.329 4.27 4.27 0 0 0-1.15-1.911q-.825-.8-2.34-1.097a5.4 5.4 0 0 0-1.94-.029 4 4 0 0 0-1.76.74c-.52.398-1 .966-1.41 1.705q-.6 1.112-.93 2.807l-2.13-1.313q.51-2.596 1.86-4.386c.91-1.205 2.04-2.06 3.4-2.566q2.04-.759 4.62-.256c1.32.257 2.38.685 3.19 1.283.82.598 1.43 1.299 1.85 2.102.43.793.72 1.625.85 2.495.14.87.19 1.704.14 2.502q-.075 1.197-.24 2.08l-2.07 10.601zm-13.41-2.613 4.96-25.442 3.3.644-2.68 13.728.45.086-2.29 11.714zm29.94 6.383q-2.865-.558-4.71-2.257c-1.24-1.133-2.09-2.528-2.56-4.185-.46-1.666-.5-3.488-.11-5.467q.585-2.986 2.19-5.02c1.07-1.368 2.39-2.334 3.95-2.897q2.355-.862 5.16-.315c1.91.371 3.48 1.124 4.72 2.256 1.23 1.133 2.08 2.528 2.56 4.185.47 1.657.51 3.469.13 5.436q-.585 2.986-2.19 5.038c-1.06 1.358-2.38 2.331-3.95 2.918q-2.34.862-5.19.308m.68-3.481q2.73.534 4.44-1.042c1.14-1.06 1.91-2.562 2.29-4.505q.57-2.987-.45-5.039c-.68-1.378-1.91-2.243-3.72-2.594-1.23-.241-2.31-.157-3.22.253-.91.397-1.65 1.053-2.23 1.967-.58.902-1 2-1.25 3.296-.39 2.002-.24 3.694.44 5.074.69 1.38 1.92 2.244 3.7 2.59m20.85 7.676q-2.865-.558-4.71-2.257c-1.24-1.133-2.09-2.528-2.56-4.185-.46-1.666-.49-3.489-.11-5.467q.585-2.986 2.19-5.021 1.605-2.052 3.96-2.896 2.34-.863 5.16-.316c1.9.372 3.48 1.124 4.71 2.257a8.9 8.9 0 0 1 2.56 4.185c.47 1.657.51 3.468.13 5.435q-.585 2.986-2.19 5.038c-1.06 1.359-2.37 2.331-3.94 2.918-1.57.575-3.3.678-5.2.309m.68-3.481q2.745.534 4.44-1.042c1.15-1.06 1.91-2.562 2.29-4.506q.585-2.986-.45-5.038c-.67-1.379-1.91-2.243-3.71-2.594-1.24-.241-2.31-.157-3.22.252-.91.398-1.66 1.054-2.24 1.967-.58.902-.99 2.001-1.25 3.297q-.585 3.003.45 5.074 1.02 2.07 3.69 2.59m13.03 5.6 5.05-25.972 3.7.72-5.06 25.971zm16.19 3.687q-3.48-.678-5.37-2.642c-1.26-1.309-1.88-2.927-1.84-4.852l3.89.153q.06 1.554 1.17 2.667 1.125 1.1 3.03 1.471c1.16.225 2.1.165 2.84-.18.75-.343 1.21-.926 1.37-1.751.09-.483.05-.894-.13-1.235q-.24-.525-1.26-1.144c-.68-.413-1.72-.966-3.14-1.658-1.56-.743-2.77-1.45-3.64-2.121-.86-.68-1.43-1.385-1.72-2.113-.27-.738-.31-1.572-.13-2.502q.33-1.731 1.5-2.842t2.97-1.494c1.21-.253 2.57-.234 4.06.057 1.46.285 2.72.768 3.77 1.45 1.06.682 1.85 1.515 2.39 2.501.55.974.78 2.04.7 3.199l-3.91-.048q.075-1.416-.87-2.424c-.63-.673-1.52-1.146-2.68-1.42-1.11-.265-2.05-.254-2.83.035-.77.277-1.23.781-1.37 1.511q-.135.636.18 1.153c.21.348.67.731 1.39 1.151.71.42 1.78.964 3.2 1.633 1.52.724 2.7 1.431 3.55 2.121.84.679 1.4 1.404 1.66 2.177.28.764.33 1.634.14 2.612q-.555 2.826-2.94 4.032c-1.57.805-3.57.973-5.98.503"/></g><g filter="url(#c)"><g filter="url(#d)"><path fill="#F3F4F5" d="m1434.31 749.74-255.94 22.316 3.4-56.933 35.54-58.769 240-15.114c-27.87 48.076-32.4 72.034-23 108.5"/><path fill="#B6FFF6" d="m893.313 370.947-271.086.001 606.583 286.906 226.5-28.498zm547.927 381.024-256.53 24.593a5.286 5.286 0 0 1-5.54-3.649c-1.03-3.219 1.19-6.564 4.56-6.867l256.67-23.111a4.5 4.5 0 0 1 1.78.195c4.71 1.497 3.98 8.367-.94 8.839"/><path fill="#B6FFF6" d="m1455.43 643.333-224.73 14.103a5.4 5.4 0 0 1-4.16-1.57c-3.26-3.258-1.2-8.837 3.39-9.2l224.48-17.738c.6-.048 1.21-.019 1.8.084 8.43 1.467 7.76 13.785-.78 14.321"/><path fill="url(#e)" d="M619.152 372.885c1.978-1.297 4.44-1.292 6.578-.281l603.58 285.25c-47.38 43.234-52.04 70.924-48.5 118.5L570.265 488.847c-1.862-.877-3.309-2.43-3.749-4.44-1.692-7.717-3.978-29.656 13.103-62.358 16.528-31.645 32.82-44.762 39.533-49.164"/></g><path fill="#225C90" d="m773.558 530.282 9.299-19.695-5.679.603 1.791-3.793 5.656-.554 3.467 1.637-11.067 23.439zm13.734 6.484 9.299-19.695-5.679.603 1.79-3.792 5.656-.554 3.467 1.637-11.066 23.438zm17.588 8.902q-2.393-1.13-3.74-3.04a8.55 8.55 0 0 1-1.529-4.265q-.174-2.331.956-4.724l3.812-8.073q1.13-2.393 3.04-3.74a8.4 8.4 0 0 1 4.257-1.513q2.34-.19 4.732.94t3.732 3.056a8.3 8.3 0 0 1 1.521 4.241q.19 2.339-.94 4.732l-3.812 8.073q-1.13 2.392-3.056 3.733a8.43 8.43 0 0 1-4.249 1.537q-2.331.173-4.724-.957m1.537-3.255q1.302.615 2.652.496a5.34 5.34 0 0 0 2.509-.886q1.141-.775 1.764-2.093l4.027-8.529q.615-1.302.48-2.66a5.14 5.14 0 0 0-.91-2.5q-.758-1.134-2.06-1.749a5.07 5.07 0 0 0-2.676-.487 5.2 5.2 0 0 0-2.493.893q-1.134.758-1.749 2.061l-4.027 8.529q-.622 1.318-.495 2.692a5.4 5.4 0 0 0 .894 2.492 5.17 5.17 0 0 0 2.084 1.741m19.158 7.114 2.844-6.022-6.023-2.844 1.291-2.734 6.023 2.843 2.828-5.989 2.734 1.291-2.828 5.99 6.006 2.835-1.291 2.735-6.006-2.836-2.843 6.023zm17.43 13.545 11.066-23.439 9.473 4.473q.342.16.832.432a7.4 7.4 0 0 1 .914.551q1.808 1.231 2.625 2.872a6.95 6.95 0 0 1 .747 3.518q-.086 1.87-.978 3.758-.899 1.904-2.288 3.159a6.94 6.94 0 0 1-3.191 1.658q-1.786.411-3.886-.202-.486-.15-1.022-.363a14 14 0 0 1-.846-.36l-6.071-2.866-3.974 8.415zm8.896-10.032 5.941 2.805q.326.153.732.306.422.159.819.247 1.157.247 2.099-.104a4.36 4.36 0 0 0 1.634-1.099q.684-.732 1.091-1.595a6 6 0 0 0 .531-1.84 4.2 4.2 0 0 0-.197-1.944q-.32-.967-1.246-1.703a4.6 4.6 0 0 0-.704-.492 10 10 0 0 0-.701-.37l-5.941-2.805zm11.513 19.668 8.3-17.579 3.028 1.43-2.014 4.264-.162-.753a7.2 7.2 0 0 1 1.577-1.147 5.3 5.3 0 0 1 1.758-.603 5.7 5.7 0 0 1 1.834-.049 7.2 7.2 0 0 1 1.847.473 7 7 0 0 1 1.622.866l-1.507 3.19q-.755-.635-1.859-1.037a4.64 4.64 0 0 0-2.235-.24 4.8 4.8 0 0 0-1.934.68 6.1 6.1 0 0 0-1.49 1.386 9.8 9.8 0 0 0-1.142 1.87l-4.188 8.871zm19.675 9.887q-2.637-1.245-4.013-3.348t-1.45-4.686q-.05-2.591 1.241-5.326 1.298-2.75 3.356-4.327 2.067-1.592 4.549-1.833 2.49-.258 5.078.964 2.637 1.245 4.013 3.348t1.45 4.686-1.209 5.301q-1.299 2.751-3.365 4.343-2.042 1.584-4.539 1.858-2.49.257-5.111-.98m1.514-3.207q2.523 1.191 4.559.083 2.06-1.118 3.328-3.803 1.3-2.751.806-4.994-.47-2.252-2.96-3.428-1.709-.807-3.185-.549-1.467.243-2.651 1.357-1.174 1.097-2.02 2.887-1.306 2.768-.821 5.027t2.944 3.42m4.627 15.064 1.521-3.223.896.423q1.35.638 2.277.278.942-.35 1.58-1.702l9.214-19.516 3.418 1.614-9.867 20.9q-1.015 2.148-2.756 2.759-1.726.619-3.923-.419zm16.849-26.621 1.56-3.304 3.418 1.614-1.56 3.304zm5.975 28.44q-2.62-1.238-4.068-3.314-1.424-2.087-1.563-4.659-.114-2.583 1.169-5.301 1.36-2.88 3.434-4.49 2.09-1.6 4.572-1.842 2.483-.24 5.054.973 2.686 1.269 3.983 3.413 1.304 2.129 1.148 4.862-.14 2.741-1.826 5.806l-3.402-1.606.584-1.237q1.413-3.075.965-5.078-.432-1.996-2.743-3.087-2.556-1.207-4.602-.202-2.047 1.004-3.484 4.048-1.369 2.897-.835 5.099.54 2.186 2.965 3.332 1.595.753 3.089.582 1.518-.179 2.807-1.223l2.837 2.634q-2.14 1.876-4.838 2.194-2.69.303-5.246-.904m-2.339-11.276 1.252-2.654 12.55 5.926-1.253 2.653zm21.487 20.317q-2.703-1.277-4.022-3.372-1.319-2.097-1.337-4.672-.002-2.569 1.243-5.246 1.3-2.71 3.308-4.31 2.017-1.616 4.483-1.904 2.465-.29 5.135.971 2.88 1.36 4.239 3.753 1.375 2.402.85 5.199l-3.847-.622q.195-1.72-.577-3.079-.747-1.368-2.228-2.068-1.677-.79-3.128-.501-1.443.274-2.609 1.396-1.167 1.12-2.013 2.871-1.267 2.726-.838 4.979.446 2.26 2.855 3.398 1.644.775 3.006.504 1.387-.28 2.593-1.443l3.066 2.443q-2.077 2.164-4.716 2.61-2.631.43-5.463-.907m21.272 9.446a16 16 0 0 1-3.386-1.26q-1.573-.802-2.557-1.964a4.3 4.3 0 0 1-1.043-2.682q-.054-1.359.427-2.505a99 99 0 0 1 1.182-2.587l7.339-15.545 3.418 1.614-7.262 15.382a98 98 0 0 0-.852 1.847q-.337.796-.281 1.479.11 1.287 1.31 2.032 1.224.738 3.065 1.308zm-5.004-20.516 1.291-2.735 12.013 5.672-1.292 2.735zm15.209 25.912q-3.206-1.514-4.556-3.883t-.591-5.156l3.737 1.107a3.9 3.9 0 0 0 .475 2.872q.819 1.342 2.577 2.173 1.595.753 2.798.524 1.219-.22 1.757-1.36.315-.667.182-1.228-.11-.568-.942-1.42-.833-.85-2.638-2.38-1.986-1.654-3.006-2.952-.996-1.305-1.143-2.47-.123-1.173.485-2.459.753-1.595 2.16-2.383 1.407-.789 3.245-.718 1.854.08 3.921 1.055 2.018.953 3.297 2.334 1.28 1.38 1.703 3.013.43 1.617-.112 3.271l-3.783-1.009q.422-1.355-.243-2.563-.663-1.21-2.244-2.035-1.515-.795-2.752-.663-1.23.116-1.706 1.125a1.6 1.6 0 0 0-.111 1.162q.183.584 1.064 1.458.88.874 2.702 2.371 1.945 1.615 2.917 2.929.978 1.299 1.079 2.52.124 1.214-.514 2.564-1.23 2.605-3.833 3.187-2.588.59-5.925-.986"/></g><g filter="url(#f)"><path fill="#FFCDF7" d="M549.122 237.752c4.038-5.511 10.946-7.359 17.681-6.213l683.117 116.193c8.67 1.476 15.96 7.562 18.36 16.03 11.31 39.907 6.62 65.544-17.23 100.724-5.05 7.454-14.12 10.991-23 9.481L543.777 357.576c-5.823-.991-11.115-4.124-13.39-9.574-4.106-9.835-8.777-28.875-2.508-58.107 5.857-27.307 14.945-43.547 21.243-52.143"/><path fill="#225C90" d="m636.194 186.008-80.046 44.203 708.022 120.43-67.03-69.22zm121.248 158.11a8.7 8.7 0 0 1-3.538-1.423 8.9 8.9 0 0 1-2.512-2.728 8.8 8.8 0 0 1-1.16-3.593l3.73-.352q.108 1.186.694 2.145.604.96 1.519 1.591a5.1 5.1 0 0 0 1.983.794q1.403.238 2.652-.243a5 5 0 0 0 2.118-1.502 4.9 4.9 0 0 0 1.1-2.387q.238-1.402-.26-2.656a5 5 0 0 0-1.523-2.103 4.9 4.9 0 0 0-2.388-1.1q-1.561-.266-2.749.172-1.188.436-1.931 1.15l-3.036-1.685 3.066-13.3 13.787 2.345-.594 3.496-11.889-2.022 1.746-1.146-2.332 9.956-.568-1.064a6.85 6.85 0 0 1 2.676-1.133 7.9 7.9 0 0 1 2.877-.059q2.377.405 4.054 1.822a8.1 8.1 0 0 1 2.453 3.503q.763 2.064.355 4.46-.404 2.378-1.961 4.122a9.25 9.25 0 0 1-3.772 2.535 8.85 8.85 0 0 1-4.597.405m22.022 3.746q-2.609-.444-4.421-1.921a8.55 8.55 0 0 1-2.621-3.695q-.795-2.199-.351-4.807l1.497-8.802q.444-2.608 1.92-4.42a8.43 8.43 0 0 1 3.693-2.604q2.202-.813 4.81-.369 2.609.444 4.418 1.938a8.3 8.3 0 0 1 2.606 3.676q.813 2.2.369 4.809l-1.497 8.802q-.444 2.609-1.938 4.418a8.43 8.43 0 0 1-3.678 2.624q-2.199.795-4.807.351m.603-3.549q1.42.241 2.688-.237a5.3 5.3 0 0 0 2.177-1.528q.891-1.054 1.136-2.491l1.582-9.299q.241-1.42-.255-2.69a5.14 5.14 0 0 0-1.549-2.163q-1.036-.888-2.455-1.13a5.1 5.1 0 0 0-2.709.252 5.2 5.2 0 0 0-2.159 1.531q-.888 1.036-1.13 2.456l-1.582 9.298q-.245 1.437.249 2.726.496 1.272 1.531 2.16a5.2 5.2 0 0 0 2.476 1.115m22.167 7.422q-2.608-.444-4.42-1.92a8.57 8.57 0 0 1-2.622-3.696q-.793-2.199-.351-4.807l1.498-8.802q.443-2.608 1.92-4.42a8.4 8.4 0 0 1 3.693-2.604q2.202-.812 4.81-.369t4.417 1.939a8.3 8.3 0 0 1 2.607 3.675q.812 2.201.369 4.81l-1.497 8.801q-.444 2.609-1.939 4.418a8.4 8.4 0 0 1-3.678 2.624q-2.198.795-4.807.351m.604-3.549q1.419.241 2.688-.237a5.3 5.3 0 0 0 2.177-1.528q.891-1.054 1.136-2.491l1.581-9.298q.241-1.42-.254-2.691a5.16 5.16 0 0 0-1.549-2.163q-1.036-.888-2.456-1.129a5.06 5.06 0 0 0-2.708.251 5.2 5.2 0 0 0-2.16 1.532q-.888 1.036-1.129 2.455l-1.582 9.298q-.244 1.438.248 2.727a5.4 5.4 0 0 0 1.532 2.159q1.057.873 2.476 1.115m20.366 1.693 1.117-6.566-6.566-1.116.507-2.982 6.566 1.117 1.111-6.53 2.981.507-1.111 6.53 6.548 1.114-.507 2.981-6.548-1.114-1.117 6.566zm20.433 8.351 4.346-25.553 10.328 1.756q.372.064.917.193.546.111 1.029.284 2.071.7 3.301 2.059a6.94 6.94 0 0 1 1.667 3.187q.42 1.824.07 3.882-.353 2.077-1.352 3.659a6.96 6.96 0 0 1-2.628 2.457q-1.61.876-3.796.851-.509-.014-1.083-.075a15 15 0 0 1-.911-.118l-6.619-1.126-1.56 9.174zm5.867-12.057 6.477 1.101q.354.061.787.098.448.04.855.017 1.181-.072 1.993-.665.816-.61 1.278-1.499a6.2 6.2 0 0 0 .622-1.829 6.1 6.1 0 0 0 .015-1.915 4.2 4.2 0 0 0-.713-1.819q-.569-.846-1.659-1.305a4.6 4.6 0 0 0-.81-.284 9 9 0 0 0-.775-.168l-6.477-1.102zm21.116 17.194q-2.129-.362-3.434-1.387-1.3-1.043-1.826-2.466a5.9 5.9 0 0 1-.239-2.998q.248-1.455.949-2.468a5 5 0 0 1 1.843-1.604q1.145-.608 2.699-.837a28 28 0 0 1 3.004-.164 97 97 0 0 1 3.48.044q1.834.056 3.634.107l-1.476.515q.419-2.247-.391-3.499-.789-1.266-3.184-1.673a5.6 5.6 0 0 0-2.889.239q-1.377.477-2.149 2.008l-3.279-1.654q1.13-2.346 3.364-3.462 2.253-1.114 5.571-.55 2.573.438 4.321 1.648 1.769 1.195 2.333 3.245a5.9 5.9 0 0 1 .23 2.084q-.072 1.065-.277 2.272l-2.008 11.8-3.282-.558.745-4.383.542.676q-1.563 1.999-3.592 2.767-2.01.754-4.689.298m1.173-2.923q1.58.269 2.808-.088 1.233-.375 2.073-1.126.84-.753 1.213-1.657.446-.8.663-1.859.234-1.055.343-1.694l1.131.649a1096 1096 0 0 1-3.276-.064 83 83 0 0 0-2.681-.018 16 16 0 0 0-2.14.129 7 7 0 0 0-1.475.406 3.2 3.2 0 0 0-1.094.745q-.427.476-.558 1.238-.126.746.138 1.448.267.684.966 1.187.7.502 1.889.704m13.711 4.907 3.26-19.165 3.301.562-.791 4.649-.359-.682a7.2 7.2 0 0 1 1.21-1.529 5.3 5.3 0 0 1 1.53-1.054 5.7 5.7 0 0 1 1.754-.542 7.2 7.2 0 0 1 1.906-.041q.952.09 1.795.397l-.592 3.478q-.899-.408-2.07-.498a4.65 4.65 0 0 0-2.217.371q-1.005.432-1.679 1.175a6.1 6.1 0 0 0-1.063 1.737 9.8 9.8 0 0 0-.595 2.108l-1.645 9.671zm24.692 4.2a16.2 16.2 0 0 1-3.601-.302q-1.73-.35-2.99-1.203a4.3 4.3 0 0 1-1.727-2.302q-.418-1.295-.264-2.528.177-1.248.442-2.81l2.882-16.946 3.727.634-2.853 16.769q-.195 1.153-.323 2.008-.11.858.128 1.501.452 1.208 1.809 1.604 1.378.38 3.304.434zm-10.344-18.411.507-2.981 13.096 2.227-.507 2.981zm18.533-3.147.613-3.602 3.709.63-.613 3.603zm-3.794 22.305 3.26-19.164 3.709.631-3.26 19.164zm17.145 3.465q-2.945-.502-4.78-2.165t-2.546-4.139q-.693-2.474-.216-5.387.522-2.96 2.026-5.041 1.508-2.1 3.804-3.042t5.207-.447q3.14.534 5.093 2.473 1.97 1.942 2.218 4.778l-3.872.437q-.276-1.709-1.384-2.81-1.089-1.116-2.703-1.391-1.829-.311-3.147.359-1.317.652-2.138 2.047-.821 1.394-1.165 3.307-.486 2.966.534 5.021 1.038 2.057 3.664 2.504 1.792.305 3.031-.325 1.26-.643 2.108-2.088l3.611 1.527q-1.417 2.644-3.839 3.784-2.418 1.123-5.506.598m15.693-20.83.613-3.602 3.708.631-.612 3.602zm-3.794 22.306 3.26-19.165 3.708.631-3.259 19.164zm17.944 3.6q-2.75-.469-4.388-2.116-1.633-1.666-2.202-4.118-.57-2.452-.08-5.327t1.819-5.004q1.347-2.126 3.416-3.125 2.09-1.014 4.805-.552 2.697.459 4.422 2.122 1.747 1.647 2.422 4.118.678 2.453.187 5.345-.489 2.874-1.947 5-1.436 2.111-3.614 3.11-2.161 1.002-4.84.547m-10.373 6.451 4.709-27.682 3.3.562-2.345 13.787.426.073-2.364 13.894zm10.429-9.893q1.774.302 3.081-.407 1.326-.705 2.153-2.135.848-1.444 1.171-3.343.32-1.881-.006-3.507-.308-1.622-1.343-2.73t-2.881-1.421q-1.739-.296-3.019.363-1.263.661-2.073 2.094-.791 1.435-1.13 3.423t-.065 3.604q.273 1.617 1.278 2.683 1.006 1.065 2.834 1.376m17.951 6.504q-2.129-.361-3.434-1.387-1.3-1.043-1.826-2.465a5.9 5.9 0 0 1-.239-2.999q.248-1.455.95-2.467a5 5 0 0 1 1.843-1.604q1.144-.609 2.698-.837a28 28 0 0 1 3.004-.165q1.664-.009 3.48.044 1.834.056 3.634.107l-1.476.516q.42-2.248-.39-3.499-.79-1.266-3.185-1.674a5.6 5.6 0 0 0-2.889.239q-1.377.478-2.149 2.008l-3.279-1.653q1.13-2.346 3.364-3.463 2.253-1.114 5.571-.55 2.574.438 4.321 1.648 1.769 1.196 2.333 3.245.301 1.02.23 2.084-.072 1.065-.277 2.272l-2.007 11.801-3.283-.559.745-4.383.543.677q-1.564 1.998-3.593 2.766-2.009.754-4.689.298m1.173-2.922q1.58.268 2.809-.089 1.232-.374 2.072-1.126t1.213-1.656a6.5 6.5 0 0 0 .663-1.859q.234-1.056.343-1.695l1.131.649q-1.802-.033-3.275-.064a83 83 0 0 0-2.681-.018q-1.188 0-2.14.129a7 7 0 0 0-1.475.407 3.2 3.2 0 0 0-1.095.745q-.428.474-.557 1.238-.127.745.137 1.447.267.685.967 1.187.699.502 1.888.705m27.161 7.194 1.6-9.422c.13-.746.2-1.52.2-2.323.01-.812-.1-1.586-.34-2.321a4.2 4.2 0 0 0-1.19-1.883c-.56-.521-1.35-.867-2.36-1.04a5.3 5.3 0 0 0-1.94.017q-.945.168-1.74.781c-.52.411-.98.99-1.37 1.738q-.585 1.126-.869 2.83l-2.159-1.262q.444-2.609 1.758-4.43 1.32-1.84 3.33-2.647c1.35-.538 2.89-.66 4.61-.366 1.33.225 2.4.628 3.23 1.206.83.579 1.46 1.265 1.9 2.057.45.783.75 1.608.91 2.474s.22 1.7.19 2.499c-.02.798-.09 1.494-.19 2.085l-1.81 10.647zm-13.467-2.291 3.26-19.164 3.317.564-.94 5.537.44.075-2.315 13.628zm32.817 5.583q-1.875.046-3.6-.302c-1.15-.233-2.15-.634-2.99-1.203a4.3 4.3 0 0 1-1.73-2.302c-.27-.863-.36-1.706-.26-2.528.12-.832.26-1.769.44-2.81l2.88-16.946 3.73.634-2.85 16.769c-.13.769-.24 1.438-.32 2.008-.08.572-.03 1.072.12 1.501.3.806.91 1.34 1.81 1.604.92.253 2.02.398 3.31.434zm-10.34-18.411.51-2.982 13.09 2.228-.51 2.981zm21.62 20.859q-3.495-.594-5.43-2.513c-1.29-1.278-1.94-2.88-1.96-4.806l3.9.06a3.92 3.92 0 0 0 1.23 2.638c.77.715 1.79 1.181 3.07 1.398 1.16.198 2.1.115 2.83-.248.75-.36 1.19-.954 1.33-1.783.08-.485.03-.895-.16-1.231q-.255-.519-1.29-1.114-1.02-.595-3.18-1.582-2.355-1.059-3.69-2.033c-.87-.66-1.46-1.351-1.76-2.072-.29-.731-.36-1.564-.2-2.498q.3-1.739 1.44-2.878c.76-.759 1.74-1.28 2.93-1.564 1.21-.282 2.56-.295 4.06-.04q2.205.375 3.81 1.359c1.07.657 1.88 1.471 2.45 2.444a5.7 5.7 0 0 1 .77 3.181l-3.91.046q.03-1.417-.93-2.403c-.64-.657-1.54-1.109-2.71-1.356-1.11-.238-2.06-.204-2.83.103-.77.296-1.21.81-1.34 1.544q-.105.638.21 1.148c.22.342.69.715 1.42 1.118q1.08.604 3.24 1.555c1.54.688 2.73 1.367 3.59 2.036.87.658 1.44 1.37 1.72 2.137.3.756.37 1.625.2 2.607-.32 1.893-1.27 3.26-2.84 4.101q-2.325 1.265-5.97.646"/></g><g filter="url(#g)"><path fill="#F3F4F5" d="m74.007 298.737 159.389 17.444 5.25-48.599-38.733-65.912-149.401-18.045c24.058 43.028 29.512 68.221 23.495 115.112"/><path fill="#0DAEF1" d="M704.909 50.058 863.918 66.14 199.913 201.67 60.319 181.624zM82.058 303.782l136.743 16.365a8.04 8.04 0 0 0 6.662-2.319c4.767-4.804 1.828-12.99-4.906-13.664L83.523 290.451a6.7 6.7 0 0 0-2.009.102c-7.458 1.522-7.014 12.324.544 13.229"/><path fill="#0DAEF1" d="m61.553 190.945 150.092 11.758a9.1 9.1 0 0 0 8.62-4.571c3.412-5.994-.824-13.458-7.72-13.601l-150.519-3.133a4.8 4.8 0 0 0-1.08.101c-5.41 1.134-4.902 9.015.607 9.446"/><path fill="url(#h)" d="M863.678 65.763 198.857 201.458c24.705 45.829 29.644 71.931 24.173 118.434l655.846-133.863c5.78-1.18 10.966-4.484 13.012-10.017 3.522-9.53 7.114-27.485.405-54.406-10.573-42.432-28.615-55.843-28.615-55.843"/><path stroke="#EBEBEA" stroke-width="1.982" d="m70.316 204.476 129.45 9.982M73.883 221.95l129.45 9.981m-125.884 7.492 129.45 9.982m-125.882 7.492 129.449 9.982m-125.883 7.492 129.45 9.982"/><path fill="#225C90" d="m441.506 228.743-.842-4.127 3.686-.752.842 4.127zm-5.77-28.271-.846-4.144 3.686-.753.846 4.145zm7.19 24.877q-2.646.54-4.921.012t-3.972-2q-1.683-1.494-2.578-3.809l3.532-1.328q.99 2.15 2.992 3.138 1.998.97 4.414.476 2.398-.489 3.664-1.942 1.282-1.455.919-3.237-.26-1.269-1.197-1.905-.92-.638-2.761-.833l-6.335-.617q-5.625-.56-6.587-5.269-.453-2.222.27-4.079.741-1.859 2.497-3.155 1.757-1.295 4.349-1.824 2.494-.473 4.597.017a8.5 8.5 0 0 1 3.728 1.884q1.626 1.396 2.595 3.622l-3.62 1.437a5.64 5.64 0 0 0-1.53-2.186 5.44 5.44 0 0 0-2.307-1.219q-1.3-.34-2.785-.056-1.401.249-2.414.952-1 .681-1.48 1.661a3.08 3.08 0 0 0-.25 2.017q.238 1.164 1.303 1.792 1.065.627 3.124.813l4.95.404q3.405.298 5.161 1.611 1.756 1.314 2.299 3.976.475 2.328-.332 4.312-.793 1.962-2.673 3.375-1.883 1.395-4.652 1.96m17.325-4.088-4.356-21.34-4.185 3.886-.839-4.109 4.196-3.833 3.757-.767 5.183 25.397zm18.692-3.264q-2.487.508-4.61-.087-2.11-.617-3.567-2.175-1.44-1.562-1.919-3.907-.446-2.187.206-4.213.653-2.025 2.468-3.479l.189 1.284q-1.828-.675-3.016-1.993-1.173-1.341-1.555-3.21-.443-2.17.238-3.962.682-1.792 2.269-3.017 1.605-1.227 3.898-1.695 2.292-.468 4.232.036t3.27 1.886 1.772 3.552q.381 1.869-.142 3.537-.522 1.669-2.025 3.041l-.304-1.224q2.211.577 3.627 2.199 1.41 1.604 1.857 3.791.479 2.346-.251 4.35-.73 2.005-2.447 3.402-1.72 1.38-4.19 1.884m-.716-3.509q2.045-.419 3.089-1.788 1.04-1.387.6-3.54-.44-2.151-1.939-3.021-1.486-.89-3.55-.47-2.064.422-3.099 1.827-1.022 1.385-.583 3.536.44 2.153 1.939 3.021 1.497.852 3.543.435m-2.52-12.346q1.746-.356 2.645-1.44.914-1.106.55-2.886-.363-1.782-1.637-2.44-1.259-.68-3.005-.324t-2.656 1.479q-.913 1.105-.55 2.887.364 1.78 1.637 2.44 1.27.64 3.016.284m16.199 12.658-5.166-25.4 3.739-.763 3.168 15.52 5.606-10.697 4.691-.958-5.957 11.137 10.656 7.745-5.009 1.023-9.843-7.544 1.872 9.171zm21.404-27.461-.73-3.58 3.686-.753.73 3.581zm4.525 22.169-3.887-19.047 3.686-.753 3.887 19.048zm22.351-4.562-1.912-9.365a14 14 0 0 0-.658-2.235 7 7 0 0 0-1.152-2.043 4.2 4.2 0 0 0-1.795-1.324q-1.06-.426-2.577-.117a5.3 5.3 0 0 0-1.801.717 4 4 0 0 0-1.34 1.357q-.505.857-.652 2.117-.13 1.257.217 2.95l-2.469-.396q-.53-2.592.037-4.766.563-2.19 2.153-3.672t4.165-2.008q1.975-.404 3.445-.042t2.511 1.233a7.7 7.7 0 0 1 1.745 1.977q.69 1.127 1.086 2.259t.576 2.013l2.16 10.582zm-13.386 2.732-3.888-19.047 3.298-.673 1.123 5.502.441-.09 2.765 13.545zm28.78-5.874-5.184-25.396 10.265-2.095q.37-.077.924-.152a7 7 0 0 1 1.062-.107q2.185-.097 3.823.726a6.96 6.96 0 0 1 2.706 2.369q1.051 1.55 1.469 3.595.42 2.063.061 3.9a6.95 6.95 0 0 1-1.562 3.24q-1.184 1.4-3.232 2.166-.48.172-1.036.322-.54.147-.893.219l-6.578 1.343 1.861 9.118zm1.112-13.362 6.437-1.314q.354-.072.769-.194.433-.125.804-.293 1.074-.494 1.618-1.34a4.36 4.36 0 0 0 .65-1.86 6.03 6.03 0 0 0-.76-3.721 4.2 4.2 0 0 0-1.322-1.439q-.836-.582-2.018-.617a4.6 4.6 0 0 0-.858.029 10 10 0 0 0-.783.123l-6.438 1.314zm21.002 8.848-3.887-19.047 3.28-.67.943 4.621-.581-.506q.166-.988.575-1.863a5.3 5.3 0 0 1 1.046-1.536q.615-.676 1.44-1.139a7.2 7.2 0 0 1 1.762-.727 7.2 7.2 0 0 1 1.817-.279l.705 3.457q-.985-.056-2.11.284a4.64 4.64 0 0 0-1.933 1.148 4.8 4.8 0 0 0-1.141 1.702 6.1 6.1 0 0 0-.363 2.003 9.8 9.8 0 0 0 .207 2.181l1.962 9.612zm9.469-25.025-.731-3.58 3.686-.752.731 3.58zm4.525 22.169-3.888-19.047 3.686-.753 3.888 19.048zm7.218-1.473-.119-.582 7.716-17.374-9.824 2.005-.673-3.298 15.679-3.2.122.599-7.701 17.353 10.264-2.095.673 3.298zm27.68-5.099q-2.839.58-5.243-.216-2.39-.816-4.042-2.794-1.639-1.998-2.24-4.944-.637-3.121.059-5.652.714-2.534 2.557-4.214t4.629-2.249q2.91-.594 5.233.346 2.32.923 3.833 3.204 1.53 2.278 2.017 5.743l-3.686.752-.274-1.34q-.711-3.309-2.27-4.644-1.541-1.338-4.046-.827-2.769.564-3.805 2.595-1.038 2.031-.364 5.328.64 3.14 2.387 4.584 1.742 1.426 4.37.89 1.728-.353 2.822-1.385 1.108-1.053 1.515-2.66l3.849.408q-.59 2.784-2.559 4.656-1.973 1.854-4.742 2.419m-8.629-7.626-.587-2.875 13.598-2.775.587 2.874zm28.508 3.55q-3.474.71-5.974-.379t-3.563-3.773l3.656-1.353q.654 1.41 2.101 2.015 1.46.584 3.365.195 1.729-.353 2.554-1.256.844-.907.592-2.142-.147-.723-.59-1.092-.429-.39-1.605-.573t-3.539-.325q-2.58-.134-4.175-.562-1.58-.45-2.395-1.293-.801-.866-1.085-2.259-.353-1.728.301-3.203.655-1.474 2.169-2.518 1.532-1.047 3.771-1.505 2.187-.446 4.038-.108 1.851.339 3.168 1.393 1.314 1.036 1.871 2.686l-3.633 1.458q-.476-1.335-1.731-1.906-1.255-.57-3.016-.285-1.69.272-2.6 1.119-.915.83-.692 1.923.13.634.608.997.495.358 1.725.529 1.229.173 3.584.279 2.524.128 4.09.598 1.562.453 2.374 1.371.827.897 1.125 2.361.576 2.822-1.16 4.848-1.717 2.022-5.334 2.76"/></g><defs><filter id="a" width="850.043" height="448.688" x="685.376" y="616.044" color-interpolation-filters="sRGB" filterUnits="userSpaceOnUse"><feFlood flood-opacity="0" result="BackgroundImageFix"/><feColorMatrix in="SourceAlpha" result="hardAlpha" values="0 0 0 0 0 0 0 0 0 0 0 0 0 0 0 0 0 0 127 0"/><feOffset/><feGaussianBlur stdDeviation="25"/><feComposite in2="hardAlpha" operator="out"/><feColorMatrix values="0 0 0 0 0.713726 0 0 0 0 1 0 0 0 0 0.964706 0 0 0 0.5 0"/><feBlend in2="BackgroundImageFix" result="effect1_dropShadow_1353_2122"/><feBlend in="SourceGraphic" in2="effect1_dropShadow_1353_2122" result="shape"/></filter><filter id="c" width="996.833" height="505.641" x="515.363" y="320.947" color-interpolation-filters="sRGB" filterUnits="userSpaceOnUse"><feFlood flood-opacity="0" result="BackgroundImageFix"/><feColorMatrix in="SourceAlpha" result="hardAlpha" values="0 0 0 0 0 0 0 0 0 0 0 0 0 0 0 0 0 0 127 0"/><feOffset/><feGaussianBlur stdDeviation="25"/><feComposite in2="hardAlpha" operator="out"/><feColorMatrix values="0 0 0 0 0.713726 0 0 0 0 1 0 0 0 0 0.964706 0 0 0 0.5 0"/><feBlend in2="BackgroundImageFix" result="effect1_dropShadow_1353_2122"/><feBlend in="SourceGraphic" in2="effect1_dropShadow_1353_2122" result="shape"/></filter><filter id="d" width="996.833" height="505.641" x="515.363" y="324.947" color-interpolation-filters="sRGB" filterUnits="userSpaceOnUse"><feFlood flood-opacity="0" result="BackgroundImageFix"/><feColorMatrix in="SourceAlpha" result="hardAlpha" values="0 0 0 0 0 0 0 0 0 0 0 0 0 0 0 0 0 0 127 0"/><feOffset dy="4"/><feGaussianBlur stdDeviation="25"/><feComposite in2="hardAlpha" operator="out"/><feColorMatrix values="0 0 0 0 0.713726 0 0 0 0 1 0 0 0 0 0.964706 0 0 0 0.5 0"/><feBlend in2="BackgroundImageFix" result="effect1_dropShadow_1353_2122"/><feBlend in="SourceGraphic" in2="effect1_dropShadow_1353_2122" result="shape"/></filter><filter id="f" width="849.316" height="388.302" x="474.823" y="136.008" color-interpolation-filters="sRGB" filterUnits="userSpaceOnUse"><feFlood flood-opacity="0" result="BackgroundImageFix"/><feColorMatrix in="SourceAlpha" result="hardAlpha" values="0 0 0 0 0 0 0 0 0 0 0 0 0 0 0 0 0 0 127 0"/><feOffset/><feGaussianBlur stdDeviation="25"/><feComposite in2="hardAlpha" operator="out"/><feColorMatrix values="0 0 0 0 0.713726 0 0 0 0 1 0 0 0 0 0.964706 0 0 0 0.5 0"/><feBlend in2="BackgroundImageFix" result="effect1_dropShadow_1353_2122"/><feBlend in="SourceGraphic" in2="effect1_dropShadow_1353_2122" result="shape"/></filter><filter id="g" width="945.554" height="370.146" x=".512" y=".058" color-interpolation-filters="sRGB" filterUnits="userSpaceOnUse"><feFlood flood-opacity="0" result="BackgroundImageFix"/><feColorMatrix in="SourceAlpha" result="hardAlpha" values="0 0 0 0 0 0 0 0 0 0 0 0 0 0 0 0 0 0 127 0"/><feOffset/><feGaussianBlur stdDeviation="25"/><feComposite in2="hardAlpha" operator="out"/><feColorMatrix values="0 0 0 0 0.713726 0 0 0 0 1 0 0 0 0 0.964706 0 0 0 0.55 0"/><feBlend in2="BackgroundImageFix" result="effect1_dropShadow_1353_2122"/><feBlend in="SourceGraphic" in2="effect1_dropShadow_1353_2122" result="shape"/></filter><linearGradient id="b" x1="737.172" x2="775.196" y1="816.5" y2="638.895" gradientUnits="userSpaceOnUse"><stop stop-color="#FFCDF7"/><stop offset="1" stop-color="#FAC4CB"/></linearGradient><linearGradient id="e" x1="1571.81" x2="600.314" y1="813.856" y2="433.356" gradientUnits="userSpaceOnUse"><stop stop-color="#B6FFF6"/><stop offset="1" stop-color="#0DAEF1"/></linearGradient><linearGradient id="h" x1="865.678" x2="210.683" y1="127.119" y2="260.808" gradientUnits="userSpaceOnUse"><stop stop-color="#A5D8ED"/><stop offset="1" stop-color="#B6FFF6"/></linearGradient></defs></svg>