<svg xmlns="http://www.w3.org/2000/svg" width="687" height="593" fill="none"><path fill="url(#a)" d="M209 83.81s-.825 5.549 46-26L687 477.5 0 592.5z"/><path fill="#A3C1F5" d="M106.5 196.362h110.354a5.034 5.034 0 1 1 0 10.069H106.5z"/><path fill="url(#b)" stroke="#fff" stroke-miterlimit="10" d="M193.11 189.629h-62.388v6.515h62.388z"/><path fill="url(#c)" stroke="#fff" stroke-miterlimit="10" d="M149.687 170.663h24.466c10.463 0 18.965 8.494 18.965 18.966h-62.396c0-10.464 8.493-18.966 18.965-18.966Z"/><path fill="url(#d)" stroke="#fff" stroke-miterlimit="10" d="m199.028 35.785-8.126-5.058c-4.947 6.46-9.902 12.921-14.849 19.382-7.854 10.254-14.765 19.825-17.085 32.279-3.272 17.557-1.785 34.8-1.785 52.458v37.39s4.139 3.687 9.877 0V140.34c0-17.411-1.513-35.559.96-52.84 2.865-19.987 18.683-35.636 31.008-51.722z"/><path fill="url(#e)" stroke="#fff" stroke-miterlimit="10" d="M256.71 53.6s-12.254-24.61-43.431-38.808c-.429-.195-1.048-1.598-1.333-1.98-3.435-4.621-8.593-8.595-14.187-10.168-7.592-2.143-14.188 2.348-14.996 10.222-.509 4.974 1.145 10.02 3.415 14.378.577 1.107 2.868 3.673 2.873 4.807 0 0 .163 33.502 16.711 51.768l50.942-30.229z"/><path fill="url(#f)" stroke="#fff" stroke-miterlimit="10" d="M189.059 32.07s5.457-17.307 24.222-17.269c0 0-2.185-4.017-6.728-7.52 0 0-14.617-1.56-22.624 14.695 0 0 1.214 5.233 5.123 10.084z"/><path fill="#D3EDFD" stroke="#fff" stroke-miterlimit="10" d="M236.852 78.878c14.218-8.304 23.044-19.66 19.713-25.363s-17.557-3.594-31.775 4.711-23.045 19.66-19.714 25.363 17.558 3.594 31.776-4.71Z"/><defs><linearGradient id="a" x1="248.5" x2="363.319" y1="-12.691" y2="526.265" gradientUnits="userSpaceOnUse"><stop stop-color="#fff"/><stop offset=".599" stop-color="#CDEEFC"/><stop offset="1" stop-color="#FFFCFF" stop-opacity="0"/></linearGradient><linearGradient id="b" x1="130.722" x2="275.91" y1="192.886" y2="196.089" gradientUnits="userSpaceOnUse"><stop stop-color="#FFCDF7"/><stop offset="1" stop-color="#0DAEF1"/></linearGradient><linearGradient id="c" x1="130.722" x2="253.458" y1="180.146" y2="164.249" gradientUnits="userSpaceOnUse"><stop stop-color="#FFCDF7"/><stop offset="1" stop-color="#0DAEF1"/></linearGradient><linearGradient id="d" x1="177.937" x2="233.191" y1="30.727" y2="50.912" gradientUnits="userSpaceOnUse"><stop stop-color="#FFCDF7"/><stop offset="1" stop-color="#0DAEF1"/></linearGradient><linearGradient id="e" x1="224.946" x2="275.946" y1="8.348" y2="133.427" gradientUnits="userSpaceOnUse"><stop stop-color="#FFCDF7"/><stop offset="1" stop-color="#0DAEF1"/></linearGradient><linearGradient id="f" x1="196.303" x2="195.433" y1="-36.776" y2="33.416" gradientUnits="userSpaceOnUse"><stop stop-color="#0DAEF1"/><stop offset="1" stop-color="#FFCDF7"/></linearGradient></defs></svg>