<svg xmlns="http://www.w3.org/2000/svg" width="2752" height="919" fill="none"><path fill="url(#a)" stroke="#fff" stroke-miterlimit="10" d="M936.5 201s10.373-11.94 118-56l1695 647-1935 126z"/><path fill="#A3C1F5" d="M0 766h920c5.523 0 10 4.477 10 10v17c0 5.523-4.477 10-10 10H0z"/><path fill="url(#b)" stroke="#fff" stroke-miterlimit="10" d="M824.247 741.26H595v23.94h229.247z"/><path fill="url(#c)" stroke="#fff" stroke-miterlimit="10" d="M664.689 671.571h89.9c38.448 0 69.689 31.209 69.689 69.689H595c0-38.448 31.21-69.689 69.689-69.689Z"/><path fill="url(#d)" stroke="#fff" stroke-miterlimit="10" d="M846 121.635 816.141 101c-18.178 26.357-36.386 52.714-54.564 79.07-28.859 41.833-54.252 80.884-62.779 131.69-12.024 71.629-6.559 141.977-6.559 214.012v152.544s15.211 15.039 36.293 0V548.189c0-71.035-5.559-145.071 3.53-215.575 10.525-81.54 68.65-145.384 113.938-211.01z"/><path fill="url(#e)" stroke="#fff" stroke-miterlimit="10" d="M1065.17 129.299s-67.757-74.93-192.144-94.256c-1.713-.265-5.294-4.616-6.683-5.687-16.734-12.945-38.922-21.89-60.277-21.91-28.987-.055-47.872 22.374-42.924 51.035 3.129 18.103 13.985 34.32 26.337 47.487 3.139 3.344 13.789 10.154 14.93 14.162 0 0 33.789 118.377 110.448 166.599L1065.14 129.27z"/><path fill="#D3EDFD" stroke="#fff" stroke-miterlimit="10" d="M1019.96 238.428c42.08-43.479 62.05-92.408 44.61-109.284s-65.687 4.689-107.763 48.169c-42.075 43.48-62.046 92.408-44.607 109.284 17.44 16.877 65.687-4.689 107.76-48.169Z"/><path fill="url(#f)" stroke="#fff" stroke-miterlimit="10" d="M804.453 120.19s2.15-66.65 68.583-85.116c0 0-11.714-12.048-31.258-19.941 0 0-53.269 8.972-65.482 74.425 0 0 9.482 17.311 28.123 30.602z"/><defs><linearGradient id="a" x1="887" x2="937.012" y1="71.5" y2="892.547" gradientUnits="userSpaceOnUse"><stop stop-color="#fff"/><stop offset=".599" stop-color="#CDEEFC"/><stop offset="1" stop-color="#FFFCFF" stop-opacity="0"/></linearGradient><linearGradient id="b" x1="595" x2="1128.5" y1="753.23" y2="765" gradientUnits="userSpaceOnUse"><stop stop-color="#FFCDF7"/><stop offset="1" stop-color="#0DAEF1"/></linearGradient><linearGradient id="c" x1="595" x2="1046" y1="706.415" y2="648" gradientUnits="userSpaceOnUse"><stop stop-color="#FFCDF7"/><stop offset="1" stop-color="#0DAEF1"/></linearGradient><linearGradient id="d" x1="768.5" x2="976.148" y1="101" y2="169.323" gradientUnits="userSpaceOnUse"><stop stop-color="#FFCDF7"/><stop offset="1" stop-color="#0DAEF1"/></linearGradient><linearGradient id="e" x1="907.918" x2="1212.37" y1=".675" y2="392.678" gradientUnits="userSpaceOnUse"><stop stop-color="#FFCDF7"/><stop offset="1" stop-color="#0DAEF1"/></linearGradient><linearGradient id="f" x1="761.833" x2="828.342" y1="-130.589" y2="118.63" gradientUnits="userSpaceOnUse"><stop stop-color="#0DAEF1"/><stop offset="1" stop-color="#FFCDF7"/></linearGradient></defs></svg>