<svg xmlns="http://www.w3.org/2000/svg" width="3016" height="2085" fill="none" preserveAspectRatio="none"><path fill="#F5F5F5" d="M0 0h3016v2085H0z"/><path fill="#EBEBEA" d="M-7847 1377c0-1.1.9-2 2-2H3228c1.1 0 2 .9 2 2v12169c0 1.1-.9 2-2 2H-7845c-1.1 0-2-.9-2-2z"/><path fill="#000" fill-opacity=".1" d="M-7845 1376H3228v-2H-7845zm11074 1v12169h2V1377zm-1 12170H-7845v2H3228zm-11074-1V1377h-2v12169zm1 1c-.55 0-1-.4-1-1h-2c0 1.7 1.34 3 3 3zm11074-1c0 .6-.45 1-1 1v2c1.66 0 3-1.3 3-3zm-1-12170c.55 0 1 .45 1 1h2c0-1.66-1.34-3-3-3zm-11073-2c-1.66 0-3 1.34-3 3h2c0-.55.45-1 1-1z"/><g clip-path="url(#a)"><path fill="#fff" d="M-7-2212.5h3024v18846H-7z"/><path fill="url(#b)" d="M0 0h3024v4030H0z" transform="translate(-7 -4.5)"/></g><defs><linearGradient id="b" x1="1512" x2="1512" y1="0" y2="3924.05" gradientUnits="userSpaceOnUse"><stop stop-color="#225C90"/><stop offset=".453" stop-color="#BAE8FC" stop-opacity=".5"/></linearGradient><clipPath id="a"><path fill="#fff" d="M-7-2212.5h3024v18846H-7z"/></clipPath></defs></svg>