<svg xmlns="http://www.w3.org/2000/svg" width="393" height="619" fill="none" preserveAspectRatio="none"><path fill="#F5F5F5" d="M0 0h393v619H0z"/><g clip-path="url(#a)"><path fill="#fff" d="M0-4411h393V685H0z"/><g clip-path="url(#b)"><path fill="#fff" d="M0-4411h393V685H0z"/><path fill="url(#c)" d="M0 0h393v3081H0z" transform="translate(0 -2241)"/><path fill="url(#d)" d="M0 0h393v614H0z" transform="matrix(1 0 0 -1 0 685)"/><g stroke-width="1.04" opacity=".5" style="mix-blend-mode:hard-light"><path stroke="url(#e)" d="M119.824 621.839V444.314"/><path stroke="url(#f)" d="M141.732 621.839V444.314"/><path stroke="url(#g)" d="M163.641 621.839V444.314"/><path stroke="url(#h)" d="M185.547 621.839V444.314"/><path stroke="url(#i)" d="M207.455 621.839V444.314"/><path stroke="url(#j)" d="M229.363 621.839V444.314"/><path stroke="url(#k)" d="M251.27 621.839V444.314"/><path stroke="url(#l)" d="M273.178 621.839V444.314"/><path stroke="url(#m)" d="M119.824 479.819h153.353"/><path stroke="url(#n)" d="M119.824 515.324h153.353"/><path stroke="url(#o)" d="M119.824 550.829h153.353"/><path stroke="url(#p)" d="M119.824 586.334h153.353"/></g><g stroke-width="1.04" opacity=".5" style="mix-blend-mode:hard-light"><path stroke="url(#q)" d="M119.824 479.839V302.314"/><path stroke="url(#r)" d="M141.732 479.839V302.314"/><path stroke="url(#s)" d="M163.641 479.839V302.314"/><path stroke="url(#t)" d="M185.547 479.839V302.314"/><path stroke="url(#u)" d="M207.455 479.839V302.314"/><path stroke="url(#v)" d="M229.363 479.839V302.314"/><path stroke="url(#w)" d="M251.27 479.839V302.314"/><path stroke="url(#x)" d="M273.178 479.839V302.314"/><path stroke="url(#y)" d="M119.824 337.819h153.353"/><path stroke="url(#z)" d="M119.824 373.324h153.353"/><path stroke="url(#A)" d="M119.824 408.829h153.353"/><path stroke="url(#B)" d="M119.824 444.334h153.353"/><path stroke="url(#C)" d="M119.824 479.839h153.353"/></g></g></g><defs><linearGradient id="c" x1="196.5" x2="196.5" y1="-303.747" y2="1247.99" gradientUnits="userSpaceOnUse"><stop stop-color="#0796D3" stop-opacity=".19"/><stop offset="1" stop-color="#FFCDF7" stop-opacity=".1"/></linearGradient><linearGradient id="d" x1="196.5" x2="196.5" y1="0" y2="513.814" gradientUnits="userSpaceOnUse"><stop stop-color="#FFCDF7"/><stop offset="1" stop-color="#BAE8FC" stop-opacity="0"/></linearGradient><linearGradient id="e" x1="120.324" x2="120.324" y1="621.839" y2="444.314" gradientUnits="userSpaceOnUse"><stop stop-color="#0DAEF1"/><stop offset="1" stop-color="#07648B" stop-opacity="0"/></linearGradient><linearGradient id="f" x1="142.232" x2="142.232" y1="621.839" y2="444.314" gradientUnits="userSpaceOnUse"><stop stop-color="#0DAEF1"/><stop offset="1" stop-color="#07648B" stop-opacity="0"/></linearGradient><linearGradient id="g" x1="164.141" x2="164.141" y1="621.839" y2="444.314" gradientUnits="userSpaceOnUse"><stop stop-color="#0DAEF1"/><stop offset="1" stop-color="#07648B" stop-opacity="0"/></linearGradient><linearGradient id="h" x1="186.047" x2="186.047" y1="621.839" y2="444.314" gradientUnits="userSpaceOnUse"><stop stop-color="#0DAEF1"/><stop offset="1" stop-color="#07648B" stop-opacity="0"/></linearGradient><linearGradient id="i" x1="207.955" x2="207.955" y1="621.839" y2="444.314" gradientUnits="userSpaceOnUse"><stop stop-color="#0DAEF1"/><stop offset="1" stop-color="#07648B" stop-opacity="0"/></linearGradient><linearGradient id="j" x1="229.863" x2="229.863" y1="621.839" y2="444.314" gradientUnits="userSpaceOnUse"><stop stop-color="#0DAEF1"/><stop offset="1" stop-color="#07648B" stop-opacity="0"/></linearGradient><linearGradient id="k" x1="251.77" x2="251.77" y1="621.839" y2="444.314" gradientUnits="userSpaceOnUse"><stop stop-color="#0DAEF1"/><stop offset="1" stop-color="#07648B" stop-opacity="0"/></linearGradient><linearGradient id="l" x1="273.678" x2="273.678" y1="621.839" y2="444.314" gradientUnits="userSpaceOnUse"><stop stop-color="#0DAEF1"/><stop offset="1" stop-color="#07648B" stop-opacity="0"/></linearGradient><linearGradient id="m" x1="196.501" x2="196.501" y1="479.819" y2="478.819" gradientUnits="userSpaceOnUse"><stop stop-color="#0DAEF1"/><stop offset="1" stop-color="#07648B" stop-opacity="0"/></linearGradient><linearGradient id="n" x1="196.501" x2="196.501" y1="515.324" y2="514.324" gradientUnits="userSpaceOnUse"><stop stop-color="#0DAEF1"/><stop offset="1" stop-color="#07648B" stop-opacity="0"/></linearGradient><linearGradient id="o" x1="196.501" x2="196.501" y1="550.829" y2="549.829" gradientUnits="userSpaceOnUse"><stop stop-color="#0DAEF1"/><stop offset="1" stop-color="#07648B" stop-opacity="0"/></linearGradient><linearGradient id="p" x1="196.501" x2="196.501" y1="586.334" y2="585.334" gradientUnits="userSpaceOnUse"><stop stop-color="#0DAEF1"/><stop offset="1" stop-color="#07648B" stop-opacity="0"/></linearGradient><linearGradient id="q" x1="120.324" x2="120.324" y1="479.839" y2="302.314" gradientUnits="userSpaceOnUse"><stop stop-color="#0DAEF1"/><stop offset="1" stop-color="#07648B" stop-opacity="0"/></linearGradient><linearGradient id="r" x1="142.232" x2="142.232" y1="479.839" y2="302.314" gradientUnits="userSpaceOnUse"><stop stop-color="#0DAEF1"/><stop offset="1" stop-color="#07648B" stop-opacity="0"/></linearGradient><linearGradient id="s" x1="164.141" x2="164.141" y1="479.839" y2="302.314" gradientUnits="userSpaceOnUse"><stop stop-color="#0DAEF1"/><stop offset="1" stop-color="#07648B" stop-opacity="0"/></linearGradient><linearGradient id="t" x1="186.047" x2="186.047" y1="479.839" y2="302.314" gradientUnits="userSpaceOnUse"><stop stop-color="#0DAEF1"/><stop offset="1" stop-color="#07648B" stop-opacity="0"/></linearGradient><linearGradient id="u" x1="207.955" x2="207.955" y1="479.839" y2="302.314" gradientUnits="userSpaceOnUse"><stop stop-color="#0DAEF1"/><stop offset="1" stop-color="#07648B" stop-opacity="0"/></linearGradient><linearGradient id="v" x1="229.863" x2="229.863" y1="479.839" y2="302.314" gradientUnits="userSpaceOnUse"><stop stop-color="#0DAEF1"/><stop offset="1" stop-color="#07648B" stop-opacity="0"/></linearGradient><linearGradient id="w" x1="251.77" x2="251.77" y1="479.839" y2="302.314" gradientUnits="userSpaceOnUse"><stop stop-color="#0DAEF1"/><stop offset="1" stop-color="#07648B" stop-opacity="0"/></linearGradient><linearGradient id="x" x1="273.678" x2="273.678" y1="479.839" y2="302.314" gradientUnits="userSpaceOnUse"><stop stop-color="#0DAEF1"/><stop offset="1" stop-color="#07648B" stop-opacity="0"/></linearGradient><linearGradient id="y" x1="196.501" x2="196.501" y1="337.819" y2="336.819" gradientUnits="userSpaceOnUse"><stop stop-color="#0DAEF1"/><stop offset="1" stop-color="#07648B" stop-opacity="0"/></linearGradient><linearGradient id="z" x1="196.501" x2="196.501" y1="373.324" y2="372.324" gradientUnits="userSpaceOnUse"><stop stop-color="#0DAEF1"/><stop offset="1" stop-color="#07648B" stop-opacity="0"/></linearGradient><linearGradient id="A" x1="196.501" x2="196.501" y1="408.829" y2="407.829" gradientUnits="userSpaceOnUse"><stop stop-color="#0DAEF1"/><stop offset="1" stop-color="#07648B" stop-opacity="0"/></linearGradient><linearGradient id="B" x1="196.501" x2="196.501" y1="444.334" y2="443.334" gradientUnits="userSpaceOnUse"><stop stop-color="#0DAEF1"/><stop offset="1" stop-color="#07648B" stop-opacity="0"/></linearGradient><linearGradient id="C" x1="196.501" x2="196.501" y1="479.839" y2="478.839" gradientUnits="userSpaceOnUse"><stop stop-color="#0DAEF1"/><stop offset="1" stop-color="#07648B" stop-opacity="0"/></linearGradient><clipPath id="a"><path fill="#fff" d="M0-4411h393V685H0z"/></clipPath><clipPath id="b"><path fill="#fff" d="M0-4411h393V685H0z"/></clipPath></defs></svg>