<svg xmlns="http://www.w3.org/2000/svg" width="3030" height="1664" fill="none" preserveAspectRatio="none"><path fill="#F5F5F5" d="M0 0h3030v1664H0z"/><path fill="#EBEBEA" d="M-7834-13211c0-1.1.9-2 2-2H3241c1.1 0 2 .9 2 2v12169c0 1.1-.9 2-2 2H-7832c-1.1 0-2-.9-2-2z"/><path fill="#000" fill-opacity=".1" d="M-7832-13212H3241v-2H-7832zm11074 1v12169h2v-12169zm-1 12170H-7832v2H3241zm-11074-1v-12169h-2v12169zm1 1c-.55 0-1-.45-1-1h-2c0 1.66 1.34 3 3 3zm11074-1c0 .55-.45 1-1 1v2c1.66 0 3-1.34 3-3zm-1-12170c.55 0 1 .4 1 1h2c0-1.7-1.34-3-3-3zm-11073-2c-1.66 0-3 1.3-3 3h2c0-.6.45-1 1-1z"/><g clip-path="url(#a)"><path fill="#fff" d="M6-16800.5h3024v18846H6z"/><g clip-path="url(#b)"><path fill="url(#c)" d="M0 0h3024v10896H0z" transform="translate(6 -8850)"/><path fill="url(#d)" d="M0 0h3024v2208H0z" transform="matrix(1 0 0 -1 6 2046)"/><path stroke="#0DAEF1" stroke-width="8" d="m1096.55 1560-604.981 540m773.561-540-344.755 540m513.335-540-112.14 540m280.72-540 112.14 540m56.44-540 344.75 540m-176.16-540 604.98 540m485.56 0-921.97-540H927.97L6.003 2100M6 2100h3024M190.398 1992H2845.61M374.788 1884H2661.21M559.186 1776H2476.82M743.572 1668H2292.42" opacity=".5"/><g stroke-width="8" opacity=".5" style="mix-blend-mode:hard-light"><path stroke="url(#e)" d="M928 1560V194"/><path stroke="url(#f)" d="M1096.58 1560V194"/><path stroke="url(#g)" d="M1265.15 1560V194"/><path stroke="url(#h)" d="M1433.72 1560V194"/><path stroke="url(#i)" d="M1602.29 1560V194"/><path stroke="url(#j)" d="M1770.86 1560V194"/><path stroke="url(#k)" d="M1939.43 1560V194"/><path stroke="url(#l)" d="M2108 1560V194"/><path stroke="url(#m)" d="M928 467.199h1180"/><path stroke="url(#n)" d="M928 740.4h1180"/><path stroke="url(#o)" d="M928 1013.6h1180"/><path stroke="url(#p)" d="M928 1286.8h1180"/><path stroke="url(#q)" d="M928 1560h1180"/></g></g></g><defs><linearGradient id="c" x1="1512" x2="1512" y1="-1074.21" y2="4413.52" gradientUnits="userSpaceOnUse"><stop stop-color="#0796D3" stop-opacity=".19"/><stop offset="1" stop-color="#FFCDF7" stop-opacity=".1"/></linearGradient><linearGradient id="d" x1="1512" x2="1512" y1="0" y2="1847.72" gradientUnits="userSpaceOnUse"><stop stop-color="#FFCDF7"/><stop offset="1" stop-color="#BAE8FC" stop-opacity="0"/></linearGradient><linearGradient id="e" x1="928.5" x2="928.5" y1="1560" y2="194" gradientUnits="userSpaceOnUse"><stop stop-color="#0DAEF1"/><stop offset="1" stop-color="#07648B" stop-opacity="0"/></linearGradient><linearGradient id="f" x1="1097.08" x2="1097.08" y1="1560" y2="194" gradientUnits="userSpaceOnUse"><stop stop-color="#0DAEF1"/><stop offset="1" stop-color="#07648B" stop-opacity="0"/></linearGradient><linearGradient id="g" x1="1265.65" x2="1265.65" y1="1560" y2="194" gradientUnits="userSpaceOnUse"><stop stop-color="#0DAEF1"/><stop offset="1" stop-color="#07648B" stop-opacity="0"/></linearGradient><linearGradient id="h" x1="1434.22" x2="1434.22" y1="1560" y2="194" gradientUnits="userSpaceOnUse"><stop stop-color="#0DAEF1"/><stop offset="1" stop-color="#07648B" stop-opacity="0"/></linearGradient><linearGradient id="i" x1="1602.79" x2="1602.79" y1="1560" y2="194" gradientUnits="userSpaceOnUse"><stop stop-color="#0DAEF1"/><stop offset="1" stop-color="#07648B" stop-opacity="0"/></linearGradient><linearGradient id="j" x1="1771.36" x2="1771.36" y1="1560" y2="194" gradientUnits="userSpaceOnUse"><stop stop-color="#0DAEF1"/><stop offset="1" stop-color="#07648B" stop-opacity="0"/></linearGradient><linearGradient id="k" x1="1939.93" x2="1939.93" y1="1560" y2="194" gradientUnits="userSpaceOnUse"><stop stop-color="#0DAEF1"/><stop offset="1" stop-color="#07648B" stop-opacity="0"/></linearGradient><linearGradient id="l" x1="2108.5" x2="2108.5" y1="1560" y2="194" gradientUnits="userSpaceOnUse"><stop stop-color="#0DAEF1"/><stop offset="1" stop-color="#07648B" stop-opacity="0"/></linearGradient><linearGradient id="m" x1="1518" x2="1518" y1="467.199" y2="466.199" gradientUnits="userSpaceOnUse"><stop stop-color="#0DAEF1"/><stop offset="1" stop-color="#07648B" stop-opacity="0"/></linearGradient><linearGradient id="n" x1="1518" x2="1518" y1="740.4" y2="739.4" gradientUnits="userSpaceOnUse"><stop stop-color="#0DAEF1"/><stop offset="1" stop-color="#07648B" stop-opacity="0"/></linearGradient><linearGradient id="o" x1="1518" x2="1518" y1="1013.6" y2="1012.6" gradientUnits="userSpaceOnUse"><stop stop-color="#0DAEF1"/><stop offset="1" stop-color="#07648B" stop-opacity="0"/></linearGradient><linearGradient id="p" x1="1518" x2="1518" y1="1286.8" y2="1285.8" gradientUnits="userSpaceOnUse"><stop stop-color="#0DAEF1"/><stop offset="1" stop-color="#07648B" stop-opacity="0"/></linearGradient><linearGradient id="q" x1="1518" x2="1518" y1="1560" y2="1559" gradientUnits="userSpaceOnUse"><stop stop-color="#0DAEF1"/><stop offset="1" stop-color="#07648B" stop-opacity="0"/></linearGradient><clipPath id="a"><path fill="#fff" d="M6-16800.5h3024v18846H6z"/></clipPath><clipPath id="b"><path fill="#fff" d="M6-8850h3024V2046H6z"/></clipPath></defs></svg>