<svg xmlns="http://www.w3.org/2000/svg" width="3030" height="2922" fill="none" preserveAspectRatio="none"><path fill="#F5F5F5" d="M0 0h3030v2922H0z"/><path fill="#EBEBEA" d="M-7834-10289c0-1.1.9-2 2-2H3241c1.1 0 2 .9 2 2V1880c0 1.1-.9 2-2 2H-7832c-1.1 0-2-.9-2-2z"/><path fill="#000" fill-opacity=".1" d="M-7832-10290H3241v-2H-7832zm11074 1V1880h2v-12169zm-1 12170H-7832v2H3241zm-11074-1v-12169h-2V1880zm1 1c-.55 0-1-.45-1-1h-2c0 1.66 1.34 3 3 3zm11074-1c0 .55-.45 1-1 1v2c1.66 0 3-1.34 3-3zm-1-12170c.55 0 1 .4 1 1h2c0-1.7-1.34-3-3-3zm-11073-2c-1.66 0-3 1.3-3 3h2c0-.6.45-1 1-1z"/><g clip-path="url(#a)"><path fill="#fff" d="M6-13878.5h3024v18846H6z"/><g clip-path="url(#b)"><path fill="url(#c)" d="M0 0h3024v10896H0z" transform="translate(6 -5928)"/><path fill="url(#d)" d="M0 0h3024v2208H0z" transform="matrix(1 0 0 -1 6 4968)"/></g></g><defs><linearGradient id="c" x1="1512" x2="1512" y1="-1074.21" y2="4413.52" gradientUnits="userSpaceOnUse"><stop stop-color="#0796D3" stop-opacity=".19"/><stop offset="1" stop-color="#FFCDF7" stop-opacity=".1"/></linearGradient><linearGradient id="d" x1="1512" x2="1512" y1="0" y2="1847.72" gradientUnits="userSpaceOnUse"><stop stop-color="#FFCDF7"/><stop offset="1" stop-color="#BAE8FC" stop-opacity="0"/></linearGradient><clipPath id="a"><path fill="#fff" d="M6-13878.5h3024v18846H6z"/></clipPath><clipPath id="b"><path fill="#fff" d="M6-5928h3024V4968H6z"/></clipPath></defs></svg>