<svg xmlns="http://www.w3.org/2000/svg" width="393" height="66" fill="none" preserveAspectRatio="none"><path fill="#F5F5F5" d="M0 0h393v66H0z"/><g clip-path="url(#a)"><path fill="#fff" d="M0-5030h393V66H0z"/><g clip-path="url(#b)"><path fill="#fff" d="M0-5030h393V66H0z"/><path fill="url(#c)" d="M0 0h393v3081H0z" transform="translate(0 -2860)"/><path fill="url(#d)" d="M0 0h393v614H0z" transform="matrix(1 0 0 -1 0 66)"/><path stroke="#0DAEF1" stroke-width="1.04" d="M141.728 2.84 63.105 73.017M163.637 2.839l-44.805 70.179m66.713-70.179-14.574 70.179m36.484-70.179 14.574 70.179m7.334-70.179 44.804 70.179M251.273 2.839l78.623 70.179m63.104 0L273.181 2.839H119.819L0 73.018m0 0h392.999M23.964 58.982h345.072M47.928 44.946h297.144M71.892 30.911H321.11M95.855 16.875h201.289" opacity=".5"/><g stroke-width="1.04" opacity=".5" style="mix-blend-mode:hard-light"><path stroke="url(#e)" d="M119.824 2.84v-177.526"/><path stroke="url(#f)" d="M141.732 2.84v-177.526"/><path stroke="url(#g)" d="M163.641 2.84v-177.526"/><path stroke="url(#h)" d="M185.547 2.84v-177.526"/><path stroke="url(#i)" d="M207.455 2.84v-177.526"/><path stroke="url(#j)" d="M229.363 2.84v-177.526"/><path stroke="url(#k)" d="M251.27 2.84v-177.526"/><path stroke="url(#l)" d="M273.178 2.84v-177.526"/><path stroke="url(#m)" d="M119.824 2.84h153.353"/></g></g></g><defs><linearGradient id="c" x1="196.5" x2="196.5" y1="-303.747" y2="1247.99" gradientUnits="userSpaceOnUse"><stop stop-color="#0796D3" stop-opacity=".19"/><stop offset="1" stop-color="#FFCDF7" stop-opacity=".1"/></linearGradient><linearGradient id="d" x1="196.5" x2="196.5" y1="0" y2="513.814" gradientUnits="userSpaceOnUse"><stop stop-color="#FFCDF7"/><stop offset="1" stop-color="#BAE8FC" stop-opacity="0"/></linearGradient><linearGradient id="e" x1="120.324" x2="120.324" y1="2.839" y2="-174.686" gradientUnits="userSpaceOnUse"><stop stop-color="#0DAEF1"/><stop offset="1" stop-color="#07648B" stop-opacity="0"/></linearGradient><linearGradient id="f" x1="142.232" x2="142.232" y1="2.839" y2="-174.686" gradientUnits="userSpaceOnUse"><stop stop-color="#0DAEF1"/><stop offset="1" stop-color="#07648B" stop-opacity="0"/></linearGradient><linearGradient id="g" x1="164.141" x2="164.141" y1="2.839" y2="-174.686" gradientUnits="userSpaceOnUse"><stop stop-color="#0DAEF1"/><stop offset="1" stop-color="#07648B" stop-opacity="0"/></linearGradient><linearGradient id="h" x1="186.047" x2="186.047" y1="2.839" y2="-174.686" gradientUnits="userSpaceOnUse"><stop stop-color="#0DAEF1"/><stop offset="1" stop-color="#07648B" stop-opacity="0"/></linearGradient><linearGradient id="i" x1="207.955" x2="207.955" y1="2.839" y2="-174.686" gradientUnits="userSpaceOnUse"><stop stop-color="#0DAEF1"/><stop offset="1" stop-color="#07648B" stop-opacity="0"/></linearGradient><linearGradient id="j" x1="229.863" x2="229.863" y1="2.839" y2="-174.686" gradientUnits="userSpaceOnUse"><stop stop-color="#0DAEF1"/><stop offset="1" stop-color="#07648B" stop-opacity="0"/></linearGradient><linearGradient id="k" x1="251.77" x2="251.77" y1="2.839" y2="-174.686" gradientUnits="userSpaceOnUse"><stop stop-color="#0DAEF1"/><stop offset="1" stop-color="#07648B" stop-opacity="0"/></linearGradient><linearGradient id="l" x1="273.678" x2="273.678" y1="2.839" y2="-174.686" gradientUnits="userSpaceOnUse"><stop stop-color="#0DAEF1"/><stop offset="1" stop-color="#07648B" stop-opacity="0"/></linearGradient><linearGradient id="m" x1="196.501" x2="196.501" y1="2.839" y2="1.839" gradientUnits="userSpaceOnUse"><stop stop-color="#0DAEF1"/><stop offset="1" stop-color="#07648B" stop-opacity="0"/></linearGradient><clipPath id="a"><path fill="#fff" d="M0-5030h393V66H0z"/></clipPath><clipPath id="b"><path fill="#fff" d="M0-5030h393V66H0z"/></clipPath></defs></svg>