<svg width="393" height="66" preserveAspectRatio="none" viewBox="0 0 393 66" fill="none" xmlns="http://www.w3.org/2000/svg">
    <rect width="393" height="66" fill="#F5F5F5"/>
    <g clip-path="url(#clip0_757_144)">
        <rect width="393" height="5096" transform="translate(0 -5030)" fill="white"/>
        <g clip-path="url(#clip1_757_144)">
            <rect width="393" height="5096" transform="translate(0 -5030)" fill="white"/>
            <rect width="393" height="3081" transform="translate(0 -2860)" fill="url(#paint0_linear_757_144)"/>
            <rect width="393" height="614" transform="matrix(1 0 0 -1 0 66)" fill="url(#paint1_linear_757_144)"/>
            <path opacity="0.5" d="M141.728 2.83924L63.1047 73.0178M163.637 2.83924L118.832 73.0178M185.545 2.83924L170.971 73.0178M207.455 2.83924L222.029 73.0178M229.363 2.83924L274.167 73.0178M251.273 2.83924L329.896 73.0178M393 73.0178L273.181 2.83924H119.819L0.0004339 73.0178M0 73.0178H392.999M23.9644 58.9821H369.036M47.9278 44.9464H345.072M71.8922 30.9107H321.109M95.855 16.875H297.144" stroke="#0DAEF1" stroke-width="1.03968"/>
            <g style="mix-blend-mode:hard-light" opacity="0.5">
                <path d="M119.824 2.83936V-174.686" stroke="url(#paint2_linear_757_144)" stroke-width="1.03968"/>
                <path d="M141.732 2.83949V-174.686" stroke="url(#paint3_linear_757_144)" stroke-width="1.03968"/>
                <path d="M163.641 2.83949V-174.686" stroke="url(#paint4_linear_757_144)" stroke-width="1.03968"/>
                <path d="M185.547 2.83949V-174.686" stroke="url(#paint5_linear_757_144)" stroke-width="1.03968"/>
                <path d="M207.455 2.83949V-174.686" stroke="url(#paint6_linear_757_144)" stroke-width="1.03968"/>
                <path d="M229.363 2.83949V-174.686" stroke="url(#paint7_linear_757_144)" stroke-width="1.03968"/>
                <path d="M251.27 2.83949V-174.686" stroke="url(#paint8_linear_757_144)" stroke-width="1.03968"/>
                <path d="M273.178 2.83949V-174.686" stroke="url(#paint9_linear_757_144)" stroke-width="1.03968"/>
                <path d="M119.824 2.83936H273.177" stroke="url(#paint10_linear_757_144)" stroke-width="1.03968"/>
            </g>
        </g>
    </g>
    <defs>
        <linearGradient id="paint0_linear_757_144" x1="196.5" y1="-303.747" x2="196.5" y2="1247.99" gradientUnits="userSpaceOnUse">
            <stop stop-color="#0796D3" stop-opacity="0.19"/>
            <stop offset="1" stop-color="#FFCDF7" stop-opacity="0.1"/>
        </linearGradient>
        <linearGradient id="paint1_linear_757_144" x1="196.5" y1="0" x2="196.5" y2="513.814" gradientUnits="userSpaceOnUse">
            <stop stop-color="#FFCDF7"/>
            <stop offset="1" stop-color="#BAE8FC" stop-opacity="0"/>
        </linearGradient>
        <linearGradient id="paint2_linear_757_144" x1="120.324" y1="2.83936" x2="120.324" y2="-174.686" gradientUnits="userSpaceOnUse">
            <stop stop-color="#0DAEF1"/>
            <stop offset="1" stop-color="#07648B" stop-opacity="0"/>
        </linearGradient>
        <linearGradient id="paint3_linear_757_144" x1="142.232" y1="2.83949" x2="142.232" y2="-174.686" gradientUnits="userSpaceOnUse">
            <stop stop-color="#0DAEF1"/>
            <stop offset="1" stop-color="#07648B" stop-opacity="0"/>
        </linearGradient>
        <linearGradient id="paint4_linear_757_144" x1="164.141" y1="2.83949" x2="164.141" y2="-174.686" gradientUnits="userSpaceOnUse">
            <stop stop-color="#0DAEF1"/>
            <stop offset="1" stop-color="#07648B" stop-opacity="0"/>
        </linearGradient>
        <linearGradient id="paint5_linear_757_144" x1="186.047" y1="2.83949" x2="186.047" y2="-174.686" gradientUnits="userSpaceOnUse">
            <stop stop-color="#0DAEF1"/>
            <stop offset="1" stop-color="#07648B" stop-opacity="0"/>
        </linearGradient>
        <linearGradient id="paint6_linear_757_144" x1="207.955" y1="2.83949" x2="207.955" y2="-174.686" gradientUnits="userSpaceOnUse">
            <stop stop-color="#0DAEF1"/>
            <stop offset="1" stop-color="#07648B" stop-opacity="0"/>
        </linearGradient>
        <linearGradient id="paint7_linear_757_144" x1="229.863" y1="2.83949" x2="229.863" y2="-174.686" gradientUnits="userSpaceOnUse">
            <stop stop-color="#0DAEF1"/>
            <stop offset="1" stop-color="#07648B" stop-opacity="0"/>
        </linearGradient>
        <linearGradient id="paint8_linear_757_144" x1="251.77" y1="2.83949" x2="251.77" y2="-174.686" gradientUnits="userSpaceOnUse">
            <stop stop-color="#0DAEF1"/>
            <stop offset="1" stop-color="#07648B" stop-opacity="0"/>
        </linearGradient>
        <linearGradient id="paint9_linear_757_144" x1="273.678" y1="2.83949" x2="273.678" y2="-174.686" gradientUnits="userSpaceOnUse">
            <stop stop-color="#0DAEF1"/>
            <stop offset="1" stop-color="#07648B" stop-opacity="0"/>
        </linearGradient>
        <linearGradient id="paint10_linear_757_144" x1="196.501" y1="2.83936" x2="196.501" y2="1.83936" gradientUnits="userSpaceOnUse">
            <stop stop-color="#0DAEF1"/>
            <stop offset="1" stop-color="#07648B" stop-opacity="0"/>
        </linearGradient>
        <clipPath id="clip0_757_144">
            <rect width="393" height="5096" fill="white" transform="translate(0 -5030)"/>
        </clipPath>
        <clipPath id="clip1_757_144">
            <rect width="393" height="5096" fill="white" transform="translate(0 -5030)"/>
        </clipPath>
    </defs>
</svg>
