<svg xmlns="http://www.w3.org/2000/svg" width="3030" height="377" fill="none" preserveAspectRatio="none"><path fill="#F5F5F5" d="M0 0h3030v377H0z"/><path fill="#EBEBEA" d="M-7834-14877c0-1.1.9-2 2-2H3241c1.1 0 2 .9 2 2v12169c0 1.1-.9 2-2 2H-7832c-1.1 0-2-.9-2-2z"/><path fill="#000" fill-opacity=".1" d="M-7832-14878H3241v-2H-7832zm11074 1v12169h2v-12169zm-1 12170H-7832v2H3241zm-11074-1v-12169h-2v12169zm1 1c-.55 0-1-.45-1-1h-2c0 1.66 1.34 3 3 3zm11074-1c0 .55-.45 1-1 1v2c1.66 0 3-1.34 3-3zm-1-12170c.55 0 1 .4 1 1h2c0-1.7-1.34-3-3-3zm-11073-2c-1.66 0-3 1.3-3 3h2c0-.6.45-1 1-1z"/><g clip-path="url(#a)"><path fill="#fff" d="M6-18466.5h3024v18846H6z"/><g clip-path="url(#b)"><path fill="url(#c)" d="M0 0h3024v10896H0z" transform="translate(6 -10516)"/><path fill="url(#d)" d="M0 0h3024v2208H0z" transform="matrix(1 0 0 -1 6 380)"/><path stroke="#0DAEF1" stroke-width="8" d="M1096.55-106 491.569 434m773.561-540L920.375 434m513.335-540-112.14 540m280.72-540 112.14 540m56.44-540 344.75 540m-176.16-540 604.98 540m485.56 0-921.97-540H927.97L6.003 434M6 434h3024M190.398 326H2845.61M374.788 218H2661.21M559.186 110H2476.82M743.572 2H2292.42" opacity=".5"/></g></g><defs><linearGradient id="c" x1="1512" x2="1512" y1="-1074.21" y2="4413.52" gradientUnits="userSpaceOnUse"><stop stop-color="#0796D3" stop-opacity=".19"/><stop offset="1" stop-color="#FFCDF7" stop-opacity=".1"/></linearGradient><linearGradient id="d" x1="1512" x2="1512" y1="0" y2="1847.72" gradientUnits="userSpaceOnUse"><stop stop-color="#FFCDF7"/><stop offset="1" stop-color="#BAE8FC" stop-opacity="0"/></linearGradient><clipPath id="a"><path fill="#fff" d="M6-18466.5h3024v18846H6z"/></clipPath><clipPath id="b"><path fill="#fff" d="M6-10516h3024V380H6z"/></clipPath></defs></svg>