<svg xmlns="http://www.w3.org/2000/svg" width="1512" height="1152" fill="none" preserveAspectRatio="none"><g clip-path="url(#a)"><path fill="#fff" d="M0-2195h1512v9633H0z"/><path fill="url(#b)" d="M0 0h1512v2247H0z" transform="translate(0 -1091)"/><path fill="url(#c)" fill-rule="evenodd" d="M750.399-596.427 494.766 17.979l.923.384 254.526-611.744-120.08 651.207.983.181L751.352-594.03V69h1v-662.523L874.809 57.288l.983-.185-122.839-652.839 245.936 617.99.929-.369L753.68-596.613l.059.059 366.001 554.84.84-.551-363.321-550.769L1224.27-126.02l.71-.707-470.462-470.462-.679-1.029.131.024 560.73 359.185.54-.842-558.568-357.8 616.848 243.966.36-.93-612.461-242.234 647.851 117.018.17-.984-652.359-117.833H1420v-1H755.691L1410.9-711.536l-.17-.986-653.758 111.64 621.188-232.339-.35-.937L756.119-601.63l559.521-357.088-.54-.843-558.275 356.294 468.155-468.153-.71-.71-470.183 470.187L1123.8-1154.97l-.83-.56-367.72 550.048 254.04-610.568-.92-.39-255.466 613.994 120.665-654.384-.983-.18-120.234 652.043V-1268h-1v663.754L628.559-1256.84l-.982.19 122.48 650.934-244.604-614.644-.929.37 244.591 614.61-364.746-552.94-.835.56L750.34-601.707l-.946-.606-469.816-469.817-.707.71L745.46-604.833 189.411-961.021l-.539.842 558.566 357.801-616.845-243.967-.368.93 619.78 245.128.441.44L93.734-718.466l-.178.984L745.92-599.648H83v1h660.895L92.807-487.464l.168.986 653.754-111.64-621.19 232.339.35.937 621.698-232.529-559.521 357.089.538.843 561.033-358.054-470.766 470.766.707.707 468.028-468.029-367.7 550.02.832.556z" clip-rule="evenodd"/><g filter="url(#d)"><path fill="#0DAEF1" d="M1428.1 144.741c-34.19-70.7-83.69-91.3-150.22-87.74a4.97 4.97 0 0 0-4.2 2.813l-111.73 232.923c-1.74 3.617 1.31 8.024 5.32 8.043 13.89.066 42.42 2.819 80.41 20.11 54.73 24.909 69.1 54.441 69.1 54.441z"/><path fill="#0DAEF1" d="M1567.67 224.15c-27.03-46.002-62.82-76.524-146.66-64.172l-104.22 215.29s26.67-9.472 77.19 15.437c34.69 17.108 53.5 39.843 61.88 52.405 2.37 3.549 8.25 3.385 10.05-.482z"/><path fill="#F8F8F8" d="M1420.65 126.927c-29.82-63.85-74.02-81.392-133.92-76.853l-106.41 213.981s29.28-13.539 79.8 11.37 60.3 58.929 60.3 58.929z"/><path fill="#fff" d="M1575.55 194.405c-29.24-47.103-67.27-78.748-154.54-68.106l-100.73 208.058s30.8-13.101 84.1 13.194c53.29 26.295 64.26 60.904 64.26 60.904z"/><path fill="#F8F8F8" d="M1457.13 436.312s2.8-7.367 11.22-27.715-89.46-97.881-148.05-74.376c-1.38.553 0 33.68 0 33.68s27.02-12.279 75.08 9.472c48.06 21.752 61.75 58.939 61.75 58.939"/><path fill="#E2E2E2" d="M1320.3 367.901s.35-6.644.35-33.658-85.95-91.982-140.33-70.166c-1.38.554 0 29.799 0 29.799s27.01-8.398 75.08 13.353c48.06 21.752 64.9 60.672 64.9 60.672"/><path fill="#0DAEF1" d="M106.101 693.954c48.932-101.203 119.885-130.377 215.33-124.98a4.99 4.99 0 0 1 4.209 2.818l161.508 336.701c1.735 3.618-1.301 7.971-5.312 7.881-17.933-.402-60.501 2.18-118.607 28.626-78 35.5-98.482 77.59-98.482 77.59z"/><path fill="#0DAEF1" d="M-92.823 807.126c38.528-65.561 89.53-109.061 209.029-91.457L264.729 1022.5s-38.001-13.5-110.001 22c-53.286 26.27-80.281 61.86-90.714 78.58-2.258 3.62-8.06 3.46-9.86-.4z"/><path fill="#F8F8F8" d="M116.707 668.566c42.501-91 105.501-116 190.866-109.532L459.229 864s-41.732-19.295-113.732 16.205-85.945 83.985-85.945 83.985z"/><path fill="#fff" d="M-104.05 764.735c41.669-67.131 95.876-112.232 220.255-97.065l143.547 296.523s-43.892-18.671-119.848 18.805c-75.955 37.472-91.582 86.802-91.582 86.802z"/><path fill="#F8F8F8" d="M64.728 1109.5s-4-10.5-16-39.5 127.5-139.5 211-106c1.965.788 0 48 0 48s-38.5-17.5-107 13.5-88 84-88 84"/><path fill="#E2E2E2" d="M259.729 1012s-.5-9.47-.5-47.969 122.5-131.092 199.999-100c1.966.789 0 42.469 0 42.469s-38.499-11.968-106.999 19.032-92.5 86.468-92.5 86.468"/></g><path fill="#225C90" d="M0 1151h1512v856H0z"/></g><defs><radialGradient id="c" cx="0" cy="0" r="1" gradientTransform="rotate(26.256 1660.998 1311.366)scale(573.436)" gradientUnits="userSpaceOnUse"><stop stop-color="#fff"/><stop offset="1" stop-color="#fff" stop-opacity="0"/></radialGradient><linearGradient id="b" x1="756" x2="756" y1="0" y2="2187.92" gradientUnits="userSpaceOnUse"><stop stop-color="#225C90"/><stop offset=".453" stop-color="#BAE8FC" stop-opacity=".5"/></linearGradient><clipPath id="a"><path fill="#fff" d="M0-2195h1512v9633H0z"/></clipPath><filter id="d" width="1722.79" height="1128.69" x="-120.051" y="13" color-interpolation-filters="sRGB" filterUnits="userSpaceOnUse"><feFlood flood-opacity="0" result="BackgroundImageFix"/><feBlend in="SourceGraphic" in2="BackgroundImageFix" result="shape"/><feGaussianBlur result="effect1_foregroundBlur_1511_119" stdDeviation="8"/></filter></defs></svg>