<svg width="1512" height="1141" preserveAspectRatio="none" viewBox="0 0 1512 1141" fill="none"
     xmlns="http://www.w3.org/2000/svg">
    <path d="M-14079 -3100C-14079 -3101.1 -14078.1 -3102 -14077 -3102H2439C2440.11 -3102 2441 -3101.1 2441 -3100V9069C2441 9070.1 2440.11 9071 2439 9071H-14077C-14078.1 9071 -14079 9070.1 -14079 9069V-3100Z"
          fill="#EBEBEA"/>
    <path d="M-14077 -3101H2439V-3103H-14077V-3101ZM2440 -3100V9069H2442V-3100H2440ZM2439 9070H-14077V9072H2439V9070ZM-14078 9069V-3100H-14080V9069H-14078ZM-14077 9070C-14077.6 9070 -14078 9069.55 -14078 9069H-14080C-14080 9070.66 -14078.7 9072 -14077 9072V9070ZM2440 9069C2440 9069.55 2439.55 9070 2439 9070V9072C2440.66 9072 2442 9070.66 2442 9069H2440ZM2439 -3101C2439.55 -3101 2440 -3100.55 2440 -3100H2442C2442 -3101.66 2440.66 -3103 2439 -3103V-3101ZM-14077 -3103C-14078.7 -3103 -14080 -3101.66 -14080 -3100H-14078C-14078 -3100.55 -14077.6 -3101 -14077 -3101V-3103Z"
          fill="black" fill-opacity="0.1"/>
    <g clip-path="url(#clip0_483_81)">
        <rect width="1512" height="9423" transform="translate(0 -1978)" fill="white"/>
        <rect width="1512" height="2015" transform="translate(0 -874)" fill="url(#paint0_linear_483_81)"/>
        <g filter="url(#filter0_f_483_81)">
            <path d="M1428.1 129.741C1393.91 59.0408 1344.41 38.4403 1277.88 42C1276.08 42.0966 1274.46 43.1823 1273.68 44.8136L1161.95 277.736C1160.21 281.354 1163.26 285.761 1167.27 285.78C1181.16 285.846 1209.69 288.598 1247.68 305.89C1302.41 330.798 1316.78 360.331 1316.78 360.331L1428.1 129.741Z"
                  fill="#0DAEF1"/>
            <path d="M1567.67 209.15C1540.64 163.148 1504.85 132.626 1421.01 144.978L1316.79 360.268C1316.79 360.268 1343.46 350.796 1393.98 375.704C1428.67 392.813 1447.48 415.548 1455.86 428.11C1458.23 431.659 1464.11 431.495 1465.91 427.628L1567.67 209.15Z"
                  fill="#0DAEF1"/>
            <path d="M1420.65 111.927C1390.83 48.0766 1346.63 30.5354 1286.73 35.0737L1180.32 249.055C1180.32 249.055 1209.6 235.517 1260.12 260.425C1310.64 285.334 1320.43 319.354 1320.43 319.354L1420.65 111.927Z"
                  fill="#F8F8F8"/>
            <path d="M1575.55 179.405C1546.31 132.302 1508.28 100.657 1421.01 111.299L1320.28 319.357C1320.28 319.357 1351.08 306.256 1404.38 332.551C1457.67 358.846 1468.64 393.455 1468.64 393.455L1575.55 179.405Z"
                  fill="white"/>
            <path d="M1457.12 421.312C1457.12 421.312 1459.93 413.945 1468.35 393.597C1476.77 373.249 1378.89 295.716 1320.3 319.221C1318.92 319.774 1320.3 352.9 1320.3 352.9C1320.3 352.9 1347.32 340.622 1395.38 362.373C1443.44 384.124 1457.12 421.312 1457.12 421.312Z"
                  fill="#F8F8F8"/>
            <path d="M1320.3 352.901C1320.3 352.901 1320.65 346.257 1320.65 319.243C1320.65 292.229 1234.7 227.261 1180.32 249.077C1178.94 249.631 1180.32 278.876 1180.32 278.876C1180.32 278.876 1207.33 270.478 1255.4 292.229C1303.46 313.981 1320.3 352.901 1320.3 352.901Z"
                  fill="#E2E2E2"/>
            <path d="M106.1 678.954C155.032 577.751 225.985 548.577 321.43 553.974C323.237 554.076 324.856 555.161 325.639 556.792L487.147 893.493C488.882 897.111 485.846 901.464 481.835 901.374C463.902 900.972 421.334 903.554 363.228 930C285.228 965.5 264.746 1007.59 264.746 1007.59L106.1 678.954Z"
                  fill="#0DAEF1"/>
            <path d="M-92.8226 792.126C-54.295 726.565 -3.29362 683.065 116.206 700.669L264.729 1007.5C264.729 1007.5 226.728 994 154.728 1029.5C101.442 1055.77 74.447 1091.36 64.0137 1108.08C61.7557 1111.7 55.9543 1111.54 54.1532 1107.68L-92.8226 792.126Z"
                  fill="#0DAEF1"/>
            <path d="M116.706 653.566C159.207 562.566 222.207 537.566 307.572 544.034L459.228 849C459.228 849 417.496 829.705 345.496 865.205C273.496 900.705 259.551 949.19 259.551 949.19L116.706 653.566Z"
                  fill="#F8F8F8"/>
            <path d="M-104.05 749.735C-62.3812 682.604 -8.17413 637.503 116.205 652.67L259.752 949.193C259.752 949.193 215.859 930.522 139.904 967.998C63.9491 1005.47 48.322 1054.8 48.322 1054.8L-104.05 749.735Z"
                  fill="white"/>
            <path d="M64.7279 1094.5C64.7279 1094.5 60.7287 1084 48.7285 1055C36.7283 1026 176.228 915.5 259.728 949C261.693 949.788 259.728 997 259.728 997C259.728 997 221.228 979.5 152.728 1010.5C84.2277 1041.5 64.7279 1094.5 64.7279 1094.5Z"
                  fill="#F8F8F8"/>
            <path d="M259.729 997C259.729 997 259.229 987.532 259.229 949.031C259.229 910.531 381.729 817.939 459.228 849.031C461.194 849.82 459.228 891.5 459.228 891.5C459.228 891.5 420.729 879.532 352.229 910.532C283.729 941.532 259.729 997 259.729 997Z"
                  fill="#E2E2E2"/>
        </g>
        <g filter="url(#filter1_d_483_81)">
            <rect x="1238" y="1427.48" width="519.141" height="430.544" rx="15.8225"
                  transform="rotate(-75.4437 1238 1427.48)" fill="#BAE8FC"/>
            <rect x="1260.16" y="1411.62" width="476.884" height="388.284" rx="13.7128"
                  transform="rotate(-75.4437 1260.16 1411.62)" fill="url(#paint1_linear_483_81)"/>
            <rect x="1388.5" y="1152.96" width="113.82" height="250.775" rx="8.44806"
                  transform="rotate(-74.5781 1388.5 1152.96)" fill="white"/>
            <line x1="1449.81" y1="1084.02" x2="1595.96" y2="1127.07" stroke="#225C90" stroke-width="1.68961"/>
            <line x1="1439.06" y1="1108.82" x2="1585.21" y2="1151.88" stroke="#225C90" stroke-width="1.68961"/>
            <line x1="1428.32" y1="1133.63" x2="1574.47" y2="1176.68" stroke="#225C90" stroke-width="1.68961"/>
        </g>
    </g>
    <defs>
        <filter id="filter0_f_483_81" x="-120.051" y="-2" width="1722.79" height="1128.69" filterUnits="userSpaceOnUse"
                color-interpolation-filters="sRGB">
            <feFlood flood-opacity="0" result="BackgroundImageFix"/>
            <feBlend mode="normal" in="SourceGraphic" in2="BackgroundImageFix" result="shape"/>
            <feGaussianBlur stdDeviation="8" result="effect1_foregroundBlur_483_81"/>
        </filter>
        <filter id="filter1_d_483_81" x="1222" y="917" width="579.2" height="642.686" filterUnits="userSpaceOnUse"
                color-interpolation-filters="sRGB">
            <feFlood flood-opacity="0" result="BackgroundImageFix"/>
            <feColorMatrix in="SourceAlpha" type="matrix" values="0 0 0 0 0 0 0 0 0 0 0 0 0 0 0 0 0 0 127 0"
                           result="hardAlpha"/>
            <feOffset dy="8"/>
            <feGaussianBlur stdDeviation="8"/>
            <feComposite in2="hardAlpha" operator="out"/>
            <feColorMatrix type="matrix" values="0 0 0 0 0.0987707 0 0 0 0 0.102603 0 0 0 0 0.105378 0 0 0 0.1 0"/>
            <feBlend mode="normal" in2="BackgroundImageFix" result="effect1_dropShadow_483_81"/>
            <feBlend mode="normal" in="SourceGraphic" in2="effect1_dropShadow_483_81" result="shape"/>
        </filter>
        <linearGradient id="paint0_linear_483_81" x1="756" y1="0" x2="756" y2="1962.02" gradientUnits="userSpaceOnUse">
            <stop stop-color="#225C90"/>
            <stop offset="0.452804" stop-color="#BAE8FC" stop-opacity="0.5"/>
        </linearGradient>
        <linearGradient id="paint1_linear_483_81" x1="1737.05" y1="1605.76" x2="1204.94" y2="1360.68"
                        gradientUnits="userSpaceOnUse">
            <stop stop-color="#BAE8FC"/>
            <stop offset="1" stop-color="#FFCDF7"/>
        </linearGradient>
        <clipPath id="clip0_483_81">
            <rect width="1512" height="9423" fill="white" transform="translate(0 -1978)"/>
        </clipPath>
    </defs>
</svg>
