<svg xmlns="http://www.w3.org/2000/svg" width="393" height="540" fill="none" preserveAspectRatio="none"><path fill="#F5F5F5" d="M0 0h393v540H0z"/><g clip-path="url(#a)"><path fill="#fff" d="M0-228h393v887H0z"/><path fill="url(#b)" stroke="#fff" stroke-miterlimit="10" d="M89.5 167.5s-.825 5.55 46-26L690 524-77 681z"/><path fill="#A3C1F5" d="M-13 280.052H97.354a5.035 5.035 0 0 1 0 10.07H-13z"/><path fill="url(#c)" stroke="#fff" stroke-miterlimit="10" d="M73.609 273.319H11.22v6.515h62.388z"/><path fill="url(#d)" stroke="#fff" stroke-miterlimit="10" d="M30.186 254.354h24.466c10.463 0 18.965 8.494 18.965 18.965H11.221c0-10.463 8.493-18.965 18.965-18.965Z"/><path fill="url(#e)" stroke="#fff" stroke-miterlimit="10" d="m79.528 119.476-8.126-5.058c-4.947 6.46-9.902 12.921-14.85 19.381-7.853 10.254-14.764 19.826-17.084 32.28-3.273 17.557-1.785 34.8-1.785 52.457v37.391s4.14 3.686 9.877 0v-31.896c0-17.412-1.513-35.559.96-52.841 2.865-19.987 18.683-35.636 31.008-51.722z"/><path fill="url(#f)" stroke="#fff" stroke-miterlimit="10" d="M137.211 137.291s-12.254-24.61-43.43-38.808c-.43-.195-1.05-1.598-1.334-1.98-3.435-4.621-8.593-8.595-14.187-10.168-7.592-2.143-14.188 2.348-14.996 10.222-.509 4.974 1.145 10.021 3.415 14.378.577 1.107 2.868 3.673 2.873 4.807 0 0 .163 33.502 16.71 51.767l50.943-30.228z"/><path fill="url(#g)" stroke="#fff" stroke-miterlimit="10" d="M69.559 115.761s5.457-17.308 24.222-17.27c0 0-2.186-4.016-6.728-7.52 0 0-14.617-1.56-22.624 14.695 0 0 1.214 5.233 5.123 10.085z"/><path fill="#D3EDFD" stroke="#fff" stroke-miterlimit="10" d="M117.352 162.569c14.218-8.304 23.044-19.66 19.713-25.363s-17.557-3.594-31.775 4.711-23.045 19.66-19.714 25.363 17.558 3.594 31.776-4.711Z"/></g><defs><linearGradient id="b" x1="129" x2="243.819" y1="71" y2="609.956" gradientUnits="userSpaceOnUse"><stop stop-color="#fff"/><stop offset=".599" stop-color="#CDEEFC"/><stop offset="1" stop-color="#FFFCFF" stop-opacity="0"/></linearGradient><linearGradient id="c" x1="11.221" x2="156.409" y1="276.577" y2="279.78" gradientUnits="userSpaceOnUse"><stop stop-color="#FFCDF7"/><stop offset="1" stop-color="#0DAEF1"/></linearGradient><linearGradient id="d" x1="11.221" x2="133.957" y1="263.837" y2="247.939" gradientUnits="userSpaceOnUse"><stop stop-color="#FFCDF7"/><stop offset="1" stop-color="#0DAEF1"/></linearGradient><linearGradient id="e" x1="58.437" x2="113.691" y1="114.418" y2="134.603" gradientUnits="userSpaceOnUse"><stop stop-color="#FFCDF7"/><stop offset="1" stop-color="#0DAEF1"/></linearGradient><linearGradient id="f" x1="105.447" x2="156.447" y1="92.039" y2="217.118" gradientUnits="userSpaceOnUse"><stop stop-color="#FFCDF7"/><stop offset="1" stop-color="#0DAEF1"/></linearGradient><linearGradient id="g" x1="76.803" x2="75.933" y1="46.914" y2="117.106" gradientUnits="userSpaceOnUse"><stop stop-color="#0DAEF1"/><stop offset="1" stop-color="#FFCDF7"/></linearGradient><clipPath id="a"><path fill="#fff" d="M0-228h393v887H0z"/></clipPath></defs></svg>