<svg width="1509" height="947" viewBox="0 0 1509 947" preserveAspectRatio="none" fill="none" xmlns="http://www.w3.org/2000/svg">
    <path d="M-11032 -12913C-11032 -12914.1 -11031.1 -12915 -11030 -12915H-3163C-3161.9 -12915 -3161 -12914.1 -3161 -12913V-5718C-3161 -5716.9 -3161.9 -5716 -3163 -5716H-11030C-11031.1 -5716 -11032 -5716.9 -11032 -5718V-12913Z" fill="white"/>
    <path d="M-11030 -12914H-3163V-12916H-11030V-12914ZM-3162 -12913V-5718H-3160V-12913H-3162ZM-3163 -5717H-11030V-5715H-3163V-5717ZM-11031 -5718V-12913H-11033V-5718H-11031ZM-11030 -5717C-11030.6 -5717 -11031 -5717.45 -11031 -5718H-11033C-11033 -5716.34 -11031.7 -5715 -11030 -5715V-5717ZM-3162 -5718C-3162 -5717.45 -3162.45 -5717 -3163 -5717V-5715C-3161.34 -5715 -3160 -5716.34 -3160 -5718H-3162ZM-3163 -12914C-3162.45 -12914 -3162 -12913.6 -3162 -12913H-3160C-3160 -12914.7 -3161.34 -12916 -3163 -12916V-12914ZM-11030 -12916C-11031.7 -12916 -11033 -12914.7 -11033 -12913H-11031C-11031 -12913.6 -11030.6 -12914 -11030 -12914V-12916Z" fill="white" fill-opacity="0.1"/>
    <g clip-path="url(#clip0_1424_115)">
        <rect width="1512" height="9633" transform="translate(-3 -6434)" fill="white"/>
        <g clip-path="url(#clip1_1424_115)">
            <rect width="1512" height="5431" transform="translate(-3 -2232)" fill="url(#paint0_linear_1424_115)"/>
            <path d="M418.5 345C418.5 345 428.873 333.06 536.5 289L2231.5 936L296.5 1062L418.5 345Z" fill="url(#paint1_linear_1424_115)" stroke="white" stroke-miterlimit="10"/>
            <path d="M-12 910H402C407.523 910 412 914.477 412 920V937C412 942.523 407.523 947 402 947H-12V910Z" fill="#A3C1F5"/>
            <path d="M306.247 885.26H77V909.2H306.247V885.26Z" fill="url(#paint2_linear_1424_115)" stroke="white" stroke-miterlimit="10"/>
            <path d="M146.689 815.571H236.589C275.037 815.571 306.278 846.78 306.278 885.26H77C77 846.812 108.21 815.571 146.689 815.571Z" fill="url(#paint3_linear_1424_115)" stroke="white" stroke-miterlimit="10"/>
            <path d="M328 265.635L298.141 245C279.963 271.357 261.755 297.714 243.577 324.07C214.718 365.903 189.325 404.954 180.798 455.76C168.774 527.389 174.239 597.737 174.239 669.772V822.316C174.239 822.316 189.45 837.355 210.532 822.316V692.189C210.532 621.154 204.973 547.118 214.062 476.614C224.587 395.074 282.712 331.23 328 265.604V265.635Z" fill="url(#paint4_linear_1424_115)" stroke="white" stroke-miterlimit="10"/>
            <path d="M547.17 273.299C547.17 273.299 479.413 198.369 355.026 179.043C353.313 178.778 349.732 174.427 348.343 173.356C331.609 160.411 309.421 151.466 288.066 151.446C259.079 151.391 240.194 173.82 245.142 202.481C248.271 220.584 259.127 236.801 271.479 249.968C274.618 253.312 285.268 260.122 286.409 264.13C286.409 264.13 320.198 382.507 396.857 430.729L547.137 273.27L547.17 273.299Z" fill="url(#paint5_linear_1424_115)" stroke="white" stroke-miterlimit="10"/>
            <path d="M501.962 382.428C544.037 338.949 564.009 290.02 546.569 273.144C529.129 256.267 480.883 277.834 438.807 321.313C396.732 364.793 376.761 413.721 394.2 430.598C411.64 447.474 459.887 425.908 501.962 382.428Z" fill="#D3EDFD" stroke="white" stroke-miterlimit="10"/>
            <path d="M286.453 264.189C286.453 264.189 288.603 197.54 355.036 179.073C355.036 179.073 343.322 167.026 323.778 159.133C323.778 159.133 270.509 168.105 258.296 233.558C258.296 233.558 267.778 250.869 286.419 264.16L286.453 264.189Z" fill="url(#paint6_linear_1424_115)" stroke="white" stroke-miterlimit="10"/>
        </g>
    </g>
    <defs>
        <linearGradient id="paint0_linear_1424_115" x1="756" y1="-535.428" x2="756" y2="3762.22" gradientUnits="userSpaceOnUse">
            <stop stop-color="#0796D3" stop-opacity="0.25"/>
            <stop offset="0.475713" stop-color="#FFCDF7" stop-opacity="0.2"/>
            <stop offset="1" stop-color="white" stop-opacity="0.05"/>
        </linearGradient>
        <linearGradient id="paint1_linear_1424_115" x1="369" y1="215.5" x2="419.012" y2="1036.55" gradientUnits="userSpaceOnUse">
            <stop stop-color="white"/>
            <stop offset="0.598881" stop-color="#CDEEFC"/>
            <stop offset="1" stop-color="#FFFCFF" stop-opacity="0"/>
        </linearGradient>
        <linearGradient id="paint2_linear_1424_115" x1="77" y1="897.23" x2="610.5" y2="909" gradientUnits="userSpaceOnUse">
            <stop stop-color="#FFCDF7"/>
            <stop offset="1" stop-color="#0DAEF1"/>
        </linearGradient>
        <linearGradient id="paint3_linear_1424_115" x1="77" y1="850.415" x2="528" y2="792" gradientUnits="userSpaceOnUse">
            <stop stop-color="#FFCDF7"/>
            <stop offset="1" stop-color="#0DAEF1"/>
        </linearGradient>
        <linearGradient id="paint4_linear_1424_115" x1="250.5" y1="245" x2="458.148" y2="313.323" gradientUnits="userSpaceOnUse">
            <stop stop-color="#FFCDF7"/>
            <stop offset="1" stop-color="#0DAEF1"/>
        </linearGradient>
        <linearGradient id="paint5_linear_1424_115" x1="389.918" y1="144.675" x2="694.368" y2="536.678" gradientUnits="userSpaceOnUse">
            <stop stop-color="#FFCDF7"/>
            <stop offset="1" stop-color="#0DAEF1"/>
        </linearGradient>
        <linearGradient id="paint6_linear_1424_115" x1="243.833" y1="13.4104" x2="310.342" y2="262.63" gradientUnits="userSpaceOnUse">
            <stop stop-color="#0DAEF1"/>
            <stop offset="1" stop-color="#FFCDF7"/>
        </linearGradient>
        <clipPath id="clip0_1424_115">
            <rect width="1512" height="9633" fill="white" transform="translate(-3 -6434)"/>
        </clipPath>
        <clipPath id="clip1_1424_115">
            <rect width="1512" height="5431" fill="white" transform="translate(-3 -2232)"/>
        </clipPath>
    </defs>
</svg>
