<svg xmlns="http://www.w3.org/2000/svg" width="1509" height="947" fill="none" preserveAspectRatio="none"><path fill="#fff" d="M-11032-12913c0-1.1.9-2 2-2h7867c1.1 0 2 .9 2 2v7195c0 1.1-.9 2-2 2h-7867c-1.1 0-2-.9-2-2z"/><path fill="#fff" fill-opacity=".1" d="M-11030-12914h7867v-2h-7867zm7868 1v7195h2v-7195zm-1 7196h-7867v2h7867zm-7868-1v-7195h-2v7195zm1 1c-.6 0-1-.45-1-1h-2c0 1.66 1.3 3 3 3zm7868-1c0 .55-.45 1-1 1v2c1.66 0 3-1.34 3-3zm-1-7196c.55 0 1 .4 1 1h2c0-1.7-1.34-3-3-3zm-7867-2c-1.7 0-3 1.3-3 3h2c0-.6.4-1 1-1z"/><g clip-path="url(#a)"><path fill="#fff" d="M-3-6434h1512v9633H-3z"/><g clip-path="url(#b)"><path fill="url(#c)" d="M0 0h1512v5431H0z" transform="translate(-3 -2232)"/><path fill="url(#d)" stroke="#fff" stroke-miterlimit="10" d="M418.5 345s10.373-11.94 118-56l1695 647-1935 126z"/><path fill="#A3C1F5" d="M-12 910h414c5.523 0 10 4.477 10 10v17c0 5.523-4.477 10-10 10H-12z"/><path fill="url(#e)" stroke="#fff" stroke-miterlimit="10" d="M306.247 885.26H77v23.94h229.247z"/><path fill="url(#f)" stroke="#fff" stroke-miterlimit="10" d="M146.689 815.571h89.9c38.448 0 69.689 31.209 69.689 69.689H77c0-38.448 31.21-69.689 69.689-69.689Z"/><path fill="url(#g)" stroke="#fff" stroke-miterlimit="10" d="M328 265.635 298.141 245c-18.178 26.357-36.386 52.714-54.564 79.07-28.859 41.833-54.252 80.884-62.779 131.69-12.024 71.629-6.559 141.977-6.559 214.012v152.544s15.211 15.039 36.293 0V692.189c0-71.035-5.559-145.071 3.53-215.575 10.525-81.54 68.65-145.384 113.938-211.01z"/><path fill="url(#h)" stroke="#fff" stroke-miterlimit="10" d="M547.17 273.299s-67.757-74.93-192.144-94.256c-1.713-.265-5.294-4.616-6.683-5.687-16.734-12.945-38.922-21.89-60.277-21.91-28.987-.055-47.872 22.374-42.924 51.035 3.129 18.103 13.985 34.32 26.337 47.487 3.139 3.344 13.789 10.154 14.93 14.162 0 0 33.789 118.377 110.448 166.599l150.28-157.459z"/><path fill="#D3EDFD" stroke="#fff" stroke-miterlimit="10" d="M501.962 382.428c42.075-43.479 62.047-92.408 44.607-109.284s-65.686 4.69-107.762 48.169-62.046 92.408-44.607 109.285c17.44 16.876 65.687-4.69 107.762-48.17Z"/><path fill="url(#i)" stroke="#fff" stroke-miterlimit="10" d="M286.453 264.189s2.15-66.649 68.583-85.116c0 0-11.714-12.047-31.258-19.94 0 0-53.269 8.972-65.482 74.425 0 0 9.482 17.311 28.123 30.602z"/></g></g><defs><linearGradient id="c" x1="756" x2="756" y1="-535.428" y2="3762.22" gradientUnits="userSpaceOnUse"><stop stop-color="#0796D3" stop-opacity=".25"/><stop offset=".476" stop-color="#FFCDF7" stop-opacity=".2"/><stop offset="1" stop-color="#fff" stop-opacity=".05"/></linearGradient><linearGradient id="d" x1="369" x2="419.012" y1="215.5" y2="1036.55" gradientUnits="userSpaceOnUse"><stop stop-color="#fff"/><stop offset=".599" stop-color="#CDEEFC"/><stop offset="1" stop-color="#FFFCFF" stop-opacity="0"/></linearGradient><linearGradient id="e" x1="77" x2="610.5" y1="897.23" y2="909" gradientUnits="userSpaceOnUse"><stop stop-color="#FFCDF7"/><stop offset="1" stop-color="#0DAEF1"/></linearGradient><linearGradient id="f" x1="77" x2="528" y1="850.415" y2="792" gradientUnits="userSpaceOnUse"><stop stop-color="#FFCDF7"/><stop offset="1" stop-color="#0DAEF1"/></linearGradient><linearGradient id="g" x1="250.5" x2="458.148" y1="245" y2="313.323" gradientUnits="userSpaceOnUse"><stop stop-color="#FFCDF7"/><stop offset="1" stop-color="#0DAEF1"/></linearGradient><linearGradient id="h" x1="389.918" x2="694.368" y1="144.675" y2="536.678" gradientUnits="userSpaceOnUse"><stop stop-color="#FFCDF7"/><stop offset="1" stop-color="#0DAEF1"/></linearGradient><linearGradient id="i" x1="243.833" x2="310.342" y1="13.41" y2="262.63" gradientUnits="userSpaceOnUse"><stop stop-color="#0DAEF1"/><stop offset="1" stop-color="#FFCDF7"/></linearGradient><clipPath id="a"><path fill="#fff" d="M-3-6434h1512v9633H-3z"/></clipPath><clipPath id="b"><path fill="#fff" d="M-3-2232h1512v5431H-3z"/></clipPath></defs></svg>