<svg width="1508" height="1827" preserveAspectRatio="none" viewBox="0 0 1508 1827" fill="none"
     xmlns="http://www.w3.org/2000/svg">
    <path d="M-14079 -5098C-14079 -5099.1 -14078.1 -5100 -14077 -5100H2439C2440.11 -5100 2441 -5099.1 2441 -5098V7071C2441 7072.1 2440.11 7073 2439 7073H-14077C-14078.1 7073 -14079 7072.1 -14079 7071V-5098Z"
          fill="#EBEBEA"/>
    <path d="M-14077 -5099H2439V-5101H-14077V-5099ZM2440 -5098V7071H2442V-5098H2440ZM2439 7072H-14077V7074H2439V7072ZM-14078 7071V-5098H-14080V7071H-14078ZM-14077 7072C-14077.6 7072 -14078 7071.55 -14078 7071H-14080C-14080 7072.66 -14078.7 7074 -14077 7074V7072ZM2440 7071C2440 7071.55 2439.55 7072 2439 7072V7074C2440.66 7074 2442 7072.66 2442 7071H2440ZM2439 -5099C2439.55 -5099 2440 -5098.55 2440 -5098H2442C2442 -5099.66 2440.66 -5101 2439 -5101V-5099ZM-14077 -5101C-14078.7 -5101 -14080 -5099.66 -14080 -5098H-14078C-14078 -5098.55 -14077.6 -5099 -14077 -5099V-5101Z"
          fill="black" fill-opacity="0.1"/>
    <g clip-path="url(#clip0_483_81)">
        <rect width="1512" height="9423" transform="translate(0 -3976)" fill="white"/>
        <g clip-path="url(#clip1_483_81)">
            <rect width="1512" height="5448" transform="translate(0 -1)" fill="url(#paint0_linear_483_81)"/>
            <g style="mix-blend-mode:hard-light" opacity="0.5">
                <path d="M80 -26V1587" stroke="#225C90"/>
                <path d="M170.137 -26V1587" stroke="#225C90"/>
                <path d="M260.27 -26V1587" stroke="#225C90"/>
                <path d="M350.402 -26V1587" stroke="#225C90"/>
                <path d="M440.539 -26V1587" stroke="#225C90"/>
                <path d="M530.668 -26V1587" stroke="#225C90"/>
                <path d="M620.801 -26V1587" stroke="#225C90"/>
                <path d="M710.938 -26V1587" stroke="#225C90"/>
                <path d="M801.07 -26V1587" stroke="#225C90"/>
                <path d="M891.199 -26V1587" stroke="#225C90"/>
                <path d="M981.34 -26V1587" stroke="#225C90"/>
                <path d="M1071.47 -26V1587" stroke="#225C90"/>
                <path d="M1161.6 -26V1587" stroke="#225C90"/>
                <path d="M1251.74 -26V1587" stroke="#225C90"/>
                <path d="M1341.87 -26V1587" stroke="#225C90"/>
                <path d="M1432 -26V1587" stroke="#225C90"/>
                <path d="M80 1587H1432" stroke="#225C90"/>
                <path d="M80 1440.36H1432" stroke="#225C90"/>
                <path d="M80 1293.73H1432" stroke="#225C90"/>
                <path d="M80 1147.09H1432" stroke="#225C90"/>
                <path d="M80 1000.45H1432" stroke="#225C90"/>
                <path d="M80 853.818H1432" stroke="#225C90"/>
                <path d="M80 707.181H1432" stroke="#225C90"/>
                <path d="M80 560.543H1432" stroke="#225C90"/>
                <path d="M80 413.909H1432" stroke="#225C90"/>
                <path d="M80 267.272H1432" stroke="#225C90"/>
                <path d="M80 120.635H1432" stroke="#225C90"/>
            </g>
            <g style="mix-blend-mode:soft-light" filter="url(#filter0_f_483_81)">
                <path d="M1002.23 1424.61C1002.23 1427.16 1000.16 1429.23 997.613 1429.23C995.065 1429.23 993 1427.16 993 1424.61C993 1422.07 995.065 1420 997.613 1420C1000.16 1420 1002.23 1422.07 1002.23 1424.61Z"
                      fill="#92DDDA" fill-opacity="0.7"/>
                <path d="M1029.9 1424.61C1029.9 1427.16 1027.84 1429.23 1025.29 1429.23C1022.74 1429.23 1020.68 1427.16 1020.68 1424.61C1020.68 1422.07 1022.74 1420 1025.29 1420C1027.84 1420 1029.9 1422.07 1029.9 1424.61Z"
                      fill="#92DDDA" fill-opacity="0.7"/>
                <path d="M1057.58 1424.61C1057.58 1427.16 1055.52 1429.23 1052.97 1429.23C1050.42 1429.23 1048.35 1427.16 1048.35 1424.61C1048.35 1422.07 1050.42 1420 1052.97 1420C1055.52 1420 1057.58 1422.07 1057.58 1424.61Z"
                      fill="#92DDDA" fill-opacity="0.7"/>
                <path d="M1085.26 1424.61C1085.26 1427.16 1083.19 1429.23 1080.65 1429.23C1078.1 1429.23 1076.03 1427.16 1076.03 1424.61C1076.03 1422.07 1078.1 1420 1080.65 1420C1083.19 1420 1085.26 1422.07 1085.26 1424.61Z"
                      fill="#92DDDA" fill-opacity="0.7"/>
                <path d="M1112.94 1424.61C1112.94 1427.16 1110.87 1429.23 1108.32 1429.23C1105.77 1429.23 1103.71 1427.16 1103.71 1424.61C1103.71 1422.07 1105.77 1420 1108.32 1420C1110.87 1420 1112.94 1422.07 1112.94 1424.61Z"
                      fill="#92DDDA" fill-opacity="0.7"/>
                <path d="M1140.61 1424.61C1140.61 1427.16 1138.55 1429.23 1136 1429.23C1133.45 1429.23 1131.39 1427.16 1131.39 1424.61C1131.39 1422.07 1133.45 1420 1136 1420C1138.55 1420 1140.61 1422.07 1140.61 1424.61Z"
                      fill="#92DDDA" fill-opacity="0.7"/>
                <path d="M1168.29 1424.61C1168.29 1427.16 1166.23 1429.23 1163.68 1429.23C1161.13 1429.23 1159.06 1427.16 1159.06 1424.61C1159.06 1422.07 1161.13 1420 1163.68 1420C1166.23 1420 1168.29 1422.07 1168.29 1424.61Z"
                      fill="#92DDDA" fill-opacity="0.7"/>
                <path d="M1195.97 1424.61C1195.97 1427.16 1193.9 1429.23 1191.35 1429.23C1188.81 1429.23 1186.74 1427.16 1186.74 1424.61C1186.74 1422.07 1188.81 1420 1191.35 1420C1193.9 1420 1195.97 1422.07 1195.97 1424.61Z"
                      fill="#92DDDA" fill-opacity="0.7"/>
                <path d="M1223.65 1424.61C1223.65 1427.16 1221.58 1429.23 1219.03 1429.23C1216.48 1429.23 1214.42 1427.16 1214.42 1424.61C1214.42 1422.07 1216.48 1420 1219.03 1420C1221.58 1420 1223.65 1422.07 1223.65 1424.61Z"
                      fill="#92DDDA" fill-opacity="0.7"/>
                <path d="M1251.32 1424.61C1251.32 1427.16 1249.26 1429.23 1246.71 1429.23C1244.16 1429.23 1242.1 1427.16 1242.1 1424.61C1242.1 1422.07 1244.16 1420 1246.71 1420C1249.26 1420 1251.32 1422.07 1251.32 1424.61Z"
                      fill="#92DDDA" fill-opacity="0.7"/>
                <path d="M1279 1424.61C1279 1427.16 1276.93 1429.23 1274.39 1429.23C1271.84 1429.23 1269.77 1427.16 1269.77 1424.61C1269.77 1422.07 1271.84 1420 1274.39 1420C1276.93 1420 1279 1422.07 1279 1424.61Z"
                      fill="#92DDDA" fill-opacity="0.7"/>
                <path d="M1002.23 1452.29C1002.23 1454.84 1000.16 1456.9 997.613 1456.9C995.065 1456.9 993 1454.84 993 1452.29C993 1449.74 995.065 1447.68 997.613 1447.68C1000.16 1447.68 1002.23 1449.74 1002.23 1452.29Z"
                      fill="#92DDDA" fill-opacity="0.7"/>
                <path d="M1029.9 1452.29C1029.9 1454.84 1027.84 1456.9 1025.29 1456.9C1022.74 1456.9 1020.68 1454.84 1020.68 1452.29C1020.68 1449.74 1022.74 1447.68 1025.29 1447.68C1027.84 1447.68 1029.9 1449.74 1029.9 1452.29Z"
                      fill="#92DDDA" fill-opacity="0.7"/>
                <path d="M1057.58 1452.29C1057.58 1454.84 1055.52 1456.9 1052.97 1456.9C1050.42 1456.9 1048.35 1454.84 1048.35 1452.29C1048.35 1449.74 1050.42 1447.68 1052.97 1447.68C1055.52 1447.68 1057.58 1449.74 1057.58 1452.29Z"
                      fill="#92DDDA" fill-opacity="0.7"/>
                <path d="M1085.26 1452.29C1085.26 1454.84 1083.19 1456.9 1080.65 1456.9C1078.1 1456.9 1076.03 1454.84 1076.03 1452.29C1076.03 1449.74 1078.1 1447.68 1080.65 1447.68C1083.19 1447.68 1085.26 1449.74 1085.26 1452.29Z"
                      fill="#92DDDA" fill-opacity="0.7"/>
                <path d="M1112.94 1452.29C1112.94 1454.84 1110.87 1456.9 1108.32 1456.9C1105.77 1456.9 1103.71 1454.84 1103.71 1452.29C1103.71 1449.74 1105.77 1447.68 1108.32 1447.68C1110.87 1447.68 1112.94 1449.74 1112.94 1452.29Z"
                      fill="#92DDDA" fill-opacity="0.7"/>
                <path d="M1140.61 1452.29C1140.61 1454.84 1138.55 1456.9 1136 1456.9C1133.45 1456.9 1131.39 1454.84 1131.39 1452.29C1131.39 1449.74 1133.45 1447.68 1136 1447.68C1138.55 1447.68 1140.61 1449.74 1140.61 1452.29Z"
                      fill="#92DDDA" fill-opacity="0.7"/>
                <path d="M1168.29 1452.29C1168.29 1454.84 1166.23 1456.9 1163.68 1456.9C1161.13 1456.9 1159.06 1454.84 1159.06 1452.29C1159.06 1449.74 1161.13 1447.68 1163.68 1447.68C1166.23 1447.68 1168.29 1449.74 1168.29 1452.29Z"
                      fill="#92DDDA" fill-opacity="0.7"/>
                <path d="M1195.97 1452.29C1195.97 1454.84 1193.9 1456.9 1191.35 1456.9C1188.81 1456.9 1186.74 1454.84 1186.74 1452.29C1186.74 1449.74 1188.81 1447.68 1191.35 1447.68C1193.9 1447.68 1195.97 1449.74 1195.97 1452.29Z"
                      fill="#92DDDA" fill-opacity="0.7"/>
                <path d="M1223.65 1452.29C1223.65 1454.84 1221.58 1456.9 1219.03 1456.9C1216.48 1456.9 1214.42 1454.84 1214.42 1452.29C1214.42 1449.74 1216.48 1447.68 1219.03 1447.68C1221.58 1447.68 1223.65 1449.74 1223.65 1452.29Z"
                      fill="#92DDDA" fill-opacity="0.7"/>
                <path d="M1251.32 1452.29C1251.32 1454.84 1249.26 1456.9 1246.71 1456.9C1244.16 1456.9 1242.1 1454.84 1242.1 1452.29C1242.1 1449.74 1244.16 1447.68 1246.71 1447.68C1249.26 1447.68 1251.32 1449.74 1251.32 1452.29Z"
                      fill="#92DDDA" fill-opacity="0.7"/>
                <path d="M1279 1452.29C1279 1454.84 1276.93 1456.9 1274.39 1456.9C1271.84 1456.9 1269.77 1454.84 1269.77 1452.29C1269.77 1449.74 1271.84 1447.68 1274.39 1447.68C1276.93 1447.68 1279 1449.74 1279 1452.29Z"
                      fill="#92DDDA" fill-opacity="0.7"/>
                <path d="M1002.23 1479.97C1002.23 1482.52 1000.16 1484.58 997.613 1484.58C995.065 1484.58 993 1482.52 993 1479.97C993 1477.42 995.065 1475.35 997.613 1475.35C1000.16 1475.35 1002.23 1477.42 1002.23 1479.97Z"
                      fill="#92DDDA" fill-opacity="0.7"/>
                <path d="M1029.9 1479.97C1029.9 1482.52 1027.84 1484.58 1025.29 1484.58C1022.74 1484.58 1020.68 1482.52 1020.68 1479.97C1020.68 1477.42 1022.74 1475.35 1025.29 1475.35C1027.84 1475.35 1029.9 1477.42 1029.9 1479.97Z"
                      fill="#92DDDA" fill-opacity="0.7"/>
                <path d="M1057.58 1479.97C1057.58 1482.52 1055.52 1484.58 1052.97 1484.58C1050.42 1484.58 1048.35 1482.52 1048.35 1479.97C1048.35 1477.42 1050.42 1475.35 1052.97 1475.35C1055.52 1475.35 1057.58 1477.42 1057.58 1479.97Z"
                      fill="#92DDDA" fill-opacity="0.7"/>
                <path d="M1085.26 1479.97C1085.26 1482.52 1083.19 1484.58 1080.65 1484.58C1078.1 1484.58 1076.03 1482.52 1076.03 1479.97C1076.03 1477.42 1078.1 1475.35 1080.65 1475.35C1083.19 1475.35 1085.26 1477.42 1085.26 1479.97Z"
                      fill="#92DDDA" fill-opacity="0.7"/>
                <path d="M1112.94 1479.97C1112.94 1482.52 1110.87 1484.58 1108.32 1484.58C1105.77 1484.58 1103.71 1482.52 1103.71 1479.97C1103.71 1477.42 1105.77 1475.35 1108.32 1475.35C1110.87 1475.35 1112.94 1477.42 1112.94 1479.97Z"
                      fill="#92DDDA" fill-opacity="0.7"/>
                <path d="M1140.61 1479.97C1140.61 1482.52 1138.55 1484.58 1136 1484.58C1133.45 1484.58 1131.39 1482.52 1131.39 1479.97C1131.39 1477.42 1133.45 1475.35 1136 1475.35C1138.55 1475.35 1140.61 1477.42 1140.61 1479.97Z"
                      fill="#92DDDA" fill-opacity="0.7"/>
                <path d="M1168.29 1479.97C1168.29 1482.52 1166.23 1484.58 1163.68 1484.58C1161.13 1484.58 1159.06 1482.52 1159.06 1479.97C1159.06 1477.42 1161.13 1475.35 1163.68 1475.35C1166.23 1475.35 1168.29 1477.42 1168.29 1479.97Z"
                      fill="#92DDDA" fill-opacity="0.7"/>
                <path d="M1195.97 1479.97C1195.97 1482.52 1193.9 1484.58 1191.35 1484.58C1188.81 1484.58 1186.74 1482.52 1186.74 1479.97C1186.74 1477.42 1188.81 1475.35 1191.35 1475.35C1193.9 1475.35 1195.97 1477.42 1195.97 1479.97Z"
                      fill="#92DDDA" fill-opacity="0.7"/>
                <path d="M1223.65 1479.97C1223.65 1482.52 1221.58 1484.58 1219.03 1484.58C1216.48 1484.58 1214.42 1482.52 1214.42 1479.97C1214.42 1477.42 1216.48 1475.35 1219.03 1475.35C1221.58 1475.35 1223.65 1477.42 1223.65 1479.97Z"
                      fill="#92DDDA" fill-opacity="0.7"/>
                <path d="M1251.32 1479.97C1251.32 1482.52 1249.26 1484.58 1246.71 1484.58C1244.16 1484.58 1242.1 1482.52 1242.1 1479.97C1242.1 1477.42 1244.16 1475.35 1246.71 1475.35C1249.26 1475.35 1251.32 1477.42 1251.32 1479.97Z"
                      fill="#92DDDA" fill-opacity="0.7"/>
                <path d="M1279 1479.97C1279 1482.52 1276.93 1484.58 1274.39 1484.58C1271.84 1484.58 1269.77 1482.52 1269.77 1479.97C1269.77 1477.42 1271.84 1475.35 1274.39 1475.35C1276.93 1475.35 1279 1477.42 1279 1479.97Z"
                      fill="#92DDDA" fill-opacity="0.7"/>
                <path d="M1002.23 1507.65C1002.23 1510.19 1000.16 1512.26 997.613 1512.26C995.065 1512.26 993 1510.19 993 1507.65C993 1505.1 995.065 1503.03 997.613 1503.03C1000.16 1503.03 1002.23 1505.1 1002.23 1507.65Z"
                      fill="#92DDDA" fill-opacity="0.7"/>
                <path d="M1029.9 1507.65C1029.9 1510.19 1027.84 1512.26 1025.29 1512.26C1022.74 1512.26 1020.68 1510.19 1020.68 1507.65C1020.68 1505.1 1022.74 1503.03 1025.29 1503.03C1027.84 1503.03 1029.9 1505.1 1029.9 1507.65Z"
                      fill="#92DDDA" fill-opacity="0.7"/>
                <path d="M1057.58 1507.65C1057.58 1510.19 1055.52 1512.26 1052.97 1512.26C1050.42 1512.26 1048.35 1510.19 1048.35 1507.65C1048.35 1505.1 1050.42 1503.03 1052.97 1503.03C1055.52 1503.03 1057.58 1505.1 1057.58 1507.65Z"
                      fill="#92DDDA" fill-opacity="0.7"/>
                <path d="M1085.26 1507.65C1085.26 1510.19 1083.19 1512.26 1080.65 1512.26C1078.1 1512.26 1076.03 1510.19 1076.03 1507.65C1076.03 1505.1 1078.1 1503.03 1080.65 1503.03C1083.19 1503.03 1085.26 1505.1 1085.26 1507.65Z"
                      fill="#92DDDA" fill-opacity="0.7"/>
                <path d="M1112.94 1507.65C1112.94 1510.19 1110.87 1512.26 1108.32 1512.26C1105.77 1512.26 1103.71 1510.19 1103.71 1507.65C1103.71 1505.1 1105.77 1503.03 1108.32 1503.03C1110.87 1503.03 1112.94 1505.1 1112.94 1507.65Z"
                      fill="#92DDDA" fill-opacity="0.7"/>
                <path d="M1140.61 1507.65C1140.61 1510.19 1138.55 1512.26 1136 1512.26C1133.45 1512.26 1131.39 1510.19 1131.39 1507.65C1131.39 1505.1 1133.45 1503.03 1136 1503.03C1138.55 1503.03 1140.61 1505.1 1140.61 1507.65Z"
                      fill="#92DDDA" fill-opacity="0.7"/>
                <path d="M1168.29 1507.65C1168.29 1510.19 1166.23 1512.26 1163.68 1512.26C1161.13 1512.26 1159.06 1510.19 1159.06 1507.65C1159.06 1505.1 1161.13 1503.03 1163.68 1503.03C1166.23 1503.03 1168.29 1505.1 1168.29 1507.65Z"
                      fill="#92DDDA" fill-opacity="0.7"/>
                <path d="M1195.97 1507.65C1195.97 1510.19 1193.9 1512.26 1191.35 1512.26C1188.81 1512.26 1186.74 1510.19 1186.74 1507.65C1186.74 1505.1 1188.81 1503.03 1191.35 1503.03C1193.9 1503.03 1195.97 1505.1 1195.97 1507.65Z"
                      fill="#92DDDA" fill-opacity="0.7"/>
                <path d="M1223.65 1507.65C1223.65 1510.19 1221.58 1512.26 1219.03 1512.26C1216.48 1512.26 1214.42 1510.19 1214.42 1507.65C1214.42 1505.1 1216.48 1503.03 1219.03 1503.03C1221.58 1503.03 1223.65 1505.1 1223.65 1507.65Z"
                      fill="#92DDDA" fill-opacity="0.7"/>
                <path d="M1251.32 1507.65C1251.32 1510.19 1249.26 1512.26 1246.71 1512.26C1244.16 1512.26 1242.1 1510.19 1242.1 1507.65C1242.1 1505.1 1244.16 1503.03 1246.71 1503.03C1249.26 1503.03 1251.32 1505.1 1251.32 1507.65Z"
                      fill="#92DDDA" fill-opacity="0.7"/>
                <path d="M1279 1507.65C1279 1510.19 1276.93 1512.26 1274.39 1512.26C1271.84 1512.26 1269.77 1510.19 1269.77 1507.65C1269.77 1505.1 1271.84 1503.03 1274.39 1503.03C1276.93 1503.03 1279 1505.1 1279 1507.65Z"
                      fill="#92DDDA" fill-opacity="0.7"/>
                <path d="M1002.23 1535.32C1002.23 1537.87 1000.16 1539.94 997.613 1539.94C995.065 1539.94 993 1537.87 993 1535.32C993 1532.77 995.065 1530.71 997.613 1530.71C1000.16 1530.71 1002.23 1532.77 1002.23 1535.32Z"
                      fill="#92DDDA" fill-opacity="0.7"/>
                <path d="M1029.9 1535.32C1029.9 1537.87 1027.84 1539.94 1025.29 1539.94C1022.74 1539.94 1020.68 1537.87 1020.68 1535.32C1020.68 1532.77 1022.74 1530.71 1025.29 1530.71C1027.84 1530.71 1029.9 1532.77 1029.9 1535.32Z"
                      fill="#92DDDA" fill-opacity="0.7"/>
                <path d="M1057.58 1535.32C1057.58 1537.87 1055.52 1539.94 1052.97 1539.94C1050.42 1539.94 1048.35 1537.87 1048.35 1535.32C1048.35 1532.77 1050.42 1530.71 1052.97 1530.71C1055.52 1530.71 1057.58 1532.77 1057.58 1535.32Z"
                      fill="#92DDDA" fill-opacity="0.7"/>
                <path d="M1085.26 1535.32C1085.26 1537.87 1083.19 1539.94 1080.65 1539.94C1078.1 1539.94 1076.03 1537.87 1076.03 1535.32C1076.03 1532.77 1078.1 1530.71 1080.65 1530.71C1083.19 1530.71 1085.26 1532.77 1085.26 1535.32Z"
                      fill="#92DDDA" fill-opacity="0.7"/>
                <path d="M1112.94 1535.32C1112.94 1537.87 1110.87 1539.94 1108.32 1539.94C1105.77 1539.94 1103.71 1537.87 1103.71 1535.32C1103.71 1532.77 1105.77 1530.71 1108.32 1530.71C1110.87 1530.71 1112.94 1532.77 1112.94 1535.32Z"
                      fill="#92DDDA" fill-opacity="0.7"/>
                <path d="M1140.61 1535.32C1140.61 1537.87 1138.55 1539.94 1136 1539.94C1133.45 1539.94 1131.39 1537.87 1131.39 1535.32C1131.39 1532.77 1133.45 1530.71 1136 1530.71C1138.55 1530.71 1140.61 1532.77 1140.61 1535.32Z"
                      fill="#92DDDA" fill-opacity="0.7"/>
                <path d="M1168.29 1535.32C1168.29 1537.87 1166.23 1539.94 1163.68 1539.94C1161.13 1539.94 1159.06 1537.87 1159.06 1535.32C1159.06 1532.77 1161.13 1530.71 1163.68 1530.71C1166.23 1530.71 1168.29 1532.77 1168.29 1535.32Z"
                      fill="#92DDDA" fill-opacity="0.7"/>
                <path d="M1195.97 1535.32C1195.97 1537.87 1193.9 1539.94 1191.35 1539.94C1188.81 1539.94 1186.74 1537.87 1186.74 1535.32C1186.74 1532.77 1188.81 1530.71 1191.35 1530.71C1193.9 1530.71 1195.97 1532.77 1195.97 1535.32Z"
                      fill="#92DDDA" fill-opacity="0.7"/>
                <path d="M1223.65 1535.32C1223.65 1537.87 1221.58 1539.94 1219.03 1539.94C1216.48 1539.94 1214.42 1537.87 1214.42 1535.32C1214.42 1532.77 1216.48 1530.71 1219.03 1530.71C1221.58 1530.71 1223.65 1532.77 1223.65 1535.32Z"
                      fill="#92DDDA" fill-opacity="0.7"/>
                <path d="M1251.32 1535.32C1251.32 1537.87 1249.26 1539.94 1246.71 1539.94C1244.16 1539.94 1242.1 1537.87 1242.1 1535.32C1242.1 1532.77 1244.16 1530.71 1246.71 1530.71C1249.26 1530.71 1251.32 1532.77 1251.32 1535.32Z"
                      fill="#92DDDA" fill-opacity="0.7"/>
                <path d="M1279 1535.32C1279 1537.87 1276.93 1539.94 1274.39 1539.94C1271.84 1539.94 1269.77 1537.87 1269.77 1535.32C1269.77 1532.77 1271.84 1530.71 1274.39 1530.71C1276.93 1530.71 1279 1532.77 1279 1535.32Z"
                      fill="#92DDDA" fill-opacity="0.7"/>
                <path d="M1002.23 1563C1002.23 1565.55 1000.16 1567.61 997.613 1567.61C995.065 1567.61 993 1565.55 993 1563C993 1560.45 995.065 1558.39 997.613 1558.39C1000.16 1558.39 1002.23 1560.45 1002.23 1563Z"
                      fill="#92DDDA" fill-opacity="0.7"/>
                <path d="M1029.9 1563C1029.9 1565.55 1027.84 1567.61 1025.29 1567.61C1022.74 1567.61 1020.68 1565.55 1020.68 1563C1020.68 1560.45 1022.74 1558.39 1025.29 1558.39C1027.84 1558.39 1029.9 1560.45 1029.9 1563Z"
                      fill="#92DDDA" fill-opacity="0.7"/>
                <path d="M1057.58 1563C1057.58 1565.55 1055.52 1567.61 1052.97 1567.61C1050.42 1567.61 1048.35 1565.55 1048.35 1563C1048.35 1560.45 1050.42 1558.39 1052.97 1558.39C1055.52 1558.39 1057.58 1560.45 1057.58 1563Z"
                      fill="#92DDDA" fill-opacity="0.7"/>
                <path d="M1085.26 1563C1085.26 1565.55 1083.19 1567.61 1080.65 1567.61C1078.1 1567.61 1076.03 1565.55 1076.03 1563C1076.03 1560.45 1078.1 1558.39 1080.65 1558.39C1083.19 1558.39 1085.26 1560.45 1085.26 1563Z"
                      fill="#92DDDA" fill-opacity="0.7"/>
                <path d="M1112.94 1563C1112.94 1565.55 1110.87 1567.61 1108.32 1567.61C1105.77 1567.61 1103.71 1565.55 1103.71 1563C1103.71 1560.45 1105.77 1558.39 1108.32 1558.39C1110.87 1558.39 1112.94 1560.45 1112.94 1563Z"
                      fill="#92DDDA" fill-opacity="0.7"/>
                <path d="M1140.61 1563C1140.61 1565.55 1138.55 1567.61 1136 1567.61C1133.45 1567.61 1131.39 1565.55 1131.39 1563C1131.39 1560.45 1133.45 1558.39 1136 1558.39C1138.55 1558.39 1140.61 1560.45 1140.61 1563Z"
                      fill="#92DDDA" fill-opacity="0.7"/>
                <path d="M1168.29 1563C1168.29 1565.55 1166.23 1567.61 1163.68 1567.61C1161.13 1567.61 1159.06 1565.55 1159.06 1563C1159.06 1560.45 1161.13 1558.39 1163.68 1558.39C1166.23 1558.39 1168.29 1560.45 1168.29 1563Z"
                      fill="#92DDDA" fill-opacity="0.7"/>
                <path d="M1195.97 1563C1195.97 1565.55 1193.9 1567.61 1191.35 1567.61C1188.81 1567.61 1186.74 1565.55 1186.74 1563C1186.74 1560.45 1188.81 1558.39 1191.35 1558.39C1193.9 1558.39 1195.97 1560.45 1195.97 1563Z"
                      fill="#92DDDA" fill-opacity="0.7"/>
                <path d="M1223.65 1563C1223.65 1565.55 1221.58 1567.61 1219.03 1567.61C1216.48 1567.61 1214.42 1565.55 1214.42 1563C1214.42 1560.45 1216.48 1558.39 1219.03 1558.39C1221.58 1558.39 1223.65 1560.45 1223.65 1563Z"
                      fill="#92DDDA" fill-opacity="0.7"/>
                <path d="M1251.32 1563C1251.32 1565.55 1249.26 1567.61 1246.71 1567.61C1244.16 1567.61 1242.1 1565.55 1242.1 1563C1242.1 1560.45 1244.16 1558.39 1246.71 1558.39C1249.26 1558.39 1251.32 1560.45 1251.32 1563Z"
                      fill="#92DDDA" fill-opacity="0.7"/>
                <path d="M1279 1563C1279 1565.55 1276.93 1567.61 1274.39 1567.61C1271.84 1567.61 1269.77 1565.55 1269.77 1563C1269.77 1560.45 1271.84 1558.39 1274.39 1558.39C1276.93 1558.39 1279 1560.45 1279 1563Z"
                      fill="#92DDDA" fill-opacity="0.7"/>
                <path d="M1002.23 1590.68C1002.23 1593.23 1000.16 1595.29 997.613 1595.29C995.065 1595.29 993 1593.23 993 1590.68C993 1588.13 995.065 1586.06 997.613 1586.06C1000.16 1586.06 1002.23 1588.13 1002.23 1590.68Z"
                      fill="#92DDDA" fill-opacity="0.7"/>
                <path d="M1029.9 1590.68C1029.9 1593.23 1027.84 1595.29 1025.29 1595.29C1022.74 1595.29 1020.68 1593.23 1020.68 1590.68C1020.68 1588.13 1022.74 1586.06 1025.29 1586.06C1027.84 1586.06 1029.9 1588.13 1029.9 1590.68Z"
                      fill="#92DDDA" fill-opacity="0.7"/>
                <path d="M1057.58 1590.68C1057.58 1593.23 1055.52 1595.29 1052.97 1595.29C1050.42 1595.29 1048.35 1593.23 1048.35 1590.68C1048.35 1588.13 1050.42 1586.06 1052.97 1586.06C1055.52 1586.06 1057.58 1588.13 1057.58 1590.68Z"
                      fill="#92DDDA" fill-opacity="0.7"/>
                <path d="M1085.26 1590.68C1085.26 1593.23 1083.19 1595.29 1080.65 1595.29C1078.1 1595.29 1076.03 1593.23 1076.03 1590.68C1076.03 1588.13 1078.1 1586.06 1080.65 1586.06C1083.19 1586.06 1085.26 1588.13 1085.26 1590.68Z"
                      fill="#92DDDA" fill-opacity="0.7"/>
                <path d="M1112.94 1590.68C1112.94 1593.23 1110.87 1595.29 1108.32 1595.29C1105.77 1595.29 1103.71 1593.23 1103.71 1590.68C1103.71 1588.13 1105.77 1586.06 1108.32 1586.06C1110.87 1586.06 1112.94 1588.13 1112.94 1590.68Z"
                      fill="#92DDDA" fill-opacity="0.7"/>
                <path d="M1140.61 1590.68C1140.61 1593.23 1138.55 1595.29 1136 1595.29C1133.45 1595.29 1131.39 1593.23 1131.39 1590.68C1131.39 1588.13 1133.45 1586.06 1136 1586.06C1138.55 1586.06 1140.61 1588.13 1140.61 1590.68Z"
                      fill="#92DDDA" fill-opacity="0.7"/>
                <path d="M1168.29 1590.68C1168.29 1593.23 1166.23 1595.29 1163.68 1595.29C1161.13 1595.29 1159.06 1593.23 1159.06 1590.68C1159.06 1588.13 1161.13 1586.06 1163.68 1586.06C1166.23 1586.06 1168.29 1588.13 1168.29 1590.68Z"
                      fill="#92DDDA" fill-opacity="0.7"/>
                <path d="M1195.97 1590.68C1195.97 1593.23 1193.9 1595.29 1191.35 1595.29C1188.81 1595.29 1186.74 1593.23 1186.74 1590.68C1186.74 1588.13 1188.81 1586.06 1191.35 1586.06C1193.9 1586.06 1195.97 1588.13 1195.97 1590.68Z"
                      fill="#92DDDA" fill-opacity="0.7"/>
                <path d="M1223.65 1590.68C1223.65 1593.23 1221.58 1595.29 1219.03 1595.29C1216.48 1595.29 1214.42 1593.23 1214.42 1590.68C1214.42 1588.13 1216.48 1586.06 1219.03 1586.06C1221.58 1586.06 1223.65 1588.13 1223.65 1590.68Z"
                      fill="#92DDDA" fill-opacity="0.7"/>
                <path d="M1251.32 1590.68C1251.32 1593.23 1249.26 1595.29 1246.71 1595.29C1244.16 1595.29 1242.1 1593.23 1242.1 1590.68C1242.1 1588.13 1244.16 1586.06 1246.71 1586.06C1249.26 1586.06 1251.32 1588.13 1251.32 1590.68Z"
                      fill="#92DDDA" fill-opacity="0.7"/>
                <path d="M1279 1590.68C1279 1593.23 1276.93 1595.29 1274.39 1595.29C1271.84 1595.29 1269.77 1593.23 1269.77 1590.68C1269.77 1588.13 1271.84 1586.06 1274.39 1586.06C1276.93 1586.06 1279 1588.13 1279 1590.68Z"
                      fill="#92DDDA" fill-opacity="0.7"/>
                <path d="M1002.23 1618.35C1002.23 1620.9 1000.16 1622.97 997.613 1622.97C995.065 1622.97 993 1620.9 993 1618.35C993 1615.81 995.065 1613.74 997.613 1613.74C1000.16 1613.74 1002.23 1615.81 1002.23 1618.35Z"
                      fill="#92DDDA" fill-opacity="0.7"/>
                <path d="M1029.9 1618.35C1029.9 1620.9 1027.84 1622.97 1025.29 1622.97C1022.74 1622.97 1020.68 1620.9 1020.68 1618.35C1020.68 1615.81 1022.74 1613.74 1025.29 1613.74C1027.84 1613.74 1029.9 1615.81 1029.9 1618.35Z"
                      fill="#92DDDA" fill-opacity="0.7"/>
                <path d="M1057.58 1618.35C1057.58 1620.9 1055.52 1622.97 1052.97 1622.97C1050.42 1622.97 1048.35 1620.9 1048.35 1618.35C1048.35 1615.81 1050.42 1613.74 1052.97 1613.74C1055.52 1613.74 1057.58 1615.81 1057.58 1618.35Z"
                      fill="#92DDDA" fill-opacity="0.7"/>
                <path d="M1085.26 1618.35C1085.26 1620.9 1083.19 1622.97 1080.65 1622.97C1078.1 1622.97 1076.03 1620.9 1076.03 1618.35C1076.03 1615.81 1078.1 1613.74 1080.65 1613.74C1083.19 1613.74 1085.26 1615.81 1085.26 1618.35Z"
                      fill="#92DDDA" fill-opacity="0.7"/>
                <path d="M1112.94 1618.35C1112.94 1620.9 1110.87 1622.97 1108.32 1622.97C1105.77 1622.97 1103.71 1620.9 1103.71 1618.35C1103.71 1615.81 1105.77 1613.74 1108.32 1613.74C1110.87 1613.74 1112.94 1615.81 1112.94 1618.35Z"
                      fill="#92DDDA" fill-opacity="0.7"/>
                <path d="M1140.61 1618.35C1140.61 1620.9 1138.55 1622.97 1136 1622.97C1133.45 1622.97 1131.39 1620.9 1131.39 1618.35C1131.39 1615.81 1133.45 1613.74 1136 1613.74C1138.55 1613.74 1140.61 1615.81 1140.61 1618.35Z"
                      fill="#92DDDA" fill-opacity="0.7"/>
                <path d="M1168.29 1618.35C1168.29 1620.9 1166.23 1622.97 1163.68 1622.97C1161.13 1622.97 1159.06 1620.9 1159.06 1618.35C1159.06 1615.81 1161.13 1613.74 1163.68 1613.74C1166.23 1613.74 1168.29 1615.81 1168.29 1618.35Z"
                      fill="#92DDDA" fill-opacity="0.7"/>
                <path d="M1195.97 1618.35C1195.97 1620.9 1193.9 1622.97 1191.35 1622.97C1188.81 1622.97 1186.74 1620.9 1186.74 1618.35C1186.74 1615.81 1188.81 1613.74 1191.35 1613.74C1193.9 1613.74 1195.97 1615.81 1195.97 1618.35Z"
                      fill="#92DDDA" fill-opacity="0.7"/>
                <path d="M1223.65 1618.35C1223.65 1620.9 1221.58 1622.97 1219.03 1622.97C1216.48 1622.97 1214.42 1620.9 1214.42 1618.35C1214.42 1615.81 1216.48 1613.74 1219.03 1613.74C1221.58 1613.74 1223.65 1615.81 1223.65 1618.35Z"
                      fill="#92DDDA" fill-opacity="0.7"/>
                <path d="M1251.32 1618.35C1251.32 1620.9 1249.26 1622.97 1246.71 1622.97C1244.16 1622.97 1242.1 1620.9 1242.1 1618.35C1242.1 1615.81 1244.16 1613.74 1246.71 1613.74C1249.26 1613.74 1251.32 1615.81 1251.32 1618.35Z"
                      fill="#92DDDA" fill-opacity="0.7"/>
                <path d="M1279 1618.35C1279 1620.9 1276.93 1622.97 1274.39 1622.97C1271.84 1622.97 1269.77 1620.9 1269.77 1618.35C1269.77 1615.81 1271.84 1613.74 1274.39 1613.74C1276.93 1613.74 1279 1615.81 1279 1618.35Z"
                      fill="#92DDDA" fill-opacity="0.7"/>
                <path d="M1002.23 1646.03C1002.23 1648.58 1000.16 1650.65 997.613 1650.65C995.065 1650.65 993 1648.58 993 1646.03C993 1643.48 995.065 1641.42 997.613 1641.42C1000.16 1641.42 1002.23 1643.48 1002.23 1646.03Z"
                      fill="#92DDDA" fill-opacity="0.7"/>
                <path d="M1029.9 1646.03C1029.9 1648.58 1027.84 1650.65 1025.29 1650.65C1022.74 1650.65 1020.68 1648.58 1020.68 1646.03C1020.68 1643.48 1022.74 1641.42 1025.29 1641.42C1027.84 1641.42 1029.9 1643.48 1029.9 1646.03Z"
                      fill="#92DDDA" fill-opacity="0.7"/>
                <path d="M1057.58 1646.03C1057.58 1648.58 1055.52 1650.65 1052.97 1650.65C1050.42 1650.65 1048.35 1648.58 1048.35 1646.03C1048.35 1643.48 1050.42 1641.42 1052.97 1641.42C1055.52 1641.42 1057.58 1643.48 1057.58 1646.03Z"
                      fill="#92DDDA" fill-opacity="0.7"/>
                <path d="M1085.26 1646.03C1085.26 1648.58 1083.19 1650.65 1080.65 1650.65C1078.1 1650.65 1076.03 1648.58 1076.03 1646.03C1076.03 1643.48 1078.1 1641.42 1080.65 1641.42C1083.19 1641.42 1085.26 1643.48 1085.26 1646.03Z"
                      fill="#92DDDA" fill-opacity="0.7"/>
                <path d="M1112.94 1646.03C1112.94 1648.58 1110.87 1650.65 1108.32 1650.65C1105.77 1650.65 1103.71 1648.58 1103.71 1646.03C1103.71 1643.48 1105.77 1641.42 1108.32 1641.42C1110.87 1641.42 1112.94 1643.48 1112.94 1646.03Z"
                      fill="#92DDDA" fill-opacity="0.7"/>
                <path d="M1140.61 1646.03C1140.61 1648.58 1138.55 1650.65 1136 1650.65C1133.45 1650.65 1131.39 1648.58 1131.39 1646.03C1131.39 1643.48 1133.45 1641.42 1136 1641.42C1138.55 1641.42 1140.61 1643.48 1140.61 1646.03Z"
                      fill="#92DDDA" fill-opacity="0.7"/>
                <path d="M1168.29 1646.03C1168.29 1648.58 1166.23 1650.65 1163.68 1650.65C1161.13 1650.65 1159.06 1648.58 1159.06 1646.03C1159.06 1643.48 1161.13 1641.42 1163.68 1641.42C1166.23 1641.42 1168.29 1643.48 1168.29 1646.03Z"
                      fill="#92DDDA" fill-opacity="0.7"/>
                <path d="M1195.97 1646.03C1195.97 1648.58 1193.9 1650.65 1191.35 1650.65C1188.81 1650.65 1186.74 1648.58 1186.74 1646.03C1186.74 1643.48 1188.81 1641.42 1191.35 1641.42C1193.9 1641.42 1195.97 1643.48 1195.97 1646.03Z"
                      fill="#92DDDA" fill-opacity="0.7"/>
                <path d="M1223.65 1646.03C1223.65 1648.58 1221.58 1650.65 1219.03 1650.65C1216.48 1650.65 1214.42 1648.58 1214.42 1646.03C1214.42 1643.48 1216.48 1641.42 1219.03 1641.42C1221.58 1641.42 1223.65 1643.48 1223.65 1646.03Z"
                      fill="#92DDDA" fill-opacity="0.7"/>
                <path d="M1251.32 1646.03C1251.32 1648.58 1249.26 1650.65 1246.71 1650.65C1244.16 1650.65 1242.1 1648.58 1242.1 1646.03C1242.1 1643.48 1244.16 1641.42 1246.71 1641.42C1249.26 1641.42 1251.32 1643.48 1251.32 1646.03Z"
                      fill="#92DDDA" fill-opacity="0.7"/>
                <path d="M1279 1646.03C1279 1648.58 1276.93 1650.65 1274.39 1650.65C1271.84 1650.65 1269.77 1648.58 1269.77 1646.03C1269.77 1643.48 1271.84 1641.42 1274.39 1641.42C1276.93 1641.42 1279 1643.48 1279 1646.03Z"
                      fill="#92DDDA" fill-opacity="0.7"/>
                <path d="M1002.23 1673.71C1002.23 1676.26 1000.16 1678.32 997.613 1678.32C995.065 1678.32 993 1676.26 993 1673.71C993 1671.16 995.065 1669.1 997.613 1669.1C1000.16 1669.1 1002.23 1671.16 1002.23 1673.71Z"
                      fill="#92DDDA" fill-opacity="0.7"/>
                <path d="M1029.9 1673.71C1029.9 1676.26 1027.84 1678.32 1025.29 1678.32C1022.74 1678.32 1020.68 1676.26 1020.68 1673.71C1020.68 1671.16 1022.74 1669.1 1025.29 1669.1C1027.84 1669.1 1029.9 1671.16 1029.9 1673.71Z"
                      fill="#92DDDA" fill-opacity="0.7"/>
                <path d="M1057.58 1673.71C1057.58 1676.26 1055.52 1678.32 1052.97 1678.32C1050.42 1678.32 1048.35 1676.26 1048.35 1673.71C1048.35 1671.16 1050.42 1669.1 1052.97 1669.1C1055.52 1669.1 1057.58 1671.16 1057.58 1673.71Z"
                      fill="#92DDDA" fill-opacity="0.7"/>
                <path d="M1085.26 1673.71C1085.26 1676.26 1083.19 1678.32 1080.65 1678.32C1078.1 1678.32 1076.03 1676.26 1076.03 1673.71C1076.03 1671.16 1078.1 1669.1 1080.65 1669.1C1083.19 1669.1 1085.26 1671.16 1085.26 1673.71Z"
                      fill="#92DDDA" fill-opacity="0.7"/>
                <path d="M1112.94 1673.71C1112.94 1676.26 1110.87 1678.32 1108.32 1678.32C1105.77 1678.32 1103.71 1676.26 1103.71 1673.71C1103.71 1671.16 1105.77 1669.1 1108.32 1669.1C1110.87 1669.1 1112.94 1671.16 1112.94 1673.71Z"
                      fill="#92DDDA" fill-opacity="0.7"/>
                <path d="M1140.61 1673.71C1140.61 1676.26 1138.55 1678.32 1136 1678.32C1133.45 1678.32 1131.39 1676.26 1131.39 1673.71C1131.39 1671.16 1133.45 1669.1 1136 1669.1C1138.55 1669.1 1140.61 1671.16 1140.61 1673.71Z"
                      fill="#92DDDA" fill-opacity="0.7"/>
                <path d="M1168.29 1673.71C1168.29 1676.26 1166.23 1678.32 1163.68 1678.32C1161.13 1678.32 1159.06 1676.26 1159.06 1673.71C1159.06 1671.16 1161.13 1669.1 1163.68 1669.1C1166.23 1669.1 1168.29 1671.16 1168.29 1673.71Z"
                      fill="#92DDDA" fill-opacity="0.7"/>
                <path d="M1195.97 1673.71C1195.97 1676.26 1193.9 1678.32 1191.35 1678.32C1188.81 1678.32 1186.74 1676.26 1186.74 1673.71C1186.74 1671.16 1188.81 1669.1 1191.35 1669.1C1193.9 1669.1 1195.97 1671.16 1195.97 1673.71Z"
                      fill="#92DDDA" fill-opacity="0.7"/>
                <path d="M1223.65 1673.71C1223.65 1676.26 1221.58 1678.32 1219.03 1678.32C1216.48 1678.32 1214.42 1676.26 1214.42 1673.71C1214.42 1671.16 1216.48 1669.1 1219.03 1669.1C1221.58 1669.1 1223.65 1671.16 1223.65 1673.71Z"
                      fill="#92DDDA" fill-opacity="0.7"/>
                <path d="M1251.32 1673.71C1251.32 1676.26 1249.26 1678.32 1246.71 1678.32C1244.16 1678.32 1242.1 1676.26 1242.1 1673.71C1242.1 1671.16 1244.16 1669.1 1246.71 1669.1C1249.26 1669.1 1251.32 1671.16 1251.32 1673.71Z"
                      fill="#92DDDA" fill-opacity="0.7"/>
                <path d="M1279 1673.71C1279 1676.26 1276.93 1678.32 1274.39 1678.32C1271.84 1678.32 1269.77 1676.26 1269.77 1673.71C1269.77 1671.16 1271.84 1669.1 1274.39 1669.1C1276.93 1669.1 1279 1671.16 1279 1673.71Z"
                      fill="#92DDDA" fill-opacity="0.7"/>
                <path d="M1002.23 1701.39C1002.23 1703.93 1000.16 1706 997.613 1706C995.065 1706 993 1703.93 993 1701.39C993 1698.84 995.065 1696.77 997.613 1696.77C1000.16 1696.77 1002.23 1698.84 1002.23 1701.39Z"
                      fill="#92DDDA" fill-opacity="0.7"/>
                <path d="M1029.9 1701.39C1029.9 1703.93 1027.84 1706 1025.29 1706C1022.74 1706 1020.68 1703.93 1020.68 1701.39C1020.68 1698.84 1022.74 1696.77 1025.29 1696.77C1027.84 1696.77 1029.9 1698.84 1029.9 1701.39Z"
                      fill="#92DDDA" fill-opacity="0.7"/>
                <path d="M1057.58 1701.39C1057.58 1703.93 1055.52 1706 1052.97 1706C1050.42 1706 1048.35 1703.93 1048.35 1701.39C1048.35 1698.84 1050.42 1696.77 1052.97 1696.77C1055.52 1696.77 1057.58 1698.84 1057.58 1701.39Z"
                      fill="#92DDDA" fill-opacity="0.7"/>
                <path d="M1085.26 1701.39C1085.26 1703.93 1083.19 1706 1080.65 1706C1078.1 1706 1076.03 1703.93 1076.03 1701.39C1076.03 1698.84 1078.1 1696.77 1080.65 1696.77C1083.19 1696.77 1085.26 1698.84 1085.26 1701.39Z"
                      fill="#92DDDA" fill-opacity="0.7"/>
                <path d="M1112.94 1701.39C1112.94 1703.93 1110.87 1706 1108.32 1706C1105.77 1706 1103.71 1703.93 1103.71 1701.39C1103.71 1698.84 1105.77 1696.77 1108.32 1696.77C1110.87 1696.77 1112.94 1698.84 1112.94 1701.39Z"
                      fill="#92DDDA" fill-opacity="0.7"/>
                <path d="M1140.61 1701.39C1140.61 1703.93 1138.55 1706 1136 1706C1133.45 1706 1131.39 1703.93 1131.39 1701.39C1131.39 1698.84 1133.45 1696.77 1136 1696.77C1138.55 1696.77 1140.61 1698.84 1140.61 1701.39Z"
                      fill="#92DDDA" fill-opacity="0.7"/>
                <path d="M1168.29 1701.39C1168.29 1703.93 1166.23 1706 1163.68 1706C1161.13 1706 1159.06 1703.93 1159.06 1701.39C1159.06 1698.84 1161.13 1696.77 1163.68 1696.77C1166.23 1696.77 1168.29 1698.84 1168.29 1701.39Z"
                      fill="#92DDDA" fill-opacity="0.7"/>
                <path d="M1195.97 1701.39C1195.97 1703.93 1193.9 1706 1191.35 1706C1188.81 1706 1186.74 1703.93 1186.74 1701.39C1186.74 1698.84 1188.81 1696.77 1191.35 1696.77C1193.9 1696.77 1195.97 1698.84 1195.97 1701.39Z"
                      fill="#92DDDA" fill-opacity="0.7"/>
                <path d="M1223.65 1701.39C1223.65 1703.93 1221.58 1706 1219.03 1706C1216.48 1706 1214.42 1703.93 1214.42 1701.39C1214.42 1698.84 1216.48 1696.77 1219.03 1696.77C1221.58 1696.77 1223.65 1698.84 1223.65 1701.39Z"
                      fill="#92DDDA" fill-opacity="0.7"/>
                <path d="M1251.32 1701.39C1251.32 1703.93 1249.26 1706 1246.71 1706C1244.16 1706 1242.1 1703.93 1242.1 1701.39C1242.1 1698.84 1244.16 1696.77 1246.71 1696.77C1249.26 1696.77 1251.32 1698.84 1251.32 1701.39Z"
                      fill="#92DDDA" fill-opacity="0.7"/>
                <path d="M1279 1701.39C1279 1703.93 1276.93 1706 1274.39 1706C1271.84 1706 1269.77 1703.93 1269.77 1701.39C1269.77 1698.84 1271.84 1696.77 1274.39 1696.77C1276.93 1696.77 1279 1698.84 1279 1701.39Z"
                      fill="#92DDDA" fill-opacity="0.7"/>
            </g>
            <rect x="156" y="159" width="1200" height="1549" rx="18" fill="#BAE8FC" fill-opacity="0.64"/>
            <g filter="url(#filter1_f_483_81)">
                <path d="M774.075 312.604C775.518 312.792 775.877 314.717 774.599 315.41L761.907 322.289C761.336 322.599 761.029 323.242 761.149 323.881L763.794 338.046C764.06 339.474 762.345 340.407 761.289 339.41L750.788 329.492C750.316 329.046 749.612 328.954 749.042 329.263L736.338 336.149C735.061 336.841 733.641 335.494 734.268 334.183L740.477 321.185C740.758 320.597 740.627 319.895 740.153 319.448L729.668 309.545C728.61 308.547 729.448 306.781 730.89 306.969L745.229 308.84C745.872 308.924 746.496 308.585 746.775 308L752.994 294.982C753.62 293.672 755.557 293.928 755.823 295.356L758.468 309.521C758.587 310.161 759.105 310.651 759.75 310.735L774.075 312.604Z"
                      fill="url(#paint1_linear_483_81)"/>
            </g>
            <rect x="360" y="74" width="28" height="112" rx="14" fill="#225C90"/>
            <rect x="1141" y="74" width="28" height="112" rx="14" fill="#225C90"/>
            <path fill-rule="evenodd" clip-rule="evenodd" d="M1328 934H1163V1099H1301.44L1328 1076.15V934Z"
                  fill="#FFCDF7"/>
            <path d="M1328 1076.15L1301.44 1099V1073.05L1328 1076.15Z" fill="#FFB3F3"/>
        </g>
        <g filter="url(#filter2_d_483_81)">
            <rect x="-79.0498" y="310.029" width="499.034" height="413.869" rx="15.2097"
                  transform="rotate(-104.975 -79.0498 310.029)" fill="#BAE8FC"/>
            <rect x="-65.5459" y="285.292" width="458.414" height="373.246" rx="13.1817"
                  transform="rotate(-104.975 -65.5459 285.292)" fill="url(#paint2_linear_483_81)"/>
        </g>
    </g>
    <defs>
        <filter id="filter0_f_483_81" x="987" y="1414" width="298" height="298" filterUnits="userSpaceOnUse"
                color-interpolation-filters="sRGB">
            <feFlood flood-opacity="0" result="BackgroundImageFix"/>
            <feBlend mode="normal" in="SourceGraphic" in2="BackgroundImageFix" result="shape"/>
            <feGaussianBlur stdDeviation="3" result="effect1_foregroundBlur_483_81"/>
        </filter>
        <filter id="filter1_f_483_81" x="725.192" y="290.129" width="54.1914" height="53.6962"
                filterUnits="userSpaceOnUse" color-interpolation-filters="sRGB">
            <feFlood flood-opacity="0" result="BackgroundImageFix"/>
            <feBlend mode="normal" in="SourceGraphic" in2="BackgroundImageFix" result="shape"/>
            <feGaussianBlur stdDeviation="2" result="effect1_foregroundBlur_483_81"/>
        </filter>
        <filter id="filter2_d_483_81" x="-224" y="-287" width="560.763" height="621.029" filterUnits="userSpaceOnUse"
                color-interpolation-filters="sRGB">
            <feFlood flood-opacity="0" result="BackgroundImageFix"/>
            <feColorMatrix in="SourceAlpha" type="matrix" values="0 0 0 0 0 0 0 0 0 0 0 0 0 0 0 0 0 0 127 0"
                           result="hardAlpha"/>
            <feOffset dy="8"/>
            <feGaussianBlur stdDeviation="8"/>
            <feComposite in2="hardAlpha" operator="out"/>
            <feColorMatrix type="matrix" values="0 0 0 0 0.0987707 0 0 0 0 0.102603 0 0 0 0 0.105378 0 0 0 0.1 0"/>
            <feBlend mode="normal" in2="BackgroundImageFix" result="effect1_dropShadow_483_81"/>
            <feBlend mode="normal" in="SourceGraphic" in2="effect1_dropShadow_483_81" result="shape"/>
        </filter>
        <linearGradient id="paint0_linear_483_81" x1="756" y1="-537.103" x2="756" y2="3774"
                        gradientUnits="userSpaceOnUse">
            <stop stop-color="#0796D3" stop-opacity="0.25"/>
            <stop offset="0.475713" stop-color="#FFCDF7" stop-opacity="0.2"/>
            <stop offset="1" stop-color="white" stop-opacity="0.05"/>
        </linearGradient>
        <linearGradient id="paint1_linear_483_81" x1="746.295" y1="291.062" x2="756.387" y2="345.481"
                        gradientUnits="userSpaceOnUse">
            <stop stop-color="#FFCDF7"/>
            <stop offset="1" stop-color="#0DAEF1"/>
        </linearGradient>
        <linearGradient id="paint2_linear_483_81" x1="392.868" y1="471.915" x2="68.6942" y2="866.109"
                        gradientUnits="userSpaceOnUse">
            <stop stop-color="#8EDEFF"/>
            <stop offset="1" stop-color="#FDFAFC"/>
        </linearGradient>
        <clipPath id="clip0_483_81">
            <rect width="1512" height="9423" fill="white" transform="translate(0 -3976)"/>
        </clipPath>
        <clipPath id="clip1_483_81">
            <rect width="1512" height="5448" fill="white" transform="translate(0 -1)"/>
        </clipPath>
    </defs>
</svg>
