<svg xmlns="http://www.w3.org/2000/svg" width="1508" height="1827" fill="none" preserveAspectRatio="none"><path fill="#EBEBEA" d="M-14079-5098c0-1.1.9-2 2-2H2439a2 2 0 0 1 2 2V7071a2 2 0 0 1-2 2h-16516c-1.1 0-2-.9-2-2z"/><path fill="#000" fill-opacity=".1" d="M-14077-5099H2439v-2h-16516zm16517 1V7071h2V-5098zm-1 12170h-16516v2H2439zm-16517-1V-5098h-2V7071zm1 1c-.6 0-1-.45-1-1h-2c0 1.66 1.3 3 3 3zm16517-1c0 .55-.45 1-1 1v2c1.66 0 3-1.34 3-3zm-1-12170c.55 0 1 .45 1 1h2c0-1.66-1.34-3-3-3zm-16516-2c-1.7 0-3 1.34-3 3h2c0-.55.4-1 1-1z"/><g clip-path="url(#a)"><path fill="#fff" d="M0-3976h1512v9423H0z"/><g clip-path="url(#b)"><path fill="url(#c)" d="M0 0h1512v5448H0z" transform="translate(0 -1)"/><path stroke="#225C90" d="M80-26v1613M170.137-26v1613M260.27-26v1613M350.402-26v1613M440.539-26v1613M530.668-26v1613M620.801-26v1613M710.938-26v1613M801.07-26v1613M891.199-26v1613M981.34-26v1613m90.13-1613v1613M1161.6-26v1613m90.14-1613v1613m90.13-1613v1613M1432-26v1613m-1352 0h1352M80 1440.36h1352M80 1293.73h1352M80 1147.09h1352M80 1000.45h1352M80 853.818h1352M80 707.181h1352M80 560.543h1352M80 413.909h1352M80 267.272h1352M80 120.635h1352" opacity=".5" style="mix-blend-mode:hard-light"/><g fill="#92DDDA" fill-opacity=".7" filter="url(#d)" style="mix-blend-mode:soft-light"><path d="M1002.23 1424.61c0 2.55-2.07 4.62-4.617 4.62a4.615 4.615 0 1 1 4.617-4.62m27.67 0c0 2.55-2.06 4.62-4.61 4.62s-4.61-2.07-4.61-4.62c0-2.54 2.06-4.61 4.61-4.61s4.61 2.07 4.61 4.61m27.68 0c0 2.55-2.06 4.62-4.61 4.62s-4.62-2.07-4.62-4.62a4.62 4.62 0 0 1 4.62-4.61c2.55 0 4.61 2.07 4.61 4.61m27.68 0a4.62 4.62 0 0 1-4.61 4.62c-2.55 0-4.62-2.07-4.62-4.62a4.62 4.62 0 0 1 4.62-4.61c2.54 0 4.61 2.07 4.61 4.61m27.68 0c0 2.55-2.07 4.62-4.62 4.62s-4.61-2.07-4.61-4.62c0-2.54 2.06-4.61 4.61-4.61a4.62 4.62 0 0 1 4.62 4.61m27.67 0c0 2.55-2.06 4.62-4.61 4.62s-4.61-2.07-4.61-4.62c0-2.54 2.06-4.61 4.61-4.61s4.61 2.07 4.61 4.61m27.68 0c0 2.55-2.06 4.62-4.61 4.62s-4.62-2.07-4.62-4.62a4.62 4.62 0 0 1 4.62-4.61c2.55 0 4.61 2.07 4.61 4.61m27.68 0c0 2.55-2.07 4.62-4.62 4.62a4.62 4.62 0 0 1-4.61-4.62c0-2.54 2.07-4.61 4.61-4.61a4.62 4.62 0 0 1 4.62 4.61m27.68 0c0 2.55-2.07 4.62-4.62 4.62s-4.61-2.07-4.61-4.62c0-2.54 2.06-4.61 4.61-4.61a4.62 4.62 0 0 1 4.62 4.61m27.67 0c0 2.55-2.06 4.62-4.61 4.62s-4.61-2.07-4.61-4.62c0-2.54 2.06-4.61 4.61-4.61s4.61 2.07 4.61 4.61m27.68 0a4.62 4.62 0 0 1-4.61 4.62c-2.55 0-4.62-2.07-4.62-4.62a4.62 4.62 0 0 1 4.62-4.61c2.54 0 4.61 2.07 4.61 4.61m-276.77 27.68c0 2.55-2.07 4.61-4.617 4.61a4.61 4.61 0 0 1-4.613-4.61c0-2.55 2.065-4.61 4.613-4.61a4.613 4.613 0 0 1 4.617 4.61m27.67 0c0 2.55-2.06 4.61-4.61 4.61s-4.61-2.06-4.61-4.61 2.06-4.61 4.61-4.61 4.61 2.06 4.61 4.61m27.68 0c0 2.55-2.06 4.61-4.61 4.61s-4.62-2.06-4.62-4.61 2.07-4.61 4.62-4.61 4.61 2.06 4.61 4.61m27.68 0c0 2.55-2.07 4.61-4.61 4.61-2.55 0-4.62-2.06-4.62-4.61s2.07-4.61 4.62-4.61c2.54 0 4.61 2.06 4.61 4.61m27.68 0c0 2.55-2.07 4.61-4.62 4.61s-4.61-2.06-4.61-4.61 2.06-4.61 4.61-4.61 4.62 2.06 4.62 4.61m27.67 0c0 2.55-2.06 4.61-4.61 4.61s-4.61-2.06-4.61-4.61 2.06-4.61 4.61-4.61 4.61 2.06 4.61 4.61m27.68 0c0 2.55-2.06 4.61-4.61 4.61s-4.62-2.06-4.62-4.61 2.07-4.61 4.62-4.61 4.61 2.06 4.61 4.61m27.68 0c0 2.55-2.07 4.61-4.62 4.61-2.54 0-4.61-2.06-4.61-4.61s2.07-4.61 4.61-4.61c2.55 0 4.62 2.06 4.62 4.61m27.68 0c0 2.55-2.07 4.61-4.62 4.61s-4.61-2.06-4.61-4.61 2.06-4.61 4.61-4.61 4.62 2.06 4.62 4.61m27.67 0c0 2.55-2.06 4.61-4.61 4.61s-4.61-2.06-4.61-4.61 2.06-4.61 4.61-4.61 4.61 2.06 4.61 4.61m27.68 0c0 2.55-2.07 4.61-4.61 4.61-2.55 0-4.62-2.06-4.62-4.61s2.07-4.61 4.62-4.61c2.54 0 4.61 2.06 4.61 4.61m-276.77 27.68c0 2.55-2.07 4.61-4.617 4.61a4.61 4.61 0 0 1-4.613-4.61c0-2.55 2.065-4.62 4.613-4.62a4.62 4.62 0 0 1 4.617 4.62m27.67 0c0 2.55-2.06 4.61-4.61 4.61s-4.61-2.06-4.61-4.61 2.06-4.62 4.61-4.62 4.61 2.07 4.61 4.62m27.68 0c0 2.55-2.06 4.61-4.61 4.61s-4.62-2.06-4.62-4.61 2.07-4.62 4.62-4.62 4.61 2.07 4.61 4.62m27.68 0c0 2.55-2.07 4.61-4.61 4.61-2.55 0-4.62-2.06-4.62-4.61s2.07-4.62 4.62-4.62a4.62 4.62 0 0 1 4.61 4.62m27.68 0c0 2.55-2.07 4.61-4.62 4.61s-4.61-2.06-4.61-4.61 2.06-4.62 4.61-4.62 4.62 2.07 4.62 4.62m27.67 0c0 2.55-2.06 4.61-4.61 4.61s-4.61-2.06-4.61-4.61 2.06-4.62 4.61-4.62 4.61 2.07 4.61 4.62m27.68 0c0 2.55-2.06 4.61-4.61 4.61s-4.62-2.06-4.62-4.61 2.07-4.62 4.62-4.62 4.61 2.07 4.61 4.62m27.68 0c0 2.55-2.07 4.61-4.62 4.61-2.54 0-4.61-2.06-4.61-4.61a4.62 4.62 0 0 1 4.61-4.62c2.55 0 4.62 2.07 4.62 4.62m27.68 0c0 2.55-2.07 4.61-4.62 4.61s-4.61-2.06-4.61-4.61 2.06-4.62 4.61-4.62 4.62 2.07 4.62 4.62m27.67 0c0 2.55-2.06 4.61-4.61 4.61s-4.61-2.06-4.61-4.61 2.06-4.62 4.61-4.62 4.61 2.07 4.61 4.62m27.68 0c0 2.55-2.07 4.61-4.61 4.61-2.55 0-4.62-2.06-4.62-4.61s2.07-4.62 4.62-4.62a4.62 4.62 0 0 1 4.61 4.62m-276.77 27.68a4.615 4.615 0 1 1-4.617-4.62 4.62 4.62 0 0 1 4.617 4.62m27.67 0c0 2.54-2.06 4.61-4.61 4.61s-4.61-2.07-4.61-4.61c0-2.55 2.06-4.62 4.61-4.62s4.61 2.07 4.61 4.62m27.68 0c0 2.54-2.06 4.61-4.61 4.61a4.62 4.62 0 0 1-4.62-4.61c0-2.55 2.07-4.62 4.62-4.62s4.61 2.07 4.61 4.62m27.68 0c0 2.54-2.07 4.61-4.61 4.61a4.62 4.62 0 0 1-4.62-4.61c0-2.55 2.07-4.62 4.62-4.62a4.62 4.62 0 0 1 4.61 4.62m27.68 0a4.62 4.62 0 0 1-4.62 4.61c-2.55 0-4.61-2.07-4.61-4.61 0-2.55 2.06-4.62 4.61-4.62s4.62 2.07 4.62 4.62m27.67 0c0 2.54-2.06 4.61-4.61 4.61s-4.61-2.07-4.61-4.61c0-2.55 2.06-4.62 4.61-4.62s4.61 2.07 4.61 4.62m27.68 0c0 2.54-2.06 4.61-4.61 4.61a4.62 4.62 0 0 1-4.62-4.61c0-2.55 2.07-4.62 4.62-4.62s4.61 2.07 4.61 4.62m27.68 0a4.62 4.62 0 0 1-4.62 4.61c-2.54 0-4.61-2.07-4.61-4.61a4.62 4.62 0 0 1 4.61-4.62c2.55 0 4.62 2.07 4.62 4.62m27.68 0a4.62 4.62 0 0 1-4.62 4.61c-2.55 0-4.61-2.07-4.61-4.61 0-2.55 2.06-4.62 4.61-4.62s4.62 2.07 4.62 4.62m27.67 0c0 2.54-2.06 4.61-4.61 4.61s-4.61-2.07-4.61-4.61c0-2.55 2.06-4.62 4.61-4.62s4.61 2.07 4.61 4.62m27.68 0c0 2.54-2.07 4.61-4.61 4.61a4.62 4.62 0 0 1-4.62-4.61c0-2.55 2.07-4.62 4.62-4.62a4.62 4.62 0 0 1 4.61 4.62m-276.77 27.67c0 2.55-2.07 4.62-4.617 4.62a4.617 4.617 0 0 1-4.613-4.62c0-2.55 2.065-4.61 4.613-4.61a4.613 4.613 0 0 1 4.617 4.61m27.67 0c0 2.55-2.06 4.62-4.61 4.62s-4.61-2.07-4.61-4.62 2.06-4.61 4.61-4.61 4.61 2.06 4.61 4.61m27.68 0c0 2.55-2.06 4.62-4.61 4.62s-4.62-2.07-4.62-4.62 2.07-4.61 4.62-4.61 4.61 2.06 4.61 4.61m27.68 0a4.62 4.62 0 0 1-4.61 4.62c-2.55 0-4.62-2.07-4.62-4.62s2.07-4.61 4.62-4.61c2.54 0 4.61 2.06 4.61 4.61m27.68 0c0 2.55-2.07 4.62-4.62 4.62s-4.61-2.07-4.61-4.62 2.06-4.61 4.61-4.61 4.62 2.06 4.62 4.61m27.67 0c0 2.55-2.06 4.62-4.61 4.62s-4.61-2.07-4.61-4.62 2.06-4.61 4.61-4.61 4.61 2.06 4.61 4.61m27.68 0c0 2.55-2.06 4.62-4.61 4.62s-4.62-2.07-4.62-4.62 2.07-4.61 4.62-4.61 4.61 2.06 4.61 4.61m27.68 0c0 2.55-2.07 4.62-4.62 4.62a4.62 4.62 0 0 1-4.61-4.62c0-2.55 2.07-4.61 4.61-4.61 2.55 0 4.62 2.06 4.62 4.61m27.68 0c0 2.55-2.07 4.62-4.62 4.62s-4.61-2.07-4.61-4.62 2.06-4.61 4.61-4.61 4.62 2.06 4.62 4.61m27.67 0c0 2.55-2.06 4.62-4.61 4.62s-4.61-2.07-4.61-4.62 2.06-4.61 4.61-4.61 4.61 2.06 4.61 4.61m27.68 0a4.62 4.62 0 0 1-4.61 4.62c-2.55 0-4.62-2.07-4.62-4.62s2.07-4.61 4.62-4.61c2.54 0 4.61 2.06 4.61 4.61M1002.23 1563c0 2.55-2.07 4.61-4.617 4.61A4.61 4.61 0 0 1 993 1563c0-2.55 2.065-4.61 4.613-4.61a4.613 4.613 0 0 1 4.617 4.61m27.67 0c0 2.55-2.06 4.61-4.61 4.61s-4.61-2.06-4.61-4.61 2.06-4.61 4.61-4.61 4.61 2.06 4.61 4.61m27.68 0c0 2.55-2.06 4.61-4.61 4.61s-4.62-2.06-4.62-4.61 2.07-4.61 4.62-4.61 4.61 2.06 4.61 4.61m27.68 0c0 2.55-2.07 4.61-4.61 4.61-2.55 0-4.62-2.06-4.62-4.61s2.07-4.61 4.62-4.61c2.54 0 4.61 2.06 4.61 4.61m27.68 0c0 2.55-2.07 4.61-4.62 4.61s-4.61-2.06-4.61-4.61 2.06-4.61 4.61-4.61 4.62 2.06 4.62 4.61m27.67 0c0 2.55-2.06 4.61-4.61 4.61s-4.61-2.06-4.61-4.61 2.06-4.61 4.61-4.61 4.61 2.06 4.61 4.61m27.68 0c0 2.55-2.06 4.61-4.61 4.61s-4.62-2.06-4.62-4.61 2.07-4.61 4.62-4.61 4.61 2.06 4.61 4.61m27.68 0c0 2.55-2.07 4.61-4.62 4.61-2.54 0-4.61-2.06-4.61-4.61s2.07-4.61 4.61-4.61c2.55 0 4.62 2.06 4.62 4.61m27.68 0c0 2.55-2.07 4.61-4.62 4.61s-4.61-2.06-4.61-4.61 2.06-4.61 4.61-4.61 4.62 2.06 4.62 4.61m27.67 0c0 2.55-2.06 4.61-4.61 4.61s-4.61-2.06-4.61-4.61 2.06-4.61 4.61-4.61 4.61 2.06 4.61 4.61m27.68 0c0 2.55-2.07 4.61-4.61 4.61-2.55 0-4.62-2.06-4.62-4.61s2.07-4.61 4.62-4.61c2.54 0 4.61 2.06 4.61 4.61m-276.77 27.68c0 2.55-2.07 4.61-4.617 4.61a4.61 4.61 0 0 1-4.613-4.61c0-2.55 2.065-4.62 4.613-4.62a4.62 4.62 0 0 1 4.617 4.62m27.67 0c0 2.55-2.06 4.61-4.61 4.61s-4.61-2.06-4.61-4.61 2.06-4.62 4.61-4.62 4.61 2.07 4.61 4.62m27.68 0c0 2.55-2.06 4.61-4.61 4.61s-4.62-2.06-4.62-4.61 2.07-4.62 4.62-4.62 4.61 2.07 4.61 4.62m27.68 0c0 2.55-2.07 4.61-4.61 4.61-2.55 0-4.62-2.06-4.62-4.61s2.07-4.62 4.62-4.62a4.62 4.62 0 0 1 4.61 4.62m27.68 0c0 2.55-2.07 4.61-4.62 4.61s-4.61-2.06-4.61-4.61 2.06-4.62 4.61-4.62 4.62 2.07 4.62 4.62m27.67 0c0 2.55-2.06 4.61-4.61 4.61s-4.61-2.06-4.61-4.61 2.06-4.62 4.61-4.62 4.61 2.07 4.61 4.62m27.68 0c0 2.55-2.06 4.61-4.61 4.61s-4.62-2.06-4.62-4.61 2.07-4.62 4.62-4.62 4.61 2.07 4.61 4.62m27.68 0c0 2.55-2.07 4.61-4.62 4.61-2.54 0-4.61-2.06-4.61-4.61a4.62 4.62 0 0 1 4.61-4.62c2.55 0 4.62 2.07 4.62 4.62m27.68 0c0 2.55-2.07 4.61-4.62 4.61s-4.61-2.06-4.61-4.61 2.06-4.62 4.61-4.62 4.62 2.07 4.62 4.62m27.67 0c0 2.55-2.06 4.61-4.61 4.61s-4.61-2.06-4.61-4.61 2.06-4.62 4.61-4.62 4.61 2.07 4.61 4.62m27.68 0c0 2.55-2.07 4.61-4.61 4.61-2.55 0-4.62-2.06-4.62-4.61s2.07-4.62 4.62-4.62a4.62 4.62 0 0 1 4.61 4.62m-276.77 27.67c0 2.55-2.07 4.62-4.617 4.62a4.615 4.615 0 1 1 4.617-4.62m27.67 0c0 2.55-2.06 4.62-4.61 4.62s-4.61-2.07-4.61-4.62c0-2.54 2.06-4.61 4.61-4.61s4.61 2.07 4.61 4.61m27.68 0c0 2.55-2.06 4.62-4.61 4.62s-4.62-2.07-4.62-4.62a4.62 4.62 0 0 1 4.62-4.61c2.55 0 4.61 2.07 4.61 4.61m27.68 0a4.62 4.62 0 0 1-4.61 4.62c-2.55 0-4.62-2.07-4.62-4.62a4.62 4.62 0 0 1 4.62-4.61c2.54 0 4.61 2.07 4.61 4.61m27.68 0c0 2.55-2.07 4.62-4.62 4.62s-4.61-2.07-4.61-4.62c0-2.54 2.06-4.61 4.61-4.61a4.62 4.62 0 0 1 4.62 4.61m27.67 0c0 2.55-2.06 4.62-4.61 4.62s-4.61-2.07-4.61-4.62c0-2.54 2.06-4.61 4.61-4.61s4.61 2.07 4.61 4.61m27.68 0c0 2.55-2.06 4.62-4.61 4.62s-4.62-2.07-4.62-4.62a4.62 4.62 0 0 1 4.62-4.61c2.55 0 4.61 2.07 4.61 4.61m27.68 0c0 2.55-2.07 4.62-4.62 4.62a4.62 4.62 0 0 1-4.61-4.62c0-2.54 2.07-4.61 4.61-4.61a4.62 4.62 0 0 1 4.62 4.61m27.68 0c0 2.55-2.07 4.62-4.62 4.62s-4.61-2.07-4.61-4.62c0-2.54 2.06-4.61 4.61-4.61a4.62 4.62 0 0 1 4.62 4.61m27.67 0c0 2.55-2.06 4.62-4.61 4.62s-4.61-2.07-4.61-4.62c0-2.54 2.06-4.61 4.61-4.61s4.61 2.07 4.61 4.61m27.68 0a4.62 4.62 0 0 1-4.61 4.62c-2.55 0-4.62-2.07-4.62-4.62a4.62 4.62 0 0 1 4.62-4.61c2.54 0 4.61 2.07 4.61 4.61m-276.77 27.68c0 2.55-2.07 4.62-4.617 4.62a4.617 4.617 0 0 1-4.613-4.62c0-2.55 2.065-4.61 4.613-4.61a4.613 4.613 0 0 1 4.617 4.61m27.67 0c0 2.55-2.06 4.62-4.61 4.62s-4.61-2.07-4.61-4.62 2.06-4.61 4.61-4.61 4.61 2.06 4.61 4.61m27.68 0c0 2.55-2.06 4.62-4.61 4.62s-4.62-2.07-4.62-4.62 2.07-4.61 4.62-4.61 4.61 2.06 4.61 4.61m27.68 0a4.62 4.62 0 0 1-4.61 4.62c-2.55 0-4.62-2.07-4.62-4.62s2.07-4.61 4.62-4.61c2.54 0 4.61 2.06 4.61 4.61m27.68 0c0 2.55-2.07 4.62-4.62 4.62s-4.61-2.07-4.61-4.62 2.06-4.61 4.61-4.61 4.62 2.06 4.62 4.61m27.67 0c0 2.55-2.06 4.62-4.61 4.62s-4.61-2.07-4.61-4.62 2.06-4.61 4.61-4.61 4.61 2.06 4.61 4.61m27.68 0c0 2.55-2.06 4.62-4.61 4.62s-4.62-2.07-4.62-4.62 2.07-4.61 4.62-4.61 4.61 2.06 4.61 4.61m27.68 0c0 2.55-2.07 4.62-4.62 4.62a4.62 4.62 0 0 1-4.61-4.62c0-2.55 2.07-4.61 4.61-4.61 2.55 0 4.62 2.06 4.62 4.61m27.68 0c0 2.55-2.07 4.62-4.62 4.62s-4.61-2.07-4.61-4.62 2.06-4.61 4.61-4.61 4.62 2.06 4.62 4.61m27.67 0c0 2.55-2.06 4.62-4.61 4.62s-4.61-2.07-4.61-4.62 2.06-4.61 4.61-4.61 4.61 2.06 4.61 4.61m27.68 0a4.62 4.62 0 0 1-4.61 4.62c-2.55 0-4.62-2.07-4.62-4.62s2.07-4.61 4.62-4.61c2.54 0 4.61 2.06 4.61 4.61m-276.77 27.68c0 2.55-2.07 4.61-4.617 4.61a4.61 4.61 0 0 1-4.613-4.61c0-2.55 2.065-4.61 4.613-4.61a4.613 4.613 0 0 1 4.617 4.61m27.67 0c0 2.55-2.06 4.61-4.61 4.61s-4.61-2.06-4.61-4.61 2.06-4.61 4.61-4.61 4.61 2.06 4.61 4.61m27.68 0c0 2.55-2.06 4.61-4.61 4.61s-4.62-2.06-4.62-4.61 2.07-4.61 4.62-4.61 4.61 2.06 4.61 4.61m27.68 0c0 2.55-2.07 4.61-4.61 4.61-2.55 0-4.62-2.06-4.62-4.61s2.07-4.61 4.62-4.61c2.54 0 4.61 2.06 4.61 4.61m27.68 0c0 2.55-2.07 4.61-4.62 4.61s-4.61-2.06-4.61-4.61 2.06-4.61 4.61-4.61 4.62 2.06 4.62 4.61m27.67 0c0 2.55-2.06 4.61-4.61 4.61s-4.61-2.06-4.61-4.61 2.06-4.61 4.61-4.61 4.61 2.06 4.61 4.61m27.68 0c0 2.55-2.06 4.61-4.61 4.61s-4.62-2.06-4.62-4.61 2.07-4.61 4.62-4.61 4.61 2.06 4.61 4.61m27.68 0c0 2.55-2.07 4.61-4.62 4.61-2.54 0-4.61-2.06-4.61-4.61s2.07-4.61 4.61-4.61c2.55 0 4.62 2.06 4.62 4.61m27.68 0c0 2.55-2.07 4.61-4.62 4.61s-4.61-2.06-4.61-4.61 2.06-4.61 4.61-4.61 4.62 2.06 4.62 4.61m27.67 0c0 2.55-2.06 4.61-4.61 4.61s-4.61-2.06-4.61-4.61 2.06-4.61 4.61-4.61 4.61 2.06 4.61 4.61m27.68 0c0 2.55-2.07 4.61-4.61 4.61-2.55 0-4.62-2.06-4.62-4.61s2.07-4.61 4.62-4.61c2.54 0 4.61 2.06 4.61 4.61m-276.77 27.68a4.615 4.615 0 1 1-4.617-4.62 4.62 4.62 0 0 1 4.617 4.62m27.67 0c0 2.54-2.06 4.61-4.61 4.61s-4.61-2.07-4.61-4.61c0-2.55 2.06-4.62 4.61-4.62s4.61 2.07 4.61 4.62m27.68 0c0 2.54-2.06 4.61-4.61 4.61a4.62 4.62 0 0 1-4.62-4.61c0-2.55 2.07-4.62 4.62-4.62s4.61 2.07 4.61 4.62m27.68 0c0 2.54-2.07 4.61-4.61 4.61a4.62 4.62 0 0 1-4.62-4.61c0-2.55 2.07-4.62 4.62-4.62a4.62 4.62 0 0 1 4.61 4.62m27.68 0a4.62 4.62 0 0 1-4.62 4.61c-2.55 0-4.61-2.07-4.61-4.61 0-2.55 2.06-4.62 4.61-4.62s4.62 2.07 4.62 4.62m27.67 0c0 2.54-2.06 4.61-4.61 4.61s-4.61-2.07-4.61-4.61c0-2.55 2.06-4.62 4.61-4.62s4.61 2.07 4.61 4.62m27.68 0c0 2.54-2.06 4.61-4.61 4.61a4.62 4.62 0 0 1-4.62-4.61c0-2.55 2.07-4.62 4.62-4.62s4.61 2.07 4.61 4.62m27.68 0a4.62 4.62 0 0 1-4.62 4.61c-2.54 0-4.61-2.07-4.61-4.61a4.62 4.62 0 0 1 4.61-4.62c2.55 0 4.62 2.07 4.62 4.62m27.68 0a4.62 4.62 0 0 1-4.62 4.61c-2.55 0-4.61-2.07-4.61-4.61 0-2.55 2.06-4.62 4.61-4.62s4.62 2.07 4.62 4.62m27.67 0c0 2.54-2.06 4.61-4.61 4.61s-4.61-2.07-4.61-4.61c0-2.55 2.06-4.62 4.61-4.62s4.61 2.07 4.61 4.62m27.68 0c0 2.54-2.07 4.61-4.61 4.61a4.62 4.62 0 0 1-4.62-4.61c0-2.55 2.07-4.62 4.62-4.62a4.62 4.62 0 0 1 4.61 4.62"/></g><rect width="1200" height="1549" x="156" y="159" fill="#BAE8FC" fill-opacity=".64" rx="18"/><g filter="url(#e)"><path fill="url(#f)" d="M774.075 312.604c1.443.188 1.802 2.113.524 2.806l-12.692 6.879c-.571.31-.878.953-.758 1.592l2.645 14.165c.266 1.428-1.449 2.361-2.505 1.364l-10.501-9.918a1.5 1.5 0 0 0-1.746-.229l-12.704 6.886c-1.277.692-2.697-.655-2.07-1.966l6.209-12.998c.281-.588.15-1.29-.324-1.737l-10.485-9.903c-1.058-.998-.22-2.764 1.222-2.576l14.339 1.871a1.5 1.5 0 0 0 1.546-.84l6.219-13.018c.626-1.31 2.563-1.054 2.829.374l2.645 14.165c.119.64.637 1.13 1.282 1.214z"/></g><rect width="28" height="112" x="360" y="74" fill="#225C90" rx="14"/><rect width="28" height="112" x="1141" y="74" fill="#225C90" rx="14"/><path fill="#FFCDF7" fill-rule="evenodd" d="M1328 934h-165v165h138.44l26.56-22.85z" clip-rule="evenodd"/><path fill="#FFB3F3" d="m1328 1076.15-26.56 22.85v-25.95z"/></g><g filter="url(#g)"><rect width="499.034" height="413.869" x="-79.05" y="310.029" fill="#BAE8FC" rx="15.21" transform="rotate(-104.975 -79.05 310.029)"/><rect width="458.414" height="373.246" x="-65.546" y="285.292" fill="url(#h)" rx="13.182" transform="rotate(-104.975 -65.546 285.292)"/></g></g><defs><linearGradient id="c" x1="756" x2="756" y1="-537.103" y2="3774" gradientUnits="userSpaceOnUse"><stop stop-color="#0796D3" stop-opacity=".25"/><stop offset=".476" stop-color="#FFCDF7" stop-opacity=".2"/><stop offset="1" stop-color="#fff" stop-opacity=".05"/></linearGradient><linearGradient id="f" x1="746.295" x2="756.387" y1="291.062" y2="345.481" gradientUnits="userSpaceOnUse"><stop stop-color="#FFCDF7"/><stop offset="1" stop-color="#0DAEF1"/></linearGradient><linearGradient id="h" x1="392.868" x2="68.694" y1="471.915" y2="866.109" gradientUnits="userSpaceOnUse"><stop stop-color="#8EDEFF"/><stop offset="1" stop-color="#FDFAFC"/></linearGradient><filter id="d" width="298" height="298" x="987" y="1414" color-interpolation-filters="sRGB" filterUnits="userSpaceOnUse"><feFlood flood-opacity="0" result="BackgroundImageFix"/><feBlend in="SourceGraphic" in2="BackgroundImageFix" result="shape"/><feGaussianBlur result="effect1_foregroundBlur_483_81" stdDeviation="3"/></filter><filter id="e" width="54.191" height="53.696" x="725.192" y="290.129" color-interpolation-filters="sRGB" filterUnits="userSpaceOnUse"><feFlood flood-opacity="0" result="BackgroundImageFix"/><feBlend in="SourceGraphic" in2="BackgroundImageFix" result="shape"/><feGaussianBlur result="effect1_foregroundBlur_483_81" stdDeviation="2"/></filter><filter id="g" width="560.763" height="621.029" x="-224" y="-287" color-interpolation-filters="sRGB" filterUnits="userSpaceOnUse"><feFlood flood-opacity="0" result="BackgroundImageFix"/><feColorMatrix in="SourceAlpha" result="hardAlpha" values="0 0 0 0 0 0 0 0 0 0 0 0 0 0 0 0 0 0 127 0"/><feOffset dy="8"/><feGaussianBlur stdDeviation="8"/><feComposite in2="hardAlpha" operator="out"/><feColorMatrix values="0 0 0 0 0.0987707 0 0 0 0 0.102603 0 0 0 0 0.105378 0 0 0 0.1 0"/><feBlend in2="BackgroundImageFix" result="effect1_dropShadow_483_81"/><feBlend in="SourceGraphic" in2="effect1_dropShadow_483_81" result="shape"/></filter><clipPath id="a"><path fill="#fff" d="M0-3976h1512v9423H0z"/></clipPath><clipPath id="b"><path fill="#fff" d="M0-1h1512v5448H0z"/></clipPath></defs></svg>